<svg id="Layer_1" data-name="Layer 1" xmlns="http://www.w3.org/2000/svg" viewBox="0 0 1039.66 825.19"><defs><style>.cls-1{fill:#ea0f1e;}</style></defs><polygon class="cls-1" points="548.04 608.85 262.5 608.85 262.5 40.5 29.55 40.5 29.55 800.81 548.04 800.81 548.04 608.85"/><polygon class="cls-1" points="548.34 556.14 548.34 228.15 549.61 228.15 549.61 40.5 315.39 40.5 315.39 556.14 548.34 556.14"/><path class="cls-1" d="M948.64,217.91q-48.52-84.66-142.89-131T573.34,40.5H549.61V228.15h9.71q105.67,0,156.38,46.38t50.69,145.59q0,98.14-50.69,145.59-40,37.42-114.16,45.28V800.26q119.61-4.37,204.21-46.36Q900.1,707,948.64,621.79t48.54-201.67Q997.18,302.58,948.64,217.91Z"/></svg>