<?xml version="1.0" standalone="no"?>
<!DOCTYPE svg PUBLIC "-//W3C//DTD SVG 20010904//EN"
 "http://www.w3.org/TR/2001/REC-SVG-20010904/DTD/svg10.dtd">
<svg version="1.0" xmlns="http://www.w3.org/2000/svg"
 width="1040.000000pt" height="1040.000000pt" viewBox="0 0 1040.000000 1040.000000"
 preserveAspectRatio="xMidYMid meet">
<metadata>
Created by potrace 1.14, written by Peter Selinger 2001-2017
</metadata>
<g transform="translate(0.000000,1040.000000) scale(0.100000,-0.100000)"
fill="#000000" stroke="none">
<path d="M299 8915 c-4 -33 -3 -7595 1 -7597 3 0 1169 -2 2593 -3 l2587 -1 1
35 c1 47 1 1852 0 1871 -1 13 -165 15 -1425 15 -1418 0 -1425 0 -1428 20 -2
11 -3 1290 -3 2843 0 1552 -2 2823 -5 2823 -3 1 -526 2 -1162 3 -766 1 -1158
-2 -1159 -9z"/>
<path d="M3157 8915 c-2 -5 -3 -1166 -3 -2580 l1 -2570 1165 0 1165 0 1 1630
c1 897 2 1635 3 1641 2 17 369 9 529 -11 23 -3 63 -7 90 -10 26 -3 58 -8 72
-11 14 -2 39 -7 55 -9 67 -11 246 -52 275 -63 8 -3 17 -6 20 -7 3 -1 12 -4 20
-7 8 -3 51 -18 95 -33 44 -15 121 -48 170 -73 50 -25 100 -50 112 -56 13 -6
23 -14 23 -18 0 -5 6 -8 13 -8 8 0 22 -9 32 -20 10 -11 24 -20 32 -20 7 0 13
-4 13 -8 0 -4 14 -16 31 -26 54 -32 223 -210 281 -297 31 -46 56 -86 55 -89
-1 -3 8 -19 20 -35 32 -45 114 -234 128 -295 2 -8 9 -31 15 -50 17 -56 52
-212 56 -255 2 -21 7 -51 9 -65 39 -190 39 -620 0 -900 -9 -72 -45 -240 -62
-295 -24 -80 -95 -270 -102 -275 -4 -3 -13 -21 -21 -40 -7 -19 -19 -42 -27
-51 -7 -8 -13 -19 -13 -23 0 -10 -49 -83 -104 -156 -58 -75 -202 -218 -261
-258 -22 -15 -42 -29 -45 -33 -5 -6 -103 -65 -162 -97 -20 -11 -38 -19 -41
-16 -2 2 -10 -2 -17 -11 -7 -8 -18 -15 -24 -15 -6 0 -24 -7 -40 -15 -60 -31
-293 -104 -385 -120 -19 -3 -37 -7 -40 -9 -3 -2 -26 -7 -51 -10 -25 -3 -56 -8
-70 -11 -13 -2 -42 -7 -65 -10 -22 -3 -51 -8 -65 -11 l-25 -4 0 -938 c0 -613
3 -940 10 -944 9 -7 62 -5 275 7 36 2 65 5 65 6 0 1 20 2 45 4 41 2 77 6 180
20 19 2 57 7 84 11 27 3 58 8 70 10 12 2 41 7 65 10 25 3 47 7 51 9 3 2 26 6
50 10 38 6 82 14 260 52 36 7 43 9 60 16 8 4 24 8 35 10 11 2 40 9 65 16 25 7
52 14 60 16 59 12 382 127 483 172 203 90 559 283 578 315 3 5 9 9 13 9 11 -2
116 71 116 80 0 5 4 9 10 9 11 0 129 90 215 163 112 97 291 281 385 397 25 30
48 57 52 58 5 2 8 10 8 18 0 8 3 14 8 14 4 0 18 17 32 38 22 34 55 78 81 109
5 7 6 13 2 13 -4 0 -3 4 3 8 6 4 35 48 64 97 30 50 59 93 64 97 6 4 7 8 2 8
-5 0 -4 6 2 12 27 35 134 261 192 408 37 92 124 359 134 410 3 14 19 84 35
155 26 115 36 167 47 240 1 11 3 20 4 20 1 0 3 16 5 35 2 19 6 49 9 65 2 17 8
62 11 100 4 39 9 84 11 100 11 84 17 274 17 475 -1 235 -6 331 -19 351 -5 8
-3 9 6 4 7 -5 11 -4 8 1 -6 9 -21 118 -20 144 1 20 -19 175 -33 255 -19 114
-25 144 -30 170 -2 11 -7 33 -10 49 -3 16 -13 56 -21 90 -16 65 -16 65 -35
141 -6 28 -16 56 -22 63 -5 6 -7 12 -4 12 5 0 -48 167 -70 220 -3 8 -7 17 -8
20 -30 87 -187 425 -204 440 -4 3 -15 23 -26 45 -11 22 -39 68 -62 102 -23 35
-40 63 -38 63 3 0 -2 8 -9 18 -41 50 -86 113 -86 121 0 5 -3 11 -8 13 -4 2
-23 23 -42 48 -140 183 -334 374 -585 578 -43 35 -314 212 -324 212 -6 0 -11
3 -11 8 0 4 -10 12 -23 18 -12 6 -83 43 -157 82 -139 73 -361 172 -386 172 -8
0 -14 4 -14 8 0 5 -6 9 -12 9 -7 1 -58 17 -113 37 -55 20 -101 36 -103 36 -1
0 -33 9 -72 21 -38 11 -77 22 -87 24 -10 2 -19 4 -20 5 -2 2 -6 3 -10 4 -5 1
-17 5 -28 9 -24 8 -69 17 -112 24 -18 3 -33 8 -33 12 0 4 -10 7 -22 6 -13 -1
-43 4 -68 10 -45 13 -147 33 -205 40 -16 2 -30 4 -30 5 0 1 -13 4 -30 6 -16 2
-59 8 -95 14 -36 5 -87 12 -115 15 -27 4 -61 8 -75 10 -14 2 -63 7 -110 10
-47 3 -101 7 -120 10 -106 14 -449 17 -1717 19 -934 1 -1404 -2 -1406 -9z"/>
</g>
</svg>
