<svg xmlns="http://www.w3.org/2000/svg" version="1.1" xmlns:xlink="http://www.w3.org/1999/xlink" width="1000" height="1000"><style>
    #light-icon {
      display: inline;
    }
    #dark-icon {
      display: none;
    }

    @media (prefers-color-scheme: dark) {
      #light-icon {
        display: none;
      }
      #dark-icon {
        display: inline;
      }
    }
  </style><g id="light-icon"><svg xmlns="http://www.w3.org/2000/svg" version="1.1" xmlns:xlink="http://www.w3.org/1999/xlink" width="1000" height="1000"><g><g transform="matrix(3.4234851078397806,0,0,3.4234851078397806,114.85792536802467,0)"><svg xmlns="http://www.w3.org/2000/svg" version="1.1" xmlns:xlink="http://www.w3.org/1999/xlink" width="225" height="292.1"><svg viewBox="88 54.2 225 292.1" fill="none" xmlns="http://www.w3.org/2000/svg">
<path d="M309.767 162.308C311.753 163.34 313 165.393 313 167.632V271.292C313 273.565 311.716 275.642 309.684 276.658L171.706 345.658C167.716 347.653 163.022 344.752 163.022 340.291V266.375L234.928 226.355C236.831 225.296 238.011 223.289 238.01 221.111L237.981 134.884C237.98 130.381 242.753 127.482 246.748 129.558L309.767 162.308Z" fill="#111111"></path>
<path d="M163.022 266.375L96.9187 303.179C92.9194 305.406 88 302.514 88 297.937V95.3114C88 93.1351 89.1784 91.1295 91.0794 90.0702L154.07 54.9699C158.069 52.7416 162.99 55.6323 162.991 60.2102L163.022 266.375Z" fill="#111111"></path>
</svg></svg></g></g></svg></g><g id="dark-icon"><svg xmlns="http://www.w3.org/2000/svg" version="1.1" xmlns:xlink="http://www.w3.org/1999/xlink" width="1000" height="1000"><g><g transform="matrix(3.4234851078397806,0,0,3.4234851078397806,114.85792536802467,0)"><svg xmlns="http://www.w3.org/2000/svg" version="1.1" xmlns:xlink="http://www.w3.org/1999/xlink" width="225" height="292.1"><svg viewBox="88 54.2 225 292.1" fill="none" xmlns="http://www.w3.org/2000/svg">
<path d="M309.767 162.308C311.753 163.34 313 165.393 313 167.632V271.292C313 273.565 311.716 275.642 309.684 276.658L171.706 345.658C167.716 347.653 163.022 344.752 163.022 340.291V266.375L234.928 226.355C236.831 225.296 238.011 223.289 238.01 221.111L237.981 134.884C237.98 130.381 242.753 127.482 246.748 129.558L309.767 162.308Z" fill="white"></path>
<path d="M163.022 266.375L96.9187 303.179C92.9194 305.406 88 302.514 88 297.937V95.3114C88 93.1351 89.1784 91.1295 91.0794 90.0702L154.07 54.9699C158.069 52.7416 162.99 55.6323 162.991 60.2102L163.022 266.375Z" fill="white"></path>
</svg></svg></g></g></svg></g></svg>