<?xml version="1.0" encoding="UTF-8"?>
<svg xmlns="http://www.w3.org/2000/svg" xmlns:xlink="http://www.w3.org/1999/xlink" width="48px" height="48px" viewBox="0 0 48 48" version="1.1">
<g id="surface1">
<path style=" stroke:none;fill-rule:nonzero;fill:rgb(6.666667%,6.666667%,6.666667%);fill-opacity:1;" d="M 37.171875 19.476562 C 37.410156 19.601562 37.558594 19.847656 37.558594 20.117188 L 37.558594 32.554688 C 37.558594 32.828125 37.40625 33.078125 37.160156 33.199219 L 20.605469 41.480469 C 20.125 41.71875 19.5625 41.371094 19.5625 40.835938 L 19.5625 31.964844 L 28.191406 27.164062 C 28.417969 27.035156 28.5625 26.792969 28.5625 26.535156 L 28.558594 16.1875 C 28.558594 15.644531 29.128906 15.296875 29.609375 15.546875 Z M 37.171875 19.476562 "/>
<path style=" stroke:none;fill-rule:nonzero;fill:rgb(6.666667%,6.666667%,6.666667%);fill-opacity:1;" d="M 19.5625 31.964844 L 11.628906 36.382812 C 11.148438 36.648438 10.558594 36.300781 10.558594 35.753906 L 10.558594 11.4375 C 10.558594 11.175781 10.703125 10.933594 10.929688 10.808594 L 18.488281 6.597656 C 18.96875 6.328125 19.558594 6.675781 19.558594 7.226562 Z M 19.5625 31.964844 "/>
</g>
</svg>
