<?xml version="1.0" encoding="UTF-8"?>
<svg version="1.1" xmlns="http://www.w3.org/2000/svg" width="200" height="200">
<path d="M0 0 C66 0 132 0 200 0 C200 66 200 132 200 200 C134 200 68 200 0 200 C0 134 0 68 0 0 Z " fill="#000949" transform="translate(0,0)"/>
<path d="M0 0 C0.99 0 1.98 0 3 0 C3.33 1.65 3.66 3.3 4 5 C5.03125 4.896875 6.0625 4.79375 7.125 4.6875 C12.15723716 5.09332558 13.46344709 6.54970448 17 10 C17 8.35 17 6.7 17 5 C18.32 5 19.64 5 21 5 C21.495 10.445 21.495 10.445 22 16 C23.65 16 25.3 16 27 16 C27.33 12.37 27.66 8.74 28 5 C30.64 5 33.28 5 36 5 C36 4.01 36 3.02 36 2 C36.99 2 37.98 2 39 2 C39 2.99 39 3.98 39 5 C40.65 5 42.3 5 44 5 C44 5.99 44 6.98 44 8 C42.35 8 40.7 8 39 8 C39 10.97 39 13.94 39 17 C40.65 17 42.3 17 44 17 C45 24.75 45 24.75 45 27 C45.66 27 46.32 27 47 27 C46.34 28.98 45.68 30.96 45 33 C43.68 33 42.36 33 41 33 C41 31.35 41 29.7 41 28 C40.34 28 39.68 28 39 28 C38.505 30.475 38.505 30.475 38 33 C37.113125 32.62875 36.22625 32.2575 35.3125 31.875 C31.59173995 30.89215772 30.32561865 31.23937836 27 33 C26.67 31.35 26.34 29.7 26 28 C25.34 28 24.68 28 24 28 C23.505 29.485 23.505 29.485 23 31 C23 30.01 23 29.02 23 28 C22.34 28 21.68 28 21 28 C21 28.99 21 29.98 21 31 C19.576875 31.12375 19.576875 31.12375 18.125 31.25 C14.89538209 31.65074923 14.89538209 31.65074923 13.625 34.0625 C13.315625 35.0215625 13.315625 35.0215625 13 36 C11.515 35.505 11.515 35.505 10 35 C9.3125 32.9375 9.3125 32.9375 9 31 C8.34 31.33 7.68 31.66 7 32 C5.52234834 32.07009733 4.04165186 32.08435939 2.5625 32.0625 C1.38880859 32.04896484 1.38880859 32.04896484 0.19140625 32.03515625 C-0.53175781 32.02355469 -1.25492188 32.01195312 -2 32 C-4.92614653 31.7296212 -4.92614653 31.7296212 -6.75 33.125 C-10.29112171 34.50210289 -12.58179765 33.39260096 -16 32 C-17.4375 29.875 -17.4375 29.875 -18 28 C-15.03 25.525 -15.03 25.525 -12 23 C-11.67 24.32 -11.34 25.64 -11 27 C-7.04 26.505 -7.04 26.505 -3 26 C-3 25.34 -3 24.68 -3 24 C-3.66 24 -4.32 24 -5 24 C-5 24.66 -5 25.32 -5 26 C-6.65 26 -8.3 26 -10 26 C-9 23 -9 23 -6 21 C-4.00708008 20.77294922 -4.00708008 20.77294922 -1.76953125 20.8046875 C-0.96708984 20.81113281 -0.16464844 20.81757812 0.66210938 20.82421875 C1.49548828 20.84097656 2.32886719 20.85773438 3.1875 20.875 C4.4549707 20.88853516 4.4549707 20.88853516 5.74804688 20.90234375 C7.83215243 20.92589297 9.91611217 20.96176353 12 21 C10.94021067 19.71387324 10.94021067 19.71387324 8.49609375 19.90234375 C5.6640625 19.93489583 2.83203125 19.96744792 0 20 C0 13.4 0 6.8 0 0 Z " fill="#090F46" transform="translate(80,83)"/>
<path d="M0 0 C2.76276177 0.52268466 5.3260876 1.10869587 8 2 C8 2.66 8 3.32 8 4 C9.32 3.01 10.64 2.02 12 1 C13.9375 1.6875 13.9375 1.6875 16 3 C17.08835706 5.95411203 17.25203613 7.37831087 16.0625 10.3125 C15.5365625 11.1478125 15.5365625 11.1478125 15 12 C15.99 12.99 16.98 13.98 18 15 C18.33 14.67 18.66 14.34 19 14 C19 13.34 19 12.68 19 12 C25.93 11.01 25.93 11.01 33 10 C30.36 10 27.72 10 25 10 C25 7 25 7 26 6 C33.45864662 5.63909774 33.45864662 5.63909774 37 8 C37.51171875 11.0390625 37.51171875 11.0390625 37.6875 14.625 C37.78611328 16.40777344 37.78611328 16.40777344 37.88671875 18.2265625 C37.94279297 19.59941406 37.94279297 19.59941406 38 21 C37.41508789 20.99476318 36.83017578 20.98952637 36.22753906 20.98413086 C33.56837037 20.96329842 30.90921889 20.95031993 28.25 20.9375 C27.32960937 20.92912109 26.40921875 20.92074219 25.4609375 20.91210938 C24.57148437 20.90888672 23.68203125 20.90566406 22.765625 20.90234375 C21.54020996 20.89448853 21.54020996 20.89448853 20.29003906 20.88647461 C18.06031865 20.99700979 16.13866245 21.37944433 14 22 C14 22.66 14 23.32 14 24 C13.01 24 12.02 24 11 24 C11.825 24.4125 12.65 24.825 13.5 25.25 C14.7375 26.11625 14.7375 26.11625 16 27 C16 28.32 16 29.64 16 31 C14.35 31.33 12.7 31.66 11 32 C10.01 30.35 9.02 28.7 8 27 C6.68 27.33 5.36 27.66 4 28 C3.67 29.32 3.34 30.64 3 32 C0.625 31.8125 0.625 31.8125 -2 31 C-3.125 28.625 -3.125 28.625 -4 26 C-4.515625 25.484375 -5.03125 24.96875 -5.5625 24.4375 C-7.29446732 22.70553268 -7.58987682 21.37871446 -8 19 C-9.98 19.99 -9.98 19.99 -12 21 C-12.99 20.01 -13.98 19.02 -15 18 C-14.649375 17.195625 -14.29875 16.39125 -13.9375 15.5625 C-12.76224708 11.09653892 -13.25973287 7.50162445 -14 3 C-9.49044586 1.74734607 -9.49044586 1.74734607 -6.9375 3.0625 C-4.99240548 4.28421822 -4.99240548 4.28421822 -2.8125 3.25 C-0.85731467 2.11663435 -0.85731467 2.11663435 0 0 Z " fill="#021049" transform="translate(39,82)"/>
<path d="M0 0 C1.65 0 3.3 0 5 0 C5 1.65 5 3.3 5 5 C6.0725 4.9175 7.145 4.835 8.25 4.75 C12 5 12 5 14.4375 6.3125 C16.94613556 10.62735316 16.30250762 15.12626606 16 20 C14.68 20 13.36 20 12 20 C11.67 16.37 11.34 12.74 11 9 C9.35 9 7.7 9 6 9 C5.67 12.63 5.34 16.26 5 20 C3.68 20 2.36 20 1 20 C1 18.35 1 16.7 1 15 C0.731875 15.639375 0.46375 16.27875 0.1875 16.9375 C-1 19 -1 19 -4 20 C-9.20197044 20.49542576 -9.20197044 20.49542576 -12 20 C-15.02791041 17.42627616 -15.86162709 15.84753406 -16.5 11.9375 C-16 9 -16 9 -14.4375 6.625 C-11.10803184 4.40535456 -8.93006023 4.57892212 -5 5 C-2.5625 6 -2.5625 6 -1 7 C-0.67 4.69 -0.34 2.38 0 0 Z " fill="#0D1148" transform="translate(160,83)"/>
<path d="M0 0 C0.99 0 1.98 0 3 0 C3 0.99 3 1.98 3 3 C4.65 3 6.3 3 8 3 C8 3.99 8 4.98 8 6 C6.35 6 4.7 6 3 6 C3 8.97 3 11.94 3 15 C4.65 15 6.3 15 8 15 C9 22.75 9 22.75 9 25 C9.66 25 10.32 25 11 25 C10.34 26.98 9.68 28.96 9 31 C7.68 31 6.36 31 5 31 C5 29.35 5 27.7 5 26 C4.34 26 3.68 26 3 26 C2.67 27.65 2.34 29.3 2 31 C1.113125 30.62875 0.22625 30.2575 -0.6875 29.875 C-4.40826005 28.89215772 -5.67438135 29.23937836 -9 31 C-9.495 28.525 -9.495 28.525 -10 26 C-10.66 26 -11.32 26 -12 26 C-12.33 26.99 -12.66 27.98 -13 29 C-13 28.01 -13 27.02 -13 26 C-13.66 26 -14.32 26 -15 26 C-15 26.99 -15 27.98 -15 29 C-23.57142857 30.42857143 -23.57142857 30.42857143 -27 28 C-26.34 26.68 -25.68 25.36 -25 24 C-24.38125 24.185625 -23.7625 24.37125 -23.125 24.5625 C-20.95839822 25.23686176 -20.95839822 25.23686176 -19 24 C-16.68851505 23.92839266 -14.3749941 23.91602173 -12.0625 23.9375 C-10.19271484 23.95103516 -10.19271484 23.95103516 -8.28515625 23.96484375 C-7.20105469 23.97644531 -6.11695312 23.98804687 -5 24 C-4.01 24 -3.02 24 -2 24 C-1.34 24 -0.68 24 0 24 C-0.33 22.68 -0.66 21.36 -1 20 C-0.01 20 0.98 20 2 20 C1.67257813 19.44828125 1.34515625 18.8965625 1.0078125 18.328125 C-0.16787715 15.61219077 -0.20248638 13.69448241 -0.125 10.75 C-0.10695313 9.85796875 -0.08890625 8.9659375 -0.0703125 8.046875 C-0.04710938 7.37140625 -0.02390625 6.6959375 0 6 C-0.66 6 -1.32 6 -2 6 C-2 5.01 -2 4.02 -2 3 C-1.34 3 -0.68 3 0 3 C0 2.01 0 1.02 0 0 Z " fill="#11174F" transform="translate(116,85)"/>
<path d="M0 0 C0.99 0 1.98 0 3 0 C3.33 1.65 3.66 3.3 4 5 C5.60875 4.87625 5.60875 4.87625 7.25 4.75 C11 5 11 5 13.4375 6.5625 C15.60396028 9.94217804 15.56288002 12.05983987 15 16 C13.6875 18.4375 13.6875 18.4375 11 20 C7.26598404 20.32773378 3.7630972 20.1791951 0 20 C0 13.4 0 6.8 0 0 Z " fill="#ECEEF8" transform="translate(80,83)"/>
<path d="M0 0 C2.31052219 1.9804476 2.43804645 3.53644129 2.75 6.5 C3.74 6.83 4.73 7.16 5.75 7.5 C5.09 8.82 4.43 10.14 3.75 11.5 C3.09 11.17 2.43 10.84 1.75 10.5 C1.09 11.16 0.43 11.82 -0.25 12.5 C-1.89991582 13.20710678 -3.56562256 13.87943989 -5.25 14.5 C-5.91 13.51 -6.57 12.52 -7.25 11.5 C-8.57 11.5 -9.89 11.5 -11.25 11.5 C-11.25 10.18 -11.25 8.86 -11.25 7.5 C-12.57 7.17 -13.89 6.84 -15.25 6.5 C-15.58 4.85 -15.91 3.2 -16.25 1.5 C-11.71280992 0.23966942 -11.71280992 0.23966942 -9.25 1.625 C-8.59 1.91375 -7.93 2.2025 -7.25 2.5 C-6.425 2.005 -5.6 1.51 -4.75 1 C-2.25 -0.5 -2.25 -0.5 0 0 Z " fill="#001143" transform="translate(41.25,83.5)"/>
<path d="M0 0 C0.33 0 0.66 0 1 0 C1 6.27 1 12.54 1 19 C2.32 18.67 3.64 18.34 5 18 C6.41534778 17.93543121 7.83337689 17.91388961 9.25 17.9375 C11.10625 17.9684375 11.10625 17.9684375 13 18 C13 18.66 13 19.32 13 20 C11.08574219 20.05607422 11.08574219 20.05607422 9.1328125 20.11328125 C7.46351162 20.17892791 5.79424211 20.2453757 4.125 20.3125 C3.28324219 20.33505859 2.44148438 20.35761719 1.57421875 20.38085938 C0.36572266 20.4340332 0.36572266 20.4340332 -0.8671875 20.48828125 C-1.61081543 20.51446533 -2.35444336 20.54064941 -3.12060547 20.56762695 C-5.40733826 20.86729591 -5.40733826 20.86729591 -7 24 C-6.01 24.33 -5.02 24.66 -4 25 C-4 24.34 -4 23.68 -4 23 C-3.34 23 -2.68 23 -2 23 C-1.67 23.99 -1.34 24.98 -1 26 C-2.45742463 26.08096803 -3.91612807 26.13917774 -5.375 26.1875 C-6.18710938 26.22230469 -6.99921875 26.25710937 -7.8359375 26.29296875 C-8.55007812 26.19628906 -9.26421875 26.09960938 -10 26 C-10.66 25.01 -11.32 24.02 -12 23 C-12.66 23.99 -13.32 24.98 -14 26 C-17.13349732 27.04449911 -17.98968256 26.93423645 -21 26 C-21 25.34 -21 24.68 -21 24 C-21.33 25.32 -21.66 26.64 -22 28 C-22.66 28 -23.32 28 -24 28 C-24.66 26.68 -25.32 25.36 -26 24 C-26.99 24 -27.98 24 -29 24 C-29 23.34 -29 22.68 -29 22 C-28.01 22 -27.02 22 -26 22 C-26 21.34 -26 20.68 -26 20 C-22.87070822 18.16930097 -20.62356854 17.76068819 -17.015625 17.8046875 C-15.61376953 17.81435547 -15.61376953 17.81435547 -14.18359375 17.82421875 C-12.73146484 17.84935547 -12.73146484 17.84935547 -11.25 17.875 C-10.26644531 17.88402344 -9.28289062 17.89304687 -8.26953125 17.90234375 C-5.84624974 17.92587075 -3.42309369 17.96174063 -1 18 C-0.67 12.06 -0.34 6.12 0 0 Z " fill="#030E4C" transform="translate(79,84)"/>
<path d="M0 0 C2.5 1.6875 2.5 1.6875 4 4 C4 5.65 4 7.3 4 9 C0.04 9 -3.92 9 -8 9 C-7.67 9.66 -7.34 10.32 -7 11 C-4.03 11 -1.06 11 2 11 C2 11.99 2 12.98 2 14 C0.43081508 15.56918492 -1.14085159 15.28258943 -3.3125 15.375 C-6.89575584 15.32935343 -7.69712073 15.25116818 -10.5625 12.875 C-12.2431765 9.51364699 -12.63069292 7.70532093 -12 4 C-9.05325156 -0.66568503 -5.1012579 -1.03488634 0 0 Z " fill="#E2E6F1" transform="translate(138,88)"/>
<path d="M0 0 C2.0078125 0.23046875 2.0078125 0.23046875 5.0078125 2.23046875 C5.51953125 5.26953125 5.51953125 5.26953125 5.6953125 8.85546875 C5.79392578 10.63824219 5.79392578 10.63824219 5.89453125 12.45703125 C5.93191406 13.37226562 5.96929687 14.2875 6.0078125 15.23046875 C3.88308674 15.28433504 1.75797598 15.32319946 -0.3671875 15.35546875 C-2.14222656 15.39027344 -2.14222656 15.39027344 -3.953125 15.42578125 C-6.9921875 15.23046875 -6.9921875 15.23046875 -8.9921875 13.23046875 C-8.83368109 10.13959379 -8.4486928 8.68697405 -6.2421875 6.48046875 C-3.80527162 5.12662659 -1.74124449 4.61228222 1.0078125 4.23046875 C-1.6321875 4.23046875 -4.2721875 4.23046875 -6.9921875 4.23046875 C-6.9921875 -1.04356621 -4.70905532 0.09557123 0 0 Z " fill="#E6E7F1" transform="translate(70.9921875,87.76953125)"/>
<path d="M0 0 C1.32 0 2.64 0 4 0 C4 1.65 4 3.3 4 5 C5.60875 4.87625 5.60875 4.87625 7.25 4.75 C11 5 11 5 13.4375 6.3125 C15.94613556 10.62735316 15.30250762 15.12626606 15 20 C13.68 20 12.36 20 11 20 C10.67 16.37 10.34 12.74 10 9 C8.35 9 6.7 9 5 9 C4.67 12.63 4.34 16.26 4 20 C2.68 20 1.36 20 0 20 C0 13.4 0 6.8 0 0 Z " fill="#CFD3E1" transform="translate(161,83)"/>
<path d="M0 0 C2.76276177 0.52268466 5.3260876 1.10869587 8 2 C8 2.66 8 3.32 8 4 C9.32 3.01 10.64 2.02 12 1 C13.9375 1.6875 13.9375 1.6875 16 3 C17.08835706 5.95411203 17.25203613 7.37831087 16.0625 10.3125 C15.711875 10.869375 15.36125 11.42625 15 12 C15.99 13.32 16.98 14.64 18 16 C17.34 16.66 16.68 17.32 16 18 C15.34 16.68 14.68 15.36 14 14 C12.6696875 14.556875 12.6696875 14.556875 11.3125 15.125 C7.59173995 16.10784228 6.32561865 15.76062164 3 14 C3 12.35 3 10.7 3 9 C3.99 9.99 4.98 10.98 6 12 C6.33 11.01 6.66 10.02 7 9 C6.34 8.67 5.68 8.34 5 8 C4.5359375 6.824375 4.5359375 6.824375 4.0625 5.625 C3.01626291 3.04017895 2.07886465 1.7953831 0 0 Z " fill="#010C46" transform="translate(39,82)"/>
<path d="M0 0 C0.66 0.33 1.32 0.66 2 1 C2 1.99 2 2.98 2 4 C4.97 4 7.94 4 11 4 C11.33 3.34 11.66 2.68 12 2 C12.33 3.32 12.66 4.64 13 6 C13.33 5.34 13.66 4.68 14 4 C15.32 4 16.64 4 18 4 C18 3.34 18 2.68 18 2 C18.66 2 19.32 2 20 2 C20 4.31 20 6.62 20 9 C16 9 12 9 8 9 C7.13375 9.556875 7.13375 9.556875 6.25 10.125 C2.70887829 11.50210289 0.41820235 10.39260096 -3 9 C-4.4375 6.875 -4.4375 6.875 -5 5 C-3.35 3.35 -1.7 1.7 0 0 Z " fill="#9394B8" transform="translate(67,106)"/>
<path d="M0 0 C1.32 0 2.64 0 4 0 C4.33 3.63 4.66 7.26 5 11 C6.65 11 8.3 11 10 11 C10.33 7.37 10.66 3.74 11 0 C12.32 0 13.64 0 15 0 C15 4.95 15 9.9 15 15 C13.081875 15.0825 11.16375 15.165 9.1875 15.25 C7.56908203 15.31960937 7.56908203 15.31960937 5.91796875 15.390625 C3 15 3 15 1.125 13.34375 C-0.2607125 10.45684896 -0.30137102 8.4383886 -0.1875 5.25 C-0.16042969 4.26515625 -0.13335937 3.2803125 -0.10546875 2.265625 C-0.07066406 1.51796875 -0.03585938 0.7703125 0 0 Z " fill="#D0D4E1" transform="translate(97,88)"/>
<path d="M0 0 C0.928125 0.2784375 0.928125 0.2784375 1.875 0.5625 C4.04160178 1.23686176 4.04160178 1.23686176 6 0 C8.31148495 -0.07160734 10.6250059 -0.08397827 12.9375 -0.0625 C14.80728516 -0.04896484 14.80728516 -0.04896484 16.71484375 -0.03515625 C18.34099609 -0.01775391 18.34099609 -0.01775391 20 0 C20.99 0 21.98 0 23 0 C23.99 0.33 24.98 0.66 26 1 C26 2.65 26 4.3 26 6 C25.278125 5.79375 24.55625 5.5875 23.8125 5.375 C20.55358415 4.94047789 18.91695496 5.58319331 16 7 C15.67 5.35 15.34 3.7 15 2 C14.34 2 13.68 2 13 2 C12.67 2.99 12.34 3.98 12 5 C12 4.01 12 3.02 12 2 C11.34 2 10.68 2 10 2 C10 2.99 10 3.98 10 5 C1.42857143 6.42857143 1.42857143 6.42857143 -2 4 C-1.34 2.68 -0.68 1.36 0 0 Z " fill="#8F93B6" transform="translate(91,109)"/>
<path d="M0 0 C2.4375 0.8125 2.4375 0.8125 5 2 C5.33 2.99 5.66 3.98 6 5 C6.61875 5.0825 7.2375 5.165 7.875 5.25 C10 6 10 6 11.75 9.5625 C12.36875 11.2640625 12.36875 11.2640625 13 13 C11.02 13.99 9.04 14.98 7 16 C6.67 14.68 6.34 13.36 6 12 C4.02 12.99 4.02 12.99 2 14 C1.01 13.01 0.02 12.02 -1 11 C-0.649375 10.113125 -0.29875 9.22625 0.0625 8.3125 C1.01755602 4.93796874 0.97151132 3.30313848 0 0 Z " fill="#010E45" transform="translate(25,89)"/>
<path d="M0 0 C0.33 0.66 0.66 1.32 1 2 C2.65 2 4.3 2 6 2 C6 2.66 6 3.32 6 4 C6.886875 3.505 7.77375 3.01 8.6875 2.5 C11.87586238 1.05621326 13.58187546 0.69840078 17 1 C17 1.66 17 2.32 17 3 C15.329375 3.433125 15.329375 3.433125 13.625 3.875 C9.99708908 4.69241329 9.99708908 4.69241329 8 7 C7.75787127 8.98128508 7.75787127 8.98128508 7.875 11.125 C7.91625 12.40375 7.9575 13.6825 8 15 C7.34 15 6.68 15 6 15 C5.67 15.99 5.34 16.98 5 18 C5 17.01 5 16.02 5 15 C3.35 15 1.7 15 0 15 C0 12.03 0 9.06 0 6 C1.65 6 3.3 6 5 6 C5 5.01 5 4.02 5 3 C3.35 3 1.7 3 0 3 C0 2.01 0 1.02 0 0 Z " fill="#191D4E" transform="translate(119,85)"/>
<path d="M0 0 C2.4375 2 2.4375 2 4 4 C0.66666667 4 -2.66666667 4 -6 4 C-7.00217064 7.58327753 -7.00217064 7.58327753 -6 11 C-5.071875 11 -4.14375 11 -3.1875 11 C-1.125 11 0.9375 11 3 11 C2.34 12.32 1.68 13.64 1 15 C-1.8580389 15.23816991 -4.19811145 15.42242213 -7 15 C-10.02791041 12.42627616 -10.86162709 10.84753406 -11.5 6.9375 C-11 4 -11 4 -9.4375 1.625 C-6.06489221 -0.62340519 -3.97487617 -0.56783945 0 0 Z " fill="#E6EBF5" transform="translate(155,88)"/>
<path d="M0 0 C2.31 0 4.62 0 7 0 C6.01 1.485 6.01 1.485 5 3 C4.83286431 5.62531524 4.83286431 5.62531524 5 8 C3.39658445 8.33692785 1.79223445 8.66941093 0.1875 9 C-0.70582031 9.185625 -1.59914063 9.37125 -2.51953125 9.5625 C-5 10 -5 10 -8 10 C-8.66 8.02 -9.32 6.04 -10 4 C-9.01 3.01 -8.02 2.02 -7 1 C-6.13375 1.495 -6.13375 1.495 -5.25 2 C-2.80116138 3.27075898 -2.80116138 3.27075898 1 3 C0.67 2.01 0.34 1.02 0 0 Z " fill="#08164A" transform="translate(58,94)"/>
<path d="M0 0 C0.99 0 1.98 0 3 0 C3 0.99 3 1.98 3 3 C4.65 3 6.3 3 8 3 C8 3.99 8 4.98 8 6 C6.35 6 4.7 6 3 6 C3 8.97 3 11.94 3 15 C4.65 15 6.3 15 8 15 C8 15.99 8 16.98 8 18 C5.125 18.125 5.125 18.125 2 18 C0 16 0 16 -0.1953125 13.6171875 C-0.17210938 12.71226563 -0.14890625 11.80734375 -0.125 10.875 C-0.10695313 9.96492188 -0.08890625 9.05484375 -0.0703125 8.1171875 C-0.04710938 7.41851562 -0.02390625 6.71984375 0 6 C-0.66 6 -1.32 6 -2 6 C-2 5.01 -2 4.02 -2 3 C-1.34 3 -0.68 3 0 3 C0 2.01 0 1.02 0 0 Z " fill="#E7E9F4" transform="translate(116,85)"/>
<path d="M0 0 C3.0625 0.1875 3.0625 0.1875 5.0625 2.1875 C5.3125 4.6875 5.3125 4.6875 5.0625 7.1875 C3.0625 9.1875 3.0625 9.1875 0 9.375 C-2.9375 9.1875 -2.9375 9.1875 -3.9375 8.1875 C-4.0625 4.6875 -4.0625 4.6875 -3.9375 1.1875 C-2.9375 0.1875 -2.9375 0.1875 0 0 Z " fill="#171B4A" transform="translate(86.9375,90.8125)"/>
<path d="M0 0 C1.67542976 0.28604898 3.34385343 0.61781233 5 1 C5.0309375 1.8971875 5.0309375 1.8971875 5.0625 2.8125 C5.90456616 5.43314602 5.90456616 5.43314602 9.5625 6.75 C10.696875 7.1625 11.83125 7.575 13 8 C11.3125 10.0625 11.3125 10.0625 9 12 C6.25 11.75 6.25 11.75 4 11 C4 9.68 4 8.36 4 7 C2.68 6.67 1.36 6.34 0 6 C-0.38218767 4.34385343 -0.71395102 2.67542976 -1 1 C-0.67 0.67 -0.34 0.34 0 0 Z " fill="#050F4F" transform="translate(26,84)"/>
<path d="M0 0 C0.99 0 1.98 0 3 0 C3.33 1.65 3.66 3.3 4 5 C5.60875 4.87625 5.60875 4.87625 7.25 4.75 C11 5 11 5 13.4375 6.5625 C15.58016848 9.90506283 15.49573337 12.10495209 15 16 C13.5 17.9375 13.5 17.9375 12 19 C11.34 18.01 10.68 17.02 10 16 C10.33 15.67 10.66 15.34 11 15 C11.16666667 12.5 11.16666667 12.5 11 10 C9.81575674 8.58422523 9.81575674 8.58422523 6.4375 8.9375 C4.7359375 8.9684375 4.7359375 8.9684375 3 9 C1.64560332 6.29120665 1.93498549 3.99066732 2 1 C1.34 0.67 0.68 0.34 0 0 Z " fill="#E9ECF6" transform="translate(80,83)"/>
<path d="M0 0 C0 1.32 0 2.64 0 4 C1.32 4.33 2.64 4.66 4 5 C4 5.66 4 6.32 4 7 C1.87527424 7.05386629 -0.24983652 7.09273071 -2.375 7.125 C-4.15003906 7.15980469 -4.15003906 7.15980469 -5.9609375 7.1953125 C-9 7 -9 7 -11 5 C-10.625 2.875 -10.625 2.875 -10 1 C-10 1.66 -10 2.32 -10 3 C-9.46375 2.505 -8.9275 2.01 -8.375 1.5 C-5.40641555 -0.37489544 -3.44687573 -0.23501425 0 0 Z " fill="#D4D7E5" transform="translate(73,96)"/>
<path d="M0 0 C2.5 0.125 2.5 0.125 3.5 1.125 C3.57226502 2.97787502 3.5838122 4.83333878 3.5625 6.6875 C3.55347656 7.69941406 3.54445312 8.71132812 3.53515625 9.75390625 C3.52355469 10.53636719 3.51195312 11.31882812 3.5 12.125 C2.84 10.805 2.18 9.485 1.5 8.125 C0.84 8.125 0.18 8.125 -0.5 8.125 C-0.5 8.785 -0.5 9.445 -0.5 10.125 C-1.16 10.125 -1.82 10.125 -2.5 10.125 C-2.83 11.115 -3.16 12.105 -3.5 13.125 C-3.52686553 11.14590602 -3.54633375 9.16671029 -3.5625 7.1875 C-3.57410156 6.08535156 -3.58570313 4.98320313 -3.59765625 3.84765625 C-3.46586418 0.17329321 -3.46586418 0.17329321 0 0 Z " fill="#060C42" transform="translate(168.5,90.875)"/>
<path d="M0 0 C2.51083114 1.25541557 2.87125446 2.50063488 4 5 C4.66 5 5.32 5 6 5 C6 6.98 6 8.96 6 11 C-1.50769231 10.38461538 -1.50769231 10.38461538 -4 8.4375 C-4.33 7.963125 -4.66 7.48875 -5 7 C-3.70700306 4.11562221 -2.34058637 2.12780579 0 0 Z " fill="#3A3D65" transform="translate(67,106)"/>
<path d="M0 0 C1.32 0 2.64 0 4 0 C4.02578125 0.77085938 4.0515625 1.54171875 4.078125 2.3359375 C4.13484375 3.33882813 4.1915625 4.34171875 4.25 5.375 C4.29640625 6.37273437 4.3428125 7.37046875 4.390625 8.3984375 C4.72160885 11.1526477 4.72160885 11.1526477 7.046875 12.3515625 C7.69140625 12.56554687 8.3359375 12.77953125 9 13 C9 13.66 9 14.32 9 15 C6.1875 15.25 6.1875 15.25 3 15 C0.7041008 12.74661745 0.04414005 11.42139031 -0.29296875 8.203125 C-0.25816406 7.22859375 -0.22335938 6.2540625 -0.1875 5.25 C-0.16042969 4.26515625 -0.13335937 3.2803125 -0.10546875 2.265625 C-0.07066406 1.51796875 -0.03585938 0.7703125 0 0 Z " fill="#D7DBE9" transform="translate(97,88)"/>
<path d="M0 0 C2.125 0.9375 2.125 0.9375 4 2 C4.66 1.34 5.32 0.68 6 0 C6 5.61 6 11.22 6 17 C5.34 17.33 4.68 17.66 4 18 C2.71553081 15.43106162 2.67022856 13.23423663 2.4375 10.375 C2.35371094 9.37210938 2.26992187 8.36921875 2.18359375 7.3359375 C2.12300781 6.56507812 2.06242187 5.79421875 2 5 C-0.31 4.34 -2.62 3.68 -5 3 C-2 1 -2 1 0 0 Z " fill="#0C0E40" transform="translate(73,85)"/>
<path d="M0 0 C0.33 0 0.66 0 1 0 C1 6.27 1 12.54 1 19 C2.32 18.67 3.64 18.34 5 18 C6.41534778 17.93543121 7.83337689 17.91388961 9.25 17.9375 C11.10625 17.9684375 11.10625 17.9684375 13 18 C13 18.66 13 19.32 13 20 C9.22999352 20.22567411 5.45908213 20.42755846 1.6875 20.625 C0.0797168 20.72167969 0.0797168 20.72167969 -1.56054688 20.8203125 C-3.10258789 20.89765625 -3.10258789 20.89765625 -4.67578125 20.9765625 C-6.0975769 21.05511475 -6.0975769 21.05511475 -7.5480957 21.13525391 C-10 21 -10 21 -13 19 C-9.04 18.67 -5.08 18.34 -1 18 C-0.505 9.09 -0.505 9.09 0 0 Z " fill="#42476C" transform="translate(79,84)"/>
<path d="M0 0 C-0.625 1.9375 -0.625 1.9375 -2 4 C-5.0625 4.625 -5.0625 4.625 -8 5 C-8.33 5.66 -8.66 6.32 -9 7 C-10.65 4.69 -12.3 2.38 -14 0 C-8.97703996 -1.13016601 -5.02125926 -0.77916092 0 0 Z " fill="#131851" transform="translate(115,103)"/>
<path d="M0 0 C0.80824219 0.11085938 1.61648437 0.22171875 2.44921875 0.3359375 C3.37154297 0.47902344 3.37154297 0.47902344 4.3125 0.625 C3.9825 1.615 3.6525 2.605 3.3125 3.625 C4.3025 3.955 5.2925 4.285 6.3125 4.625 C6.3125 3.965 6.3125 3.305 6.3125 2.625 C6.9725 2.625 7.6325 2.625 8.3125 2.625 C8.6425 3.615 8.9725 4.605 9.3125 5.625 C7.85507537 5.70596803 6.39637193 5.76417774 4.9375 5.8125 C4.12539062 5.84730469 3.31328125 5.88210937 2.4765625 5.91796875 C1.76242188 5.82128906 1.04828125 5.72460938 0.3125 5.625 C-0.3475 4.635 -1.0075 3.645 -1.6875 2.625 C-2.6775 4.11 -2.6775 4.11 -3.6875 5.625 C-4.6775 5.955 -5.6675 6.285 -6.6875 6.625 C-7.0175 4.975 -7.3475 3.325 -7.6875 1.625 C-4.33422361 -0.61051759 -3.78006343 -0.54783528 0 0 Z " fill="#13184F" transform="translate(68.6875,104.375)"/>
<path d="M0 0 C0.928125 0.2784375 0.928125 0.2784375 1.875 0.5625 C4.04160178 1.23686176 4.04160178 1.23686176 6 0 C6.99 0.33 7.98 0.66 9 1 C9 2.32 9 3.64 9 5 C2.6 6.23076923 2.6 6.23076923 -0.4375 5.0625 C-0.953125 4.711875 -1.46875 4.36125 -2 4 C-1.34 2.68 -0.68 1.36 0 0 Z " fill="#696C95" transform="translate(91,109)"/>
<path d="M0 0 C2.4375 2 2.4375 2 4 4 C2.68 4 1.36 4 0 4 C-1.58528205 4.14697979 -3.1688237 4.31397926 -4.75 4.5 C-5.54921875 4.5928125 -6.3484375 4.685625 -7.171875 4.78125 C-8.07679688 4.88953125 -8.07679688 4.88953125 -9 5 C-9.33 6.65 -9.66 8.3 -10 10 C-10.33 10 -10.66 10 -11 10 C-11.31785906 6.50355037 -11.39644605 4.602598 -9.4375 1.625 C-6.06489221 -0.62340519 -3.97487617 -0.56783945 0 0 Z " fill="#E3E8F3" transform="translate(155,88)"/>
<path d="M0 0 C1.32 0.66 2.64 1.32 4 2 C4 3.65 4 5.3 4 7 C3.01 6.34 2.02 5.68 1 5 C-1.27912938 4.54605448 -1.27912938 4.54605448 -3.6875 4.375 C-4.89986328 4.26285156 -4.89986328 4.26285156 -6.13671875 4.1484375 C-6.75160156 4.09945312 -7.36648437 4.05046875 -8 4 C-7.67 3.01 -7.34 2.02 -7 1 C-5.5459375 1.0309375 -5.5459375 1.0309375 -4.0625 1.0625 C-1.12534105 1.35618499 -1.12534105 1.35618499 0 0 Z " fill="#D5D9E8" transform="translate(138,90)"/>
<path d="M0 0 C0.33 0.66 0.66 1.32 1 2 C1.66 2 2.32 2 3 2 C2.34 3.98 1.68 5.96 1 8 C-0.32 8 -1.64 8 -3 8 C-3 6.35 -3 4.7 -3 3 C-3.66 3 -4.32 3 -5 3 C-5.33 3.99 -5.66 4.98 -6 6 C-6 4.68 -6 3.36 -6 2 C-4.02 1.34 -2.04 0.68 0 0 Z " fill="#676A96" transform="translate(124,108)"/>
<path d="M0 0 C3.97849756 1.50908528 5.32347489 2.87668184 7.625 6.375 C4.625 7.375 4.625 7.375 2.5625 6.5625 C0.625 5.375 0.625 5.375 -1.375 3.375 C-3.44374034 2.7324765 -3.44374034 2.7324765 -5.375 2.375 C-5.375 1.715 -5.375 1.055 -5.375 0.375 C-3.375 -0.625 -3.375 -0.625 0 0 Z " fill="#020845" transform="translate(98.375,102.625)"/>
<path d="M0 0 C1.32 0.66 2.64 1.32 4 2 C4 3.32 4 4.64 4 6 C2.02 6.99 2.02 6.99 0 8 C-0.99 7.01 -1.98 6.02 -3 5 C-1.125 1.125 -1.125 1.125 0 0 Z " fill="#168898" transform="translate(27,95)"/>
<path d="M0 0 C1.32 0.66 2.64 1.32 4 2 C3.67 3.65 3.34 5.3 3 7 C1.68 7 0.36 7 -1 7 C-1.66 5.68 -2.32 4.36 -3 3 C-2.01 2.01 -1.02 1.02 0 0 Z " fill="#3EAAA0" transform="translate(51,83)"/>
<path d="M0 0 C1.32 0.66 2.64 1.32 4 2 C3.67 3.65 3.34 5.3 3 7 C1.68 7 0.36 7 -1 7 C-1.66 5.68 -2.32 4.36 -3 3 C-2.01 2.01 -1.02 1.02 0 0 Z " fill="#3DAB9F" transform="translate(39,83)"/>
<path d="M0 0 C1.32 0.66 2.64 1.32 4 2 C4 3.32 4 4.64 4 6 C2.1875 6.625 2.1875 6.625 0 7 C-0.99 6.34 -1.98 5.68 -3 5 C-1.125 1.125 -1.125 1.125 0 0 Z " fill="#188696" transform="translate(27,107)"/>
<path d="M0 0 C1.32 0.66 2.64 1.32 4 2 C3.67 3.65 3.34 5.3 3 7 C1.35 6.67 -0.3 6.34 -2 6 C-2 2 -2 2 0 0 Z " fill="#3FAEA2" transform="translate(39,95)"/>
<path d="M0 0 C1.65 0 3.3 0 5 0 C5.625 2.875 5.625 2.875 6 6 C5.34 6.66 4.68 7.32 4 8 C1.375 7.625 1.375 7.625 -1 7 C-0.67 4.69 -0.34 2.38 0 0 Z " fill="#111649" transform="translate(101,111)"/>
<path d="M0 0 C1.32 0.66 2.64 1.32 4 2 C4 3.32 4 4.64 4 6 C2.35 6.33 0.7 6.66 -1 7 C-1.66 5.68 -2.32 4.36 -3 3 C-2.01 2.01 -1.02 1.02 0 0 Z " fill="#188996" transform="translate(51,107)"/>
<path d="M0 0 C1.32 0.66 2.64 1.32 4 2 C3.67 3.65 3.34 5.3 3 7 C1.35 6.67 -0.3 6.34 -2 6 C-2 2 -2 2 0 0 Z " fill="#188994" transform="translate(39,107)"/>
<path d="M0 0 C0.93065133 2.60582371 1.14917407 3.64198224 0.0625 6.25 C-0.4634375 7.11625 -0.4634375 7.11625 -1 8 C-0.01 9.32 0.98 10.64 2 12 C1.34 12.66 0.68 13.32 0 14 C-0.66 12.68 -1.32 11.36 -2 10 C-3.65 10.66 -5.3 11.32 -7 12 C-7 11.01 -7 10.02 -7 9 C-6.34 9 -5.68 9 -5 9 C-4.896875 8.38125 -4.79375 7.7625 -4.6875 7.125 C-4 5 -4 5 -1 3 C-0.67 2.01 -0.34 1.02 0 0 Z " fill="#021D47" transform="translate(55,86)"/>
<path d="M0 0 C0.99 0.495 0.99 0.495 2 1 C2 3.31 2 5.62 2 8 C3.65 8 5.3 8 7 8 C7 8.99 7 9.98 7 11 C5.00045254 11.04254356 2.99958364 11.04080783 1 11 C0 10 0 10 -0.09765625 7.71484375 C-0.08605469 6.79832031 -0.07445313 5.88179688 -0.0625 4.9375 C-0.05347656 4.01839844 -0.04445313 3.09929687 -0.03515625 2.15234375 C-0.02355469 1.44207031 -0.01195313 0.73179688 0 0 Z " fill="#EEF3F9" transform="translate(117,92)"/>
<path d="M0 0 C1.32 0.66 2.64 1.32 4 2 C3.67 3.32 3.34 4.64 3 6 C1.68 6.33 0.36 6.66 -1 7 C-1.66 5.68 -2.32 4.36 -3 3 C-2.01 2.01 -1.02 1.02 0 0 Z " fill="#3FB3A4" transform="translate(51,95)"/>
<path d="M0 0 C0.99 0 1.98 0 3 0 C3.33 1.65 3.66 3.3 4 5 C6.31 5 8.62 5 11 5 C10.67 6.32 10.34 7.64 10 9 C7.69 9 5.38 9 3 9 C1.64560332 6.29120665 1.93498549 3.99066732 2 1 C1.34 0.67 0.68 0.34 0 0 Z " fill="#DCE0EF" transform="translate(80,83)"/>
<path d="M0 0 C3.82825694 0.0274427 3.82825694 0.0274427 6.125 1.75 C6.62 2.4925 6.62 2.4925 7.125 3.25 C3.1436217 4.5771261 -0.72545227 4.31915913 -4.875 4.25 C-4.875 -0.23923231 -4.64459387 0.29965122 0 0 Z " fill="#DEE4F0" transform="translate(68.875,87.75)"/>
<path d="M0 0 C1.67542976 0.28604898 3.34385343 0.61781233 5 1 C5 2.32 5 3.64 5 5 C3.35 5.33 1.7 5.66 0 6 C-0.38218767 4.34385343 -0.71395102 2.67542976 -1 1 C-0.67 0.67 -0.34 0.34 0 0 Z " fill="#41A5A0" transform="translate(26,84)"/>
<path d="M0 0 C-0.33 1.65 -0.66 3.3 -1 5 C-1.33 4.34 -1.66 3.68 -2 3 C-2.66 3 -3.32 3 -4 3 C-4 3.66 -4 4.32 -4 5 C-5.65 5 -7.3 5 -9 5 C-7.35234966 0.05704899 -4.76872479 -0.25776891 0 0 Z " fill="#020945" transform="translate(79,104)"/>
<path d="M0 0 C3.96 0 7.92 0 12 0 C7.577168 3.317124 6.28089024 3.30466674 1 3 C0.67 2.01 0.34 1.02 0 0 Z " fill="#20204A" transform="translate(130,97)"/>
<path d="M0 0 C1.4540625 0.0309375 1.4540625 0.0309375 2.9375 0.0625 C2.2775 1.3825 1.6175 2.7025 0.9375 4.0625 C0.2775 3.7325 -0.3825 3.4025 -1.0625 3.0625 C-1.7225 4.7125 -2.3825 6.3625 -3.0625 8.0625 C-3.7225 7.4025 -4.3825 6.7425 -5.0625 6.0625 C-4.33395709 0.0884481 -4.33395709 0.0884481 0 0 Z " fill="#1F2251" transform="translate(152.0625,90.9375)"/>
<path d="M0 0 C0.66 0 1.32 0 2 0 C3.28571429 8.42857143 3.28571429 8.42857143 2 13 C1.34 13 0.68 13 0 13 C0 8.71 0 4.42 0 0 Z " fill="#F9FDFE" transform="translate(80,84)"/>
<path d="M0 0 C0.33 0 0.66 0 1 0 C1 3.63 1 7.26 1 11 C0.01 11 -0.98 11 -2 11 C-2.28571429 3.57142857 -2.28571429 3.57142857 0 0 Z " fill="#D1D9E5" transform="translate(164,92)"/>
<path d="M0 0 C0.66 0 1.32 0 2 0 C2.48828125 2.01822917 2.9765625 4.03645833 3.46484375 6.0546875 C3.94846992 8.0585657 3.94846992 8.0585657 5 10 C3.35 9.67 1.7 9.34 0 9 C-1.15941038 5.52176885 -0.70820884 3.54104422 0 0 Z " fill="#171543" transform="translate(95,93)"/>
<path d="M0 0 C0.99 0.33 1.98 0.66 3 1 C3 4.3 3 7.6 3 11 C1.68 10.67 0.36 10.34 -1 10 C-0.01 7.69 0.98 5.38 2 3 C1.34 3 0.68 3 0 3 C0 2.01 0 1.02 0 0 Z " fill="#F5F6FD" transform="translate(73,90)"/>
<path d="M0 0 C0.99 0 1.98 0 3 0 C3 0.66 3 1.32 3 2 C4.32 2.66 5.64 3.32 7 4 C3.78548731 5.60725635 0.56387464 5.05748185 -3 5 C-2.67 3.68 -2.34 2.36 -2 1 C-1.34 1.33 -0.68 1.66 0 2 C0 1.34 0 0.68 0 0 Z " fill="#131847" transform="translate(86,84)"/>
<path d="M0 0 C0.66 0.33 1.32 0.66 2 1 C2 3.31 2 5.62 2 8 C1.01 8 0.02 8 -1 8 C-1 7.01 -1 6.02 -1 5 C-1.66 5 -2.32 5 -3 5 C-3 5.66 -3 6.32 -3 7 C-3.66 7 -4.32 7 -5 7 C-3.70700306 4.11562221 -2.34058637 2.12780579 0 0 Z " fill="#8D91B9" transform="translate(67,106)"/>
<path d="M0 0 C1.98 0 3.96 0 6 0 C6 0.99 6 1.98 6 3 C3.69 3.33 1.38 3.66 -1 4 C-0.67 2.68 -0.34 1.36 0 0 Z " fill="#222450" transform="translate(67,96)"/>
<path d="M0 0 C0 0.66 0 1.32 0 2 C-3.63 2 -7.26 2 -11 2 C-11 1.34 -11 0.68 -11 0 C-9.54263913 -0.19491452 -8.08405407 -0.38069358 -6.625 -0.5625 C-5.81289062 -0.66691406 -5.00078125 -0.77132812 -4.1640625 -0.87890625 C-2 -1 -2 -1 0 0 Z " fill="#F3F9FE" transform="translate(141,95)"/>
<path d="M0 0 C0.66 0 1.32 0 2 0 C2.66 1.98 3.32 3.96 4 6 C3.01 5.67 2.02 5.34 1 5 C1 5.66 1 6.32 1 7 C0.01 6.67 -0.98 6.34 -2 6 C-1.125 1.125 -1.125 1.125 0 0 Z " fill="#010842" transform="translate(86,91)"/>
<path d="M0 0 C0.66 0 1.32 0 2 0 C2.33 2.64 2.66 5.28 3 8 C1.68 8 0.36 8 -1 8 C-1.04241723 5.66705225 -1.04092937 3.33297433 -1 1 C-0.67 0.67 -0.34 0.34 0 0 Z " fill="#EEF2F8" transform="translate(146,92)"/>
<path d="M0 0 C0.103125 0.639375 0.20625 1.27875 0.3125 1.9375 C0.539375 2.618125 0.76625 3.29875 1 4 C1.99 4.33 2.98 4.66 4 5 C3.34 6.32 2.68 7.64 2 9 C0.66666667 8.33333333 -0.66666667 7.66666667 -2 7 C-1.42415568 4.61435923 -0.77772405 2.33317216 0 0 Z " fill="#061650" transform="translate(43,86)"/>
<path d="M0 0 C1.98 0 3.96 0 6 0 C6.33 0.99 6.66 1.98 7 3 C4.36 3 1.72 3 -1 3 C-0.67 2.01 -0.34 1.02 0 0 Z " fill="#201E45" transform="translate(131,91)"/>
<path d="M0 0 C0.99 0.33 1.98 0.66 3 1 C3 1.66 3 2.32 3 3 C2.195625 3.226875 1.39125 3.45375 0.5625 3.6875 C-0.283125 4.120625 -1.12875 4.55375 -2 5 C-2.89386164 7.54775306 -2.89386164 7.54775306 -3 10 C-3.33 10 -3.66 10 -4 10 C-4.25 7.25 -4.25 7.25 -4 4 C-2 1.625 -2 1.625 0 0 Z " fill="#DDE0ED" transform="translate(148,88)"/>
<path d="M0 0 C0.66 0 1.32 0 2 0 C2 2.31 2 4.62 2 7 C0.02 7 -1.96 7 -4 7 C-3.34 6.01 -2.68 5.02 -2 4 C-2 4.66 -2 5.32 -2 6 C-1.34 6 -0.68 6 0 6 C-0.185625 5.38125 -0.37125 4.7625 -0.5625 4.125 C-1 2 -1 2 0 0 Z " fill="#5E628F" transform="translate(85,108)"/>
<path d="M0 0 C-0.99 1.485 -0.99 1.485 -2 3 C-5.625 3.1875 -5.625 3.1875 -9 3 C-8 1 -8 1 -5.625 -0.1875 C-3 -1 -3 -1 0 0 Z " fill="#E6ECF5" transform="translate(141,100)"/>
<path d="M0 0 C2.475 0.495 2.475 0.495 5 1 C5.33 1.99 5.66 2.98 6 4 C4.02 4.99 4.02 4.99 2 6 C0 3 0 3 0 0 Z " fill="#0A104F" transform="translate(89,113)"/>
<path d="M0 0 C2.125 0.9375 2.125 0.9375 4 2 C3.67 2.66 3.34 3.32 3 4 C0.36 3.67 -2.28 3.34 -5 3 C-2 1 -2 1 0 0 Z " fill="#161B4F" transform="translate(73,85)"/>
<path d="M0 0 C1.32 0.33 2.64 0.66 4 1 C4 1.99 4 2.98 4 4 C1.69 4.33 -0.62 4.66 -3 5 C-2.01 3.35 -1.02 1.7 0 0 Z " fill="#898DAF" transform="translate(81,110)"/>
<path d="M0 0 C1.98 0.495 1.98 0.495 4 1 C4 2.32 4 3.64 4 5 C2.68 5.33 1.36 5.66 0 6 C-1.24546405 3.50907189 -0.7767578 2.58919267 0 0 Z " fill="#525478" transform="translate(107,110)"/>
<path d="M0 0 C0.66 0.33 1.32 0.66 2 1 C1.34 2.32 0.68 3.64 0 5 C-1.32 5 -2.64 5 -4 5 C-4.33 4.34 -4.66 3.68 -5 3 C-3.68 3.33 -2.36 3.66 -1 4 C-0.67 2.68 -0.34 1.36 0 0 Z " fill="#1A768F" transform="translate(30,97)"/>
<path d="M0 0 C0.99 0 1.98 0 3 0 C3 1.65 3 3.3 3 5 C1.68 4.67 0.36 4.34 -1 4 C-0.67 2.68 -0.34 1.36 0 0 Z " fill="#3BC2A7" transform="translate(26,84)"/>
</svg>
