<?xml version="1.0" encoding="UTF-8"?>
<svg xmlns="http://www.w3.org/2000/svg" xmlns:xlink="http://www.w3.org/1999/xlink" viewBox="0 0 80 80" version="1.1">
<defs>
<linearGradient id="linear0" gradientUnits="userSpaceOnUse" x1="8295.320312" y1="38.575802" x2="15771" y2="4603.859863" gradientTransform="matrix(0.3125,0,0,0.3125,0,0)">
<stop offset="0" style="stop-color:rgb(25.882353%,52.156863%,92.156863%);stop-opacity:1;"/>
<stop offset="1" style="stop-color:rgb(18.039216%,78.039216%,100%);stop-opacity:1;"/>
</linearGradient>
<linearGradient id="linear1" gradientUnits="userSpaceOnUse" x1="9298.030273" y1="38.575199" x2="5605.72998" y2="19121.400391" gradientTransform="matrix(0.3125,0,0,0.3125,0,0)">
<stop offset="0" style="stop-color:rgb(16.078431%,80.392157%,100%);stop-opacity:1;"/>
<stop offset="0.378601" style="stop-color:rgb(7.843137%,55.686275%,100%);stop-opacity:1;"/>
<stop offset="1" style="stop-color:rgb(3.921569%,37.647059%,100%);stop-opacity:1;"/>
</linearGradient>
<linearGradient id="linear2" gradientUnits="userSpaceOnUse" x1="3259.469971" y1="-810.802979" x2="-1544.780029" y2="6702.649902" gradientTransform="matrix(0.3125,0,0,0.3125,0,0)">
<stop offset="0" style="stop-color:rgb(98.039216%,50.588235%,43.137255%);stop-opacity:1;"/>
<stop offset="0.414726" style="stop-color:rgb(96.862745%,29.019608%,36.078431%);stop-opacity:1;"/>
<stop offset="1" style="stop-color:rgb(96.078431%,11.372549%,17.254902%);stop-opacity:1;"/>
</linearGradient>
<linearGradient id="linear3" gradientUnits="userSpaceOnUse" x1="3001.330078" y1="-1407.72998" x2="1402.810059" y2="4986.580078" gradientTransform="matrix(0.3125,0,0,0.3125,0,0)">
<stop offset="0" style="stop-color:rgb(98.039216%,55.686275%,49.019608%);stop-opacity:1;"/>
<stop offset="0.512635" style="stop-color:rgb(96.862745%,29.019608%,36.078431%);stop-opacity:1;"/>
<stop offset="1" style="stop-color:rgb(96.078431%,11.372549%,17.254902%);stop-opacity:1;"/>
</linearGradient>
</defs>
<g id="surface1">
<path style=" stroke:none;fill-rule:nonzero;fill:rgb(14.117648%,16.078432%,21.960784%);fill-opacity:1;" d="M 61.25 0 L 18.75 0 C 8.394531 0 0 8.394531 0 18.75 L 0 61.25 C 0 71.605469 8.394531 80 18.75 80 L 61.25 80 C 71.605469 80 80 71.605469 80 61.25 L 80 18.75 C 80 8.394531 71.605469 0 61.25 0 Z M 61.25 0 "/>
<path style=" stroke:none;fill-rule:nonzero;fill:url(#linear0);" d="M 37.632812 13.050781 L 13.050781 37.613281 C 11.730469 38.933594 11.730469 41.066406 13.050781 42.386719 L 37.632812 66.949219 C 38.957031 68.269531 41.089844 68.269531 42.414062 66.949219 L 52.71875 56.652344 C 53.902344 55.46875 53.902344 53.550781 52.71875 52.367188 C 51.535156 51.1875 49.617188 51.1875 48.433594 52.367188 L 40.621094 60.175781 C 40.289062 60.503906 39.789062 60.503906 39.460938 60.175781 L 19.832031 40.5625 C 19.5 40.230469 19.5 39.734375 19.832031 39.40625 L 39.460938 19.789062 C 39.789062 19.460938 40.289062 19.460938 40.621094 19.789062 L 48.433594 27.597656 C 49.617188 28.777344 51.535156 28.777344 52.71875 27.597656 C 53.902344 26.414062 53.902344 24.496094 52.71875 23.3125 L 42.414062 13.015625 C 41.085938 11.722656 38.949219 11.734375 37.632812 13.050781 Z M 37.632812 13.050781 "/>
<path style=" stroke:none;fill-rule:nonzero;fill:url(#linear1);" d="M 37.632812 13.050781 L 13.050781 37.613281 C 11.730469 38.933594 11.730469 41.066406 13.050781 42.386719 L 37.632812 66.949219 C 38.957031 68.269531 41.089844 68.269531 42.414062 66.949219 L 52.71875 56.652344 C 53.902344 55.46875 53.902344 53.550781 52.71875 52.367188 C 51.535156 51.1875 49.617188 51.1875 48.433594 52.367188 L 40.621094 60.175781 C 40.289062 60.503906 39.789062 60.503906 39.460938 60.175781 L 19.832031 40.5625 C 19.5 40.230469 19.5 39.734375 19.832031 39.40625 L 39.460938 19.789062 C 40.28125 19.082031 41.617188 17.652344 43.582031 17.316406 C 45.039062 17.070312 46.632812 17.617188 48.363281 18.960938 C 47.207031 17.804688 45.222656 15.820312 42.414062 13.015625 C 41.085938 11.722656 38.949219 11.734375 37.632812 13.050781 Z M 37.632812 13.050781 "/>
<path style=" stroke:none;fill-rule:nonzero;fill:url(#linear2);" d="M 55.097656 50.085938 C 56.28125 51.265625 58.203125 51.265625 59.386719 50.085938 L 66.988281 42.488281 C 68.308594 41.167969 68.308594 39.035156 66.988281 37.714844 L 59.320312 30.078125 C 58.132812 28.894531 56.214844 28.898438 55.027344 30.082031 C 53.84375 31.261719 53.84375 33.179688 55.027344 34.363281 L 60.210938 39.539062 C 60.539062 39.867188 60.539062 40.367188 60.210938 40.695312 L 55.097656 45.800781 C 53.914062 46.984375 53.914062 48.902344 55.097656 50.085938 Z M 55.097656 50.085938 "/>
<path style=" stroke:none;fill-rule:nonzero;fill:url(#linear3);" d="M 40.144531 46.753906 C 43.8125 46.753906 46.785156 43.785156 46.785156 40.121094 C 46.785156 36.460938 43.8125 33.492188 40.144531 33.492188 C 36.480469 33.492188 33.507812 36.460938 33.507812 40.121094 C 33.507812 43.785156 36.480469 46.753906 40.144531 46.753906 Z M 40.144531 46.753906 "/>
</g>
</svg>
