<?xml version="1.0" encoding="UTF-8"?>
<svg xmlns="http://www.w3.org/2000/svg" xmlns:xlink="http://www.w3.org/1999/xlink" viewBox="0 0 120 120" version="1.1">
<defs>
<filter id="alpha" filterUnits="objectBoundingBox" x="0%" y="0%" width="100%" height="100%">
  <feColorMatrix type="matrix" in="SourceGraphic" values="0 0 0 0 1 0 0 0 0 1 0 0 0 0 1 0 0 0 1 0"/>
</filter>
<mask id="mask0">
  <g filter="url(#alpha)">
<rect x="0" y="0" width="120" height="120" style="fill:rgb(0%,0%,0%);fill-opacity:0.996078;stroke:none;"/>
  </g>
</mask>
<clipPath id="clip1">
  <rect x="0" y="0" width="120" height="120"/>
</clipPath>
<g id="surface5" clip-path="url(#clip1)">
<path style=" stroke:none;fill-rule:evenodd;fill:rgb(1.568628%,65.098041%,87.843138%);fill-opacity:1;" d="M 10.273438 0.0742188 C 43.375 0.0507812 76.476562 0.0742188 109.574219 0.148438 C 113.953125 0.878906 117.078125 3.253906 118.949219 7.273438 C 119.324219 8.195312 119.574219 9.144531 119.699219 10.125 C 119.800781 43.324219 119.800781 76.523438 119.699219 109.726562 C 118.902344 114.019531 116.527344 117.097656 112.574219 118.949219 C 111.609375 119.339844 110.609375 119.589844 109.574219 119.699219 C 76.476562 119.800781 43.375 119.800781 10.273438 119.699219 C 5.898438 118.972656 2.773438 116.597656 0.898438 112.574219 C 0.527344 111.65625 0.277344 110.707031 0.148438 109.726562 C 0.0507812 76.523438 0.0507812 43.324219 0.148438 10.125 C 1.320312 4.53125 4.695312 1.179688 10.273438 0.0742188 Z M 10.273438 0.0742188 "/>
</g>
</defs>
<g id="surface1">
<use xlink:href="#surface5" mask="url(#mask0)"/>
<path style=" stroke:none;fill-rule:evenodd;fill:rgb(46.27451%,78.039217%,92.156863%);fill-opacity:1;" d="M 40.574219 75.226562 C 41.171875 75.167969 41.722656 75.265625 42.226562 75.523438 C 41.644531 75.480469 41.097656 75.378906 40.574219 75.226562 Z M 40.574219 75.226562 "/>
<path style=" stroke:none;fill-rule:evenodd;fill:rgb(82.352942%,92.54902%,97.254902%);fill-opacity:1;" d="M 101.625 75.375 C 100.121094 75.363281 98.621094 75.410156 97.125 75.523438 C 97.960938 75.292969 98.835938 75.195312 99.75 75.226562 C 100.402344 75.226562 101.027344 75.273438 101.625 75.375 Z M 101.625 75.375 "/>
<path style=" stroke:none;fill-rule:evenodd;fill:rgb(99.215686%,99.607843%,99.607843%);fill-opacity:1;" d="M 40.574219 75.226562 C 41.097656 75.378906 41.644531 75.480469 42.226562 75.523438 C 42.425781 75.523438 42.625 75.523438 42.824219 75.523438 C 43.128906 75.738281 43.476562 75.839844 43.875 75.824219 C 46.765625 76.507812 49.242188 77.90625 51.300781 80.023438 C 51.398438 80.125 51.398438 80.226562 51.300781 80.324219 C 49.546875 82.101562 47.773438 83.851562 45.976562 85.574219 C 43.058594 82.820312 39.660156 81.996094 35.773438 83.101562 C 32.445312 84.453125 30.394531 86.878906 29.625 90.375 C 29.410156 91.191406 29.308594 92.039062 29.324219 92.925781 C 29.324219 93.453125 29.375 93.953125 29.476562 94.425781 C 30.546875 100.871094 34.347656 103.796875 40.875 103.199219 C 43.011719 102.734375 44.761719 101.65625 46.125 99.976562 C 48.046875 101.722656 49.949219 103.496094 51.824219 105.300781 C 49.273438 108.101562 46.125 109.851562 42.375 110.550781 C 36.625 111.59375 31.425781 110.394531 26.773438 106.949219 C 22.175781 102.828125 20.074219 97.652344 20.476562 91.425781 C 20.683594 90.710938 20.785156 89.960938 20.773438 89.175781 C 22.242188 82.332031 26.34375 77.90625 33.074219 75.898438 C 35.542969 75.328125 38.042969 75.101562 40.574219 75.226562 Z M 40.574219 75.226562 "/>
<path style=" stroke:none;fill-rule:evenodd;fill:rgb(99.215686%,99.607843%,99.607843%);fill-opacity:1;" d="M 70.875 110.476562 C 69.585938 110.699219 68.285156 110.800781 66.976562 110.773438 C 63.3125 110.746094 59.964844 109.722656 56.925781 107.699219 C 56.21875 107.144531 55.570312 106.542969 54.976562 105.898438 C 56.644531 104.054688 58.394531 102.277344 60.226562 100.574219 C 62.582031 103.101562 65.480469 104.226562 68.925781 103.949219 C 71.464844 103.460938 72.539062 101.933594 72.148438 99.375 C 71.839844 98.761719 71.414062 98.238281 70.875 97.800781 C 70.117188 97.320312 69.316406 96.921875 68.476562 96.601562 C 65.558594 95.878906 62.808594 94.777344 60.226562 93.300781 C 57.28125 90.867188 56.105469 87.742188 56.699219 83.925781 C 57.738281 79.789062 60.3125 77.113281 64.425781 75.898438 C 69.710938 74.53125 74.660156 75.28125 79.273438 78.148438 C 79.773438 78.496094 80.222656 78.898438 80.625 79.351562 C 80.402344 79.671875 80.175781 80 79.949219 80.324219 C 78.445312 81.804688 76.96875 83.304688 75.523438 84.824219 C 72.96875 82.046875 69.917969 81.324219 66.375 82.648438 C 65.746094 83.035156 65.269531 83.558594 64.949219 84.226562 C 64.597656 85.566406 64.921875 86.691406 65.925781 87.601562 C 66.683594 88.078125 67.484375 88.480469 68.324219 88.800781 C 70.496094 89.488281 72.644531 90.238281 74.773438 91.050781 C 80.300781 93.917969 81.925781 98.292969 79.648438 104.175781 C 77.78125 107.722656 74.855469 109.824219 70.875 110.476562 Z M 70.875 110.476562 "/>
<path style=" stroke:none;fill-rule:evenodd;fill:rgb(99.215686%,99.607843%,99.607843%);fill-opacity:1;" d="M 101.625 75.375 C 105.363281 75.585938 108.613281 76.9375 111.375 79.425781 C 109.730469 81.292969 108.007812 83.09375 106.199219 84.824219 C 104.855469 83.304688 103.179688 82.40625 101.175781 82.125 C 100.753906 82.023438 100.304688 81.976562 99.824219 81.976562 C 99.179688 81.941406 98.582031 82.042969 98.023438 82.273438 C 95.460938 83.203125 94.835938 84.851562 96.148438 87.226562 C 96.644531 87.71875 97.21875 88.09375 97.875 88.351562 C 100.707031 89.3125 103.507812 90.359375 106.273438 91.5 C 110.511719 93.957031 112.035156 97.582031 110.851562 102.375 C 109.660156 106.5625 106.9375 109.1875 102.675781 110.25 C 97.378906 111.445312 92.429688 110.644531 87.824219 107.851562 C 86.988281 107.3125 86.238281 106.660156 85.574219 105.898438 C 87.359375 104.113281 89.136719 102.339844 90.898438 100.574219 C 92.515625 102.296875 94.492188 103.421875 96.824219 103.949219 C 98.59375 104.246094 100.242188 103.945312 101.773438 103.050781 C 102.757812 101.960938 103.082031 100.683594 102.75 99.226562 C 101.820312 97.949219 100.597656 97.074219 99.074219 96.601562 C 96.097656 95.863281 93.300781 94.710938 90.675781 93.148438 C 87.691406 90.59375 86.613281 87.367188 87.449219 83.476562 C 88.109375 80.765625 89.636719 78.691406 92.023438 77.25 C 93.613281 76.332031 95.3125 75.757812 97.125 75.523438 C 98.621094 75.410156 100.121094 75.363281 101.625 75.375 Z M 101.625 75.375 "/>
<path style=" stroke:none;fill-rule:evenodd;fill:rgb(43.137255%,77.254903%,92.156863%);fill-opacity:1;" d="M 42.824219 75.523438 C 43.222656 75.511719 43.574219 75.613281 43.875 75.824219 C 43.476562 75.839844 43.128906 75.738281 42.824219 75.523438 Z M 42.824219 75.523438 "/>
<path style=" stroke:none;fill-rule:evenodd;fill:rgb(40.000001%,76.47059%,91.764706%);fill-opacity:1;" d="M 101.175781 82.125 C 100.121094 82.097656 99.070312 82.148438 98.023438 82.273438 C 98.582031 82.042969 99.179688 81.941406 99.824219 81.976562 C 100.304688 81.976562 100.753906 82.023438 101.175781 82.125 Z M 101.175781 82.125 "/>
<path style=" stroke:none;fill-rule:evenodd;fill:rgb(74.117649%,89.411765%,96.078432%);fill-opacity:1;" d="M 20.773438 89.175781 C 20.785156 89.960938 20.683594 90.710938 20.476562 91.425781 C 20.445312 90.636719 20.546875 89.886719 20.773438 89.175781 Z M 20.773438 89.175781 "/>
<path style=" stroke:none;fill-rule:evenodd;fill:rgb(47.843137%,78.823531%,92.54902%);fill-opacity:1;" d="M 29.625 90.375 C 29.523438 91.722656 29.476562 93.074219 29.476562 94.425781 C 29.375 93.953125 29.324219 93.453125 29.324219 92.925781 C 29.308594 92.039062 29.410156 91.191406 29.625 90.375 Z M 29.625 90.375 "/>
<path style=" stroke:none;fill-rule:evenodd;fill:rgb(28.627452%,71.764708%,90.196079%);fill-opacity:1;" d="M 70.875 110.476562 C 70.476562 110.714844 70.027344 110.839844 69.523438 110.851562 C 68.648438 110.972656 67.796875 110.949219 66.976562 110.773438 C 68.285156 110.800781 69.585938 110.699219 70.875 110.476562 Z M 70.875 110.476562 "/>
</g>
</svg>
