<?xml version="1.0" encoding="UTF-8"?>
<svg xmlns="http://www.w3.org/2000/svg" xmlns:xlink="http://www.w3.org/1999/xlink" viewBox="0 0 120 120" version="1.1">
<g id="surface1">
<path style=" stroke:none;fill-rule:nonzero;fill:rgb(2.352941%,42.745098%,64.705884%);fill-opacity:1;" d="M 16.539062 -0.03125 C 16.769531 -0.03125 16.769531 -0.03125 17 -0.03125 C 17.511719 -0.0351562 18.023438 -0.0351562 18.535156 -0.0351562 C 18.902344 -0.0351562 19.273438 -0.0351562 19.644531 -0.0351562 C 20.660156 -0.0390625 21.675781 -0.0390625 22.691406 -0.0390625 C 23.789062 -0.0429688 24.886719 -0.0429688 25.984375 -0.046875 C 28.628906 -0.0507812 31.277344 -0.0546875 33.925781 -0.0546875 C 35.175781 -0.0546875 36.421875 -0.0585938 37.671875 -0.0585938 C 41.820312 -0.0625 45.96875 -0.0664062 50.117188 -0.0664062 C 51.195312 -0.0664062 52.269531 -0.0703125 53.347656 -0.0703125 C 53.613281 -0.0703125 53.882812 -0.0703125 54.160156 -0.0703125 C 58.492188 -0.0703125 62.824219 -0.078125 67.15625 -0.0859375 C 71.605469 -0.09375 76.054688 -0.0976562 80.503906 -0.0976562 C 83 -0.0976562 85.5 -0.101562 87.996094 -0.105469 C 90.125 -0.113281 92.25 -0.113281 94.378906 -0.109375 C 95.464844 -0.109375 96.546875 -0.109375 97.632812 -0.113281 C 98.628906 -0.117188 99.621094 -0.117188 100.617188 -0.113281 C 100.976562 -0.113281 101.332031 -0.117188 101.691406 -0.117188 C 104.769531 -0.140625 107.679688 0.34375 110.433594 1.789062 C 110.589844 1.867188 110.742188 1.945312 110.902344 2.027344 C 115.292969 4.386719 118.0625 8.375 119.542969 13.042969 C 119.882812 14.238281 120.03125 15.292969 120.03125 16.539062 C 120.03125 16.691406 120.03125 16.84375 120.03125 17 C 120.035156 17.511719 120.035156 18.023438 120.035156 18.535156 C 120.035156 18.902344 120.035156 19.273438 120.035156 19.644531 C 120.039062 20.660156 120.039062 21.675781 120.039062 22.691406 C 120.042969 23.789062 120.042969 24.886719 120.046875 25.984375 C 120.050781 28.628906 120.054688 31.277344 120.054688 33.925781 C 120.054688 35.175781 120.058594 36.421875 120.058594 37.671875 C 120.0625 41.820312 120.066406 45.96875 120.066406 50.117188 C 120.066406 51.195312 120.070312 52.269531 120.070312 53.347656 C 120.070312 53.613281 120.070312 53.882812 120.070312 54.160156 C 120.070312 58.492188 120.078125 62.824219 120.085938 67.15625 C 120.09375 71.605469 120.097656 76.054688 120.097656 80.503906 C 120.097656 83 120.101562 85.5 120.105469 87.996094 C 120.113281 90.125 120.113281 92.25 120.109375 94.378906 C 120.109375 95.464844 120.109375 96.546875 120.113281 97.632812 C 120.117188 98.628906 120.117188 99.621094 120.113281 100.617188 C 120.113281 100.976562 120.117188 101.332031 120.117188 101.691406 C 120.152344 106.324219 118.8125 110.351562 115.78125 113.90625 C 115.632812 114.101562 115.480469 114.292969 115.328125 114.492188 C 112.824219 117.511719 108.796875 119.355469 105 120 C 104.488281 120.023438 103.972656 120.03125 103.460938 120.03125 C 103.230469 120.03125 103.230469 120.03125 103 120.03125 C 102.488281 120.035156 101.976562 120.035156 101.464844 120.035156 C 101.097656 120.035156 100.726562 120.035156 100.355469 120.035156 C 99.339844 120.039062 98.324219 120.039062 97.308594 120.039062 C 96.210938 120.042969 95.113281 120.042969 94.015625 120.046875 C 91.371094 120.050781 88.722656 120.054688 86.074219 120.054688 C 84.824219 120.054688 83.578125 120.058594 82.328125 120.058594 C 78.179688 120.0625 74.03125 120.066406 69.882812 120.066406 C 68.804688 120.066406 67.730469 120.070312 66.652344 120.070312 C 66.386719 120.070312 66.117188 120.070312 65.839844 120.070312 C 61.507812 120.070312 57.175781 120.078125 52.84375 120.085938 C 48.394531 120.09375 43.945312 120.097656 39.496094 120.097656 C 37 120.097656 34.5 120.101562 32.003906 120.105469 C 29.875 120.113281 27.75 120.113281 25.621094 120.109375 C 24.535156 120.109375 23.453125 120.109375 22.367188 120.113281 C 21.371094 120.117188 20.378906 120.117188 19.382812 120.113281 C 19.023438 120.113281 18.667969 120.117188 18.308594 120.117188 C 13.675781 120.152344 9.648438 118.8125 6.09375 115.78125 C 5.898438 115.632812 5.707031 115.484375 5.507812 115.328125 C 2.507812 112.839844 0.632812 108.796875 0 105 C -0.0234375 104.488281 -0.03125 103.972656 -0.03125 103.460938 C -0.03125 103.308594 -0.03125 103.15625 -0.03125 103 C -0.0351562 102.488281 -0.0351562 101.976562 -0.0351562 101.464844 C -0.0351562 101.097656 -0.0351562 100.726562 -0.0351562 100.355469 C -0.0390625 99.339844 -0.0390625 98.324219 -0.0390625 97.308594 C -0.0429688 96.210938 -0.0429688 95.113281 -0.046875 94.015625 C -0.0507812 91.371094 -0.0546875 88.722656 -0.0546875 86.074219 C -0.0546875 84.824219 -0.0585938 83.578125 -0.0585938 82.328125 C -0.0625 78.179688 -0.0664062 74.03125 -0.0664062 69.882812 C -0.0664062 68.804688 -0.0703125 67.730469 -0.0703125 66.652344 C -0.0703125 66.386719 -0.0703125 66.117188 -0.0703125 65.839844 C -0.0703125 61.507812 -0.078125 57.175781 -0.0859375 52.84375 C -0.09375 48.394531 -0.0976562 43.945312 -0.0976562 39.496094 C -0.0976562 37 -0.101562 34.5 -0.105469 32.003906 C -0.113281 29.875 -0.113281 27.75 -0.109375 25.621094 C -0.109375 24.535156 -0.109375 23.453125 -0.113281 22.367188 C -0.117188 21.371094 -0.117188 20.378906 -0.113281 19.382812 C -0.113281 19.023438 -0.117188 18.667969 -0.117188 18.308594 C -0.140625 15.230469 0.34375 12.320312 1.789062 9.566406 C 1.867188 9.410156 1.945312 9.257812 2.027344 9.097656 C 4.386719 4.707031 8.375 1.9375 13.042969 0.457031 C 14.238281 0.117188 15.292969 -0.03125 16.539062 -0.03125 Z M 16.539062 -0.03125 "/>
<path style=" stroke:none;fill-rule:nonzero;fill:rgb(99.607843%,99.607843%,99.607843%);fill-opacity:1;" d="M 89.296875 40.078125 C 92.460938 41.199219 95.277344 44.441406 96.796875 47.34375 C 97.320312 48.535156 97.734375 49.550781 97.734375 50.859375 C 98.082031 50.742188 98.082031 50.742188 98.4375 50.625 C 102.875 50.328125 106.265625 50.855469 110.15625 52.96875 C 110.3125 53.046875 110.464844 53.125 110.625 53.203125 C 110.257812 55.734375 108.519531 58.125 106.582031 59.734375 C 103.296875 62.1875 99.816406 62.625 95.859375 62.8125 C 95.792969 62.957031 95.726562 63.101562 95.660156 63.246094 C 90.265625 74.949219 81.679688 84.492188 69.433594 89.136719 C 68.816406 89.363281 68.203125 89.585938 67.582031 89.804688 C 67.101562 89.976562 66.625 90.152344 66.144531 90.335938 C 62.414062 91.6875 58.316406 92.390625 54.375 92.8125 C 54.1875 92.832031 54.003906 92.851562 53.8125 92.875 C 48.773438 93.359375 43.136719 93.578125 38.203125 92.34375 C 37.910156 92.273438 37.910156 92.273438 37.613281 92.203125 C 32.035156 90.839844 27.539062 88.410156 23.4375 84.375 C 23.273438 84.214844 23.105469 84.054688 22.9375 83.890625 C 17.53125 78.277344 15.628906 70.070312 15.644531 62.535156 C 15.644531 62.375 15.644531 62.214844 15.644531 62.050781 C 15.652344 59.347656 15.652344 59.347656 15.9375 59.0625 C 16.289062 59.039062 16.640625 59.03125 16.996094 59.03125 C 17.222656 59.03125 17.453125 59.03125 17.691406 59.027344 C 18.074219 59.027344 18.074219 59.027344 18.464844 59.027344 C 18.734375 59.027344 19.003906 59.027344 19.28125 59.027344 C 20.03125 59.023438 20.78125 59.023438 21.53125 59.023438 C 22.339844 59.019531 23.148438 59.019531 23.953125 59.015625 C 25.355469 59.011719 26.757812 59.011719 28.160156 59.007812 C 30.191406 59.003906 32.21875 59 34.25 58.996094 C 37.546875 58.984375 40.84375 58.976562 44.140625 58.96875 C 44.433594 58.96875 44.433594 58.96875 44.738281 58.96875 C 47.535156 58.960938 50.332031 58.957031 53.132812 58.953125 C 53.328125 58.953125 53.523438 58.949219 53.726562 58.949219 C 54.023438 58.949219 54.023438 58.949219 54.324219 58.949219 C 57.605469 58.941406 60.886719 58.933594 64.167969 58.925781 C 66.1875 58.921875 68.210938 58.914062 70.234375 58.914062 C 71.625 58.910156 73.011719 58.90625 74.402344 58.902344 C 75.199219 58.902344 76 58.898438 76.800781 58.898438 C 77.671875 58.898438 78.542969 58.894531 79.410156 58.890625 C 79.660156 58.890625 79.910156 58.894531 80.167969 58.894531 C 82.28125 58.878906 84.46875 58.722656 86.425781 57.859375 C 86.617188 57.777344 86.808594 57.695312 87.007812 57.609375 C 87.214844 57.515625 87.214844 57.515625 87.421875 57.421875 C 87.339844 57.214844 87.257812 57.007812 87.171875 56.796875 C 87.066406 56.523438 86.960938 56.253906 86.851562 55.972656 C 86.746094 55.703125 86.636719 55.433594 86.527344 55.15625 C 85.402344 52.007812 85.5625 47.742188 86.785156 44.652344 C 87.546875 43.085938 88.394531 41.570312 89.296875 40.078125 Z M 89.296875 40.078125 "/>
<path style=" stroke:none;fill-rule:nonzero;fill:rgb(100%,100%,100%);fill-opacity:1;" d="M 69.375 48.515625 C 72.625 48.515625 75.871094 48.515625 79.21875 48.515625 C 79.21875 51.453125 79.21875 54.394531 79.21875 57.421875 C 75.96875 57.421875 72.722656 57.421875 69.375 57.421875 C 69.375 54.484375 69.375 51.542969 69.375 48.515625 Z M 69.375 48.515625 "/>
<path style=" stroke:none;fill-rule:nonzero;fill:rgb(100%,100%,100%);fill-opacity:1;" d="M 57.65625 48.515625 C 60.90625 48.515625 64.152344 48.515625 67.5 48.515625 C 67.5 51.453125 67.5 54.394531 67.5 57.421875 C 64.25 57.421875 61.003906 57.421875 57.65625 57.421875 C 57.65625 54.484375 57.65625 51.542969 57.65625 48.515625 Z M 57.65625 48.515625 "/>
<path style=" stroke:none;fill-rule:nonzero;fill:rgb(100%,100%,100%);fill-opacity:1;" d="M 46.171875 48.515625 C 49.421875 48.515625 52.667969 48.515625 56.015625 48.515625 C 56.015625 51.453125 56.015625 54.394531 56.015625 57.421875 C 52.765625 57.421875 49.519531 57.421875 46.171875 57.421875 C 46.171875 54.484375 46.171875 51.542969 46.171875 48.515625 Z M 46.171875 48.515625 "/>
<path style=" stroke:none;fill-rule:nonzero;fill:rgb(100%,100%,100%);fill-opacity:1;" d="M 22.96875 48.515625 C 26.21875 48.515625 29.464844 48.515625 32.8125 48.515625 C 32.8125 51.453125 32.8125 54.394531 32.8125 57.421875 C 29.5625 57.421875 26.316406 57.421875 22.96875 57.421875 C 22.96875 54.484375 22.96875 51.542969 22.96875 48.515625 Z M 22.96875 48.515625 "/>
<path style=" stroke:none;fill-rule:nonzero;fill:rgb(100%,100%,100%);fill-opacity:1;" d="M 57.65625 37.734375 C 60.90625 37.734375 64.152344 37.734375 67.5 37.734375 C 67.5 40.671875 67.5 43.613281 67.5 46.640625 C 64.25 46.640625 61.003906 46.640625 57.65625 46.640625 C 57.65625 43.703125 57.65625 40.761719 57.65625 37.734375 Z M 57.65625 37.734375 "/>
<path style=" stroke:none;fill-rule:nonzero;fill:rgb(100%,100%,100%);fill-opacity:1;" d="M 46.171875 37.734375 C 49.421875 37.734375 52.667969 37.734375 56.015625 37.734375 C 56.015625 40.671875 56.015625 43.613281 56.015625 46.640625 C 52.765625 46.640625 49.519531 46.640625 46.171875 46.640625 C 46.171875 43.703125 46.171875 40.761719 46.171875 37.734375 Z M 46.171875 37.734375 "/>
<path style=" stroke:none;fill-rule:nonzero;fill:rgb(100%,100%,100%);fill-opacity:1;" d="M 57.65625 26.953125 C 60.90625 26.953125 64.152344 26.953125 67.5 26.953125 C 67.5 29.890625 67.5 32.832031 67.5 35.859375 C 64.25 35.859375 61.003906 35.859375 57.65625 35.859375 C 57.65625 32.921875 57.65625 29.980469 57.65625 26.953125 Z M 57.65625 26.953125 "/>
<path style=" stroke:none;fill-rule:nonzero;fill:rgb(100%,100%,100%);fill-opacity:1;" d="M 34.6875 48.515625 C 37.859375 48.515625 41.03125 48.515625 44.296875 48.515625 C 44.296875 51.453125 44.296875 54.394531 44.296875 57.421875 C 41.125 57.421875 37.953125 57.421875 34.6875 57.421875 C 34.6875 54.484375 34.6875 51.542969 34.6875 48.515625 Z M 34.6875 48.515625 "/>
<path style=" stroke:none;fill-rule:nonzero;fill:rgb(100%,100%,100%);fill-opacity:1;" d="M 34.6875 37.734375 C 37.859375 37.734375 41.03125 37.734375 44.296875 37.734375 C 44.296875 40.671875 44.296875 43.613281 44.296875 46.640625 C 41.125 46.640625 37.953125 46.640625 34.6875 46.640625 C 34.6875 43.703125 34.6875 40.761719 34.6875 37.734375 Z M 34.6875 37.734375 "/>
</g>
</svg>
