<?xml version="1.0" encoding="UTF-8"?>
<svg version="1.1" xmlns="http://www.w3.org/2000/svg" width="400" height="400">
<path d="M0 0 C132 0 264 0 400 0 C400 132 400 264 400 400 C268 400 136 400 0 400 C0 268 0 136 0 0 Z " fill="#1E63ED" transform="translate(0,0)"/>
<path d="M0 0 C1.48034764 0.47550561 2.95925021 0.95551216 4.4375 1.4375 C5.26121094 1.70433594 6.08492188 1.97117187 6.93359375 2.24609375 C9 3 9 3 10 4 C10.15825258 5.99782126 10.25119171 8.00088834 10.31640625 10.00390625 C10.35830078 11.21884766 10.40019531 12.43378906 10.44335938 13.68554688 C10.48267578 14.96494141 10.52199219 16.24433594 10.5625 17.5625 C10.60568359 18.84576172 10.64886719 20.12902344 10.69335938 21.45117188 C10.799848 24.63399853 10.90185962 27.81690674 11 31 C11.01458252 30.19256348 11.02916504 29.38512695 11.04418945 28.55322266 C11.11846086 24.9099873 11.21519025 21.26768967 11.3125 17.625 C11.33505859 16.35398438 11.35761719 15.08296875 11.38085938 13.7734375 C11.4340332 11.95585937 11.4340332 11.95585937 11.48828125 10.1015625 C11.51446533 8.98088379 11.54064941 7.86020508 11.56762695 6.70556641 C11.71031006 5.81272949 11.85299316 4.91989258 12 4 C15.27282975 1.8181135 16.04168015 1.75176937 19.8125 1.8125 C20.85535156 1.82925781 21.89820313 1.84601563 22.97265625 1.86328125 C31.65248831 2.1304584 40.32727336 2.56474303 49 3 C49.93087909 6.93288364 50.11608885 10.57654163 50.09765625 14.61328125 C50.09282227 16.4840332 50.09282227 16.4840332 50.08789062 18.39257812 C50.07532227 20.33293945 50.07532227 20.33293945 50.0625 22.3125 C50.05798828 23.62541016 50.05347656 24.93832031 50.04882812 26.29101562 C50.03705949 29.5273901 50.0206176 32.76367178 50 36 C47.04335481 37.4783226 44.25770263 37.06032783 41 37 C41 38.98 41 40.96 41 43 C41.928125 42.95875 42.85625 42.9175 43.8125 42.875 C47 43 47 43 50 45 C50.43237305 47.88916016 50.43237305 47.88916016 50.51171875 51.5390625 C50.54716797 52.84101563 50.58261719 54.14296875 50.61914062 55.484375 C50.64224231 56.86457809 50.66502464 58.24478657 50.6875 59.625 C50.72066445 61.01305352 50.7551533 62.40107607 50.79101562 63.7890625 C50.87374115 67.19262707 50.94281257 70.5959259 51 74 C51.66 74 52.32 74 53 74 C53.33 64.1 53.66 54.2 54 44 C65.55 44 77.1 44 89 44 C89.04125 49.23875 89.0825 54.4775 89.125 59.875 C89.14320801 61.52741699 89.16141602 63.17983398 89.18017578 64.88232422 C89.1851709 66.1767041 89.19016602 67.47108398 89.1953125 68.8046875 C89.20554443 69.48539307 89.21577637 70.16609863 89.22631836 70.86743164 C89.22695569 72.57995007 89.12255506 74.29187236 89 76 C87 78 87 78 83.73120117 78.21118164 C82.33503815 78.20408174 80.93890437 78.18633537 79.54296875 78.16015625 C78.80299149 78.15495468 78.06301422 78.14975311 77.3006134 78.14439392 C74.92937785 78.12655405 72.55857066 78.09540818 70.1875 78.0625 C67.82718137 78.03481651 65.46692852 78.01007712 63.10652161 77.99131775 C61.63729754 77.9791377 60.16810527 77.96161077 58.69902039 77.93800354 C54.96637455 77.90182817 51.64147954 78.2543809 48 79 C45.57794354 79.0805562 43.15384395 79.10762899 40.73046875 79.09765625 C40.04946609 79.0962413 39.36846344 79.09482635 38.66682434 79.09336853 C36.50700353 79.08780298 34.34728911 79.07525703 32.1875 79.0625 C30.71679838 79.05748054 29.24609512 79.05291841 27.77539062 79.04882812 C24.1835596 79.03784488 20.5917902 79.02060422 17 79 C17 79.66 17 80.32 17 81 C20.08543024 82.02847675 22.2878988 82.15492821 25.52416992 82.20532227 C26.66298615 82.22525742 27.80180237 82.24519257 28.97512817 82.26573181 C30.21439056 82.28245438 31.45365295 82.29917694 32.73046875 82.31640625 C34.01710419 82.33727798 35.30373962 82.35814972 36.62936401 82.37965393 C40.09943308 82.43546462 43.56956385 82.48493698 47.03975296 82.53263092 C49.18316804 82.56243975 51.32655492 82.59379543 53.46994019 82.62567139 C69.33320627 82.86102297 85.1973253 83.09221866 101.0625 83.125 C102.82533325 83.13188843 102.82533325 83.13188843 104.6237793 83.13891602 C115.35536991 83.11898512 125.93185648 82.39252215 136.5 80.5 C137.25796875 80.36980469 138.0159375 80.23960937 138.796875 80.10546875 C142.54268584 79.45715534 146.27664065 78.76831225 150 78 C149.2236068 74.9254644 149.2236068 74.9254644 147 73 C146.51938261 70.54054436 146.1542195 68.17085694 145.875 65.6875 C145.7922583 64.96981445 145.7095166 64.25212891 145.62426758 63.51269531 C143.83126896 46.87632173 145.38301251 31.57986772 156 18 C166.84978248 22.77390429 174.93165243 32.45783705 180 43 C181.57552496 47.49024614 182.23181805 51.24772999 182 56 C183.2375 55.67 184.475 55.34 185.75 55 C198.39921316 52.22865439 211.58063262 53.87240209 223.13671875 59.5859375 C225 61 225 61 225.890625 62.90234375 C226.19186112 68.67962219 220.88190106 74.42163091 217.4375 78.6875 C210.67380327 86.00098683 200.62154685 90.49163002 190.67578125 91.1550293 C188.28037957 91.19532714 185.89513441 91.17571131 183.5 91.125 C182.67757812 91.11597656 181.85515625 91.10695313 181.0078125 91.09765625 C179.00507917 91.07436865 177.00249846 91.03850959 175 91 C174.92652344 91.78632813 174.85304688 92.57265625 174.77734375 93.3828125 C173.73107304 98.25138877 171.72354939 102.40710328 169.5625 106.875 C168.89250977 108.2662207 168.89250977 108.2662207 168.20898438 109.68554688 C159.587517 127.25496076 148.43150121 142.77977506 135 157 C134.24332031 157.82113281 133.48664063 158.64226562 132.70703125 159.48828125 C110.7660533 182.50304278 79.14382484 194.44426298 47.7265625 195.23828125 C26.50989191 195.52800881 7.47672539 194.11823111 -12 185 C-13.423125 184.34064453 -13.423125 184.34064453 -14.875 183.66796875 C-40.00028852 170.99576654 -54.57145707 148.3410393 -63.3125 122.375 C-63.8793421 120.58470233 -64.44198056 118.7930672 -65 117 C-66.34618791 112.816637 -66.34618791 112.816637 -68.08203125 108.7890625 C-69.52681921 104.39936633 -69.51538695 99.96885384 -69.6875 95.375 C-69.73455078 94.42109375 -69.78160156 93.4671875 -69.83007812 92.484375 C-70.13428435 85.40285305 -70.13428435 85.40285305 -69 82 C-67.68 82 -66.36 82 -65 82 C-64.67 80.68 -64.34 79.36 -64 78 C-64.99 78 -65.98 78 -67 78 C-70.24517358 72.66512519 -69.32819456 66.47990702 -69.3125 60.4375 C-69.32861328 59.19291016 -69.34472656 57.94832031 -69.36132812 56.66601562 C-69.36197266 55.47556641 -69.36261719 54.28511719 -69.36328125 53.05859375 C-69.36626221 51.96861084 -69.36924316 50.87862793 -69.37231445 49.75561523 C-69 47 -69 47 -67.94458008 45.1418457 C-64.9379925 43.3763956 -61.90867029 43.61243817 -58.5234375 43.671875 C-57.79758453 43.67374817 -57.07173157 43.67562134 -56.32388306 43.67755127 C-54.79237258 43.6842658 -53.26087908 43.69816857 -51.72949219 43.71875 C-49.37679233 43.74997621 -47.02476177 43.75972804 -44.671875 43.765625 C-43.18488761 43.7747922 -41.69790706 43.78516707 -40.2109375 43.796875 C-39.50367523 43.80112488 -38.79641296 43.80537476 -38.06771851 43.80975342 C-33.11717756 43.88282244 -33.11717756 43.88282244 -32 45 C-30.87468237 51.67321222 -30.8825606 58.2466804 -30.9375 65 C-30.94201172 66.06089844 -30.94652344 67.12179688 -30.95117188 68.21484375 C-30.96286157 70.80995598 -30.97924724 73.40494709 -31 76 C-30.01 76 -29.02 76 -28 76 C-28.01571045 74.61494263 -28.01571045 74.61494263 -28.03173828 73.2019043 C-28.0658319 69.77463282 -28.09090446 66.34754167 -28.10986328 62.92016602 C-28.11991821 61.43706417 -28.13356404 59.95398212 -28.15087891 58.47094727 C-28.17515006 56.33865469 -28.18648799 54.20662431 -28.1953125 52.07421875 C-28.21102295 50.14968872 -28.21102295 50.14968872 -28.22705078 48.1862793 C-28 45 -28 45 -26 42 C-22.77734375 41.5234375 -22.77734375 41.5234375 -18.9375 41.375 C-14.64898349 41.58681708 -14.64898349 41.58681708 -11 40 C-11.90363281 39.95101562 -12.80726562 39.90203125 -13.73828125 39.8515625 C-14.91777344 39.77679688 -16.09726563 39.70203125 -17.3125 39.625 C-18.48425781 39.55539063 -19.65601563 39.48578125 -20.86328125 39.4140625 C-24 39 -24 39 -27 37 C-27.35051623 34.46601206 -27.51268358 32.16338489 -27.546875 29.62109375 C-27.57735931 28.53019188 -27.57735931 28.53019188 -27.60845947 27.41725159 C-27.64867718 25.87997602 -27.68183952 24.34250214 -27.70849609 22.80493164 C-27.74990544 20.44289386 -27.81249726 18.0821575 -27.87890625 15.72070312 C-27.91530131 14.22919638 -27.95049857 12.73765982 -27.984375 11.24609375 C-28.0019989 10.53569443 -28.0196228 9.8252951 -28.03778076 9.09336853 C-28.0648045 7.39574739 -28.03782985 5.69741472 -28 4 C-26.26419468 2.26419468 -23.86819899 2.80886398 -21.50390625 2.75390625 C-20.38822266 2.72103516 -19.27253906 2.68816406 -18.12304688 2.65429688 C-15.7533502 2.59320212 -13.38355272 2.53589745 -11.01367188 2.48242188 C-9.89669922 2.44826172 -8.77972656 2.41410156 -7.62890625 2.37890625 C-6.59838135 2.3538501 -5.56785645 2.32879395 -4.50610352 2.30297852 C-1.82950086 2.24091862 -1.82950086 2.24091862 0 0 Z " fill="#FDFEFE" transform="translate(137,120)"/>
<path d="M0 0 C1.48034764 0.47550561 2.95925021 0.95551216 4.4375 1.4375 C5.26121094 1.70433594 6.08492188 1.97117187 6.93359375 2.24609375 C9 3 9 3 10 4 C10.15825258 5.99782126 10.25119171 8.00088834 10.31640625 10.00390625 C10.35830078 11.21884766 10.40019531 12.43378906 10.44335938 13.68554688 C10.48267578 14.96494141 10.52199219 16.24433594 10.5625 17.5625 C10.60568359 18.84576172 10.64886719 20.12902344 10.69335938 21.45117188 C10.799848 24.63399853 10.90185962 27.81690674 11 31 C11.01458252 30.19256348 11.02916504 29.38512695 11.04418945 28.55322266 C11.11846086 24.9099873 11.21519025 21.26768967 11.3125 17.625 C11.33505859 16.35398438 11.35761719 15.08296875 11.38085938 13.7734375 C11.4340332 11.95585937 11.4340332 11.95585937 11.48828125 10.1015625 C11.51446533 8.98088379 11.54064941 7.86020508 11.56762695 6.70556641 C11.71031006 5.81272949 11.85299316 4.91989258 12 4 C15.27282975 1.8181135 16.04168015 1.75176937 19.8125 1.8125 C20.85535156 1.82925781 21.89820313 1.84601563 22.97265625 1.86328125 C31.65248831 2.1304584 40.32727336 2.56474303 49 3 C49.93087909 6.93288364 50.11608885 10.57654163 50.09765625 14.61328125 C50.09282227 16.4840332 50.09282227 16.4840332 50.08789062 18.39257812 C50.07532227 20.33293945 50.07532227 20.33293945 50.0625 22.3125 C50.05798828 23.62541016 50.05347656 24.93832031 50.04882812 26.29101562 C50.03705949 29.5273901 50.0206176 32.76367178 50 36 C47.04335481 37.4783226 44.25770263 37.06032783 41 37 C41 38.98 41 40.96 41 43 C41.928125 42.95875 42.85625 42.9175 43.8125 42.875 C47 43 47 43 50 45 C50.43237305 47.88916016 50.43237305 47.88916016 50.51171875 51.5390625 C50.54716797 52.84101563 50.58261719 54.14296875 50.61914062 55.484375 C50.64224231 56.86457809 50.66502464 58.24478657 50.6875 59.625 C50.72066445 61.01305352 50.7551533 62.40107607 50.79101562 63.7890625 C50.87374115 67.19262707 50.94281257 70.5959259 51 74 C51.66 74 52.32 74 53 74 C53.33 64.1 53.66 54.2 54 44 C65.55 44 77.1 44 89 44 C89.04125 49.23875 89.0825 54.4775 89.125 59.875 C89.14320801 61.52741699 89.16141602 63.17983398 89.18017578 64.88232422 C89.1851709 66.1767041 89.19016602 67.47108398 89.1953125 68.8046875 C89.20554443 69.48539307 89.21577637 70.16609863 89.22631836 70.86743164 C89.22695569 72.57995007 89.12255506 74.29187236 89 76 C87 78 87 78 83.73120117 78.21118164 C82.33503815 78.20408174 80.93890437 78.18633537 79.54296875 78.16015625 C78.80299149 78.15495468 78.06301422 78.14975311 77.3006134 78.14439392 C74.92937785 78.12655405 72.55857066 78.09540818 70.1875 78.0625 C67.82718137 78.03481651 65.46692852 78.01007712 63.10652161 77.99131775 C61.63729754 77.9791377 60.16810527 77.96161077 58.69902039 77.93800354 C54.96637455 77.90182817 51.64147954 78.2543809 48 79 C45.57794354 79.0805562 43.15384395 79.10762899 40.73046875 79.09765625 C40.04946609 79.0962413 39.36846344 79.09482635 38.66682434 79.09336853 C36.50700353 79.08780298 34.34728911 79.07525703 32.1875 79.0625 C30.71679838 79.05748054 29.24609512 79.05291841 27.77539062 79.04882812 C24.1835596 79.03784488 20.5917902 79.02060422 17 79 C17 79.66 17 80.32 17 81 C20.08543024 82.02847675 22.2878988 82.15492821 25.52416992 82.20532227 C26.66298615 82.22525742 27.80180237 82.24519257 28.97512817 82.26573181 C30.21439056 82.28245438 31.45365295 82.29917694 32.73046875 82.31640625 C34.01710419 82.33727798 35.30373962 82.35814972 36.62936401 82.37965393 C40.09943308 82.43546462 43.56956385 82.48493698 47.03975296 82.53263092 C49.18316804 82.56243975 51.32655492 82.59379543 53.46994019 82.62567139 C69.33320627 82.86102297 85.1973253 83.09221866 101.0625 83.125 C102.82533325 83.13188843 102.82533325 83.13188843 104.6237793 83.13891602 C115.35536991 83.11898512 125.93185648 82.39252215 136.5 80.5 C137.25796875 80.36980469 138.0159375 80.23960937 138.796875 80.10546875 C142.54268584 79.45715534 146.27664065 78.76831225 150 78 C149.2236068 74.9254644 149.2236068 74.9254644 147 73 C146.875 69.375 146.875 69.375 147 66 C148.58971965 68.38457948 149.86741593 70.6304124 151.125 73.1875 C151.47820312 73.90292969 151.83140625 74.61835938 152.1953125 75.35546875 C152.46085938 75.89816406 152.72640625 76.44085938 153 77 C149.66700643 79.88749443 146.47419405 80.95366235 142.25 82.125 C140.49429688 82.62386719 140.49429688 82.62386719 138.703125 83.1328125 C132.00457173 84.70146105 125.51845652 85.14751177 118.67297363 85.12025452 C117.87392908 85.12110894 117.07488452 85.12196337 116.25162649 85.12284368 C113.59546198 85.12448036 110.93936174 85.11900702 108.28320312 85.11352539 C106.37071738 85.1132431 104.45823153 85.11340207 102.54574585 85.1139679 C97.3686892 85.11425424 92.19165582 85.10838381 87.01460457 85.10139394 C81.59872684 85.0951333 76.18284856 85.09455446 70.76696777 85.09336853 C60.51784813 85.09026321 50.26873918 85.08206058 40.01962423 85.07201904 C28.34856185 85.0608331 16.67749895 85.0553412 5.00643253 85.05032361 C-18.99571757 85.0398773 -42.99785818 85.02229333 -67 85 C-66.68934674 88.64599311 -66.37613576 92.29176234 -66.0625 95.9375 C-65.97548828 96.95908203 -65.88847656 97.98066406 -65.79882812 99.03320312 C-65.28122303 105.03358814 -64.69247917 111.01722953 -64 117 C-64.66 116.67 -65.32 116.34 -66 116 C-66.59765625 113.96875 -66.59765625 113.96875 -67.0625 111.5 C-67.45864843 108.46226779 -67.45864843 108.46226779 -69 106 C-69.38212329 102.55582918 -69.47016445 99.08602993 -69.625 95.625 C-69.6765625 94.65304688 -69.728125 93.68109375 -69.78125 92.6796875 C-69.82507813 91.74640625 -69.86890625 90.813125 -69.9140625 89.8515625 C-69.9548291 88.99385254 -69.9955957 88.13614258 -70.03759766 87.25244141 C-70 85 -70 85 -69 82 C-67.68 82 -66.36 82 -65 82 C-64.67 80.68 -64.34 79.36 -64 78 C-64.99 78 -65.98 78 -67 78 C-70.24517358 72.66512519 -69.32819456 66.47990702 -69.3125 60.4375 C-69.32861328 59.19291016 -69.34472656 57.94832031 -69.36132812 56.66601562 C-69.36197266 55.47556641 -69.36261719 54.28511719 -69.36328125 53.05859375 C-69.36626221 51.96861084 -69.36924316 50.87862793 -69.37231445 49.75561523 C-69 47 -69 47 -67.94458008 45.1418457 C-64.9379925 43.3763956 -61.90867029 43.61243817 -58.5234375 43.671875 C-57.79758453 43.67374817 -57.07173157 43.67562134 -56.32388306 43.67755127 C-54.79237258 43.6842658 -53.26087908 43.69816857 -51.72949219 43.71875 C-49.37679233 43.74997621 -47.02476177 43.75972804 -44.671875 43.765625 C-43.18488761 43.7747922 -41.69790706 43.78516707 -40.2109375 43.796875 C-39.50367523 43.80112488 -38.79641296 43.80537476 -38.06771851 43.80975342 C-33.11717756 43.88282244 -33.11717756 43.88282244 -32 45 C-30.87468237 51.67321222 -30.8825606 58.2466804 -30.9375 65 C-30.94201172 66.06089844 -30.94652344 67.12179688 -30.95117188 68.21484375 C-30.96286157 70.80995598 -30.97924724 73.40494709 -31 76 C-30.01 76 -29.02 76 -28 76 C-28.01571045 74.61494263 -28.01571045 74.61494263 -28.03173828 73.2019043 C-28.0658319 69.77463282 -28.09090446 66.34754167 -28.10986328 62.92016602 C-28.11991821 61.43706417 -28.13356404 59.95398212 -28.15087891 58.47094727 C-28.17515006 56.33865469 -28.18648799 54.20662431 -28.1953125 52.07421875 C-28.21102295 50.14968872 -28.21102295 50.14968872 -28.22705078 48.1862793 C-28 45 -28 45 -26 42 C-22.77734375 41.5234375 -22.77734375 41.5234375 -18.9375 41.375 C-14.64898349 41.58681708 -14.64898349 41.58681708 -11 40 C-11.90363281 39.95101562 -12.80726562 39.90203125 -13.73828125 39.8515625 C-14.91777344 39.77679688 -16.09726563 39.70203125 -17.3125 39.625 C-18.48425781 39.55539063 -19.65601563 39.48578125 -20.86328125 39.4140625 C-24 39 -24 39 -27 37 C-27.35051623 34.46601206 -27.51268358 32.16338489 -27.546875 29.62109375 C-27.57735931 28.53019188 -27.57735931 28.53019188 -27.60845947 27.41725159 C-27.64867718 25.87997602 -27.68183952 24.34250214 -27.70849609 22.80493164 C-27.74990544 20.44289386 -27.81249726 18.0821575 -27.87890625 15.72070312 C-27.91530131 14.22919638 -27.95049857 12.73765982 -27.984375 11.24609375 C-28.0019989 10.53569443 -28.0196228 9.8252951 -28.03778076 9.09336853 C-28.0648045 7.39574739 -28.03782985 5.69741472 -28 4 C-26.26419468 2.26419468 -23.86819899 2.80886398 -21.50390625 2.75390625 C-20.38822266 2.72103516 -19.27253906 2.68816406 -18.12304688 2.65429688 C-15.7533502 2.59320212 -13.38355272 2.53589745 -11.01367188 2.48242188 C-9.89669922 2.44826172 -8.77972656 2.41410156 -7.62890625 2.37890625 C-6.59838135 2.3538501 -5.56785645 2.32879395 -4.50610352 2.30297852 C-1.82950086 2.24091862 -1.82950086 2.24091862 0 0 Z " fill="#2063E8" transform="translate(137,120)"/>
<path d="M0 0 C10.56 0 21.12 0 32 0 C32 10.56 32 21.12 32 32 C21.44 32 10.88 32 0 32 C0 21.44 0 10.88 0 0 Z " fill="#FCFEFD" transform="translate(194,164)"/>
<path d="M0 0 C10.56 0 21.12 0 32 0 C32 10.56 32 21.12 32 32 C21.44 32 10.88 32 0 32 C0 21.44 0 10.88 0 0 Z " fill="#FBFEFC" transform="translate(71,164)"/>
<path d="M0 0 C10.56 0 21.12 0 32 0 C32 10.56 32 21.12 32 32 C21.44 32 10.88 32 0 32 C0 21.44 0 10.88 0 0 Z " fill="#F9FDFE" transform="translate(153,164)"/>
<path d="M0 0 C10.56 0 21.12 0 32 0 C32 10.56 32 21.12 32 32 C21.44 32 10.88 32 0 32 C0 21.44 0 10.88 0 0 Z " fill="#FCFDFD" transform="translate(235,164)"/>
<path d="M0 0 C10.56 0 21.12 0 32 0 C32 10.56 32 21.12 32 32 C21.44 32 10.88 32 0 32 C0 21.44 0 10.88 0 0 Z " fill="#FCFDFD" transform="translate(194,124)"/>
<path d="M0 0 C5.094375 -0.020625 10.18875 -0.04125 15.4375 -0.0625 C17.04681396 -0.071604 18.65612793 -0.08070801 20.31420898 -0.09008789 C21.57048096 -0.09258545 22.82675293 -0.09508301 24.12109375 -0.09765625 C26.06133423 -0.10551147 26.06133423 -0.10551147 28.04077148 -0.11352539 C31 0 31 0 32 1 C32.08790975 3.29151417 32.10694038 5.58572524 32.09765625 7.87890625 C32.09515869 9.13517822 32.09266113 10.3914502 32.09008789 11.68579102 C32.08098389 13.29510498 32.07187988 14.90441895 32.0625 16.5625 C32.041875 21.656875 32.02125 26.75125 32 32 C21.44 32 10.88 32 0 32 C0 21.44 0 10.88 0 0 Z " fill="#FAFEFD" transform="translate(112,164)"/>
<path d="M0 0 C5.094375 -0.020625 10.18875 -0.04125 15.4375 -0.0625 C17.04681396 -0.071604 18.65612793 -0.08070801 20.31420898 -0.09008789 C21.57048096 -0.09258545 22.82675293 -0.09508301 24.12109375 -0.09765625 C26.06133423 -0.10551147 26.06133423 -0.10551147 28.04077148 -0.11352539 C31 0 31 0 32 1 C32.08790975 3.29151417 32.10694038 5.58572524 32.09765625 7.87890625 C32.09515869 9.13517822 32.09266113 10.3914502 32.09008789 11.68579102 C32.08098389 13.29510498 32.07187988 14.90441895 32.0625 16.5625 C32.041875 21.656875 32.02125 26.75125 32 32 C21.44 32 10.88 32 0 32 C0 21.44 0 10.88 0 0 Z " fill="#F8FEFD" transform="translate(112,124)"/>
<path d="M0 0 C10.56 0 21.12 0 32 0 C32 10.23 32 20.46 32 31 C21.44 31 10.88 31 0 31 C0 20.77 0 10.54 0 0 Z " fill="#FBFEFD" transform="translate(153,125)"/>
<path d="M0 0 C10.56 0 21.12 0 32 0 C32 10.23 32 20.46 32 31 C21.44 31 10.88 31 0 31 C0 20.77 0 10.54 0 0 Z " fill="#FBFDFD" transform="translate(194,85)"/>
<path d="M0 0 C1.58971965 2.38457948 2.86741593 4.6304124 4.125 7.1875 C4.65480469 8.26064453 4.65480469 8.26064453 5.1953125 9.35546875 C5.46085938 9.89816406 5.72640625 10.44085938 6 11 C2.66700643 13.88749443 -0.52580595 14.95366235 -4.75 16.125 C-5.92046875 16.45757812 -7.0909375 16.79015625 -8.296875 17.1328125 C-14.99542827 18.70146105 -21.48154348 19.14751177 -28.32702637 19.12025452 C-29.12607092 19.12110894 -29.92511548 19.12196337 -30.74837351 19.12284368 C-33.40453802 19.12448036 -36.06063826 19.11900702 -38.71679688 19.11352539 C-40.62928262 19.1132431 -42.54176847 19.11340207 -44.45425415 19.1139679 C-49.6313108 19.11425424 -54.80834418 19.10838381 -59.98539543 19.10139394 C-65.40127316 19.0951333 -70.81715144 19.09455446 -76.23303223 19.09336853 C-86.48215187 19.09026321 -96.73126082 19.08206058 -106.98037577 19.07201904 C-118.65143815 19.0608331 -130.32250105 19.0553412 -141.99356747 19.05032361 C-165.99571757 19.0398773 -189.99785818 19.02229333 -214 19 C-213.68934674 22.64599311 -213.37613576 26.29176234 -213.0625 29.9375 C-212.97548828 30.95908203 -212.88847656 31.98066406 -212.79882812 33.03320312 C-212.28122303 39.03358814 -211.69247917 45.01722953 -211 51 C-211.66 50.67 -212.32 50.34 -213 50 C-215.13883716 42.7683373 -215.24251859 35.93609018 -215.125 28.4375 C-215.11597656 27.33341797 -215.10695313 26.22933594 -215.09765625 25.09179688 C-215.07430128 22.3942983 -215.04155054 19.69726923 -215 17 C-214.07400403 17.00092179 -213.14800806 17.00184359 -212.19395161 17.00279331 C-189.62396958 17.02502934 -167.05398898 17.04144306 -144.4839983 17.05181217 C-133.56916221 17.05696035 -122.65433338 17.06397481 -111.73950195 17.07543945 C-102.22205067 17.08543153 -92.70460465 17.09186418 -83.18714827 17.09408849 C-78.15147513 17.09538793 -73.11581701 17.09842502 -68.0801487 17.10573006 C-63.33191444 17.11256175 -58.58370128 17.11460253 -53.83546257 17.11310768 C-52.1009726 17.11338081 -50.36648185 17.11534325 -48.63199615 17.11920547 C-35.7983051 17.14635973 -23.16757174 16.76848359 -10.5 14.5 C-9.36304688 14.30470703 -9.36304688 14.30470703 -8.203125 14.10546875 C-4.45731416 13.45715534 -0.72335935 12.76831225 3 12 C2.2236068 8.9254644 2.2236068 8.9254644 0 7 C-0.125 3.375 -0.125 3.375 0 0 Z " fill="#3166B2" transform="translate(284,186)"/>
<path d="M0 0 C0.33 0 0.66 0 1 0 C1.02468857 4.5206665 1.04285449 9.0412939 1.05493164 13.56201172 C1.05996552 15.10043013 1.06679308 16.63884375 1.07543945 18.17724609 C1.08754639 20.38640526 1.09323769 22.59550126 1.09765625 24.8046875 C1.10281754 25.49432587 1.10797882 26.18396423 1.11329651 26.89450073 C1.11387171 31.77225659 1.11387171 31.77225659 0 34 C-8.415 34.495 -8.415 34.495 -17 35 C-12.1538411 35.28884086 -12.1538411 35.28884086 -7.30712891 35.56811523 C-2.22222222 35.88888889 -2.22222222 35.88888889 0 37 C0 37.66 0 38.32 0 39 C-10.56 39 -21.12 39 -32 39 C-32 49.56 -32 60.12 -32 71 C-21.44 71 -10.88 71 0 71 C0 60.77 0 50.54 0 40 C0.66 40 1.32 40 2 40 C2.16780395 44.07485825 2.32834318 48.1499316 2.48217773 52.2253418 C2.53552222 53.61148768 2.59084559 54.99755889 2.64819336 56.38354492 C2.73031421 58.37658226 2.80471215 60.36993309 2.87890625 62.36328125 C2.9260376 63.56251221 2.97316895 64.76174316 3.02172852 65.99731445 C3 69 3 69 2 72 C1.11739502 72.02505615 0.23479004 72.0501123 -0.67456055 72.07592773 C-3.96406615 72.1713353 -7.25341182 72.27055193 -10.54272461 72.37231445 C-11.96357775 72.41549804 -13.38447726 72.45718408 -14.80541992 72.49731445 C-16.8534947 72.55542095 -18.90133965 72.61899638 -20.94921875 72.68359375 C-22.17987061 72.72025146 -23.41052246 72.75690918 -24.6784668 72.79467773 C-27.93514237 72.91724317 -27.93514237 72.91724317 -30.81567383 73.58227539 C-33 74 -33 74 -35 73 C-35.0246519 68.17619198 -35.04283693 63.35242033 -35.05493164 58.52856445 C-35.05997174 56.88630536 -35.06680378 55.24405077 -35.07543945 53.60180664 C-35.08751926 51.24624521 -35.09323139 48.89074291 -35.09765625 46.53515625 C-35.10281754 45.79660904 -35.10797882 45.05806183 -35.11329651 44.2971344 C-35.1134925 42.53101912 -35.06194719 40.76502854 -35 39 C-34.505 38.505 -34.505 38.505 -34 38 C-34.020625 37.195625 -34.04125 36.39125 -34.0625 35.5625 C-34 33 -34 33 -32 31 C-29.56255103 30.82511746 -27.2406392 30.76822595 -24.8046875 30.8046875 C-24.09724396 30.8075174 -23.38980042 30.81034729 -22.66091919 30.81326294 C-20.3987749 30.82446863 -18.13702485 30.84957321 -15.875 30.875 C-14.34245363 30.88502933 -12.80990106 30.89415526 -11.27734375 30.90234375 C-7.51795465 30.9227088 -3.75941922 30.96185482 0 31 C0 20.77 0 10.54 0 0 Z " fill="#2F69D3" transform="translate(226,85)"/>
<path d="M0 0 C-5.11064534 3.40709689 -8.46258293 4.29032632 -14.6182251 4.24050903 C-15.77491341 4.24307231 -15.77491341 4.24307231 -16.95496917 4.24568737 C-19.54071179 4.24898349 -22.12619532 4.23797659 -24.71191406 4.22705078 C-26.5646972 4.22648669 -28.41748079 4.22680318 -30.27026367 4.22793579 C-35.30296321 4.2285104 -40.33556771 4.21673855 -45.36824512 4.20278788 C-50.62665642 4.19029857 -55.88506981 4.18911144 -61.14349365 4.18673706 C-71.10235149 4.180517 -81.06116551 4.16409905 -91.02000403 4.14403808 C-102.35723893 4.12169546 -113.69447589 4.11068977 -125.03172731 4.10064721 C-148.35450919 4.0797333 -171.67725214 4.04454708 -195 4 C-196.42222464 8.6343974 -197.02983119 11.3085468 -196 16 C-196.19220963 18.70105114 -196.59106319 21.31919205 -197 24 C-197.33 24 -197.66 24 -198 24 C-198.75726406 18.50983554 -199.05725847 13.2103686 -199.03125 7.6640625 C-199.02673828 6.41318848 -199.02222656 5.16231445 -199.01757812 3.87353516 C-199.01177734 2.92526855 -199.00597656 1.97700195 -199 1 C-173.7918954 0.86945955 -148.58379005 0.73906622 -123.37568378 0.60884857 C-111.67143531 0.54838443 -99.96718709 0.48787195 -88.26293945 0.42724609 C-78.06290539 0.37441191 -67.86287087 0.32166798 -57.66283578 0.26903296 C-52.26077661 0.24115366 -46.85871769 0.21322881 -41.45665932 0.18519592 C-36.3735796 0.15881974 -31.29049927 0.1325641 -26.20741844 0.10640144 C-24.34056449 0.09677139 -22.47371077 0.08709705 -20.6068573 0.07737541 C-18.05999307 0.0641192 -15.51312807 0.05102162 -12.96626282 0.03796387 C-12.22598306 0.03407292 -11.48570329 0.03018197 -10.72299081 0.02617311 C-7.14862017 0.00801601 -3.57441795 -0.00423612 0 0 Z " fill="#E1F8FE" transform="translate(269,204)"/>
<path d="M0 0 C0.99 0 1.98 0 3 0 C3 0.66 3 1.32 3 2 C3.99 1.67 4.98 1.34 6 1 C8.49114967 0.90185505 10.94704074 0.85843569 13.4375 0.875 C14.50025146 0.87898804 14.50025146 0.87898804 15.58447266 0.88305664 C32.05904399 1.02952199 32.05904399 1.02952199 36 3 C36 14.22 36 25.44 36 37 C27.6778125 37.0309375 27.6778125 37.0309375 19.1875 37.0625 C17.43977295 37.071604 15.6920459 37.08070801 13.89135742 37.09008789 C12.50439531 37.09300881 11.11743235 37.09555695 9.73046875 37.09765625 C9.01169556 37.10277222 8.29292236 37.10788818 7.55236816 37.11315918 C4.42307544 37.11370731 1.99286913 36.99762304 -1 36 C-0.67 37.32 -0.34 38.64 0 40 C-1.65 40 -3.3 40 -5 40 C-5 38.68 -5 37.36 -5 36 C-5.66 36 -6.32 36 -7 36 C-7 25.44 -7 14.88 -7 4 C-6.01 4.33 -5.02 4.66 -4 5 C-3.67 12.59 -3.34 20.18 -3 28 C-2.34 28 -1.68 28 -1 28 C-1.00523682 27.29391602 -1.01047363 26.58783203 -1.01586914 25.86035156 C-1.03667413 22.65691012 -1.04967141 19.4534829 -1.0625 16.25 C-1.07087891 15.13882813 -1.07925781 14.02765625 -1.08789062 12.8828125 C-1.09111328 11.81289062 -1.09433594 10.74296875 -1.09765625 9.640625 C-1.10289307 8.65610352 -1.10812988 7.67158203 -1.11352539 6.65722656 C-1.01159103 4.27130486 -0.68303357 2.27835419 0 0 Z M2 4 C2 14.56 2 25.12 2 36 C12.56 36 23.12 36 34 36 C34 25.44 34 14.88 34 4 C23.44 4 12.88 4 2 4 Z " fill="#2A65CF" transform="translate(233,160)"/>
<path d="M0 0 C0.66 0.33 1.32 0.66 2 1 C3.24430344 7.636285 3.11726135 14.26856646 3.0625 21 C3.05798828 22.06089844 3.05347656 23.12179688 3.04882812 24.21484375 C3.03713843 26.80995598 3.02075276 29.40494709 3 32 C3.99 32 4.98 32 6 32 C6 21.77 6 11.54 6 1 C6.99 1 7.98 1 9 1 C9 11.23 9 21.46 9 32 C19.56 32 30.12 32 41 32 C36.73420741 34.1328963 34.79676502 34.24387326 30.12011719 34.22705078 C29.43678314 34.22734283 28.7534491 34.22763489 28.04940796 34.22793579 C25.79843294 34.22654624 23.54779196 34.21100302 21.296875 34.1953125 C19.73317648 34.19158103 18.16947562 34.18873469 16.60577393 34.18673706 C12.49578362 34.17911114 8.3859353 34.15947164 4.27600098 34.1373291 C0.07985352 34.11684822 -4.11631694 34.10773055 -8.3125 34.09765625 C-16.54173173 34.07622472 -24.77084819 34.04210139 -33 34 C-34.95175328 30.39563265 -35.2459195 27.90030238 -35.23046875 23.7734375 C-35.22853516 22.5771875 -35.22660156 21.3809375 -35.22460938 20.1484375 C-35.21236328 18.90320313 -35.20011719 17.65796875 -35.1875 16.375 C-35.18685547 15.12203125 -35.18621094 13.8690625 -35.18554688 12.578125 C-35.14036515 3.2807303 -35.14036515 3.2807303 -34 1 C-33.34 1 -32.68 1 -32 1 C-32 11.23 -32 21.46 -32 32 C-21.44 32 -10.88 32 0 32 C0 21.44 0 10.88 0 0 Z " fill="#2D64C7" transform="translate(103,164)"/>
<path d="M0 0 C0.66 0 1.32 0 2 0 C2 10.56 2 21.12 2 32 C12.56 32 23.12 32 34 32 C34 21.77 34 11.54 34 1 C34.66 1 35.32 1 36 1 C36.495 15.355 36.495 15.355 37 30 C37.66 30 38.32 30 39 30 C39.33 20.1 39.66 10.2 40 0 C40.99 0 41.98 0 43 0 C43 10.56 43 21.12 43 32 C53.23 32 63.46 32 74 32 C73.505 32.99 73.505 32.99 73 34 C64.22025904 34.02318774 55.44052866 34.04094789 46.66076374 34.05181217 C42.58380869 34.05702692 38.50687462 34.064099 34.42993164 34.07543945 C30.49420656 34.08631837 26.55850164 34.09228745 22.62276268 34.09487724 C21.12249624 34.09672247 19.62223088 34.10032572 18.12197304 34.10573006 C16.01789607 34.11300691 13.91390201 34.11398814 11.80981445 34.11352539 C10.01445 34.11685631 10.01445 34.11685631 8.18281555 34.12025452 C5 34 5 34 0 33 C0 22.11 0 11.22 0 0 Z " fill="#2E67C6" transform="translate(151,164)"/>
<path d="M0 0 C0.6084375 0.35191406 1.216875 0.70382812 1.84375 1.06640625 C21.46535399 12.11798614 40.68294586 18.18789329 63.35546875 18.18530273 C65.4663585 18.18746553 67.57670409 18.20558652 69.6875 18.22460938 C91.96498137 18.31817039 113.21662267 13.29959335 133 3 C133 5 133 5 131.73486328 6.52685547 C129.91524859 8.07196595 128.4813737 8.77827622 126.2421875 9.5703125 C125.53449219 9.82683594 124.82679688 10.08335937 124.09765625 10.34765625 C122.99744141 10.73244141 122.99744141 10.73244141 121.875 11.125 C117.07795091 12.48743419 117.07795091 12.48743419 113 15 C111.00041636 15.04080783 108.99954746 15.04254356 107 15 C106.67 15.99 106.34 16.98 106 18 C94.67632135 20.01968109 83.34312434 21.36897269 71.87088013 22.16851807 C70.51011307 22.26370256 69.14963996 22.36319771 67.78952026 22.46722412 C60.08938963 23.04646941 53.44226055 23.17167603 46 21 C46 20.67 46 20.34 46 20 C45.35933594 19.96261719 44.71867187 19.92523438 44.05859375 19.88671875 C38.42037018 19.45818015 34.166069 18.436825 29 16 C27.94554687 15.72027344 26.89109375 15.44054687 25.8046875 15.15234375 C21.51580004 13.85334806 17.77781391 12.05526129 13.8125 10 C13.11447266 9.64421875 12.41644531 9.2884375 11.69726562 8.921875 C10.36934714 8.24464921 9.04260267 7.5651143 7.71728516 6.8828125 C5.81889367 5.90689786 3.91214862 4.94866288 2 4 C2 3.34 2 2.68 2 2 C1.34 2 0.68 2 0 2 C0 1.34 0 0.68 0 0 Z " fill="#346AC9" transform="translate(110,296)"/>
<path d="M0 0 C2.046875 -0.328125 2.046875 -0.328125 4.75 -0.25 C6.3278125 -0.21132812 6.3278125 -0.21132812 7.9375 -0.171875 C9.29176099 -0.11685815 10.64591722 -0.05924112 12 0 C13.34578125 0.05510742 13.34578125 0.05510742 14.71875 0.11132812 C21.14735191 0.37777676 27.57398037 0.67749821 34 1 C34.93087909 4.93288364 35.11608885 8.57654163 35.09765625 12.61328125 C35.09443359 13.86044922 35.09121094 15.10761719 35.08789062 16.39257812 C35.07532227 18.33293945 35.07532227 18.33293945 35.0625 20.3125 C35.05798828 21.62541016 35.05347656 22.93832031 35.04882812 24.29101562 C35.03705949 27.5273901 35.0206176 30.76367178 35 34 C31.94436853 35.52781574 28.75376118 35.14210254 25.40234375 35.1328125 C24.65287979 35.13376923 23.90341583 35.13472595 23.13124084 35.13571167 C21.54672156 35.13639241 19.96219948 35.13454551 18.37768555 35.13037109 C15.94378445 35.12501383 13.51006727 35.13032347 11.07617188 35.13671875 C9.53906209 35.1360581 8.00195242 35.1347772 6.46484375 35.1328125 C5.73257065 35.13483673 5.00029755 35.13686096 4.24583435 35.13894653 C-0.88504332 35.11495668 -0.88504332 35.11495668 -2 34 C-2.21860439 29.61835974 -2.18579078 25.23126872 -2.18530273 20.84472656 C-2.18748408 18.64107816 -2.20562168 16.43793438 -2.22460938 14.234375 C-2.22754428 12.83593922 -2.22952843 11.43750105 -2.23046875 10.0390625 C-2.23457764 8.76240723 -2.23868652 7.48575195 -2.24291992 6.17041016 C-2 3 -2 3 0 0 Z M1 3 C1 13.23 1 23.46 1 34 C11.56 34 22.12 34 33 34 C33 23.77 33 13.54 33 3 C22.44 3 11.88 3 1 3 Z " fill="#3E6EC8" transform="translate(152,122)"/>
<path d="M0 0 C1.12276085 -0.0049926 1.12276085 -0.0049926 2.26820374 -0.01008606 C3.85449609 -0.01515818 5.44079915 -0.0174943 7.02709961 -0.01733398 C9.45899994 -0.01951898 11.89044574 -0.03766706 14.32226562 -0.05664062 C15.86067553 -0.05957474 17.39908759 -0.06155942 18.9375 -0.0625 C20.03287331 -0.07327827 20.03287331 -0.07327827 21.15037537 -0.08427429 C26.30633318 -0.06085432 26.30633318 -0.06085432 28.53515625 2.16796875 C28.76220703 5.24072266 28.76220703 5.24072266 28.73046875 9.14453125 C28.72763885 9.82977875 28.72480896 10.51502625 28.72189331 11.22103882 C28.71068906 13.41185902 28.68558484 15.60227191 28.66015625 17.79296875 C28.65012673 19.27733785 28.64100083 20.76171335 28.6328125 22.24609375 C28.61074919 25.88685136 28.57621801 29.52737031 28.53515625 33.16796875 C18.75139915 37.26765273 6.0797689 36.94758297 -4.46484375 36.16796875 C-5.45484375 35.50796875 -6.44484375 34.84796875 -7.46484375 34.16796875 C-7.81535998 31.63398081 -7.97752733 29.33135364 -8.01171875 26.7890625 C-8.03204163 26.06179459 -8.0523645 25.33452667 -8.07330322 24.58522034 C-8.11352093 23.04794477 -8.14668327 21.51047089 -8.17333984 19.97290039 C-8.21474919 17.61086261 -8.27734101 15.25012625 -8.34375 12.88867188 C-8.38014506 11.39716513 -8.41534232 9.90562857 -8.44921875 8.4140625 C-8.46684265 7.70366318 -8.48446655 6.99326385 -8.50262451 6.26133728 C-8.52964825 4.56371614 -8.5026736 2.86538347 -8.46484375 1.16796875 C-6.49742747 -0.79944753 -2.68916644 0.00408668 0 0 Z M-5.46484375 1.16796875 C-5.46484375 11.72796875 -5.46484375 22.28796875 -5.46484375 33.16796875 C5.09515625 33.16796875 15.65515625 33.16796875 26.53515625 33.16796875 C26.55578125 28.07359375 26.57640625 22.97921875 26.59765625 17.73046875 C26.60676025 16.12115479 26.61586426 14.51184082 26.62524414 12.85375977 C26.6277417 11.59748779 26.63023926 10.34121582 26.6328125 9.046875 C26.63804932 7.75338135 26.64328613 6.4598877 26.64868164 5.12719727 C26.87512557 2.28144471 26.87512557 2.28144471 25.53515625 1.16796875 C23.24364208 1.080059 20.94943101 1.06102837 18.65625 1.0703125 C17.39997803 1.07281006 16.14370605 1.07530762 14.84936523 1.07788086 C13.24005127 1.08698486 11.6307373 1.09608887 9.97265625 1.10546875 C4.87828125 1.12609375 -0.21609375 1.14671875 -5.46484375 1.16796875 Z " fill="#2F62C6" transform="translate(117.46484375,122.83203125)"/>
<path d="M0 0 C10.56 0 21.12 0 32 0 C32 10.56 32 21.12 32 32 C21.44 32 10.88 32 0 32 C0 21.44 0 10.88 0 0 Z M1 4 C0.97077354 7.37498158 0.95312532 10.74993021 0.9375 14.125 C0.92912109 15.07632813 0.92074219 16.02765625 0.91210938 17.0078125 C0.90888672 17.9359375 0.90566406 18.8640625 0.90234375 19.8203125 C0.89710693 20.66867676 0.89187012 21.51704102 0.88647461 22.39111328 C1.01401464 25.32206538 1.46801865 28.11736057 2 31 C6.47915328 31.02886338 10.95828291 31.04675187 15.4375 31.0625 C16.71689453 31.07087891 17.99628906 31.07925781 19.31445312 31.08789062 C20.52939453 31.09111328 21.74433594 31.09433594 22.99609375 31.09765625 C24.12200928 31.10289307 25.2479248 31.10812988 26.40795898 31.11352539 C28.92970871 31.29545448 28.92970871 31.29545448 30 30 C30.08758003 28.00035018 30.10696576 25.9976389 30.09765625 23.99609375 C30.09443359 22.78115234 30.09121094 21.56621094 30.08789062 20.31445312 C30.07951172 19.03505859 30.07113281 17.75566406 30.0625 16.4375 C30.05573242 14.51260742 30.05573242 14.51260742 30.04882812 12.54882812 C30.03699545 9.36583978 30.02051068 6.18294238 30 3 C25.54168018 2.97108454 21.08338431 2.95323019 16.625 2.9375 C15.35398438 2.92912109 14.08296875 2.92074219 12.7734375 2.91210938 C11.56171875 2.90888672 10.35 2.90566406 9.1015625 2.90234375 C7.98088379 2.89710693 6.86020508 2.89187012 5.70556641 2.88647461 C3.03132657 2.81378534 3.03132657 2.81378534 1 4 Z " fill="#D6EBFB" transform="translate(194,164)"/>
<path d="M0 0 C0.66 0.33 1.32 0.66 2 1 C0.02 1.66 -1.96 2.32 -4 3 C-4 3.66 -4 4.32 -4 5 C-2.824375 5.1546875 -2.824375 5.1546875 -1.625 5.3125 C1 6 1 6 3 9 C3.13525391 12.1862793 3.13525391 12.1862793 2.9765625 16.07421875 C2.93902359 17.09996758 2.93902359 17.09996758 2.90072632 18.1464386 C2.81865275 20.32730629 2.72201736 22.50725097 2.625 24.6875 C2.56674731 26.16728019 2.5094443 27.64709809 2.453125 29.12695312 C2.3130945 32.75180422 2.15999996 36.37596924 2 40 C1.34 40 0.68 40 0 40 C-0.33 29.77 -0.66 19.54 -1 9 C-11.89 8.67 -22.78 8.34 -34 8 C-33.67 7.34 -33.34 6.68 -33 6 C-29.43926996 5.64028431 -25.89677643 5.55523621 -22.3203125 5.44140625 C-18.62614101 4.95029875 -18.42030653 4.49149202 -16 2 C-12.96875 1.5234375 -12.96875 1.5234375 -9.5 1.375 C-4.66540309 1.15460232 -4.66540309 1.15460232 0 0 Z " fill="#2864D4" transform="translate(144,156)"/>
<path d="M0 0 C9.24 0 18.48 0 28 0 C28 2.31 28 4.62 28 7 C17.77 7 7.54 7 -3 7 C-3 6.34 -3 5.68 -3 5 C-2.01 5 -1.02 5 0 5 C0 3.35 0 1.7 0 0 Z " fill="#2362DA" transform="translate(198,157)"/>
<path d="M0 0 C10.56 0 21.12 0 32 0 C32 10.56 32 21.12 32 32 C21.44 32 10.88 32 0 32 C0 21.44 0 10.88 0 0 Z M2 2 C-0.12094354 6.24188707 0.77059931 11.83940718 0.75 16.5 C0.729375 17.66660156 0.70875 18.83320313 0.6875 20.03515625 C0.68234375 21.14761719 0.6771875 22.26007813 0.671875 23.40625 C0.6625293 24.43041016 0.65318359 25.45457031 0.64355469 26.50976562 C0.76118164 27.33154297 0.87880859 28.15332031 1 29 C4.49336818 31.32891212 5.86007865 31.23551143 9.98046875 31.1953125 C11.02871826 31.19031738 12.07696777 31.18532227 13.15698242 31.18017578 C14.48705322 31.16196777 15.81712402 31.14375977 17.1875 31.125 C21.415625 31.08375 25.64375 31.0425 30 31 C30 22.09 30 13.18 30 4 C25.63787352 2.25514941 23.89804529 1.7553291 19.48046875 1.8046875 C18.45888672 1.81113281 17.43730469 1.81757812 16.38476562 1.82421875 C15.32966797 1.84097656 14.27457031 1.85773438 13.1875 1.875 C12.11306641 1.88402344 11.03863281 1.89304687 9.93164062 1.90234375 C7.28753146 1.92584694 4.64388128 1.95870425 2 2 Z " fill="#CEE5F7" transform="translate(194,124)"/>
<path d="M0 0 C1.16660156 0.00322266 2.33320313 0.00644531 3.53515625 0.00976562 C4.75847656 0.01814453 5.98179687 0.02652344 7.2421875 0.03515625 C8.47324219 0.03966797 9.70429688 0.04417969 10.97265625 0.04882812 C14.02088142 0.06064295 17.06901064 0.07711597 20.1171875 0.09765625 C20.1171875 2.07765625 20.1171875 4.05765625 20.1171875 6.09765625 C22.0971875 6.09765625 24.0771875 6.09765625 26.1171875 6.09765625 C26.1171875 6.42765625 26.1171875 6.75765625 26.1171875 7.09765625 C15.8871875 7.09765625 5.6571875 7.09765625 -4.8828125 7.09765625 C-5.2128125 5.44765625 -5.5428125 3.79765625 -5.8828125 2.09765625 C-6.5428125 1.76765625 -7.2028125 1.43765625 -7.8828125 1.09765625 C-5.16879956 -0.25935022 -3.03434934 -0.01472985 0 0 Z " fill="#2462D8" transform="translate(157.8828125,156.90234375)"/>
<path d="M0 0 C10.56 0 21.12 0 32 0 C32 10.56 32 21.12 32 32 C21.44 32 10.88 32 0 32 C0 21.44 0 10.88 0 0 Z M1 2 C0.42794003 11.3043872 1.34031509 20.71729087 2 30 C5.19022903 30.94306785 8.06592071 31.12881188 11.38671875 31.1328125 C12.9171582 31.13474609 12.9171582 31.13474609 14.47851562 31.13671875 C15.53748047 31.13285156 16.59644531 31.12898438 17.6875 31.125 C19.29334961 31.13080078 19.29334961 31.13080078 20.93164062 31.13671875 C21.94806641 31.13542969 22.96449219 31.13414062 24.01171875 31.1328125 C25.41103638 31.13112061 25.41103638 31.13112061 26.83862305 31.12939453 C28.98010424 31.24109127 28.98010424 31.24109127 30 30 C30.09977024 28.10888327 30.13080672 26.21405814 30.1328125 24.3203125 C30.13410156 23.16402344 30.13539063 22.00773437 30.13671875 20.81640625 C30.13091797 18.98916016 30.13091797 18.98916016 30.125 17.125 C30.12886719 15.91457031 30.13273437 14.70414063 30.13671875 13.45703125 C30.13478516 11.71873047 30.13478516 11.71873047 30.1328125 9.9453125 C30.13168457 8.87812988 30.13055664 7.81094727 30.12939453 6.71142578 C30.11794423 3.9027548 30.11794423 3.9027548 29 1 C24.52084672 0.97113662 20.04171709 0.95324813 15.5625 0.9375 C14.28310547 0.92912109 13.00371094 0.92074219 11.68554688 0.91210938 C10.47060547 0.90888672 9.25566406 0.90566406 8.00390625 0.90234375 C6.87799072 0.89710693 5.7520752 0.89187012 4.59204102 0.88647461 C2.07029129 0.70454552 2.07029129 0.70454552 1 2 Z " fill="#CEE6FC" transform="translate(235,164)"/>
<path d="M0 0 C10.56 0 21.12 0 32 0 C32 10.23 32 20.46 32 31 C21.44 31 10.88 31 0 31 C0 20.77 0 10.54 0 0 Z M1 3 C0.72172748 5.6215642 0.72172748 5.6215642 0.8046875 8.6640625 C0.81113281 9.78554687 0.81757813 10.90703125 0.82421875 12.0625 C0.84097656 13.238125 0.85773438 14.41375 0.875 15.625 C0.88402344 16.80835938 0.89304688 17.99171875 0.90234375 19.2109375 C0.92597188 22.14082523 0.95891486 25.0703134 1 28 C6.5913573 30.36413094 11.78999094 30.29891936 17.75 30.25 C18.70777344 30.25773437 19.66554687 30.26546875 20.65234375 30.2734375 C21.56628906 30.27085937 22.48023438 30.26828125 23.421875 30.265625 C24.25299805 30.26336914 25.08412109 30.26111328 25.94042969 30.25878906 C28.22309536 30.18586051 28.22309536 30.18586051 30 28 C30.45756227 23.85143538 30.32402177 19.67087925 30.3125 15.5 C30.32861328 14.33339844 30.34472656 13.16679687 30.36132812 11.96484375 C30.36197266 10.85238281 30.36261719 9.73992187 30.36328125 8.59375 C30.36626221 7.56958984 30.36924316 6.54542969 30.37231445 5.49023438 C30.24945068 4.66845703 30.12658691 3.84667969 30 3 C26.63541082 0.75694054 25.46483729 0.74346627 21.52734375 0.734375 C20.46322266 0.73179688 19.39910156 0.72921875 18.30273438 0.7265625 C16.63694336 0.73816406 16.63694336 0.73816406 14.9375 0.75 C13.82310547 0.74226563 12.70871094 0.73453125 11.56054688 0.7265625 C9.96629883 0.73042969 9.96629883 0.73042969 8.33984375 0.734375 C6.87599243 0.73775879 6.87599243 0.73775879 5.38256836 0.74121094 C2.81379174 0.76846361 2.81379174 0.76846361 1 3 Z " fill="#D8F2FC" transform="translate(153,125)"/>
<path d="M0 0 C2.94921875 -0.29638672 2.94921875 -0.29638672 6.6875 -0.1796875 C7.34580811 -0.16036163 8.00411621 -0.14103577 8.68237305 -0.12112427 C10.07464413 -0.07621829 11.46668441 -0.02359465 12.85839844 0.03613281 C14.99142887 0.12464434 17.12364205 0.18119309 19.2578125 0.234375 C20.60944389 0.28193522 21.96101148 0.33135223 23.3125 0.3828125 C25.16294922 0.45072998 25.16294922 0.45072998 27.05078125 0.52001953 C28.02402344 0.67841309 28.99726563 0.83680664 30 1 C30.66 1.99 31.32 2.98 32 4 C21.44 4 10.88 4 0 4 C0 14.23 0 24.46 0 35 C-0.99 35 -1.98 35 -3 35 C-2.90642301 30.49727297 -2.80032075 25.995081 -2.68261719 21.49291992 C-2.64434202 19.96142661 -2.60948651 18.42984385 -2.578125 16.89819336 C-2.53244193 14.6961267 -2.47445463 12.49467504 -2.4140625 10.29296875 C-2.40251129 9.60849167 -2.39096008 8.92401459 -2.37905884 8.21879578 C-2.26726256 4.61539163 -2.05605447 3.0840817 0 0 Z " fill="#3A70CB" transform="translate(194,81)"/>
<path d="M0 0 C1.65 0 3.3 0 5 0 C5 0.66 5 1.32 5 2 C6.32 2 7.64 2 9 2 C9.08159574 6.16138263 8.98248524 9.9472484 8 14 C7.34 14 6.68 14 6 14 C6 14.99 6 15.98 6 17 C4.90516537 18.1632618 3.79536281 19.3151033 2.625 20.40234375 C-0.10282806 23.08427086 -2.4895237 26.07513428 -4.9375 29.01171875 C-7.1885059 31.18172254 -9.06960507 31.99515174 -12 33 C-12.33 33.33 -12.66 33.66 -13 34 C-22.82253992 36.35006562 -32.95540677 36.57589495 -43 37 C-43 36.01 -43 35.02 -43 34 C-41.27716797 33.96132812 -41.27716797 33.96132812 -39.51953125 33.921875 C-26.29509263 33.4947272 -13.33829582 32.14696877 -3 23 C1.53981019 18.06118305 7 11.98414351 7 5 C4.69 3.68 2.38 2.36 0 1 C0 0.67 0 0.34 0 0 Z " fill="#396BC7" transform="translate(355,177)"/>
<path d="M0 0 C5.094375 -0.020625 10.18875 -0.04125 15.4375 -0.0625 C17.04681396 -0.071604 18.65612793 -0.08070801 20.31420898 -0.09008789 C21.57048096 -0.09258545 22.82675293 -0.09508301 24.12109375 -0.09765625 C26.06133423 -0.10551147 26.06133423 -0.10551147 28.04077148 -0.11352539 C31 0 31 0 32 1 C32.08790975 3.29151417 32.10694038 5.58572524 32.09765625 7.87890625 C32.09515869 9.13517822 32.09266113 10.3914502 32.09008789 11.68579102 C32.08098389 13.29510498 32.07187988 14.90441895 32.0625 16.5625 C32.041875 21.656875 32.02125 26.75125 32 32 C21.44 32 10.88 32 0 32 C0 21.44 0 10.88 0 0 Z M4 1 C1.16214519 7.19784275 1.16214519 7.19784275 0.671875 13.20703125 C0.67703125 14.12291016 0.6821875 15.03878906 0.6875 15.98242188 C0.708125 16.91634766 0.72875 17.85027344 0.75 18.8125 C0.75515625 19.76576172 0.7603125 20.71902344 0.765625 21.70117188 C0.647398 26.51007271 0.647398 26.51007271 2 31 C6.45821166 31.08674429 10.91620804 31.14030513 15.375 31.1875 C16.64601562 31.21263672 17.91703125 31.23777344 19.2265625 31.26367188 C21.04414063 31.27817383 21.04414063 31.27817383 22.8984375 31.29296875 C24.57945557 31.31653442 24.57945557 31.31653442 26.29443359 31.34057617 C27.18727051 31.22818604 28.08010742 31.1157959 29 31 C31.36008817 27.45986775 31.23463644 25.98878045 31.1953125 21.80078125 C31.19031738 20.71192627 31.18532227 19.62307129 31.18017578 18.5012207 C31.16196777 17.11894287 31.14375977 15.73666504 31.125 14.3125 C31.08375 9.919375 31.0425 5.52625 31 1 C22.09 1 13.18 1 4 1 Z " fill="#CAE5FA" transform="translate(112,164)"/>
<path d="M0 0 C2.31 0 4.62 0 7 0 C7 0.66 7 1.32 7 2 C9.97 2.495 9.97 2.495 13 3 C13 3.99 13 4.98 13 6 C15.41055254 7.66299965 15.41055254 7.66299965 18 9 C19 10 19 10 19.0625 12.5625 C19.041875 13.366875 19.02125 14.17125 19 15 C15.10997153 11.83369776 11.54978865 8.54978865 8 5 C5.33127625 2.59422998 5.33127625 2.59422998 2 2 C-6.97640627 12.380878 -8.40003317 26.93737851 -8 40 C-7.75938308 43.02430577 -7.40784545 45.99213979 -7 49 C-7.66 49 -8.32 49 -9 49 C-9.73960424 45.02949301 -10.12807578 41.27141336 -10.1328125 37.234375 C-10.13410156 36.17992187 -10.13539063 35.12546875 -10.13671875 34.0390625 C-10.13091797 32.41097656 -10.13091797 32.41097656 -10.125 30.75 C-10.12886719 29.64914063 -10.13273437 28.54828125 -10.13671875 27.4140625 C-10.13542969 26.36476562 -10.13414062 25.31546875 -10.1328125 24.234375 C-10.13168457 23.27756836 -10.13055664 22.32076172 -10.12939453 21.33496094 C-10 19 -10 19 -9 17 C-8.34 17 -7.68 17 -7 17 C-7 14.36 -7 11.72 -7 9 C-6.01 9 -5.02 9 -4 9 C-3.71125 8.2575 -3.4225 7.515 -3.125 6.75 C-2.17697356 4.43260203 -1.15154089 2.22082885 0 0 Z " fill="#396AC3" transform="translate(291,137)"/>
<path d="M0 0 C10.56 0 21.12 0 32 0 C32 10.56 32 21.12 32 32 C21.44 32 10.88 32 0 32 C0 21.44 0 10.88 0 0 Z M2 1 C0.59087904 3.81824192 0.88816447 6.17251282 0.90234375 9.3203125 C0.90484131 10.45227051 0.90733887 11.58422852 0.90991211 12.75048828 C0.91901611 14.19407715 0.92812012 15.63766602 0.9375 17.125 C0.958125 21.70375 0.97875 26.2825 1 31 C10.24 31 19.48 31 29 31 C29 30.01 29 29.02 29 28 C29.66 28 30.32 28 31 28 C31 19.09 31 10.18 31 1 C21.43 1 11.86 1 2 1 Z " fill="#C5E1FC" transform="translate(71,164)"/>
<path d="M0 0 C10.56 0 21.12 0 32 0 C32 10.56 32 21.12 32 32 C31.67 32 31.34 32 31 32 C31 21.77 31 11.54 31 1 C21.76 1 12.52 1 3 1 C2.67 11.23 2.34 21.46 2 32 C1.34 32 0.68 32 0 32 C0 21.44 0 10.88 0 0 Z " fill="#C1DEFA" transform="translate(153,164)"/>
<path d="M0 0 C0.9140625 1.87109375 0.9140625 1.87109375 1 4 C0.07421875 6.32421875 0.07421875 6.32421875 -1.3125 8.6875 C-1.76238281 9.47511719 -2.21226562 10.26273438 -2.67578125 11.07421875 C-4 13 -4 13 -6 14 C-5.85962479 12.18706911 -5.71255111 10.3746557 -5.5625 8.5625 C-5.48128906 7.55316406 -5.40007812 6.54382813 -5.31640625 5.50390625 C-5 3 -5 3 -4 2 C-4.78375 1.731875 -5.5675 1.46375 -6.375 1.1875 C-9 0 -9 0 -11 -3 C-14.09814789 -3.60583374 -14.09814789 -3.60583374 -17.7578125 -3.73046875 C-18.42086395 -3.770616 -19.08391541 -3.81076324 -19.76705933 -3.85212708 C-21.88585396 -3.97732815 -24.00511107 -4.08263341 -26.125 -4.1875 C-27.56127259 -4.26887476 -28.99747264 -4.35154116 -30.43359375 -4.43554688 C-33.95501035 -4.63869455 -37.4771098 -4.82401347 -41 -5 C-41 -5.33 -41 -5.66 -41 -6 C-27.86414649 -8.388337 -11.10708794 -8.42927848 0 0 Z " fill="#DAEDF8" transform="translate(362,181)"/>
<path d="M0 0 C0.33 0 0.66 0 1 0 C0.67 2.97 0.34 5.94 0 9 C-0.33 8.34 -0.66 7.68 -1 7 C-1.66 7 -2.32 7 -3 7 C-3 8.32 -3 9.64 -3 11 C-3.97753644 12.02196992 -4.9805881 13.01979625 -6 14 C-7.10636395 16.39068734 -7.10636395 16.39068734 -8 19 C-9.19886502 22.35682204 -10.16354531 24.75447337 -13 27 C-13.66 27 -14.32 27 -15 27 C-15.226875 27.5775 -15.45375 28.155 -15.6875 28.75 C-17 31 -17 31 -19.4375 32.9375 C-22.11621109 34.8481388 -22.11621109 34.8481388 -23.5625 37.625 C-25.14163268 40.23400183 -26.12339114 41.07206166 -29 42 C-29.66 41.67 -30.32 41.34 -31 41 C-30.46632813 40.50113281 -29.93265625 40.00226563 -29.3828125 39.48828125 C-18.15656391 28.66990675 -10.05029187 16.22105626 -2 3 C-1.34 2.01 -0.68 1.02 0 0 Z " fill="#396BC4" transform="translate(300,238)"/>
<path d="M0 0 C10.56 0 21.12 0 32 0 C32 10.23 32 20.46 32 31 C29.99019419 26.98038839 29.76052983 25.46807628 29.8046875 21.140625 C29.80968262 20.13547852 29.81467773 19.13033203 29.81982422 18.09472656 C29.84713623 16.19158691 29.84713623 16.19158691 29.875 14.25 C29.936875 8.18625 29.936875 8.18625 30 2 C20.1 2.33 10.2 2.66 0 3 C0 2.01 0 1.02 0 0 Z " fill="#D8EFFE" transform="translate(194,85)"/>
<path d="M0 0 C1.98 0.66 3.96 1.32 6 2 C6.0825 2.94875 6.165 3.8975 6.25 4.875 C6.83782975 9.16527985 8.45734066 12.90620445 10.16015625 16.86328125 C11 19 11 19 11 21 C11.70495605 20.98952637 12.40991211 20.97905273 13.13623047 20.96826172 C16.38244956 20.92625495 19.62861116 20.9005334 22.875 20.875 C24.53789062 20.84986328 24.53789062 20.84986328 26.234375 20.82421875 C33.07872779 20.78395785 39.35514827 21.33267794 46 23 C42.33061864 25.02673854 40.62630995 25.02347071 36.5 24.125 C27.22639152 22.37419694 18.31400686 22.75813242 9 24 C8.77957031 22.78376953 8.77957031 22.78376953 8.5546875 21.54296875 C6.91862051 13.46606332 4.33440478 6.99957276 0 0 Z " fill="#3969C2" transform="translate(310,152)"/>
<path d="M0 0 C4.39656173 -0.02465504 8.7930872 -0.04283842 13.18969727 -0.05493164 C14.68644918 -0.05997121 16.18319616 -0.06680287 17.67993164 -0.07543945 C19.82699807 -0.08752159 21.97399962 -0.09323191 24.12109375 -0.09765625 C26.06133423 -0.10551147 26.06133423 -0.10551147 28.04077148 -0.11352539 C31 0 31 0 32 1 C32.08790975 3.29151417 32.10694038 5.58572524 32.09765625 7.87890625 C32.0962413 8.5655687 32.09482635 9.25223114 32.09336853 9.95970154 C32.08775479 12.16067801 32.07520007 14.36155409 32.0625 16.5625 C32.05748676 18.05143083 32.05292355 19.54036324 32.04882812 21.02929688 C32.03778093 24.68623075 32.02050713 28.34310558 32 32 C31.67 32 31.34 32 31 32 C31 22.1 31 12.2 31 2 C26.441875 2.144375 21.88375 2.28875 17.1875 2.4375 C15.75301514 2.48060303 14.31853027 2.52370605 12.84057617 2.56811523 C11.71111572 2.60622314 10.58165527 2.64433105 9.41796875 2.68359375 C8.26063232 2.72025146 7.1032959 2.75690918 5.91088867 2.79467773 C2.9356554 2.88328509 2.9356554 2.88328509 0 4 C0 2.68 0 1.36 0 0 Z " fill="#B1D0F7" transform="translate(112,124)"/>
<path d="M0 0 C0.6084375 0.35191406 1.216875 0.70382812 1.84375 1.06640625 C17.3515849 9.8009662 32.4092525 15.20520834 50 18 C50 18.33 50 18.66 50 19 C35.66550401 19.53679805 35.66550401 19.53679805 29 16 C27.95070312 15.71898437 26.90140625 15.43796875 25.8203125 15.1484375 C21.52099111 13.85600346 17.78451723 12.05873569 13.8125 10 C13.11447266 9.64421875 12.41644531 9.2884375 11.69726562 8.921875 C10.36934714 8.24464921 9.04260267 7.5651143 7.71728516 6.8828125 C5.81889367 5.90689786 3.91214862 4.94866288 2 4 C2 3.34 2 2.68 2 2 C1.34 2 0.68 2 0 2 C0 1.34 0 0.68 0 0 Z " fill="#3D6BC3" transform="translate(110,296)"/>
<path d="M0 0 C1.58971965 2.38457948 2.86741593 4.6304124 4.125 7.1875 C4.47820312 7.90292969 4.83140625 8.61835938 5.1953125 9.35546875 C5.59363281 10.16951172 5.59363281 10.16951172 6 11 C-2.51774535 18.25355444 -16.26356656 19.06213214 -27 19 C-29.00743671 18.71485274 -31.01167038 18.39705973 -33 18 C-33 17.67 -33 17.34 -33 17 C-32.27039063 16.96261719 -31.54078125 16.92523438 -30.7890625 16.88671875 C-19.39315757 16.16919881 -8.17735527 14.30643839 3 12 C2.2236068 8.9254644 2.2236068 8.9254644 0 7 C-0.125 3.375 -0.125 3.375 0 0 Z " fill="#3D6DCA" transform="translate(284,186)"/>
<path d="M0 0 C1.65 0 3.3 0 5 0 C2.0657868 4.74316988 -1.25265492 8.50197427 -5.25 12.375 C-5.80429687 12.92027344 -6.35859375 13.46554687 -6.9296875 14.02734375 C-8.28188731 15.35622977 -9.6403035 16.67878548 -11 18 C-12 16 -12 16 -11.5 13.625 C-10.9926758 10.96154796 -11.15554432 9.53336705 -12 7 C-9 6 -9 6 -6 7 C-2.84950652 5.18607951 -1.38009621 3.33523252 0 0 Z " fill="#EDF9F7" transform="translate(276,266)"/>
<path d="M0 0 C0.66 0.33 1.32 0.66 2 1 C1.67 2.98 1.34 4.96 1 7 C2.98 7 4.96 7 7 7 C7 7.33 7 7.66 7 8 C5.02 8 3.04 8 1 8 C0.34 11.3 -0.32 14.6 -1 18 C-2.98 18.33 -4.96 18.66 -7 19 C-7.33 20.65 -7.66 22.3 -8 24 C-8.66 24 -9.32 24 -10 24 C-8.04343183 17.4781061 -5.44298123 11.64394894 -2.3046875 5.6015625 C-0.91712272 2.98905094 -0.91712272 2.98905094 0 0 Z " fill="#2A63D7" transform="translate(311,214)"/>
<path d="M0 0 C11.22 0 22.44 0 34 0 C27.46757051 4.35495299 17.60927398 3.10453368 9.875 3.25 C8.63492188 3.27578125 7.39484375 3.3015625 6.1171875 3.328125 C3 3 3 3 0 0 Z " fill="#316BCC" transform="translate(110,156)"/>
<path d="M0 0 C0.66 0 1.32 0 2 0 C3.09828769 3.54188278 3.11445011 6.8209762 3.09765625 10.515625 C3.09443359 11.76601562 3.09121094 13.01640625 3.08789062 14.3046875 C3.07951172 15.60664063 3.07113281 16.90859375 3.0625 18.25 C3.05798828 19.56742188 3.05347656 20.88484375 3.04882812 22.2421875 C3.03704316 25.49483741 3.02059011 28.74739584 3 32 C2.01 31.67 1.02 31.34 0 31 C0 20.77 0 10.54 0 0 Z " fill="#2E5BE2" transform="translate(107,124)"/>
<path d="M0 0 C2.4375 0.375 2.4375 0.375 5 1 C6.33332095 3.6666419 5.67102033 5.16680303 5 8 C3.35 8.33 1.7 8.66 0 9 C-0.33 10.65 -0.66 12.3 -1 14 C-1.99 13.34 -2.98 12.68 -4 12 C-6.74518321 11.75812349 -6.74518321 11.75812349 -9.6875 11.875 C-10.68136719 11.89304688 -11.67523438 11.91109375 -12.69921875 11.9296875 C-13.45847656 11.95289063 -14.21773438 11.97609375 -15 12 C-11.69289314 10.21801523 -8.31785001 9.03842935 -4.75 7.875 C-3.67234375 7.52179688 -2.5946875 7.16859375 -1.484375 6.8046875 C-0.25460937 6.40636719 -0.25460937 6.40636719 1 6 C1.15811388 2.94729537 1.15811388 2.94729537 0 0 Z " fill="#E0F2FA" transform="translate(287,192)"/>
<path d="M0 0 C0.99 0.33 1.98 0.66 3 1 C2.67 11.23 2.34 21.46 2 32 C1.34 32 0.68 32 0 32 C0 21.44 0 10.88 0 0 Z " fill="#2A63CC" transform="translate(226,164)"/>
<path d="M0 0 C0.99 0.33 1.98 0.66 3 1 C3 11.23 3 21.46 3 32 C2.34 32 1.68 32 1 32 C0.67 21.44 0.34 10.88 0 0 Z " fill="#3E63BC" transform="translate(109,124)"/>
<path d="M0 0 C0 4.06772485 -1.54175504 5.09653495 -4.25 8.0625 C-5.03890625 8.94035156 -5.8278125 9.81820313 -6.640625 10.72265625 C-9.78369725 13.7564495 -11.6185582 15 -16 15 C-16 15.66 -16 16.32 -16 17 C-21.75 20 -21.75 20 -24 20 C-22.78813462 16.36440385 -21.53733063 16.09752345 -18.3046875 14.3671875 C-11.67737363 10.43573012 -5.31548597 5.58189457 0 0 Z " fill="#3C6DBA" transform="translate(268,280)"/>
<path d="M0 0 C0.33 0 0.66 0 1 0 C1 9.9 1 19.8 1 30 C-9.23 30 -19.46 30 -30 30 C-30 29.67 -30 29.34 -30 29 C-20.76 28.67 -11.52 28.34 -2 28 C-0.96285478 24.88856433 -0.79968139 22.50531904 -0.68359375 19.23828125 C-0.64169922 18.12001953 -0.59980469 17.00175781 -0.55664062 15.84960938 C-0.51732422 14.68236328 -0.47800781 13.51511719 -0.4375 12.3125 C-0.39431641 11.13365234 -0.35113281 9.95480469 -0.30664062 8.74023438 C-0.20048824 5.82694117 -0.09843758 2.91356243 0 0 Z " fill="#E6FEFF" transform="translate(142,126)"/>
<path d="M0 0 C0.66 0 1.32 0 2 0 C2.16780395 4.07485825 2.32834318 8.1499316 2.48217773 12.2253418 C2.53552222 13.61148768 2.59084559 14.99755889 2.64819336 16.38354492 C2.73031421 18.37658226 2.80471215 20.36993309 2.87890625 22.36328125 C2.9260376 23.56251221 2.97316895 24.76174316 3.02172852 25.99731445 C3 29 3 29 2 32 C1.34 32 0.68 32 0 32 C0 21.44 0 10.88 0 0 Z " fill="#2563D1" transform="translate(226,125)"/>
<path d="M0 0 C0.66 0 1.32 0 2 0 C2.33 10.23 2.66 20.46 3 31 C2.01 31 1.02 31 0 31 C0 20.77 0 10.54 0 0 Z " fill="#3062BF" transform="translate(185,165)"/>
<path d="M0 0 C0 0.99 0 1.98 0 3 C-10.69354839 6.08467742 -10.69354839 6.08467742 -15.328125 6.31640625 C-16.52695312 6.37924805 -16.52695312 6.37924805 -17.75 6.44335938 C-18.575 6.48267578 -19.4 6.52199219 -20.25 6.5625 C-21.09046875 6.60568359 -21.9309375 6.64886719 -22.796875 6.69335938 C-24.86440671 6.79908543 -26.93218281 6.90001295 -29 7 C-29 6.01 -29 5.02 -29 4 C-27.82824219 3.96261719 -26.65648437 3.92523438 -25.44921875 3.88671875 C-16.6057916 3.53934547 -8.43343841 2.95356103 0 0 Z " fill="#4B75C7" transform="translate(341,207)"/>
<path d="M0 0 C2.31 1.98 4.62 3.96 7 6 C6.67 7.32 6.34 8.64 6 10 C8.475 10.99 8.475 10.99 11 12 C11 12.99 11 13.98 11 15 C7.57143381 13.49017269 5.04321784 11.48286031 2.25 9 C1.45078125 8.29875 0.6515625 7.5975 -0.171875 6.875 C-2 5 -2 5 -2 3 C-1.34 2.67 -0.68 2.34 0 2 C0 1.34 0 0.68 0 0 Z " fill="#F1FAF2" transform="translate(98,279)"/>
<path d="M0 0 C0.33 0 0.66 0 1 0 C1.03738281 1.31613281 1.07476562 2.63226563 1.11328125 3.98828125 C1.44073839 13.32036606 1.76468823 22.12832746 5 31 C4.34 31.33 3.68 31.66 3 32 C2.516941 30.60550891 2.03874483 29.20933293 1.5625 27.8125 C1.16224609 26.64654297 1.16224609 26.64654297 0.75390625 25.45703125 C-0.69665717 20.72954735 -1.13655925 16.44735997 -1.125 11.5 C-1.12757813 10.3965625 -1.13015625 9.293125 -1.1328125 8.15625 C-1.01325821 5.31507756 -0.64925815 2.76192358 0 0 Z " fill="#D6EDFD" transform="translate(283,159)"/>
<path d="M0 0 C0.99 0.66 1.98 1.32 3 2 C0.65215436 3.77976973 -1.70266934 5.54874344 -4.0625 7.3125 C-4.71927734 7.81201172 -5.37605469 8.31152344 -6.05273438 8.82617188 C-10.21746723 11.92407661 -14.14644336 14.15072549 -19 16 C-18.34 14.68 -17.68 13.36 -17 12 C-15.68 12 -14.36 12 -13 12 C-12.67 11.01 -12.34 10.02 -12 9 C-10.66666667 8.66666667 -9.33333333 8.33333333 -8 8 C-7.67 7.01 -7.34 6.02 -7 5 C-4.9375 4.3125 -4.9375 4.3125 -3 4 C-3 3.34 -3 2.68 -3 2 C-2.01 2 -1.02 2 0 2 C0 1.34 0 0.68 0 0 Z " fill="#D8F0FB" transform="translate(260,284)"/>
<path d="M0 0 C-5.27706759 4.10438591 -8.99525408 6.34319465 -15.8125 6.6875 C-16.97394531 6.75324219 -18.13539063 6.81898438 -19.33203125 6.88671875 C-20.21246094 6.92410156 -21.09289062 6.96148437 -22 7 C-22 6.67 -22 6.34 -22 6 C-20.6696875 5.6596875 -20.6696875 5.6596875 -19.3125 5.3125 C-14.32574371 3.9170291 -9.58087442 1.8817151 -4.79296875 -0.07421875 C-2 -1 -2 -1 0 0 Z " fill="#2061DD" transform="translate(239,305)"/>
<path d="M0 0 C-1.8331267 5.99932374 -4.07321751 11.44920563 -7 17 C-7.33 17 -7.66 17 -8 17 C-7.14285714 8.42857143 -7.14285714 8.42857143 -5 5 C-4.34 5 -3.68 5 -3 5 C-3.33 3.68 -3.66 2.36 -4 1 C-2 0 -2 0 0 0 Z " fill="#E0F3FD" transform="translate(312,212)"/>
<path d="M0 0 C-4.05233103 2.17089162 -7.51073147 3.13249446 -12.109375 3.09765625 C-12.86347656 3.09443359 -13.61757813 3.09121094 -14.39453125 3.08789062 C-15.17183594 3.07951172 -15.94914062 3.07113281 -16.75 3.0625 C-17.54277344 3.05798828 -18.33554687 3.05347656 -19.15234375 3.04882812 C-21.10159508 3.03708565 -23.05080738 3.01915146 -25 3 C-25 2.67 -25 2.34 -25 2 C-16.63994116 -0.38858824 -8.61264844 -0.190218 0 0 Z " fill="#E2F5FE" transform="translate(338,208)"/>
<path d="M0 0 C10.23 0.33 20.46 0.66 31 1 C31 1.33 31 1.66 31 2 C30.26885986 2.02505615 29.53771973 2.0501123 28.78442383 2.07592773 C25.46028583 2.19222641 22.13640759 2.31479928 18.8125 2.4375 C17.66201172 2.47681641 16.51152344 2.51613281 15.32617188 2.55664062 C13.65844727 2.61948242 13.65844727 2.61948242 11.95703125 2.68359375 C10.93585205 2.72025146 9.91467285 2.75690918 8.86254883 2.79467773 C6.16171537 2.98840063 3.63833872 3.40451953 1 4 C0.67 2.68 0.34 1.36 0 0 Z " fill="#2660D7" transform="translate(234,196)"/>
<path d="M0 0 C2.02225194 3.0333779 2.99347524 5.61344489 4.125 9.0625 C4.47820312 10.12597656 4.83140625 11.18945312 5.1953125 12.28515625 C6 15 6 15 6 17 C5.34 17 4.68 17 4 17 C-0.0333905 11.20200116 -0.50604984 6.98629919 0 0 Z " fill="#396AC9" transform="translate(73,239)"/>
<path d="M0 0 C1.65 0 3.3 0 5 0 C2.01665146 5.01202555 -1.43951988 8.38748484 -6 12 C-5.259654 8.61556116 -4.13565214 6.73363474 -2 4 C-1.30419733 2.68163705 -0.62775567 1.35208914 0 0 Z " fill="#E1F5FC" transform="translate(276,266)"/>
<path d="M0 0 C0.33 0.66 0.66 1.32 1 2 C1.66 2 2.32 2 3 2 C4.09506492 5.28519475 4.09960608 7.73663415 4.0625 11.1875 C4.05347656 12.27417969 4.04445313 13.36085937 4.03515625 14.48046875 C4.02355469 15.31191406 4.01195313 16.14335937 4 17 C0.68341387 12.0251208 -0.38479461 5.96431647 0 0 Z " fill="#DEF3FD" transform="translate(72,228)"/>
<path d="M0 0 C0.66 0.33 1.32 0.66 2 1 C-5.21095718 9.93576826 -5.21095718 9.93576826 -10 11 C-10.99 11 -11.98 11 -13 11 C-9.0299782 6.78185183 -4.69159716 3.38772897 0 0 Z " fill="#2E65C9" transform="translate(353,199)"/>
<path d="M0 0 C0.99 0.33 1.98 0.66 3 1 C2.51675181 6.15464734 -0.18610761 9.81550319 -3 14 C-3.5859375 12.1171875 -3.5859375 12.1171875 -4 10 C-3.01439389 8.65599167 -2.01241685 7.32392972 -1 6 C-0.27954633 2.84881675 -0.27954633 2.84881675 0 0 Z " fill="#D7F3FD" transform="translate(360,181)"/>
<path d="M0 0 C0.66 0 1.32 0 2 0 C4.04169485 2.90548882 5 4.40142046 5 8 C5.66 8 6.32 8 7 8 C7.66 9.98 8.32 11.96 9 14 C8.01 14.495 8.01 14.495 7 15 C5.82823482 12.87767021 4.66245215 10.75242209 3.5 8.625 C3.16613281 8.02171875 2.83226563 7.4184375 2.48828125 6.796875 C0 2.2265625 0 2.2265625 0 0 Z " fill="#D8EDFD" transform="translate(80,257)"/>
<path d="M0 0 C0.66 0.33 1.32 0.66 2 1 C1.67 2.98 1.34 4.96 1 7 C0.34 7 -0.32 7 -1 7 C-1.144375 7.763125 -1.28875 8.52625 -1.4375 9.3125 C-2 12 -2 12 -3 15 C-3.99 14.67 -4.98 14.34 -6 14 C-4.02 9.38 -2.04 4.76 0 0 Z " fill="#3D68C6" transform="translate(311,214)"/>
<path d="M0 0 C0.66 0.33 1.32 0.66 2 1 C-3.625 5 -3.625 5 -7 5 C-7 5.66 -7 6.32 -7 7 C-12.75 10 -12.75 10 -15 10 C-13.7819075 6.34572251 -12.36175201 5.86868864 -9.03320312 4.19921875 C-8.05770508 3.72935547 -8.05770508 3.72935547 -7.0625 3.25 C-6.41603516 2.92128906 -5.76957031 2.59257812 -5.10351562 2.25390625 C-3.43499444 1.43264037 -1.71939715 0.70860004 0 0 Z " fill="#306AD0" transform="translate(259,290)"/>
<path d="M0 0 C1 2 1 2 0.3125 4.4375 C-1.10829685 7.21143671 -2.39746148 8.35172561 -5 10 C-5.8125 8.3125 -5.8125 8.3125 -6 6 C-3.625 3.3125 -3.625 3.3125 -1 1 C-0.67 0.67 -0.34 0.34 0 0 Z " fill="#2F64CD" transform="translate(291,255)"/>
<path d="M0 0 C3.47413528 6.86068731 4.27143683 12.36960916 4 20 C3.67 20 3.34 20 3 20 C2.51171875 18.01432292 2.0234375 16.02864583 1.53515625 14.04296875 C1.08989295 12.34316798 0.55566015 10.66698046 0 9 C-0.06740865 7.43881572 -0.08514456 5.8749748 -0.0625 4.3125 C-0.05347656 3.50425781 -0.04445313 2.69601563 -0.03515625 1.86328125 C-0.02355469 1.24839844 -0.01195313 0.63351563 0 0 Z " fill="#2562DA" transform="translate(69,227)"/>
<path d="M0 0 C6.46326465 -0.45356243 9.60931587 0.40621058 15 4 C11.21180727 5.43410153 8.93478721 4.51009497 5.25 3.0625 C3.77273437 2.49208984 3.77273437 2.49208984 2.265625 1.91015625 C1.51796875 1.60980469 0.7703125 1.30945313 0 1 C0 0.67 0 0.34 0 0 Z " fill="#D3EFFB" transform="translate(129,306)"/>
<path d="M0 0 C2.48982535 2.27745789 4.10368997 4.62335238 5.75 7.5625 C6.19859375 8.34753906 6.6471875 9.13257813 7.109375 9.94140625 C7.40328125 10.62074219 7.6971875 11.30007813 8 12 C7.67 12.66 7.34 13.32 7 14 C5 12.25 5 12.25 3 10 C3 8.68 3 7.36 3 6 C2.34 6 1.68 6 1 6 C0.67 4.02 0.34 2.04 0 0 Z " fill="#3769CB" transform="translate(79,258)"/>
<path d="M0 0 C-0.33 0.99 -0.66 1.98 -1 3 C-6.61 3 -12.22 3 -18 3 C-18 2.67 -18 2.34 -18 2 C-15.7505194 1.66317938 -13.50039296 1.33066999 -11.25 1 C-9.99703125 0.814375 -8.7440625 0.62875 -7.453125 0.4375 C-4 0 -4 0 0 0 Z " fill="#4C76CC" transform="translate(210,312)"/>
<path d="M0 0 C0.66 0.33 1.32 0.66 2 1 C2 1.99 2 2.98 2 4 C0.39935157 4.53154742 -1.20568874 5.04988353 -2.8125 5.5625 C-3.70582031 5.85253906 -4.59914063 6.14257812 -5.51953125 6.44140625 C-8 7 -8 7 -11 6 C-10 5 -10 5 -7.4375 4.9375 C-6.2309375 4.9684375 -6.2309375 4.9684375 -5 5 C-5 4.01 -5 3.02 -5 2 C-3.68 2 -2.36 2 -1 2 C-0.67 1.34 -0.34 0.68 0 0 Z " fill="#2361D9" transform="translate(285,194)"/>
<path d="M0 0 C0.33 0 0.66 0 1 0 C1.375 2.6875 1.375 2.6875 1 6 C-0.823983 8.06398076 -2.72763839 9.39041053 -5 11 C-3.93051945 6.72207778 -3.02504439 3.28809173 0 0 Z " fill="#D7EEFC" transform="translate(291,141)"/>
<path d="M0 0 C1.32 0.33 2.64 0.66 4 1 C2.02 4.63 0.04 8.26 -2 12 C-2.66 11.34 -3.32 10.68 -4 10 C-3.525625 9.278125 -3.05125 8.55625 -2.5625 7.8125 C-1.05847097 5.10524774 -0.43400818 3.03805725 0 0 Z " fill="#D6ECF9" transform="translate(300,231)"/>
<path d="M0 0 C4.04420651 1.77945087 7.46078487 4.39529673 11 7 C8 8 8 8 6.17578125 7.22265625 C4.45052083 6.1484375 2.72526042 5.07421875 1 4 C1 3.34 1 2.68 1 2 C0.34 1.67 -0.32 1.34 -1 1 C-0.67 0.67 -0.34 0.34 0 0 Z " fill="#C9EAFA" transform="translate(293,138)"/>
<path d="M0 0 C4.42857143 5.14285714 4.42857143 5.14285714 5 9 C3.125 8.75 3.125 8.75 1 8 C-0.3125 6.1875 -0.3125 6.1875 -1 4 C-0.625 1.75 -0.625 1.75 0 0 Z " fill="#DEF3FC" transform="translate(310,153)"/>
<path d="M0 0 C0.66 0.33 1.32 0.66 2 1 C1.34 4.96 0.68 8.92 0 13 C-0.66 13 -1.32 13 -2 13 C-2.33 13.66 -2.66 14.32 -3 15 C-2.67 12.69 -2.34 10.38 -2 8 C-1.34 8 -0.68 8 0 8 C0 5.36 0 2.72 0 0 Z " fill="#3063D1" transform="translate(284,146)"/>
<path d="M0 0 C1.9375 0.8125 1.9375 0.8125 4 2 C4.33 2.99 4.66 3.98 5 5 C5.66 5 6.32 5 7 5 C7.33 6.65 7.66 8.3 8 10 C4.71211176 6.88983545 2.16264012 3.98381075 0 0 Z " fill="#DEF3FD" transform="translate(88,272)"/>
<path d="M0 0 C0.66 0.99 1.32 1.98 2 3 C0.35 4.98 -1.3 6.96 -3 9 C-3.66 8.01 -4.32 7.02 -5 6 C-3.35 4.02 -1.7 2.04 0 0 Z " fill="#3B6DD0" transform="translate(284,262)"/>
<path d="M0 0 C1.58971965 2.38457948 2.86741593 4.6304124 4.125 7.1875 C4.47820312 7.90292969 4.83140625 8.61835938 5.1953125 9.35546875 C5.46085937 9.89816406 5.72640625 10.44085938 6 11 C5.01 11.33 4.02 11.66 3 12 C2.67 11.01 2.34 10.02 2 9 C1.34 8.34 0.68 7.68 0 7 C-0.125 3.375 -0.125 3.375 0 0 Z " fill="#3A69BE" transform="translate(284,186)"/>
<path d="M0 0 C1.65 0 3.3 0 5 0 C5 0.66 5 1.32 5 2 C6.32 2 7.64 2 9 2 C9 4.31 9 6.62 9 9 C8.34 8.67 7.68 8.34 7 8 C7 7.01 7 6.02 7 5 C3.535 3.02 3.535 3.02 0 1 C0 0.67 0 0.34 0 0 Z " fill="#4374D0" transform="translate(355,177)"/>
<path d="M0 0 C3.875 1.875 3.875 1.875 5 3 C5.04063832 4.66617115 5.042721 6.33388095 5 8 C3.02 6.35 1.04 4.7 -1 3 C-0.67 2.01 -0.34 1.02 0 0 Z " fill="#4072CB" transform="translate(305,144)"/>
<path d="M0 0 C-0.33 0.99 -0.66 1.98 -1 3 C-1.33 2.67 -1.66 2.34 -2 2 C-4.52596259 1.76346477 -7.03107207 1.57826308 -9.5625 1.4375 C-10.27341797 1.39431641 -10.98433594 1.35113281 -11.71679688 1.30664062 C-13.47761912 1.20028223 -15.2387832 1.09961154 -17 1 C-17 0.67 -17 0.34 -17 0 C-14.72979256 -0.19493195 -12.45879711 -0.38070418 -10.1875 -0.5625 C-8.92292969 -0.66691406 -7.65835938 -0.77132812 -6.35546875 -0.87890625 C-3 -1 -3 -1 0 0 Z " fill="#2666E5" transform="translate(226,81)"/>
<path d="M0 0 C0.33 0.66 0.66 1.32 1 2 C-1.52956528 5.0916909 -4.22454612 5.90931332 -8 7 C-8.66 6.34 -9.32 5.68 -10 5 C-6.7 3.35 -3.4 1.7 0 0 Z " fill="#4372C7" transform="translate(242,299)"/>
<path d="M0 0 C-2.39509338 2.89932357 -4.31245243 3.50168276 -8 4 C-8 3.01 -8 2.02 -8 1 C-5.29120665 -0.35439668 -2.99066732 -0.06501451 0 0 Z " fill="#DCF2FC" transform="translate(240,300)"/>
<path d="M0 0 C4.83256305 0.41421969 6.82679218 2.46413986 10 6 C6.33118845 5.29445932 3.29549466 3.72264494 0 2 C0 1.34 0 0.68 0 0 Z " fill="#4372D4" transform="translate(100,290)"/>
<path d="M0 0 C3.37462715 0.54723683 5.08235 1.0549 8 3 C8 3.99 8 4.98 8 6 C4.63408134 4.55746343 2.48952921 2.66735273 0 0 Z " fill="#D8F0FB" transform="translate(101,288)"/>
<path d="M0 0 C1.32 0.33 2.64 0.66 4 1 C4.66 3.64 5.32 6.28 6 9 C4.125 8.4375 4.125 8.4375 2 7 C0.75 3.375 0.75 3.375 0 0 Z " fill="#EDF7FA" transform="translate(107,288)"/>
<path d="M0 0 C1.32 0.33 2.64 0.66 4 1 C4.33 2.65 4.66 4.3 5 6 C3.68 6 2.36 6 1 6 C0.67 4.02 0.34 2.04 0 0 Z " fill="#F5FBEE" transform="translate(291,192)"/>
<path d="M0 0 C1.32 0 2.64 0 4 0 C4 1.65 4 3.3 4 5 C2.68 5 1.36 5 0 5 C0 3.35 0 1.7 0 0 Z " fill="#2360F0" transform="translate(178,158)"/>
<path d="M0 0 C1.32 0.33 2.64 0.66 4 1 C4.33 2.65 4.66 4.3 5 6 C3.2925002 4.71937515 1.62626404 3.38232443 0 2 C0 1.34 0 0.68 0 0 Z " fill="#CAE6F7" transform="translate(96,282)"/>
<path d="M0 0 C1.98 0.66 3.96 1.32 6 2 C6 2.99 6 3.98 6 5 C5.01 5.33 4.02 5.66 3 6 C2.01 4.02 1.02 2.04 0 0 Z " fill="#366DCC" transform="translate(310,152)"/>
</svg>
