<?xml version="1.0" encoding="UTF-8"?>
<svg xmlns="http://www.w3.org/2000/svg" xmlns:xlink="http://www.w3.org/1999/xlink" viewBox="0 0 120 120" version="1.1">
<g id="surface1">
<path style=" stroke:none;fill-rule:evenodd;fill:rgb(0%,0%,0%);fill-opacity:1;" d="M 10.429688 -0.117188 C 43.398438 -0.117188 76.367188 -0.117188 109.335938 -0.117188 C 114.960938 1.289062 118.476562 4.804688 119.882812 10.429688 C 119.882812 43.398438 119.882812 76.367188 119.882812 109.335938 C 118.476562 114.960938 114.960938 118.476562 109.335938 119.882812 C 76.367188 119.882812 43.398438 119.882812 10.429688 119.882812 C 4.804688 118.476562 1.289062 114.960938 -0.117188 109.335938 C -0.117188 76.367188 -0.117188 43.398438 -0.117188 10.429688 C 1.289062 4.804688 4.804688 1.289062 10.429688 -0.117188 Z M 10.429688 -0.117188 "/>
<path style=" stroke:none;fill-rule:evenodd;fill:rgb(99.215686%,99.215686%,99.215686%);fill-opacity:1;" d="M 54.960938 15.117188 C 74.941406 14.070312 90.058594 22.039062 100.3125 39.023438 C 106.96875 52.085938 107.589844 65.445312 102.1875 79.101562 C 96.632812 91.507812 87.453125 99.984375 74.648438 104.53125 C 73.945312 104.6875 73.242188 104.6875 72.539062 104.53125 C 72.03125 104.335938 71.679688 103.984375 71.484375 103.476562 C 71.40625 98.164062 71.328125 92.851562 71.25 87.539062 C 70.933594 85.148438 69.957031 83.078125 68.320312 81.328125 C 73.5625 80.855469 78.328125 79.136719 82.617188 76.171875 C 86.570312 72.296875 88.71875 67.570312 89.0625 61.992188 C 89.949219 55.988281 88.425781 50.714844 84.492188 46.171875 C 85.792969 42.191406 85.675781 38.246094 84.140625 34.335938 C 82.261719 33.96875 80.425781 34.164062 78.632812 34.921875 C 76.019531 36.03125 73.519531 37.320312 71.132812 38.789062 C 63.59375 36.914062 56.054688 36.914062 48.515625 38.789062 C 45.394531 36.664062 41.996094 35.140625 38.320312 34.21875 C 37.460938 34.0625 36.601562 34.0625 35.742188 34.21875 C 34.046875 38.132812 33.890625 42.117188 35.273438 46.171875 C 31.339844 50.714844 29.816406 55.988281 30.703125 61.992188 C 31.621094 72.675781 37.363281 78.964844 47.929688 80.859375 C 49.09375 81.066406 50.265625 81.222656 51.445312 81.328125 C 49.835938 83.097656 48.820312 85.167969 48.398438 87.539062 C 44.621094 89.332031 41.027344 89.058594 37.617188 86.71875 C 36.238281 85.105469 34.949219 83.425781 33.75 81.679688 C 31.902344 79.835938 29.675781 78.9375 27.070312 78.984375 C 26.605469 79.097656 26.292969 79.371094 26.132812 79.804688 C 26.640625 80.820312 27.421875 81.5625 28.476562 82.03125 C 29.21875 82.773438 29.960938 83.515625 30.703125 84.257812 C 31.917969 86.222656 33.011719 88.253906 33.984375 90.351562 C 37.179688 93.835938 41.125 95.125 45.820312 94.21875 C 46.679688 94.089844 47.539062 93.972656 48.398438 93.867188 C 48.4375 97.070312 48.398438 100.273438 48.28125 103.476562 C 47.828125 104.386719 47.085938 104.777344 46.054688 104.648438 C 34.839844 101.128906 26.207031 94.332031 20.15625 84.257812 C 12.671875 70.449219 11.96875 56.308594 18.046875 41.835938 C 25.75 26.59375 38.054688 17.6875 54.960938 15.117188 Z M 54.960938 15.117188 "/>
<path style=" stroke:none;fill-rule:evenodd;fill:rgb(90.588236%,90.588236%,90.588236%);fill-opacity:1;" d="M 30.117188 80.273438 C 30.925781 80.097656 31.316406 80.410156 31.289062 81.210938 C 30.480469 81.386719 30.089844 81.074219 30.117188 80.273438 Z M 30.117188 80.273438 "/>
<path style=" stroke:none;fill-rule:evenodd;fill:rgb(86.274511%,86.274511%,86.274511%);fill-opacity:1;" d="M 31.992188 81.914062 C 32.933594 81.800781 33.363281 82.191406 33.28125 83.085938 C 32.414062 83.277344 31.984375 82.886719 31.992188 81.914062 Z M 31.992188 81.914062 "/>
<path style=" stroke:none;fill-rule:evenodd;fill:rgb(89.019608%,89.019608%,89.019608%);fill-opacity:1;" d="M 33.867188 84.257812 C 34.96875 84.242188 35.359375 84.75 35.039062 85.78125 C 34.03125 85.820312 33.640625 85.3125 33.867188 84.257812 Z M 33.867188 84.257812 "/>
<path style=" stroke:none;fill-rule:evenodd;fill:rgb(92.941177%,92.941177%,92.941177%);fill-opacity:1;" d="M 35.976562 86.835938 C 36.996094 86.800781 37.503906 87.269531 37.5 88.242188 C 36.320312 88.589844 35.8125 88.121094 35.976562 86.835938 Z M 35.976562 86.835938 "/>
<path style=" stroke:none;fill-rule:evenodd;fill:rgb(87.058824%,87.058824%,87.058824%);fill-opacity:1;" d="M 39.492188 88.710938 C 40.480469 88.757812 40.871094 89.226562 40.664062 90.117188 C 39.894531 90.449219 39.347656 90.214844 39.023438 89.414062 C 39.128906 89.125 39.285156 88.890625 39.492188 88.710938 Z M 39.492188 88.710938 "/>
<path style=" stroke:none;fill-rule:evenodd;fill:rgb(92.54902%,92.54902%,92.54902%);fill-opacity:1;" d="M 46.757812 88.945312 C 48.097656 88.753906 48.410156 89.183594 47.695312 90.234375 C 46.300781 90.523438 45.988281 90.09375 46.757812 88.945312 Z M 46.757812 88.945312 "/>
<path style=" stroke:none;fill-rule:evenodd;fill:rgb(91.764706%,91.764706%,91.764706%);fill-opacity:1;" d="M 43.007812 89.414062 C 43.496094 89.371094 43.964844 89.449219 44.414062 89.648438 C 44.570312 90.734375 44.101562 91.046875 43.007812 90.585938 C 42.734375 90.195312 42.734375 89.804688 43.007812 89.414062 Z M 43.007812 89.414062 "/>
</g>
</svg>
