<?xml version="1.0" encoding="UTF-8"?>
<svg version="1.1" xmlns="http://www.w3.org/2000/svg" width="460" height="460">
<path d="M0 0 C151.8 0 303.6 0 460 0 C460 151.8 460 303.6 460 460 C308.2 460 156.4 460 0 460 C0 308.2 0 156.4 0 0 Z " fill="#010101" transform="translate(0,0)"/>
<path d="M0 0 C1.87320973 0.48611829 3.74815239 0.96562212 5.625 1.4375 C32.16614299 8.70057843 57.24292423 25.2141288 77 44 C77.58652344 44.54865723 78.17304688 45.09731445 78.77734375 45.66259766 C89.28432417 55.54328171 98.0691522 65.95533407 106 78 C106.42893555 78.6482373 106.85787109 79.29647461 107.29980469 79.96435547 C133.38185382 119.94087212 141.66514764 169.92686458 132.42773438 216.45678711 C125.69643812 248.38503476 112.60676025 277.36278339 91 302 C90.26136719 302.84820312 89.52273438 303.69640625 88.76171875 304.5703125 C86.54044986 307.07931052 84.28397562 309.54802617 82 312 C81.31550781 312.73863281 80.63101562 313.47726562 79.92578125 314.23828125 C62.7635466 332.09842563 40.14000649 346.20984901 17.0625 355 C16.28148926 355.30325195 15.50047852 355.60650391 14.69580078 355.91894531 C9.58768333 357.77624416 5.43849663 358.46209449 0 358 C-2.43119623 356.12984906 -3.64069173 354.71861655 -5 352 C-5.10007662 349.93954977 -5.13560214 347.875858 -5.1418457 345.81298828 C-5.15239738 343.85922775 -5.15239738 343.85922775 -5.16316223 341.86599731 C-5.16588607 340.81719076 -5.16588607 340.81719076 -5.16866493 339.7471962 C-5.17584464 337.55092137 -5.19152767 335.35486815 -5.21000671 333.15866089 C-5.2623664 326.91277335 -5.31032183 320.6670001 -5.32592773 314.42089844 C-5.3361012 310.59929159 -5.36566992 306.77823299 -5.40724754 302.95684433 C-5.41944292 301.50985774 -5.42470009 300.06279322 -5.42244911 298.61575699 C-5.40836139 286.58953431 -6.81697294 276.01963247 -14.73046875 266.5234375 C-16 265 -16 265 -17 263 C-15.93640259 262.81993408 -15.93640259 262.81993408 -14.85131836 262.63623047 C-1.30629831 260.30167736 11.56887351 258.07345049 24 252 C25.12277344 251.47664063 26.24554688 250.95328125 27.40234375 250.4140625 C45.36459872 241.48533366 55.38163191 227.21564604 62.19140625 208.7734375 C69.90950478 185.3628213 70.39232744 157.82013873 59.20751953 135.61816406 C57.13022175 131.70874518 54.85772466 128.48853915 51.875 125.1875 C48.95707516 121.71234793 48.95707516 121.71234793 49.14355469 118.61767578 C49.35915039 117.7564209 49.57474609 116.89516602 49.796875 116.0078125 C51.11768954 109.85236656 51.38275746 103.97055787 51.375 97.6875 C51.37693359 96.05470093 51.37693359 96.05470093 51.37890625 94.38891602 C51.26923934 86.01871382 50.13467382 78.82269047 47 71 C29.09844172 68.87073976 11.35629261 79.42913826 -3 89 C-7.86193499 89.32024721 -12.09280181 88.68983362 -16.8125 87.5625 C-28.69505051 84.73201904 -40.60160753 84.7290116 -52.75 84.6875 C-53.6152832 84.68321991 -54.48056641 84.67893982 -55.37207031 84.67453003 C-67.54308587 84.64310477 -78.99057506 85.38089076 -90.875 88.22265625 C-95.72010851 89.30169061 -99.86080651 89.04676463 -104.37890625 86.8359375 C-105.09949219 86.35382813 -105.82007813 85.87171875 -106.5625 85.375 C-120.246626 76.71812151 -133.61222356 70.67224447 -150 71 C-150.65003625 73.20709983 -151.29484745 75.41573892 -151.9375 77.625 C-152.29714844 78.85476562 -152.65679687 80.08453125 -153.02734375 81.3515625 C-155.95212596 92.32243233 -155.95867487 102.92722605 -153 113.8125 C-151.58689776 120.18466664 -151.58689776 120.18466664 -153.3359375 123.63671875 C-154.73028207 125.25276945 -156.17518965 126.82617872 -157.66015625 128.359375 C-171.13803945 143.56980746 -171.06901009 165.95410558 -170 185 C-169.10228339 195.374215 -167.31837118 205.46726907 -163 215 C-162.57976562 215.97066406 -162.15953125 216.94132813 -161.7265625 217.94140625 C-153.79036987 235.10725936 -139.83328606 247.84626349 -122.18359375 254.51171875 C-110.71762869 258.55343473 -99.00302191 261.19103393 -87 263 C-88.27009333 265.66253511 -89.68715071 268.02398302 -91.375 270.4375 C-93.75463885 274.0894891 -94.71725467 277.52900875 -95.75 281.75 C-97.37902259 287.49479804 -97.37902259 287.49479804 -100.07421875 289.6875 C-102.39459167 290.73070898 -104.51878803 291.44768975 -107 292 C-107.77085937 292.18433594 -108.54171875 292.36867188 -109.3359375 292.55859375 C-121.48164664 294.57100597 -131.62975281 293.02529758 -141.6875 285.875 C-146.49008184 281.92489754 -149.62156945 277.16236818 -153 272 C-159.3761223 262.73376619 -166.79052481 256.4386244 -178 254 C-182.31240062 253.64652454 -185.30999758 253.63839845 -189 256 C-187.63528721 260.54904263 -185.80830103 262.18623275 -181.875 264.75 C-171.42679225 272.08829735 -166.29601198 280.68698431 -161 292 C-155.19409357 304.16731626 -146.35973967 310.04170824 -133.86328125 314.81640625 C-128.72969725 316.25865087 -123.42070984 316.19430167 -118.125 316.25 C-117.39394043 316.25950684 -116.66288086 316.26901367 -115.90966797 316.27880859 C-109.7926433 316.2423897 -103.98190707 315.22971538 -98 314 C-97.90093491 319.32017615 -97.82843928 324.63981247 -97.78027344 329.96069336 C-97.76018947 331.7697078 -97.73291659 333.57865757 -97.69824219 335.38745117 C-97.64958108 337.99153621 -97.62699949 340.59476115 -97.609375 343.19921875 C-97.58872986 344.00461594 -97.56808472 344.81001312 -97.54681396 345.63981628 C-97.54522873 349.6296673 -97.70349514 351.53363368 -99.89941406 354.98754883 C-103.15930899 358.1106676 -105.34712893 358.24541318 -109.83740234 358.17871094 C-135.59063034 356.05053721 -164.05021713 331.76959837 -182 315 C-182.86367187 314.20207031 -183.72734375 313.40414063 -184.6171875 312.58203125 C-219.51648343 279.14951732 -237.47711798 231.69457041 -239.359375 184.00390625 C-240.35411425 136.19666758 -222.93269749 88.85858624 -190 54 C-188.87037767 52.67058052 -187.74520688 51.33736282 -186.625 50 C-171.28160187 32.51973591 -150.73556703 19.80289732 -129.9140625 9.90966797 C-128.18681494 9.08878476 -126.46786157 8.2505044 -124.75 7.41015625 C-86.77186221 -10.13611574 -39.77138298 -12.53001479 0 0 Z " fill="#FDFDFD" transform="translate(282,55)"/>
<path d="M0 0 C2.97 0.495 2.97 0.495 6 1 C5.67 2.32 5.34 3.64 5 5 C1.25 6.125 1.25 6.125 -1 5 C-0.67 3.35 -0.34 1.7 0 0 Z " fill="#DFDFDF" transform="translate(162,351)"/>
<path d="M0 0 C0.598125 0.20625 1.19625 0.4125 1.8125 0.625 C1.8125 1.945 1.8125 3.265 1.8125 4.625 C-0.1675 4.955 -2.1475 5.285 -4.1875 5.625 C-4.5175 4.305 -4.8475 2.985 -5.1875 1.625 C-2.1875 -0.375 -2.1875 -0.375 0 0 Z " fill="#E0DFE0" transform="translate(180.1875,349.375)"/>
<path d="M0 0 C1.2065625 0.0309375 1.2065625 0.0309375 2.4375 0.0625 C3.0975 1.3825 3.7575 2.7025 4.4375 4.0625 C3.4375 5.0625 3.4375 5.0625 0.875 5.125 C-0.3315625 5.0940625 -0.3315625 5.0940625 -1.5625 5.0625 C-2.2225 3.7425 -2.8825 2.4225 -3.5625 1.0625 C-2.5625 0.0625 -2.5625 0.0625 0 0 Z " fill="#E9E9E9" transform="translate(148.5625,348.9375)"/>
<path d="M0 0 C2.475 0.495 2.475 0.495 5 1 C5.33 2.65 5.66 4.3 6 6 C4.35 5.67 2.7 5.34 1 5 C0.67 3.35 0.34 1.7 0 0 Z " fill="#F1F1F1" transform="translate(133,341)"/>
<path d="M0 0 C0.66 0.33 1.32 0.66 2 1 C1.875 2.875 1.875 2.875 1 5 C-2.0625 6.25 -2.0625 6.25 -5 7 C-5 5.33333333 -5 3.66666667 -5 2 C-2.625 0.9375 -2.625 0.9375 0 0 Z " fill="#1B1B1B" transform="translate(180,344)"/>
<path d="M0 0 C2.0625 0.4375 2.0625 0.4375 4 1 C4 2.65 4 4.3 4 6 C2.68 5.67 1.36 5.34 0 5 C-0.5625 3.0625 -0.5625 3.0625 -1 1 C-0.67 0.67 -0.34 0.34 0 0 Z " fill="#E9E9E9" transform="translate(125,330)"/>
<path d="M0 0 C0.8353125 0.556875 0.8353125 0.556875 1.6875 1.125 C0.6975 2.115 -0.2925 3.105 -1.3125 4.125 C-3.7875 3.135 -3.7875 3.135 -6.3125 2.125 C-6.6425 3.115 -6.9725 4.105 -7.3125 5.125 C-7.3125 3.805 -7.3125 2.485 -7.3125 1.125 C-2.88173077 -1.09038462 -2.88173077 -1.09038462 0 0 Z " fill="#2A292A" transform="translate(139.3125,338.875)"/>
<path d="M0 0 C2.475 0.495 2.475 0.495 5 1 C4.67 2.32 4.34 3.64 4 5 C2.68 4.34 1.36 3.68 0 3 C0 2.01 0 1.02 0 0 Z " fill="#E5E5E5" transform="translate(117,321)"/>
</svg>
