<?xml version="1.0" encoding="UTF-8"?>
<svg version="1.1" xmlns="http://www.w3.org/2000/svg" width="256" height="256">
<path d="M0 0 C1.97228459 -0.00842416 3.94456114 -0.01895413 5.91682434 -0.03141785 C11.24753118 -0.05837139 16.57776817 -0.05379012 21.90851283 -0.04171729 C26.36912868 -0.03456381 30.82965885 -0.04310032 35.290268 -0.05162269 C45.81794011 -0.07154516 56.34538496 -0.06603927 66.87304688 -0.04394531 C77.71197337 -0.02158378 88.55030417 -0.03918466 99.3891744 -0.0769946 C108.71694107 -0.108283 118.04452387 -0.11612804 127.37233645 -0.10504085 C132.93387299 -0.09857111 138.495066 -0.10047328 144.05656242 -0.12436485 C149.28784631 -0.14569564 154.51829328 -0.13753649 159.74952507 -0.10727119 C161.66181864 -0.10097106 163.57417794 -0.10473822 165.48642349 -0.11968231 C179.16658941 -0.21787225 188.57631238 1.59325964 199.39868164 10.6628418 C209.86249096 21.38824635 210.13137065 33.12076023 210.06152344 47.26416016 C210.0699476 49.23644475 210.08047756 51.20872129 210.09294128 53.1809845 C210.11989483 58.51169134 210.11531356 63.84192832 210.10324073 69.17267299 C210.09608724 73.63328883 210.10462376 78.09381901 210.11314613 82.55442816 C210.13306859 93.08210026 210.12756271 103.60954512 210.10546875 114.13720703 C210.08310721 124.97613352 210.1007081 135.81446433 210.13851804 146.65333456 C210.16980644 155.98110122 210.17765148 165.30868402 210.16656429 174.6364966 C210.16009455 180.19803314 210.16199671 185.75922616 210.18588829 191.32072258 C210.20721908 196.55200646 210.19905992 201.78245344 210.16879463 207.01368523 C210.16249449 208.9259788 210.16626166 210.83833809 210.18120575 212.75058365 C210.27939568 226.43074957 208.4682638 235.84047254 199.39868164 246.6628418 C188.67327709 257.12665112 176.94076321 257.3955308 162.79736328 257.32568359 C160.82507869 257.33410776 158.85280214 257.34463772 156.88053894 257.35710144 C151.5498321 257.38405499 146.21959511 257.37947372 140.88885045 257.36740088 C136.4282346 257.3602474 131.96770443 257.36878392 127.50709528 257.37730628 C116.97942317 257.39722875 106.45197832 257.39172286 95.92431641 257.36962891 C85.08538992 257.34726737 74.24705911 257.36486825 63.40818888 257.40267819 C54.08042221 257.43396659 44.75283942 257.44181163 35.42502683 257.43072444 C29.86349029 257.42425471 24.30229728 257.42615687 18.74080086 257.45004845 C13.50951697 257.47137924 8.27907 257.46322008 3.04783821 257.43295479 C1.13554464 257.42665465 -0.77681465 257.43042182 -2.68906021 257.44536591 C-16.36922613 257.54355584 -25.7789491 255.73242395 -36.60131836 246.6628418 C-47.06512768 235.93743724 -47.33400736 224.20492336 -47.26416016 210.06152344 C-47.27258432 208.08923884 -47.28311428 206.1169623 -47.295578 204.1446991 C-47.32253155 198.81399225 -47.31795028 193.48375527 -47.30587745 188.15301061 C-47.29872396 183.69239476 -47.30726048 179.23186458 -47.31578285 174.77125543 C-47.33570531 164.24358333 -47.33019943 153.71613848 -47.30810547 143.18847656 C-47.28574393 132.34955007 -47.30334481 121.51121927 -47.34115475 110.67234904 C-47.37244316 101.34458237 -47.3802882 92.01699957 -47.369201 82.68918699 C-47.36273127 77.12765045 -47.36463343 71.56645744 -47.38852501 66.00496101 C-47.4098558 60.77367713 -47.40169664 55.54323015 -47.37143135 50.31199837 C-47.36513121 48.3997048 -47.36889838 46.4873455 -47.38384247 44.57509995 C-47.4820324 30.89493403 -45.67090051 21.48521106 -36.60131836 10.6628418 C-25.8759138 0.19903248 -14.14339992 -0.06984721 0 0 Z " fill="#30353D" transform="translate(46.601318359375,-0.662841796875)"/>
<path d="M0 0 C1.65 0.33 3.3 0.66 5 1 C6.44140625 5.32421875 7.8828125 9.6484375 9.32421875 13.97265625 C9.54384277 14.63144775 9.7634668 15.29023926 9.98974609 15.96899414 C10.4785457 17.435564 10.9671347 18.90220406 11.45556641 20.36889648 C12.92796076 24.78917096 14.40457468 29.20798439 15.88671875 33.625 C19.7045402 45.01878129 23.43814825 56.43384721 27.05444336 67.89331055 C28.91419916 73.74649188 30.89025791 79.53617209 33.00073242 85.3034668 C38.96534346 101.67700031 38.96534346 101.67700031 38 108 C36.25 110.6875 36.25 110.6875 33 113 C31.93458984 113.79857422 31.93458984 113.79857422 30.84765625 114.61328125 C28.50897947 116.35377568 26.14470701 118.05308975 23.76806641 119.74121094 C20.33375562 122.18629605 16.91812107 124.65736066 13.5 127.125 C12.73695557 127.67518799 11.97391113 128.22537598 11.18774414 128.79223633 C5.51521682 132.88831167 -0.12333719 137.02871156 -5.75 141.1875 C-11.13647861 145.1687631 -16.53720253 149.12405721 -22 153 C-27.64476352 157.00763945 -33.23658629 161.08463265 -38.8125 165.1875 C-39.58916016 165.75791016 -40.36582031 166.32832031 -41.16601562 166.91601562 C-42.30006836 167.75229492 -42.30006836 167.75229492 -43.45703125 168.60546875 C-44.57779053 169.42797119 -44.57779053 169.42797119 -45.72119141 170.26708984 C-47.31229281 171.47703604 -48.87001493 172.73159139 -50.39990234 174.01806641 C-51.56900146 174.99332275 -51.56900146 174.99332275 -52.76171875 175.98828125 C-53.45612061 176.58809814 -54.15052246 177.18791504 -54.8659668 177.8059082 C-57 179 -57 179 -59.4987793 178.86816406 C-62.17931228 177.9377614 -63.99993665 176.83230682 -66.2578125 175.12109375 C-67.04220703 174.53392578 -67.82660156 173.94675781 -68.63476562 173.34179688 C-69.45654297 172.71337891 -70.27832031 172.08496094 -71.125 171.4375 C-72.84620198 170.14432866 -74.56755498 168.85135832 -76.2890625 167.55859375 C-77.11051758 166.93710449 -77.93197266 166.31561523 -78.77832031 165.67529297 C-81.32957836 163.75147618 -83.90793776 161.86841079 -86.5 160 C-90.62256575 157.01226183 -94.72155589 153.99369965 -98.81665039 150.96850586 C-106.30315724 145.43875791 -113.81719732 139.95596668 -121.40234375 134.5625 C-131.01285197 127.72691414 -140.58671176 120.83392768 -150.0625 113.8125 C-151.00222656 113.11769531 -151.94195312 112.42289062 -152.91015625 111.70703125 C-155.58828662 109.51947429 -155.93047833 108.61297765 -156.3203125 105.17578125 C-156.22552977 99.25186052 -153.80966811 93.7127647 -151.875 88.1875 C-151.46193604 86.97843994 -151.04887207 85.76937988 -150.62329102 84.52368164 C-149.42357837 81.01296083 -148.21219456 77.50642567 -147 74 C-145.96969046 70.9823 -144.94941071 67.96141577 -143.9375 64.9375 C-143.70724121 64.25131592 -143.47698242 63.56513184 -143.23974609 62.8581543 C-140.67996441 55.15687829 -138.34024743 47.38747668 -135.96948242 39.62646484 C-131.98878357 26.63158196 -127.76674342 13.73000889 -123 1 C-121.02 1 -119.04 1 -117 1 C-116.80365967 1.59425781 -116.60731934 2.18851563 -116.4050293 2.80078125 C-115.50082075 5.53439791 -114.59417634 8.26720091 -113.6875 11 C-113.2244043 12.40185547 -113.2244043 12.40185547 -112.75195312 13.83203125 C-111.38661793 17.94240879 -110.01019739 22.03693848 -108.4609375 26.08203125 C-106.75518298 30.55586117 -105.34893742 35.11386518 -103.9375 39.6875 C-102.09455671 45.76050722 -102.09455671 45.76050722 -99.8828125 51.703125 C-98.81855407 54.47208056 -98.37844291 57.13152654 -97.9375 60.0625 C-97.42018105 63.45286304 -96.83354867 66.6658053 -96 70 C-71.91 70 -47.82 70 -23 70 C-21.68 64.72 -20.36 59.44 -19 54 C-18.09293403 50.99979719 -17.17720125 48.04813515 -16.16015625 45.08984375 C-15.91132187 44.3490004 -15.66248749 43.60815704 -15.40611267 42.84486389 C-14.63069143 40.54040666 -13.84691067 38.23891056 -13.0625 35.9375 C-12.54434321 34.40319009 -12.02676375 32.86868509 -11.50976562 31.33398438 C-10.4992684 28.33559362 -9.48375828 25.33896736 -8.46533203 22.34326172 C-7.48423966 19.44964374 -6.52264387 16.55061902 -5.57763672 13.64501953 C-5.35273056 12.95694717 -5.1278244 12.26887482 -4.89610291 11.55995178 C-4.28604039 9.6889206 -3.68081379 7.8163146 -3.07592773 5.94360352 C-2 3 -2 3 0 0 Z " fill="#FA6C24" transform="translate(187,38)"/>
<path d="M0 0 C1.98 0 3.96 0 6 0 C6.19634033 0.59425781 6.39268066 1.18851563 6.5949707 1.80078125 C7.49917925 4.53439791 8.40582366 7.26720091 9.3125 10 C9.7755957 11.40185547 9.7755957 11.40185547 10.24804688 12.83203125 C11.61338207 16.94240879 12.98980261 21.03693848 14.5390625 25.08203125 C16.24481702 29.55586117 17.65106258 34.11386518 19.0625 38.6875 C20.90544329 44.76050722 20.90544329 44.76050722 23.1171875 50.703125 C24.18144593 53.47208056 24.62155709 56.13152654 25.0625 59.0625 C25.57981895 62.45286304 26.16645133 65.6658053 27 69 C51.09 69 75.18 69 100 69 C95.49980522 83.62563303 95.49980522 83.62563303 93.80859375 88.85546875 C93.2357666 90.62942017 93.2357666 90.62942017 92.65136719 92.43920898 C92.05050293 94.29461304 92.05050293 94.29461304 91.4375 96.1875 C90.78245064 98.21131996 90.12751697 100.23517733 89.47262573 102.25904846 C89.01728305 103.66618227 88.56181717 105.07327621 88.10623169 106.48033142 C86.67560438 110.90153611 85.25348348 115.32538195 83.83778381 119.75138855 C82.8769859 122.75410208 81.91313637 125.75583214 80.94900513 128.75747681 C80.49230045 130.18182513 80.03690078 131.60659274 79.58297729 133.03182983 C76.9372789 141.33571193 74.13355546 149.54201267 70.97613525 157.66722107 C69.1481699 162.41194892 67.99476494 167.02617532 67 172 C66.3675332 173.34989183 65.70813042 174.68821742 65 176 C61.13294406 175.45861217 59.61914604 173.85735369 57.125 170.9375 C56.42761719 170.12152344 55.73023437 169.30554688 55.01171875 168.46484375 C52.78942883 165.74199921 50.65114712 162.97796087 48.57958984 160.13916016 C47.0076576 158.0103703 45.39774832 155.91802791 43.76953125 153.83203125 C42.84926147 152.65181396 42.84926147 152.65181396 41.91040039 151.44775391 C41.27996826 150.63999512 40.64953613 149.83223633 40 149 C38.78624977 147.44156866 37.57270585 145.88297662 36.359375 144.32421875 C35.76382813 143.55916016 35.16828125 142.79410156 34.5546875 142.00585938 C33.95914063 141.24080078 33.36359375 140.47574219 32.75 139.6875 C31.83347656 138.5109082 31.83347656 138.5109082 30.8984375 137.31054688 C30.30804688 136.55193359 29.71765625 135.79332031 29.109375 135.01171875 C28.58311523 134.33584717 28.05685547 133.65997559 27.51464844 132.96362305 C27.01481445 132.31562744 26.51498047 131.66763184 26 131 C25.44086914 130.2985083 24.88173828 129.5970166 24.30566406 128.87426758 C23 127 23 127 23 125 C22.34 125 21.68 125 21 125 C19.41568348 123.13842809 17.9513757 121.27429834 16.5 119.3125 C15.59391604 118.11055189 14.68766138 116.90873246 13.78125 115.70703125 C13.31847656 115.08908691 12.85570312 114.47114258 12.37890625 113.83447266 C10.27667865 111.03770598 8.13812629 108.26935438 6 105.5 C3.48216437 102.23120497 0.96783491 98.95986753 -1.53515625 95.6796875 C-5.56704432 90.4040513 -9.64307739 85.18097922 -13.875 80.0625 C-14.96167969 78.71671875 -14.96167969 78.71671875 -16.0703125 77.34375 C-17.88254061 75.07572676 -17.88254061 75.07572676 -19.5546875 73.40625 C-20.75 72.0625 -20.75 72.0625 -22 69 C-21.21724432 62.60903009 -18.86715091 56.59592537 -16.83227539 50.51928711 C-15.60383487 46.80081316 -14.42803313 43.06606138 -13.24633789 39.33251953 C-9.57406789 27.74070817 -5.72341463 16.22925668 -1.62915039 4.77978516 C-1.06813975 3.19275856 -0.53229563 1.59688688 0 0 Z " fill="#FA6D24" transform="translate(64,39)"/>
<path d="M0 0 C0.515625 0.66 1.03125 1.32 1.5625 2 C3.37333258 4.22871703 5.21105275 6.36434254 7.125 8.5 C12.04654047 14.09929498 16.49607108 20.06528596 21 26 C23.18519766 28.87675882 25.37279579 31.75166995 27.5625 34.625 C28.11075439 35.34558594 28.65900879 36.06617188 29.22387695 36.80859375 C33.18113867 41.98806392 37.26512903 47.02990936 41.48828125 51.99609375 C43 54 43 54 43 56 C43.66 56 44.32 56 45 56 C45.97764893 57.4029897 46.946398 58.81327005 47.86230469 60.25732422 C49.76349539 63.16949144 51.95781586 65.84580193 54.125 68.5625 C55.1073401 69.80293481 56.08909854 71.04383045 57.0703125 72.28515625 C57.56176758 72.90664551 58.05322266 73.52813477 58.55957031 74.16845703 C60.72970339 76.92783641 62.86591771 79.71270593 65 82.5 C68.62499632 87.22467334 72.26928897 91.93378191 75.9375 96.625 C76.39833984 97.21732422 76.85917969 97.80964844 77.33398438 98.41992188 C80.40843908 102.45245224 80.40843908 102.45245224 84 106 C86.4413266 106.30025049 86.4413266 106.30025049 89 105 C91.22145767 102.72688053 93.07836988 100.51581839 95 98 C95.7321875 97.05511719 96.464375 96.11023438 97.21875 95.13671875 C98.91466147 92.94287481 100.60191029 90.74263565 102.28515625 88.5390625 C108.10959823 80.92687861 114.05586556 73.40651425 120.0625 65.9375 C123.46411944 61.69930342 126.78210033 57.39990296 130.0871582 53.08642578 C133.11420029 49.14000047 136.17218659 45.21942951 139.25 41.3125 C149.99518568 27.6609242 160.63055266 13.93987975 171 0 C174.70505469 4.54280507 176.22279534 9.58233896 178.125 15.0625 C178.66447266 16.54266602 178.66447266 16.54266602 179.21484375 18.05273438 C181.48852749 24.554448 183.27318206 31.04819572 183 38 C181.25 40.6875 181.25 40.6875 178 43 C176.93458984 43.79857422 176.93458984 43.79857422 175.84765625 44.61328125 C173.50897947 46.35377568 171.14470701 48.05308975 168.76806641 49.74121094 C165.33375562 52.18629605 161.91812107 54.65736066 158.5 57.125 C157.73695557 57.67518799 156.97391113 58.22537598 156.18774414 58.79223633 C150.51521682 62.88831167 144.87666281 67.02871156 139.25 71.1875 C133.86352139 75.1687631 128.46279747 79.12405721 123 83 C117.35523648 87.00763945 111.76341371 91.08463265 106.1875 95.1875 C105.41083984 95.75791016 104.63417969 96.32832031 103.83398438 96.91601562 C103.07794922 97.47353516 102.32191406 98.03105469 101.54296875 98.60546875 C100.7957959 99.15380371 100.04862305 99.70213867 99.27880859 100.26708984 C97.68770719 101.47703604 96.12998507 102.73159139 94.60009766 104.01806641 C93.82069824 104.6682373 93.04129883 105.3184082 92.23828125 105.98828125 C91.54387939 106.58809814 90.84947754 107.18791504 90.1340332 107.8059082 C88 109 88 109 85.5012207 108.86816406 C82.82068772 107.9377614 81.00006335 106.83230682 78.7421875 105.12109375 C77.95779297 104.53392578 77.17339844 103.94675781 76.36523438 103.34179688 C75.54345703 102.71337891 74.72167969 102.08496094 73.875 101.4375 C72.15379802 100.14432866 70.43244502 98.85135832 68.7109375 97.55859375 C67.88948242 96.93710449 67.06802734 96.31561523 66.22167969 95.67529297 C63.67042164 93.75147618 61.09206224 91.86841079 58.5 90 C54.37743425 87.01226183 50.27844411 83.99369965 46.18334961 80.96850586 C38.69684276 75.43875791 31.18280268 69.95596668 23.59765625 64.5625 C13.98714803 57.72691414 4.41328824 50.83392768 -5.0625 43.8125 C-6.00222656 43.11769531 -6.94195312 42.42289063 -7.91015625 41.70703125 C-10 40 -10 40 -11 38 C-11.27754131 33.06372952 -10.69109384 29.2149766 -9.1015625 24.55078125 C-8.70453125 23.37322266 -8.3075 22.19566406 -7.8984375 20.98242188 C-7.47820313 19.77134766 -7.05796875 18.56027344 -6.625 17.3125 C-6.2125 16.08982422 -5.8 14.86714844 -5.375 13.60742188 C-2.05300277 3.85039452 -2.05300277 3.85039452 0 0 Z " fill="#F9A129" transform="translate(42,108)"/>
<path d="M0 0 C23.43 0 46.86 0 71 0 C66.49980522 14.62563303 66.49980522 14.62563303 64.80859375 19.85546875 C64.2357666 21.62942017 64.2357666 21.62942017 63.65136719 23.43920898 C63.25079102 24.67614502 62.85021484 25.91308105 62.4375 27.1875 C61.78245064 29.21131996 61.12751697 31.23517733 60.47262573 33.25904846 C60.01728305 34.66618227 59.56181717 36.07327621 59.10623169 37.48033142 C57.67560438 41.90153611 56.25348348 46.32538195 54.83778381 50.75138855 C53.8769859 53.75410208 52.91313637 56.75583214 51.94900513 59.75747681 C51.49230045 61.18182513 51.03690078 62.60659274 50.58297729 64.03182983 C47.9372789 72.33571193 45.13355546 80.54201267 41.97613525 88.66722107 C40.1481699 93.41194892 38.99476494 98.02617532 38 103 C37.3675332 104.34989183 36.70813042 105.68821742 36 107 C35.34 107 34.68 107 34 107 C30.56817639 98.17704922 27.40108658 89.32509458 24.60742188 80.27954102 C21.55026799 70.43811149 18.24321352 60.67953258 14.95825195 50.91235352 C12.1822842 42.64350166 9.52761256 34.3489535 7 26 C6.12988383 23.16514215 5.25357428 20.33224602 4.375 17.5 C4.17132813 16.83742188 3.96765625 16.17484375 3.7578125 15.4921875 C2.89484677 12.71520802 2.00634105 10.01466638 0.8515625 7.34375 C0 5 0 5 0 0 Z " fill="#E14428" transform="translate(93,108)"/>
<path d="M0 0 C1.98 0 3.96 0 6 0 C6.19634033 0.59425781 6.39268066 1.18851563 6.5949707 1.80078125 C7.49917925 4.53439791 8.40582366 7.26720091 9.3125 10 C9.7755957 11.40185547 9.7755957 11.40185547 10.24804688 12.83203125 C11.61338207 16.94240879 12.98980261 21.03693848 14.5390625 25.08203125 C16.24481702 29.55586117 17.65106258 34.11386518 19.0625 38.6875 C20.90544329 44.76050722 20.90544329 44.76050722 23.1171875 50.703125 C24.18144593 53.47208056 24.62155709 56.13152654 25.0625 59.0625 C25.57981895 62.45286304 26.16645133 65.6658053 27 69 C10.83 69 -5.34 69 -22 69 C-18.71902428 55.87609713 -18.71902428 55.87609713 -16.79492188 50.31494141 C-15.88819458 47.67440447 -15.0433771 45.01789547 -14.203125 42.35546875 C-10.214735 29.75423248 -6.0797322 17.22568672 -1.62915039 4.77978516 C-1.06813975 3.19275856 -0.53229563 1.59688688 0 0 Z " fill="#DF442A" transform="translate(64,39)"/>
<path d="M0 0 C2.475 0.495 2.475 0.495 5 1 C6.44140625 5.32421875 7.8828125 9.6484375 9.32421875 13.97265625 C9.54408447 14.63217285 9.7639502 15.29168945 9.99047852 15.97119141 C10.47683692 17.43043698 10.96298582 18.88975238 11.44897461 20.34912109 C12.95869254 24.88146474 14.4729777 29.41223467 15.9921875 33.94140625 C18.00818944 39.95652692 20.01017186 45.97617152 22 52 C22.28359375 52.85658203 22.5671875 53.71316406 22.859375 54.59570312 C23.60260554 56.8527194 24.33499407 59.11287432 25.0625 61.375 C25.46597656 62.62023437 25.86945313 63.86546875 26.28515625 65.1484375 C27 68 27 68 26 70 C9.83 70 -6.34 70 -23 70 C-18.40449473 51.6179789 -18.40449473 51.6179789 -16.16015625 45.08984375 C-15.91132187 44.3490004 -15.66248749 43.60815704 -15.40611267 42.84486389 C-14.63069143 40.54040666 -13.84691067 38.23891056 -13.0625 35.9375 C-12.54434321 34.40319009 -12.02676375 32.86868509 -11.50976562 31.33398438 C-10.4992684 28.33559362 -9.48375828 25.33896736 -8.46533203 22.34326172 C-7.48423966 19.44964374 -6.52264387 16.55061902 -5.57763672 13.64501953 C-5.35273056 12.95694717 -5.1278244 12.26887482 -4.89610291 11.55995178 C-4.28604039 9.6889206 -3.68081379 7.8163146 -3.07592773 5.94360352 C-2 3 -2 3 0 0 Z " fill="#DD432A" transform="translate(187,38)"/>
<path d="M0 0 C1 2 1 2 0.29296875 4.5390625 C-0.07183594 5.55742188 -0.43664062 6.57578125 -0.8125 7.625 C-2.04052994 11.14927769 -3.22208314 14.61302358 -4.0625 18.25 C-5 22 -5 22 -8 30 C-32.09 30 -56.18 30 -81 30 C-83 26 -83 26 -82.625 23.75 C-82.41875 23.1725 -82.2125 22.595 -82 22 C-82 22.66 -82 23.32 -82 24 C-81.01 24.33 -80.02 24.66 -79 25 C-79 25.99 -79 26.98 -79 28 C-44.35 27.505 -44.35 27.505 -9 27 C-8.01 22.545 -8.01 22.545 -7 18 C-6.34 18 -5.68 18 -5 18 C-5 15.69 -5 13.38 -5 11 C-4.34 11 -3.68 11 -3 11 C-3 9.02 -3 7.04 -3 5 C-2.34 5 -1.68 5 -1 5 C-0.67 3.35 -0.34 1.7 0 0 Z " fill="#653533" transform="translate(172,78)"/>
<path d="M0 0 C4.11786086 1.45336266 7.37985909 3.58657273 11 6 C11.66 6 12.32 6 13 6 C13.66 5.34 14.32 4.68 15 4 C16.10408203 5.39025391 16.10408203 5.39025391 17.23046875 6.80859375 C18.21549028 8.01876305 19.20120385 9.22836929 20.1875 10.4375 C20.67025391 11.04916016 21.15300781 11.66082031 21.65039062 12.29101562 C23.84574541 14.957856 25.42714978 16.73976969 28.60546875 18.18359375 C31.16430563 18.22526949 31.16430563 18.22526949 33.1328125 16.1640625 C33.79023438 15.32617188 34.44765625 14.48828125 35.125 13.625 C38.73455056 9.08848315 38.73455056 9.08848315 42 8 C42.66 7.34 43.32 6.68 44 6 C45.32 6.66 46.64 7.32 48 8 C45.44854066 9.99373391 42.88211471 11.96723841 40.3125 13.9375 C39.2306543 14.78344727 39.2306543 14.78344727 38.12695312 15.64648438 C37.42119141 16.18466797 36.71542969 16.72285156 35.98828125 17.27734375 C35.02208862 18.02359009 35.02208862 18.02359009 34.03637695 18.78491211 C31.6421772 20.21350966 29.77332823 20.74737227 27 21 C24.78492551 19.64414285 23.01684334 18.35400599 21.0625 16.6875 C19.92652728 15.76310241 18.78842713 14.84131427 17.6484375 13.921875 C17.05772461 13.44169922 16.46701172 12.96152344 15.85839844 12.46679688 C12.13243711 9.52596981 8.21402047 6.84719582 4.31860352 4.13745117 C2.86278881 3.11441821 1.42883909 2.06038283 0 1 C0 0.67 0 0.34 0 0 Z " fill="#E79B39" transform="translate(99,196)"/>
<path d="M0 0 C0.33 0.66 0.66 1.32 1 2 C0.67 2.66 0.34 3.32 0 4 C-0.99 4.33 -1.98 4.66 -3 5 C-3.763125 5.804375 -4.52625 6.60875 -5.3125 7.4375 C-8.210747 10.20094482 -10.27958059 10.7598602 -14 12 C-14.29519531 12.62132812 -14.59039062 13.24265625 -14.89453125 13.8828125 C-16.31598906 16.60518046 -17.81779652 17.37125105 -20.5 18.8125 C-21.2940625 19.25207031 -22.088125 19.69164062 -22.90625 20.14453125 C-23.5971875 20.42683594 -24.288125 20.70914063 -25 21 C-25.66 20.67 -26.32 20.34 -27 20 C-26.46632812 19.60731934 -25.93265625 19.21463867 -25.3828125 18.81005859 C-22.92159953 16.99874637 -20.46079776 15.18687628 -18 13.375 C-17.16082031 12.75753906 -16.32164062 12.14007813 -15.45703125 11.50390625 C-10.28505875 7.6950893 -5.13074717 3.86418353 0 0 Z " fill="#4D3E29" transform="translate(210,157)"/>
<path d="M0 0 C1.26885525 4.13918906 0.3945475 6.13387486 -1.3125 10.125 C-3.29461331 15.00110796 -4.64374606 19.53393951 -5.5390625 24.703125 C-6.27279784 28.35936548 -7.50888769 31.58286762 -9 35 C-9.99 35.495 -9.99 35.495 -11 36 C-10.37731076 29.86566954 -8.62570695 24.3786047 -6.625 18.5625 C-6.16867188 17.20801758 -6.16867188 17.20801758 -5.703125 15.82617188 C-3.90177382 10.51064627 -1.99949532 5.24407515 0 0 Z " fill="#B44637" transform="translate(63,42)"/>
<path d="M0 0 C4.11786086 1.45336266 7.37985909 3.58657273 11 6 C11.66 6 12.32 6 13 6 C13.66 5.34 14.32 4.68 15 4 C16.00593243 5.1196986 17.0045849 6.2459412 18 7.375 C18.556875 8.00148437 19.11375 8.62796875 19.6875 9.2734375 C21 11 21 11 21 13 C12.59043428 10.89760857 6.53787804 6.55332449 0 1 C0 0.67 0 0.34 0 0 Z " fill="#E79C35" transform="translate(99,196)"/>
<path d="M0 0 C1.1768145 3.71972137 0.50504019 6.09969387 -0.5 9.84765625 C-1.34437631 13.48243242 -1.42958695 16.25645654 -1 20 C1.33336666 23.00333267 1.33336666 23.00333267 4 25 C0.60931932 23.54685114 -1.76040926 21.9594592 -4 19 C-5.11735021 12.29589871 -2.29205241 6.23151748 0 0 Z " fill="#D09540" transform="translate(35,127)"/>
<path d="M0 0 C1 2 1 2 0.29296875 4.5390625 C-0.07183594 5.55742188 -0.43664062 6.57578125 -0.8125 7.625 C-2.04944946 11.17063938 -3.22796706 14.65062699 -4.0625 18.3125 C-5.03759909 22.14788976 -6.35584414 25.41275086 -8 29 C-9.31625194 26.36749612 -8.74813658 25.19820944 -8.0625 22.375 C-7.86785156 21.55773437 -7.67320312 20.74046875 -7.47265625 19.8984375 C-7.31667969 19.27195312 -7.16070312 18.64546875 -7 18 C-6.34 18 -5.68 18 -5 18 C-5 15.69 -5 13.38 -5 11 C-4.34 11 -3.68 11 -3 11 C-3 9.02 -3 7.04 -3 5 C-2.34 5 -1.68 5 -1 5 C-0.67 3.35 -0.34 1.7 0 0 Z " fill="#4F3030" transform="translate(172,78)"/>
<path d="M0 0 C0.66 0.33 1.32 0.66 2 1 C-0.09653876 3.79746979 -2.20350462 6.58691259 -4.3125 9.375 C-4.90740234 10.1690625 -5.50230469 10.963125 -6.11523438 11.78125 C-6.69208984 12.54179687 -7.26894531 13.30234375 -7.86328125 14.0859375 C-8.39219971 14.7876709 -8.92111816 15.4894043 -9.46606445 16.21240234 C-11 18 -11 18 -14 20 C-13.44928492 16.14499441 -11.68606223 14.68606223 -9 12 C-8.2127322 9.8618034 -8.2127322 9.8618034 -8 8 C-7.01 8 -6.02 8 -5 8 C-4.731875 7.4225 -4.46375 6.845 -4.1875 6.25 C-2.98280141 3.9674132 -1.59201885 2.0262058 0 0 Z " fill="#EF7720" transform="translate(177,152)"/>
<path d="M0 0 C4.86792365 1.86157959 6.62245769 5.64689339 9.31640625 9.8828125 C9.87199219 10.58148438 10.42757812 11.28015625 11 12 C11.99 12 12.98 12 14 12 C14.66 14.31 15.32 16.62 16 19 C9.37346951 13.72582267 3.60313728 7.76871551 0 0 Z " fill="#ED7329" transform="translate(111,196)"/>
<path d="M0 0 C3.62894849 2.41929899 3.64829848 3.44640073 4.625 7.5625 C5.23713942 11.07903271 5.23713942 11.07903271 7 14 C7.04080783 15.99958364 7.04254356 18.00045254 7 20 C7.66 20 8.32 20 9 20 C9 21.98 9 23.96 9 26 C6.91366487 22.87049731 6.10379279 20.34643294 5.0625 16.75 C3.95570026 13.02750501 2.85257069 9.41432674 1.25 5.875 C0 3 0 3 0 0 Z " fill="#523131" transform="translate(74,51)"/>
<path d="M0 0 C3.61832403 5.42748604 5.79879695 12.44986504 5 19 C4.34 19.99 3.68 20.98 3 22 C2.34 22 1.68 22 1 22 C1 21.34 1 20.68 1 20 C1.66 20 2.32 20 3 20 C2.855625 18.700625 2.71125 17.40125 2.5625 16.0625 C2.44068359 14.96615234 2.44068359 14.96615234 2.31640625 13.84765625 C2.18113386 11.98859771 2.18113386 11.98859771 1 11 C0.76636119 9.15108054 0.58696365 7.29511969 0.4375 5.4375 C0.35371094 4.42558594 0.26992187 3.41367188 0.18359375 2.37109375 C0.12300781 1.58863281 0.06242188 0.80617188 0 0 Z " fill="#DB9C41" transform="translate(220,127)"/>
<path d="M0 0 C3.32073552 1.66036776 3.88438531 5.0047488 5.1796875 8.34375 C6.24221049 11.78430064 6.31013217 14.4334801 6 18 C6.66 18 7.32 18 8 18 C8 19.98 8 21.96 8 24 C4.89351516 20.75231131 4.36494662 17.56790294 3.5390625 13.3125 C3.02402564 11.10306649 2.32263464 9.24218446 1.375 7.1875 C0 4 0 4 0 0 Z " fill="#583231" transform="translate(83,78)"/>
<path d="M0 0 C4.22625098 1.56975036 8.45736507 3.18908073 11.4375 6.6875 C13.82260698 8.69098986 16.00366495 8.19975567 19 8 C18.01 9.485 18.01 9.485 17 11 C12.30094351 10.51178634 9.30142845 8.33669232 5.6875 5.5 C5.13771484 5.08363281 4.58792969 4.66726562 4.02148438 4.23828125 C2.65631329 3.19023687 1.32475829 2.09868311 0 1 C0 0.67 0 0.34 0 0 Z " fill="#CA8741" transform="translate(113,206)"/>
<path d="M0 0 C0.66 0.33 1.32 0.66 2 1 C2.59355614 3.64860427 2.74209269 6.29197322 3 9 C2.34 9 1.68 9 1 9 C0.67 10.32 0.34 11.64 0 13 C-0.99 13 -1.98 13 -3 13 C-3.66 14.32 -4.32 15.64 -5 17 C-6.32 16.67 -7.64 16.34 -9 16 C-8.43410156 15.59007812 -7.86820313 15.18015625 -7.28515625 14.7578125 C-6.18494141 13.94957031 -6.18494141 13.94957031 -5.0625 13.125 C-3.96615234 12.32449219 -3.96615234 12.32449219 -2.84765625 11.5078125 C-0.88901765 10.11987896 -0.88901765 10.11987896 0 8 C0.0689472 6.62657169 0.08467708 5.24997898 0.0625 3.875 C0.041875 2.59625 0.02125 1.3175 0 0 Z " fill="#514129" transform="translate(224,138)"/>
<path d="M0 0 C0.99 0.33 1.98 0.66 3 1 C-6.41002278 13.66970387 -6.41002278 13.66970387 -11 19 C-11 15.29890901 -10.09028966 14.02731606 -8 11 C-7.175 10.195625 -6.35 9.39125 -5.5 8.5625 C-2.88184461 5.87889073 -1.50637986 3.40917548 0 0 Z " fill="#EE7720" transform="translate(197,125)"/>
<path d="M0 0 C1.5 1.375 1.5 1.375 3 3 C3 3.66 3 4.32 3 5 C2.01 5.33 1.02 5.66 0 6 C-1.96361202 9.92722404 -3.34197179 13.6570138 -4 18 C-4.66 18 -5.32 18 -6 18 C-4.83805848 11.53287812 -2.8751252 5.90377651 0 0 Z " fill="#D7953A" transform="translate(42,108)"/>
<path d="M0 0 C3.04911568 2.53364913 3.97515381 5.14970635 5.1875 8.875 C5.70376953 10.41800781 5.70376953 10.41800781 6.23046875 11.9921875 C6.95288831 14.81585785 7.15491337 17.10472261 7 20 C5.07591988 16.42157061 3.73949434 12.69718004 2.375 8.875 C1.92898437 7.63492188 1.48296875 6.39484375 1.0234375 5.1171875 C0 2 0 2 0 0 Z " fill="#513C29" transform="translate(213,104)"/>
<path d="M0 0 C4.71062571 4.71062571 5.43270056 11.64624626 6 18 C5.34 17.67 4.68 17.34 4 17 C3.18359375 14.53125 3.18359375 14.53125 2.4375 11.5 C1.79159388 7.95211183 1.79159388 7.95211183 0 5 C-0.04063832 3.33382885 -0.042721 1.66611905 0 0 Z " fill="#B74837" transform="translate(83,82)"/>
<path d="M0 0 C0.66 0 1.32 0 2 0 C0.23536928 6.10737442 -1.69557475 12.07433507 -4 18 C-5.21771265 14.24879123 -4.51840246 12.44840339 -2.8359375 8.8828125 C-1.55676349 6.00168226 -0.80746189 3.0435102 0 0 Z " fill="#56312F" transform="translate(62,40)"/>
<path d="M0 0 C0 3.77910478 -0.99703962 4.46106101 -3.5 7.1875 C-4.47453125 8.26064453 -4.47453125 8.26064453 -5.46875 9.35546875 C-5.9740625 9.89816406 -6.479375 10.44085938 -7 11 C-7.33 10.34 -7.66 9.68 -8 9 C-6.85459775 7.68712379 -5.70866567 6.37470979 -4.5625 5.0625 C-3.92441406 4.33160156 -3.28632813 3.60070312 -2.62890625 2.84765625 C-1.77458541 1.87860647 -0.91348825 0.91348825 0 0 Z " fill="#EB7625" transform="translate(137,204)"/>
<path d="M0 0 C3.68646141 1.45855647 5.16143971 3.30229045 7.25 6.625 C8.03117187 7.85089844 8.03117187 7.85089844 8.828125 9.1015625 C9.21484375 9.72804687 9.6015625 10.35453125 10 11 C9.67 11.66 9.34 12.32 9 13 C7.87064804 11.58680023 6.74669374 10.16928595 5.625 8.75 C4.99851562 7.96109375 4.37203125 7.1721875 3.7265625 6.359375 C2.21089263 4.28818811 1.05780366 2.32930503 0 0 Z " fill="#ED7722" transform="translate(52,120)"/>
<path d="M0 0 C0.66 1.32 1.32 2.64 2 4 C1.01 4 0.02 4 -1 4 C-1.268125 4.5775 -1.53625 5.155 -1.8125 5.75 C-3.01719859 8.0325868 -4.40798115 9.9737942 -6 12 C-6.66 11.67 -7.32 11.34 -8 11 C-5.36 7.37 -2.72 3.74 0 0 Z " fill="#F59C33" transform="translate(213,108)"/>
<path d="M0 0 C4.20626034 1.50223584 5.73900021 4.28550034 8 8 C7.67 8.66 7.34 9.32 7 10 C5.83043409 8.52312468 4.66441854 7.04343707 3.5 5.5625 C2.8503125 4.73878906 2.200625 3.91507813 1.53125 3.06640625 C0 1 0 1 0 0 Z " fill="#F07A21" transform="translate(111,196)"/>
<path d="M0 0 C2.18975773 3.28463659 2.99806563 6.20696275 4 10 C3.34 10.66 2.68 11.32 2 12 C0.26043342 10.26043342 0.62809614 7.8063378 0.4375 5.4375 C0.35371094 4.42558594 0.26992187 3.41367188 0.18359375 2.37109375 C0.12300781 1.58863281 0.06242188 0.80617188 0 0 Z " fill="#CC8F3B" transform="translate(220,127)"/>
<path d="M0 0 C4.15882353 8.02058824 4.15882353 8.02058824 3.625 11.3125 C3.41875 11.869375 3.2125 12.42625 3 13 C2.67 11.35 2.34 9.7 2 8 C1.34 8 0.68 8 0 8 C0 5.36 0 2.72 0 0 Z " fill="#BB4836" transform="translate(193,44)"/>
<path d="M0 0 C0 4.38968456 -2.12805101 5.76905739 -5 9 C-5.33 8.01 -5.66 7.02 -6 6 C-5.01 5.67 -4.02 5.34 -3 5 C-3 4.01 -3 3.02 -3 2 C-2.01 1.34 -1.02 0.68 0 0 Z " fill="#EE7821" transform="translate(144,195)"/>
<path d="M0 0 C0.99 0 1.98 0 3 0 C2.55123384 1.64846769 2.09069512 3.29373455 1.625 4.9375 C1.36976563 5.85402344 1.11453125 6.77054687 0.8515625 7.71484375 C0 10 0 10 -2 11 C-1.34 7.37 -0.68 3.74 0 0 Z " fill="#62332F" transform="translate(165,96)"/>
<path d="M0 0 C0 3.39593478 -0.52165948 4.06619881 -2.5 6.6875 C-2.9640625 7.31011719 -3.428125 7.93273437 -3.90625 8.57421875 C-4.2671875 9.04472656 -4.628125 9.51523438 -5 10 C-5.33 9.01 -5.66 8.02 -6 7 C-4.78515625 5.17578125 -4.78515625 5.17578125 -3.0625 3.3125 C-2.49660156 2.68988281 -1.93070313 2.06726563 -1.34765625 1.42578125 C-0.90292969 0.95527344 -0.45820313 0.48476562 0 0 Z " fill="#EC7721" transform="translate(212,108)"/>
<path d="M0 0 C3.99996286 1.33332095 4.83782337 3.4957827 7 7 C6.67 7.66 6.34 8.32 6 9 C4.99406757 7.8803014 3.9954151 6.7540588 3 5.625 C2.443125 4.99851562 1.88625 4.37203125 1.3125 3.7265625 C0 2 0 2 0 0 Z " fill="#EE7721" transform="translate(43,108)"/>
</svg>
