<?xml version="1.0" encoding="UTF-8"?>
<svg xmlns="http://www.w3.org/2000/svg" xmlns:xlink="http://www.w3.org/1999/xlink" viewBox="0 0 128 128" version="1.1">
<g id="surface1">
<path style=" stroke:none;fill-rule:evenodd;fill:rgb(98.823529%,42.745098%,14.901961%);fill-opacity:1;" d="M 17.84375 -0.03125 C 48.574219 -0.03125 79.300781 -0.03125 110.03125 -0.03125 C 117.320312 0.980469 122.664062 4.730469 126.0625 11.21875 C 126.535156 12.316406 126.953125 13.441406 127.3125 14.59375 C 127.566406 15.699219 127.785156 16.800781 127.96875 17.90625 C 127.96875 48.613281 127.96875 79.324219 127.96875 110.03125 C 126.882812 117.640625 122.90625 123.089844 116.03125 126.375 C 114.074219 127.160156 112.054688 127.691406 109.96875 127.96875 C 79.300781 127.96875 48.636719 127.96875 17.96875 127.96875 C 10.636719 126.972656 5.273438 123.222656 1.875 116.71875 C 1.402344 115.621094 0.984375 114.496094 0.625 113.34375 C 0.371094 112.238281 0.152344 111.132812 -0.03125 110.03125 C -0.03125 79.324219 -0.03125 48.613281 -0.03125 17.90625 C 0.992188 10.609375 4.742188 5.265625 11.21875 1.875 C 13.332031 0.902344 15.542969 0.265625 17.84375 -0.03125 Z M 17.84375 -0.03125 "/>
<path style=" stroke:none;fill-rule:evenodd;fill:rgb(100%,99.215686%,99.215686%);fill-opacity:1;" d="M 49.15625 41.46875 C 49.148438 41.667969 49.210938 41.835938 49.34375 41.96875 C 50.832031 46.597656 52.332031 51.222656 53.84375 55.84375 C 57.21875 55.886719 60.605469 55.90625 64 55.90625 C 67.40625 55.90625 70.792969 55.863281 74.15625 55.78125 C 76.285156 49.15625 78.421875 42.53125 80.5625 35.90625 C 81.453125 34.332031 82.734375 33.902344 84.40625 34.625 C 84.921875 34.933594 85.308594 35.359375 85.5625 35.90625 C 87.863281 42.941406 90.144531 49.984375 92.40625 57.03125 C 92.402344 57.195312 92.441406 57.34375 92.53125 57.46875 C 93.664062 60.859375 94.777344 64.253906 95.875 67.65625 C 96.167969 69.199219 95.742188 70.503906 94.59375 71.5625 C 84.570312 78.859375 74.527344 86.128906 64.46875 93.375 C 64.113281 93.496094 63.761719 93.496094 63.40625 93.375 C 53.40625 86.125 43.40625 78.875 33.40625 71.625 C 32.222656 70.554688 31.777344 69.234375 32.0625 67.65625 C 33.613281 62.953125 35.144531 58.242188 36.65625 53.53125 C 36.789062 53.398438 36.851562 53.230469 36.84375 53.03125 C 38.34375 48.386719 39.84375 43.742188 41.34375 39.09375 C 41.476562 38.960938 41.539062 38.792969 41.53125 38.59375 C 41.800781 37.695312 42.082031 36.800781 42.375 35.90625 C 43.25 34.390625 44.507812 33.945312 46.15625 34.5625 C 46.765625 34.921875 47.191406 35.429688 47.4375 36.09375 C 48.03125 37.882812 48.601562 39.671875 49.15625 41.46875 Z M 49.15625 41.46875 "/>
<path style=" stroke:none;fill-rule:evenodd;fill:rgb(98.823529%,42.745098%,15.294118%);fill-opacity:1;" d="M 50.65625 55.84375 C 46.8125 55.863281 42.980469 55.84375 39.15625 55.78125 C 39.988281 53.15625 40.824219 50.53125 41.65625 47.90625 C 41.789062 47.773438 41.851562 47.605469 41.84375 47.40625 C 42.796875 44.300781 43.808594 41.21875 44.875 38.15625 C 46.820312 44.042969 48.746094 49.9375 50.65625 55.84375 Z M 50.65625 55.84375 "/>
<path style=" stroke:none;fill-rule:evenodd;fill:rgb(98.823529%,42.745098%,15.294118%);fill-opacity:1;" d="M 88.84375 55.84375 C 85 55.863281 81.167969 55.84375 77.34375 55.78125 C 79.191406 49.886719 81.097656 44.011719 83.0625 38.15625 C 85.023438 44.035156 86.949219 49.929688 88.84375 55.84375 Z M 88.84375 55.84375 "/>
<path style=" stroke:none;fill-rule:evenodd;fill:rgb(100%,77.64706%,66.666669%);fill-opacity:1;" d="M 41.53125 38.59375 C 41.539062 38.792969 41.476562 38.960938 41.34375 39.09375 C 41.382812 38.914062 41.445312 38.746094 41.53125 38.59375 Z M 41.53125 38.59375 "/>
<path style=" stroke:none;fill-rule:evenodd;fill:rgb(100%,77.64706%,66.666669%);fill-opacity:1;" d="M 49.15625 41.46875 C 49.242188 41.621094 49.304688 41.789062 49.34375 41.96875 C 49.210938 41.835938 49.148438 41.667969 49.15625 41.46875 Z M 49.15625 41.46875 "/>
<path style=" stroke:none;fill-rule:evenodd;fill:rgb(100%,63.921571%,46.27451%);fill-opacity:1;" d="M 41.84375 47.40625 C 41.851562 47.605469 41.789062 47.773438 41.65625 47.90625 C 41.695312 47.726562 41.757812 47.558594 41.84375 47.40625 Z M 41.84375 47.40625 "/>
<path style=" stroke:none;fill-rule:evenodd;fill:rgb(100%,78.039217%,67.058825%);fill-opacity:1;" d="M 36.84375 53.03125 C 36.851562 53.230469 36.789062 53.398438 36.65625 53.53125 C 36.695312 53.351562 36.757812 53.183594 36.84375 53.03125 Z M 36.84375 53.03125 "/>
<path style=" stroke:none;fill-rule:evenodd;fill:rgb(99.607843%,77.64706%,66.666669%);fill-opacity:1;" d="M 39.15625 55.78125 C 42.980469 55.84375 46.8125 55.863281 50.65625 55.84375 C 46.8125 55.925781 42.957031 55.925781 39.09375 55.84375 C 39.101562 55.804688 39.121094 55.785156 39.15625 55.78125 Z M 39.15625 55.78125 "/>
<path style=" stroke:none;fill-rule:evenodd;fill:rgb(99.607843%,78.039217%,67.058825%);fill-opacity:1;" d="M 74.15625 55.78125 C 70.792969 55.863281 67.40625 55.90625 64 55.90625 C 60.605469 55.90625 57.21875 55.886719 53.84375 55.84375 C 60.617188 55.863281 67.390625 55.84375 74.15625 55.78125 Z M 74.15625 55.78125 "/>
<path style=" stroke:none;fill-rule:evenodd;fill:rgb(99.607843%,77.64706%,66.666669%);fill-opacity:1;" d="M 77.34375 55.78125 C 81.167969 55.84375 85 55.863281 88.84375 55.84375 C 85 55.925781 81.144531 55.925781 77.28125 55.84375 C 77.289062 55.804688 77.308594 55.785156 77.34375 55.78125 Z M 77.34375 55.78125 "/>
<path style=" stroke:none;fill-rule:evenodd;fill:rgb(100%,75.294119%,63.529414%);fill-opacity:1;" d="M 92.40625 57.03125 C 92.496094 57.15625 92.535156 57.304688 92.53125 57.46875 C 92.441406 57.34375 92.402344 57.195312 92.40625 57.03125 Z M 92.40625 57.03125 "/>
<path style=" stroke:none;fill-rule:evenodd;fill:rgb(99.607843%,88.627452%,82.745099%);fill-opacity:1;" d="M 76.28125 58.90625 C 80.125 58.84375 83.980469 58.824219 87.84375 58.84375 C 87.859375 58.925781 87.835938 58.988281 87.78125 59.03125 C 83.96875 58.90625 80.136719 58.863281 76.28125 58.90625 Z M 76.28125 58.90625 "/>
<path style=" stroke:none;fill-rule:evenodd;fill:rgb(99.215686%,50.980395%,27.058825%);fill-opacity:1;" d="M 51.65625 58.96875 C 47.84375 58.925781 44.050781 58.96875 40.28125 59.09375 C 40.234375 59.050781 40.191406 59 40.15625 58.9375 C 44 58.886719 47.832031 58.894531 51.65625 58.96875 Z M 51.65625 58.96875 "/>
<path style=" stroke:none;fill-rule:evenodd;fill:rgb(98.823529%,42.745098%,14.901961%);fill-opacity:1;" d="M 54.84375 58.96875 C 60.917969 58.894531 67 58.886719 73.09375 58.9375 C 70.070312 68.285156 67.03125 77.628906 63.96875 86.96875 C 60.921875 77.628906 57.882812 68.296875 54.84375 58.96875 Z M 54.84375 58.96875 "/>
<path style=" stroke:none;fill-rule:evenodd;fill:rgb(99.215686%,50.980395%,27.058825%);fill-opacity:1;" d="M 76.28125 58.96875 C 76.28125 58.949219 76.28125 58.925781 76.28125 58.90625 C 80.136719 58.863281 83.96875 58.90625 87.78125 59.03125 C 87.761719 59.03125 87.738281 59.03125 87.71875 59.03125 C 83.917969 58.96875 80.105469 58.949219 76.28125 58.96875 Z M 76.28125 58.96875 "/>
<path style=" stroke:none;fill-rule:evenodd;fill:rgb(98.823529%,42.745098%,14.901961%);fill-opacity:1;" d="M 51.65625 58.96875 C 54.394531 67.285156 57.105469 75.617188 59.78125 83.96875 C 59.78125 84.011719 59.761719 84.03125 59.71875 84.03125 C 53.253906 75.707031 46.777344 67.394531 40.28125 59.09375 C 44.050781 58.96875 47.84375 58.925781 51.65625 58.96875 Z M 51.65625 58.96875 "/>
<path style=" stroke:none;fill-rule:evenodd;fill:rgb(98.823529%,42.745098%,14.901961%);fill-opacity:1;" d="M 76.28125 58.96875 C 80.105469 58.949219 83.917969 58.96875 87.71875 59.03125 C 81.199219 67.414062 74.667969 75.789062 68.125 84.15625 C 70.8125 75.757812 73.53125 67.359375 76.28125 58.96875 Z M 76.28125 58.96875 "/>
<path style=" stroke:none;fill-rule:evenodd;fill:rgb(98.823529%,42.745098%,15.294118%);fill-opacity:1;" d="M 55.71875 83.84375 C 55.71875 83.925781 55.675781 83.96875 55.59375 83.96875 C 48.808594 79.0625 42.027344 74.144531 35.25 69.21875 C 35.039062 68.984375 34.957031 68.714844 35 68.40625 C 35.84375 65.847656 36.679688 63.285156 37.5 60.71875 C 37.628906 60.65625 37.734375 60.699219 37.8125 60.84375 C 43.769531 68.519531 49.738281 76.1875 55.71875 83.84375 Z M 55.71875 83.84375 "/>
<path style=" stroke:none;fill-rule:evenodd;fill:rgb(98.823529%,42.745098%,15.294118%);fill-opacity:1;" d="M 90.28125 60.59375 C 90.359375 60.597656 90.410156 60.640625 90.4375 60.71875 C 91.257812 63.285156 92.09375 65.847656 92.9375 68.40625 C 92.980469 68.714844 92.898438 68.984375 92.6875 69.21875 C 85.796875 74.210938 78.910156 79.210938 72.03125 84.21875 C 72.011719 84.199219 71.988281 84.175781 71.96875 84.15625 C 78.101562 76.316406 84.203125 68.464844 90.28125 60.59375 Z M 90.28125 60.59375 "/>
<path style=" stroke:none;fill-rule:evenodd;fill:rgb(99.607843%,56.470591%,35.294119%);fill-opacity:1;" d="M 55.71875 83.84375 C 56.21875 84.425781 56.175781 84.46875 55.59375 83.96875 C 55.675781 83.96875 55.71875 83.925781 55.71875 83.84375 Z M 55.71875 83.84375 "/>
<path style=" stroke:none;fill-rule:evenodd;fill:rgb(99.215686%,68.235296%,52.941179%);fill-opacity:1;" d="M 59.78125 83.96875 C 59.847656 84.015625 59.859375 84.078125 59.8125 84.15625 C 59.769531 84.121094 59.738281 84.082031 59.71875 84.03125 C 59.761719 84.03125 59.78125 84.011719 59.78125 83.96875 Z M 59.78125 83.96875 "/>
</g>
</svg>
