<?xml version="1.0" encoding="UTF-8"?>
<svg xmlns="http://www.w3.org/2000/svg" xmlns:xlink="http://www.w3.org/1999/xlink" viewBox="0 0 128 128" version="1.1">
<g id="surface1">
<path style=" stroke:none;fill-rule:nonzero;fill:rgb(95.686275%,89.803922%,99.215686%);fill-opacity:1;" d="M 22.273438 -0.136719 C 22.640625 -0.140625 23.011719 -0.140625 23.390625 -0.144531 C 24.625 -0.152344 25.859375 -0.152344 27.089844 -0.152344 C 27.976562 -0.15625 28.863281 -0.160156 29.75 -0.164062 C 32.15625 -0.175781 34.558594 -0.179688 36.964844 -0.183594 C 38.46875 -0.183594 39.976562 -0.1875 41.480469 -0.191406 C 46.734375 -0.203125 51.992188 -0.210938 57.25 -0.210938 C 62.136719 -0.214844 67.027344 -0.230469 71.914062 -0.25 C 76.117188 -0.269531 80.324219 -0.277344 84.527344 -0.277344 C 87.035156 -0.277344 89.542969 -0.28125 92.050781 -0.292969 C 94.414062 -0.308594 96.773438 -0.308594 99.136719 -0.300781 C 100 -0.300781 100.863281 -0.304688 101.722656 -0.3125 C 109.710938 -0.382812 115.722656 1.34375 121.578125 7.046875 C 125.625 11.324219 128.117188 16.332031 128.136719 22.273438 C 128.140625 22.640625 128.140625 23.011719 128.144531 23.390625 C 128.152344 24.625 128.152344 25.859375 128.152344 27.089844 C 128.15625 27.976562 128.160156 28.863281 128.164062 29.75 C 128.175781 32.15625 128.179688 34.558594 128.183594 36.964844 C 128.183594 38.46875 128.1875 39.976562 128.191406 41.480469 C 128.203125 46.734375 128.210938 51.992188 128.210938 57.25 C 128.214844 62.136719 128.230469 67.027344 128.25 71.914062 C 128.269531 76.117188 128.277344 80.324219 128.277344 84.527344 C 128.277344 87.035156 128.28125 89.542969 128.292969 92.050781 C 128.308594 94.414062 128.308594 96.773438 128.300781 99.136719 C 128.300781 100 128.304688 100.863281 128.3125 101.722656 C 128.382812 109.710938 126.65625 115.722656 120.953125 121.574219 C 116.675781 125.625 111.667969 128.117188 105.726562 128.136719 C 105.359375 128.140625 104.988281 128.140625 104.609375 128.144531 C 103.375 128.152344 102.140625 128.152344 100.910156 128.152344 C 100.023438 128.15625 99.136719 128.160156 98.25 128.164062 C 95.84375 128.175781 93.441406 128.179688 91.035156 128.183594 C 89.53125 128.183594 88.023438 128.1875 86.519531 128.191406 C 81.265625 128.203125 76.007812 128.210938 70.75 128.210938 C 65.863281 128.214844 60.972656 128.230469 56.085938 128.25 C 51.882812 128.269531 47.675781 128.277344 43.472656 128.277344 C 40.964844 128.277344 38.457031 128.28125 35.949219 128.292969 C 33.585938 128.308594 31.226562 128.308594 28.863281 128.300781 C 28 128.300781 27.136719 128.304688 26.277344 128.3125 C 18.289062 128.382812 12.277344 126.65625 6.425781 120.949219 C 2.375 116.675781 -0.117188 111.667969 -0.136719 105.726562 C -0.140625 105.359375 -0.140625 104.988281 -0.144531 104.609375 C -0.152344 103.375 -0.152344 102.140625 -0.152344 100.910156 C -0.15625 100.023438 -0.160156 99.136719 -0.164062 98.25 C -0.175781 95.84375 -0.179688 93.441406 -0.183594 91.035156 C -0.183594 89.53125 -0.1875 88.023438 -0.191406 86.519531 C -0.203125 81.265625 -0.210938 76.007812 -0.210938 70.75 C -0.214844 65.863281 -0.230469 60.972656 -0.25 56.085938 C -0.269531 51.882812 -0.277344 47.675781 -0.277344 43.472656 C -0.277344 40.964844 -0.28125 38.457031 -0.292969 35.949219 C -0.308594 33.585938 -0.308594 31.226562 -0.300781 28.863281 C -0.300781 28 -0.304688 27.136719 -0.3125 26.277344 C -0.382812 18.289062 1.34375 12.277344 7.050781 6.421875 C 11.324219 2.375 16.332031 -0.117188 22.273438 -0.136719 Z M 22.273438 -0.136719 "/>
<path style=" stroke:none;fill-rule:nonzero;fill:rgb(74.509805%,39.607844%,97.254902%);fill-opacity:1;" d="M 65.5 32 C 67.324219 32.828125 68.542969 33.730469 69.5 35.5 C 69.476562 36.105469 69.449219 36.710938 69.421875 37.332031 C 69.605469 38.929688 69.902344 39.414062 71.117188 40.507812 C 72.65625 41.53125 74.226562 42.445312 75.84375 43.34375 C 76.660156 43.835938 76.660156 43.835938 77.496094 44.339844 C 79.664062 45.613281 79.664062 45.613281 82 46.5 C 83.613281 45.882812 83.613281 45.882812 85 45 C 86.425781 44.835938 87.640625 45.035156 89 45.5 C 90.925781 47.097656 91.914062 48.125 92.15625 50.625 C 91.972656 52.839844 91.414062 53.808594 90 55.5 C 88.929688 56.085938 88.929688 56.085938 88 56.5 C 87.9375 58.609375 87.894531 60.71875 87.863281 62.828125 C 87.851562 63.542969 87.832031 64.261719 87.8125 64.976562 C 87.78125 66.007812 87.765625 67.039062 87.757812 68.070312 C 87.742188 68.691406 87.730469 69.3125 87.714844 69.953125 C 87.835938 71.589844 87.835938 71.589844 89.207031 72.410156 C 89.636719 72.605469 90.0625 72.800781 90.5 73 C 91.875 74.28125 92 75.007812 92.28125 76.90625 C 92.210938 79.113281 91.230469 80.261719 89.753906 81.828125 C 88.660156 82.804688 88.074219 82.992188 86.59375 83.125 C 85 83 85 83 83.71875 82.1875 C 83.316406 81.960938 82.914062 81.734375 82.5 81.5 C 80.773438 82.046875 79.265625 82.878906 77.710938 83.800781 C 77.296875 84.046875 76.878906 84.289062 76.453125 84.542969 C 75.582031 85.058594 74.710938 85.578125 73.84375 86.09375 C 73.429688 86.335938 73.015625 86.582031 72.585938 86.832031 C 72.210938 87.054688 71.835938 87.28125 71.445312 87.511719 C 70.5 88 70.5 88 69.5 88 C 69.53125 88.609375 69.5625 89.21875 69.59375 89.84375 C 69.585938 91.808594 69.285156 92.949219 68 94.5 C 66.558594 95.660156 65.621094 95.980469 63.78125 96.25 C 61.984375 95.996094 60.933594 95.597656 59.582031 94.371094 C 58.839844 93.261719 58.859375 92.46875 58.78125 91.148438 C 58.464844 89.378906 58.167969 88.660156 56.847656 87.414062 C 55.3125 86.378906 53.75 85.476562 52.125 84.59375 C 51.582031 84.269531 51.039062 83.945312 50.480469 83.613281 C 48.324219 82.359375 48.324219 82.359375 46 81.5 C 44.410156 82.121094 44.410156 82.121094 43 83 C 41.261719 83.210938 40.269531 83.113281 38.65625 82.4375 C 36.691406 80.84375 36.101562 79.21875 35.75 76.75 C 36.085938 74.386719 36.761719 73.621094 38.5 72 C 39.160156 72 39.820312 72 40.5 72 C 40.5 66.71875 40.5 61.441406 40.5 56 C 39.675781 55.835938 38.851562 55.671875 38 55.5 C 36.582031 53.890625 36.042969 52.851562 35.78125 50.71875 C 36.089844 48.308594 36.746094 47.089844 38.65625 45.59375 C 40.273438 44.878906 41.246094 44.785156 43 45 C 43.699219 45.414062 43.699219 45.414062 44.414062 45.835938 C 45.953125 46.671875 45.953125 46.671875 47.425781 46.105469 C 49.003906 45.222656 50.574219 44.332031 52.125 43.40625 C 52.675781 43.109375 53.226562 42.808594 53.792969 42.5 C 56.71875 40.871094 56.71875 40.871094 58.542969 38.195312 C 58.808594 36.875 58.808594 36.875 58.855469 35.609375 C 59.027344 34.273438 59.359375 33.832031 60.34375 32.9375 C 62.289062 31.835938 63.296875 31.679688 65.5 32 Z M 65.5 32 "/>
<path style=" stroke:none;fill-rule:nonzero;fill:rgb(95.686275%,89.019608%,99.215686%);fill-opacity:1;" d="M 62.980469 43.351562 C 64.09375 43.34375 64.09375 43.34375 66 43.5 C 66.179688 43.824219 66.359375 44.148438 66.546875 44.480469 C 69.75 50.21875 72.960938 55.949219 76.21875 61.65625 C 76.464844 62.085938 76.707031 62.515625 76.960938 62.960938 C 78.007812 64.796875 79.0625 66.621094 80.183594 68.414062 C 80.515625 68.949219 80.847656 69.480469 81.1875 70.03125 C 81.46875 70.46875 81.753906 70.910156 82.042969 71.359375 C 82.5 72.5 82.5 72.5 82.113281 73.5625 C 81.910156 73.871094 81.707031 74.179688 81.5 74.5 C 81.335938 74.996094 81.171875 75.488281 81 76 C 76.59375 76.058594 72.1875 76.101562 67.777344 76.128906 C 65.730469 76.144531 63.6875 76.160156 61.640625 76.1875 C 59.664062 76.214844 57.691406 76.230469 55.714844 76.238281 C 54.960938 76.242188 54.207031 76.25 53.457031 76.265625 C 52.398438 76.28125 51.347656 76.285156 50.292969 76.285156 C 49.691406 76.289062 49.089844 76.292969 48.472656 76.300781 C 47 76 47 76 46.023438 74.808594 C 45.5 73.5 45.5 73.5 45.804688 72.285156 C 46.035156 71.859375 46.261719 71.4375 46.5 71 C 46.871094 70.28125 46.871094 70.28125 47.253906 69.550781 C 47.691406 68.761719 47.691406 68.761719 48.136719 67.953125 C 48.296875 67.664062 48.457031 67.371094 48.621094 67.074219 C 49.140625 66.132812 49.664062 65.191406 50.1875 64.25 C 50.546875 63.597656 50.910156 62.949219 51.269531 62.296875 C 57.050781 51.867188 57.050781 51.867188 59.957031 46.957031 C 60.5625 45.925781 60.5625 45.925781 61.160156 44.46875 C 62 43.5 62 43.5 62.980469 43.351562 Z M 62.980469 43.351562 "/>
<path style=" stroke:none;fill-rule:nonzero;fill:rgb(95.294118%,89.019608%,99.215686%);fill-opacity:1;" d="M 47 78.5 C 58.21875 78.5 69.441406 78.5 81 78.5 C 78.9375 80.5625 76.574219 81.921875 74.09375 83.4375 C 73.601562 83.753906 73.109375 84.070312 72.601562 84.394531 C 71.246094 85.214844 69.984375 85.949219 68.5 86.5 C 66.765625 85.953125 66.765625 85.953125 65.5 85 C 63.28125 84.8125 62.371094 84.753906 60.5 86 C 58.496094 85.835938 57.058594 85.066406 55.351562 84.046875 C 54.863281 83.757812 54.375 83.46875 53.871094 83.171875 C 53.367188 82.867188 52.863281 82.5625 52.34375 82.25 C 51.832031 81.945312 51.316406 81.644531 50.789062 81.328125 C 48.015625 79.675781 48.015625 79.675781 47 79 C 47 78.835938 47 78.671875 47 78.5 Z M 47 78.5 "/>
<path style=" stroke:none;fill-rule:nonzero;fill:rgb(95.294118%,88.627452%,99.215686%);fill-opacity:1;" d="M 59 42 C 59.328125 42.164062 59.660156 42.328125 60 42.5 C 56.1875 49.367188 52.332031 56.199219 48.355469 62.96875 C 46.695312 65.792969 45.074219 68.628906 43.5 71.5 C 43.335938 71.5 43.171875 71.5 43 71.5 C 42.9375 69.320312 42.894531 67.140625 42.863281 64.960938 C 42.851562 64.21875 42.832031 63.476562 42.8125 62.734375 C 42.78125 61.667969 42.765625 60.605469 42.757812 59.539062 C 42.742188 58.894531 42.730469 58.253906 42.714844 57.59375 C 43 56 43 56 44.203125 55.121094 C 44.628906 54.917969 45.058594 54.710938 45.5 54.5 C 46.679688 53.042969 46.679688 53.042969 46.4375 51.140625 C 46.609375 49.53125 46.898438 49.085938 48.144531 48.011719 C 49.722656 47.007812 51.324219 46.101562 52.96875 45.21875 C 53.8125 44.738281 53.8125 44.738281 54.671875 44.25 C 57.65625 42.582031 57.65625 42.582031 59 42 Z M 59 42 "/>
<path style=" stroke:none;fill-rule:nonzero;fill:rgb(95.294118%,89.019608%,99.215686%);fill-opacity:1;" d="M 68 42 C 70.726562 43.054688 73.269531 44.367188 75.84375 45.75 C 76.324219 45.988281 76.804688 46.230469 77.300781 46.476562 C 80.773438 48.367188 80.773438 48.367188 81.4375 50.230469 C 81.570312 51.105469 81.675781 51.984375 81.761719 52.863281 C 82.097656 54.460938 83.074219 54.753906 84.355469 55.640625 C 85.992188 57.820312 85.285156 61.511719 85.1875 64.15625 C 85.171875 64.867188 85.160156 65.578125 85.148438 66.289062 C 85.113281 68.027344 85.0625 69.761719 85 71.5 C 83.582031 69.804688 82.433594 68.109375 81.375 66.171875 C 81.074219 65.625 80.773438 65.078125 80.460938 64.511719 C 80.304688 64.222656 80.148438 63.9375 79.984375 63.640625 C 79.160156 62.125 78.324219 60.613281 77.492188 59.101562 C 77.324219 58.800781 77.15625 58.496094 76.984375 58.183594 C 75.160156 54.871094 73.277344 51.589844 71.382812 48.3125 C 70.1875 46.234375 69.042969 44.15625 68 42 Z M 68 42 "/>
<path style=" stroke:none;fill-rule:nonzero;fill:rgb(95.686275%,89.803922%,99.215686%);fill-opacity:1;" d="M 111.5 127.5 C 112.5 128 112.5 128 112.5 128 Z M 111.5 127.5 "/>
<path style=" stroke:none;fill-rule:nonzero;fill:rgb(95.686275%,90.196079%,99.215686%);fill-opacity:1;" d="M 15.5 127.5 C 16.5 128 16.5 128 16.5 128 Z M 15.5 127.5 "/>
<path style=" stroke:none;fill-rule:nonzero;fill:rgb(95.686275%,90.196079%,99.215686%);fill-opacity:1;" d="M 112.5 127 C 113.5 127.5 113.5 127.5 113.5 127.5 Z M 112.5 127 "/>
<path style=" stroke:none;fill-rule:nonzero;fill:rgb(95.686275%,89.803922%,99.215686%);fill-opacity:1;" d="M 14.5 127 C 15.5 127.5 15.5 127.5 15.5 127.5 Z M 14.5 127 "/>
<path style=" stroke:none;fill-rule:nonzero;fill:rgb(95.686275%,89.803922%,99.607843%);fill-opacity:1;" d="M 116.5 125 C 117.5 125.5 117.5 125.5 117.5 125.5 Z M 116.5 125 "/>
<path style=" stroke:none;fill-rule:nonzero;fill:rgb(95.686275%,89.803922%,99.215686%);fill-opacity:1;" d="M 10.5 125 C 11.5 125.5 11.5 125.5 11.5 125.5 Z M 10.5 125 "/>
<path style=" stroke:none;fill-rule:nonzero;fill:rgb(96.078432%,89.803922%,99.215686%);fill-opacity:1;" d="M 118 124 C 119 124.5 119 124.5 119 124.5 Z M 118 124 "/>
<path style=" stroke:none;fill-rule:nonzero;fill:rgb(96.078432%,90.196079%,99.215686%);fill-opacity:1;" d="M 9 124 C 10 124.5 10 124.5 10 124.5 Z M 9 124 "/>
<path style=" stroke:none;fill-rule:nonzero;fill:rgb(96.078432%,90.196079%,99.215686%);fill-opacity:1;" d="M 118 3.5 C 119 4 119 4 119 4 Z M 118 3.5 "/>
<path style=" stroke:none;fill-rule:nonzero;fill:rgb(95.686275%,89.803922%,99.215686%);fill-opacity:1;" d="M 9 3.5 C 10 4 10 4 10 4 Z M 9 3.5 "/>
<path style=" stroke:none;fill-rule:nonzero;fill:rgb(96.078432%,89.803922%,99.607843%);fill-opacity:1;" d="M 116.5 2.5 C 117.5 3 117.5 3 117.5 3 Z M 116.5 2.5 "/>
<path style=" stroke:none;fill-rule:nonzero;fill:rgb(95.686275%,90.196079%,99.607843%);fill-opacity:1;" d="M 10.5 2.5 C 11.5 3 11.5 3 11.5 3 Z M 10.5 2.5 "/>
<path style=" stroke:none;fill-rule:nonzero;fill:rgb(95.686275%,89.803922%,99.215686%);fill-opacity:1;" d="M 112.5 0.5 C 113.5 1 113.5 1 113.5 1 Z M 112.5 0.5 "/>
<path style=" stroke:none;fill-rule:nonzero;fill:rgb(95.686275%,89.803922%,99.215686%);fill-opacity:1;" d="M 14.5 0.5 C 15.5 1 15.5 1 15.5 1 Z M 14.5 0.5 "/>
<path style=" stroke:none;fill-rule:nonzero;fill:rgb(95.686275%,89.803922%,99.215686%);fill-opacity:1;" d="M 111.5 0 C 112.5 0.5 112.5 0.5 112.5 0.5 Z M 111.5 0 "/>
<path style=" stroke:none;fill-rule:nonzero;fill:rgb(96.078432%,89.803922%,99.215686%);fill-opacity:1;" d="M 15.5 0 C 16.5 0.5 16.5 0.5 16.5 0.5 Z M 15.5 0 "/>
</g>
</svg>
