<?xml version="1.0" encoding="UTF-8"?>
<svg xmlns="http://www.w3.org/2000/svg" xmlns:xlink="http://www.w3.org/1999/xlink" viewBox="0 0 256 256" version="1.1">
<g id="surface1">
<path style=" stroke:none;fill-rule:nonzero;fill:rgb(100%,27.058825%,0%);fill-opacity:1;" d="M 37.1875 -0.195312 C 38.003906 -0.195312 38.820312 -0.199219 39.636719 -0.203125 C 41.867188 -0.210938 44.097656 -0.207031 46.324219 -0.203125 C 48.734375 -0.199219 51.144531 -0.207031 53.554688 -0.210938 C 58.273438 -0.222656 62.988281 -0.222656 67.703125 -0.21875 C 71.539062 -0.214844 75.375 -0.21875 79.210938 -0.21875 C 80.027344 -0.222656 80.027344 -0.222656 80.867188 -0.222656 C 81.976562 -0.222656 83.085938 -0.222656 84.195312 -0.222656 C 94.601562 -0.230469 105.007812 -0.226562 115.414062 -0.222656 C 124.921875 -0.21875 134.433594 -0.222656 143.945312 -0.234375 C 153.71875 -0.246094 163.496094 -0.253906 173.269531 -0.25 C 178.753906 -0.246094 184.238281 -0.25 189.722656 -0.257812 C 194.390625 -0.265625 199.058594 -0.265625 203.726562 -0.257812 C 206.105469 -0.253906 208.488281 -0.25 210.867188 -0.257812 C 213.050781 -0.265625 215.230469 -0.261719 217.414062 -0.253906 C 218.199219 -0.25 218.984375 -0.253906 219.769531 -0.257812 C 230.128906 -0.324219 238.855469 2.765625 246.5 10 C 249.105469 12.671875 250.957031 15.640625 252.65625 18.9375 C 252.902344 19.40625 252.902344 19.40625 253.148438 19.882812 C 255.875 25.445312 256.21875 31.097656 256.195312 37.1875 C 256.195312 38.003906 256.199219 38.820312 256.203125 39.636719 C 256.210938 41.867188 256.207031 44.097656 256.203125 46.324219 C 256.199219 48.734375 256.207031 51.144531 256.210938 53.554688 C 256.222656 58.273438 256.222656 62.988281 256.21875 67.703125 C 256.214844 71.539062 256.21875 75.375 256.21875 79.210938 C 256.21875 79.753906 256.222656 80.300781 256.222656 80.867188 C 256.222656 81.976562 256.222656 83.085938 256.222656 84.195312 C 256.230469 94.601562 256.226562 105.007812 256.222656 115.414062 C 256.21875 124.921875 256.222656 134.433594 256.234375 143.945312 C 256.246094 153.71875 256.253906 163.496094 256.25 173.269531 C 256.246094 178.753906 256.25 184.238281 256.257812 189.722656 C 256.265625 194.390625 256.265625 199.058594 256.257812 203.726562 C 256.253906 206.105469 256.25 208.488281 256.257812 210.867188 C 256.265625 213.050781 256.261719 215.230469 256.253906 217.414062 C 256.25 218.199219 256.253906 218.984375 256.257812 219.769531 C 256.324219 230.402344 253.050781 239.277344 245.5 247 C 237.664062 253.980469 229.070312 256.238281 218.8125 256.195312 C 217.996094 256.195312 217.179688 256.199219 216.363281 256.203125 C 214.132812 256.210938 211.902344 256.207031 209.675781 256.203125 C 207.265625 256.199219 204.855469 256.207031 202.445312 256.210938 C 197.726562 256.222656 193.011719 256.222656 188.296875 256.21875 C 184.460938 256.214844 180.625 256.21875 176.789062 256.21875 C 175.972656 256.222656 175.972656 256.222656 175.132812 256.222656 C 174.023438 256.222656 172.914062 256.222656 171.804688 256.222656 C 161.398438 256.230469 150.992188 256.226562 140.585938 256.222656 C 131.078125 256.21875 121.566406 256.222656 112.054688 256.234375 C 102.28125 256.246094 92.503906 256.253906 82.730469 256.25 C 77.246094 256.246094 71.761719 256.25 66.277344 256.257812 C 61.609375 256.265625 56.941406 256.265625 52.273438 256.257812 C 49.894531 256.253906 47.511719 256.25 45.132812 256.257812 C 42.949219 256.265625 40.769531 256.261719 38.585938 256.253906 C 37.800781 256.25 37.015625 256.253906 36.230469 256.257812 C 25.597656 256.324219 16.722656 253.050781 9 245.5 C 2.019531 237.664062 -0.238281 229.070312 -0.195312 218.8125 C -0.195312 217.996094 -0.199219 217.179688 -0.203125 216.363281 C -0.210938 214.132812 -0.207031 211.902344 -0.203125 209.675781 C -0.199219 207.265625 -0.207031 204.855469 -0.210938 202.445312 C -0.222656 197.726562 -0.222656 193.011719 -0.21875 188.296875 C -0.214844 184.460938 -0.21875 180.625 -0.21875 176.789062 C -0.21875 176.246094 -0.222656 175.699219 -0.222656 175.132812 C -0.222656 174.023438 -0.222656 172.914062 -0.222656 171.804688 C -0.230469 161.398438 -0.226562 150.992188 -0.222656 140.585938 C -0.21875 131.078125 -0.222656 121.566406 -0.234375 112.054688 C -0.246094 102.28125 -0.253906 92.503906 -0.25 82.730469 C -0.246094 77.246094 -0.25 71.761719 -0.257812 66.277344 C -0.265625 61.609375 -0.265625 56.941406 -0.257812 52.273438 C -0.253906 49.894531 -0.25 47.511719 -0.257812 45.132812 C -0.265625 42.949219 -0.261719 40.769531 -0.253906 38.585938 C -0.25 37.800781 -0.253906 37.015625 -0.257812 36.230469 C -0.324219 25.871094 2.765625 17.144531 10 9.5 C 12.671875 6.894531 15.640625 5.042969 18.9375 3.34375 C 19.25 3.179688 19.5625 3.019531 19.882812 2.851562 C 25.445312 0.125 31.097656 -0.21875 37.1875 -0.195312 Z M 37.1875 -0.195312 "/>
<path style=" stroke:none;fill-rule:nonzero;fill:rgb(100%,99.607843%,99.215686%);fill-opacity:1;" d="M 58 48 C 104.199219 48 150.398438 48 198 48 C 196.273438 69.308594 196.273438 69.308594 195.691406 75.96875 C 195.625 76.757812 195.558594 77.546875 195.488281 78.335938 C 195.3125 80.394531 195.132812 82.453125 194.953125 84.507812 C 194.839844 85.8125 194.726562 87.113281 194.617188 88.414062 C 194.078125 94.609375 193.539062 100.804688 193 107 C 192.964844 107.398438 192.929688 107.792969 192.894531 108.203125 C 191.382812 125.566406 189.832031 142.925781 188.214844 160.28125 C 187.230469 170.847656 186.304688 181.417969 185.5 192 C 180.601562 193.449219 175.703125 194.882812 170.78125 196.25 C 170.246094 196.398438 169.710938 196.546875 169.160156 196.703125 C 165.753906 197.652344 162.34375 198.601562 158.9375 199.546875 C 155.253906 200.566406 151.570312 201.597656 147.890625 202.628906 C 145.082031 203.417969 142.269531 204.203125 139.457031 204.984375 C 138.597656 205.222656 138.597656 205.222656 137.71875 205.46875 C 136.613281 205.777344 135.503906 206.082031 134.398438 206.390625 C 133.902344 206.527344 133.402344 206.667969 132.890625 206.808594 C 132.453125 206.929688 132.015625 207.050781 131.5625 207.175781 C 130.488281 207.472656 130.488281 207.472656 129.5 208 C 125.820312 207.816406 122.5 206.84375 118.984375 205.792969 C 117.277344 205.285156 115.5625 204.816406 113.84375 204.34375 C 110.21875 203.339844 106.59375 202.328125 102.96875 201.3125 C 102.441406 201.164062 101.917969 201.019531 101.375 200.867188 C 99.203125 200.257812 97.035156 199.648438 94.867188 199.042969 C 93.785156 198.738281 92.707031 198.4375 91.625 198.132812 C 90.570312 197.839844 89.515625 197.542969 88.460938 197.246094 C 86.097656 196.585938 83.738281 195.925781 81.375 195.277344 C 80.96875 195.167969 80.566406 195.054688 80.148438 194.941406 C 79.417969 194.738281 78.691406 194.539062 77.960938 194.34375 C 76.164062 193.847656 74.394531 193.308594 72.625 192.714844 C 72.027344 192.511719 72.027344 192.511719 71.414062 192.308594 C 71.113281 192.207031 70.8125 192.105469 70.5 192 C 70.144531 187.980469 69.792969 183.957031 69.4375 179.9375 C 69.382812 179.304688 69.324219 178.671875 69.269531 178.019531 C 68.605469 170.46875 67.949219 162.914062 67.304688 155.359375 C 65.921875 139.046875 64.488281 122.742188 63 106.4375 C 62.914062 105.503906 62.828125 104.570312 62.746094 103.636719 C 62.703125 103.175781 62.660156 102.714844 62.617188 102.242188 C 62.40625 99.933594 62.195312 97.625 61.984375 95.3125 C 61.921875 94.632812 61.921875 94.632812 61.859375 93.941406 C 61.042969 85.011719 60.238281 76.078125 59.449219 67.148438 C 59.316406 65.664062 59.1875 64.183594 59.054688 62.699219 C 58.871094 60.679688 58.695312 58.65625 58.515625 56.632812 C 58.460938 56.042969 58.410156 55.453125 58.355469 54.84375 C 58.308594 54.304688 58.261719 53.761719 58.210938 53.207031 C 58.171875 52.742188 58.128906 52.273438 58.085938 51.796875 C 58.003906 50.53125 58 49.265625 58 48 Z M 58 48 "/>
<path style=" stroke:none;fill-rule:nonzero;fill:rgb(100%,27.450982%,0.392157%);fill-opacity:1;" d="M 84 77.5 C 112.875 77.5 141.75 77.5 171.5 77.5 C 171.5 83.34375 171.007812 89.179688 170.5 95 C 148.390625 95 126.28125 95 103.5 95 C 103.828125 98.628906 104.160156 102.261719 104.5 106 C 104.5 108.308594 104.5 110.621094 104.5 113 C 125.621094 113 146.738281 113 168.5 113 C 167.925781 125.636719 167.925781 125.636719 167.328125 131.796875 C 167.265625 132.484375 167.203125 133.171875 167.136719 133.855469 C 166.972656 135.632812 166.804688 137.40625 166.632812 139.179688 C 166.464844 140.957031 166.296875 142.738281 166.128906 144.515625 C 165.933594 146.589844 165.738281 148.664062 165.542969 150.738281 C 165.015625 156.324219 164.503906 161.910156 164 167.5 C 158.132812 169.320312 152.28125 171.113281 146.308594 172.554688 C 142.59375 173.46875 138.925781 174.546875 135.28125 175.699219 C 134.902344 175.816406 134.523438 175.933594 134.132812 176.054688 C 133.394531 176.285156 132.660156 176.515625 131.929688 176.757812 C 129.730469 177.433594 128.222656 177.5625 126 177 C 125.40625 176.863281 124.8125 176.726562 124.203125 176.585938 C 123.550781 176.421875 122.902344 176.257812 122.25 176.09375 C 121.898438 176.003906 121.546875 175.917969 121.1875 175.824219 C 118.386719 175.113281 115.609375 174.335938 112.835938 173.53125 C 111.183594 173.054688 109.527344 172.59375 107.867188 172.136719 C 104.132812 171.109375 100.414062 170.039062 96.707031 168.917969 C 96.023438 168.710938 96.023438 168.710938 95.324219 168.503906 C 94.21875 168.167969 93.109375 167.835938 92 167.5 C 91.722656 164.484375 91.449219 161.472656 91.171875 158.457031 C 91.078125 157.433594 90.984375 156.414062 90.890625 155.390625 C 90.757812 153.910156 90.621094 152.429688 90.484375 150.945312 C 90.445312 150.5 90.402344 150.050781 90.363281 149.589844 C 90.039062 146.0625 89.773438 142.535156 89.5 139 C 95.441406 139 101.378906 139 107.5 139 C 107.828125 143.949219 108.160156 148.898438 108.5 154 C 110.148438 154.328125 111.800781 154.660156 113.5 155 C 114.359375 155.195312 115.214844 155.394531 116.070312 155.609375 C 116.703125 155.765625 116.703125 155.765625 117.347656 155.929688 C 117.769531 156.035156 118.191406 156.140625 118.625 156.25 C 119.054688 156.355469 119.484375 156.460938 119.925781 156.570312 C 121.675781 157.011719 123.34375 157.4375 125.023438 158.109375 C 129.394531 159.265625 134.21875 157.183594 138.40625 155.96875 C 139.699219 155.59375 140.996094 155.226562 142.289062 154.859375 C 143.144531 154.609375 143.144531 154.609375 144.011719 154.359375 C 145.5 154 145.5 154 147.5 154 C 147.519531 153.472656 147.539062 152.941406 147.554688 152.398438 C 147.867188 145.171875 148.695312 138.242188 149.5 131 C 129.371094 131 109.238281 131 88.5 131 C 88.003906 125.058594 87.511719 119.121094 87 113 C 86.738281 109.996094 86.472656 106.988281 86.195312 103.984375 C 86.132812 103.265625 86.066406 102.542969 86 101.824219 C 85.769531 99.253906 85.535156 96.6875 85.304688 94.117188 C 85.101562 91.890625 84.898438 89.664062 84.699219 87.4375 C 84.605469 86.414062 84.511719 85.394531 84.417969 84.371094 C 84.363281 83.761719 84.308594 83.148438 84.25 82.515625 C 84.203125 81.980469 84.152344 81.445312 84.105469 80.890625 C 84.019531 79.761719 84 78.632812 84 77.5 Z M 84 77.5 "/>
</g>
</svg>
