<?xml version="1.0" encoding="UTF-8"?>
<svg xmlns="http://www.w3.org/2000/svg" xmlns:xlink="http://www.w3.org/1999/xlink" viewBox="0 0 128 128" version="1.1">
<g id="surface1">
<path style=" stroke:none;fill-rule:nonzero;fill:rgb(60.000002%,25.882354%,30.980393%);fill-opacity:1;" d="M 30 0 L 98 0 C 114.570312 0 128 13.429688 128 30 L 128 98 C 128 114.570312 114.570312 128 98 128 L 30 128 C 13.429688 128 0 114.570312 0 98 L 0 30 C 0 13.429688 13.429688 0 30 0 Z M 30 0 "/>
<path style=" stroke:none;fill-rule:nonzero;fill:rgb(100%,100%,100%);fill-opacity:1;" d="M 106.675781 63.246094 C 106.675781 57.226562 102.535156 52.160156 96.976562 50.710938 L 109.425781 14 L 47.730469 14 L 60.210938 50.828125 C 54.824219 52.390625 50.859375 57.371094 50.859375 63.277344 C 50.859375 67.617188 53.027344 71.46875 56.328125 73.84375 C 55.027344 75.695312 53.519531 77.40625 51.8125 79.027344 C 48.597656 82.035156 45.039062 84.351562 41.1875 85.886719 C 37.714844 83.542969 36.207031 79.402344 37.570312 75.695312 C 42.867188 74.074219 46.71875 69.125 46.71875 63.304688 C 46.71875 56.152344 40.898438 50.363281 33.777344 50.363281 C 26.625 50.363281 20.804688 56.183594 20.804688 63.335938 C 20.804688 66.867188 22.253906 70.109375 24.570312 72.425781 C 24.367188 72.832031 24.164062 73.234375 23.960938 73.671875 C 22.019531 77.664062 19.820312 82.183594 18.980469 87.25 C 17.300781 97.382812 20.050781 105.515625 26.683594 110.121094 C 30.417969 112.695312 34.527344 114 38.957031 114 C 46.574219 114 54.300781 110.179688 61.773438 106.472656 C 67.097656 103.839844 72.601562 101.085938 78.015625 99.753906 C 80.011719 99.261719 82.097656 98.972656 84.296875 98.65625 C 88.753906 98.019531 93.359375 97.351562 97.5 94.949219 C 102.335938 92.140625 105.632812 87.449219 106.589844 82.066406 C 107.3125 77.925781 106.589844 73.757812 104.738281 70.109375 C 105.980469 68.109375 106.675781 65.765625 106.675781 63.246094 Z M 101.03125 63.246094 C 101.03125 67.273438 97.757812 70.542969 93.734375 70.542969 C 89.710938 70.542969 86.441406 67.273438 86.441406 63.246094 C 86.441406 61.945312 86.785156 60.699219 87.394531 59.628906 C 87.625 59.222656 87.914062 58.816406 88.207031 58.46875 C 88.496094 58.121094 88.84375 57.804688 89.21875 57.515625 L 89.246094 57.484375 C 89.480469 57.3125 89.738281 57.136719 90 56.964844 C 90 56.964844 90.03125 56.964844 90.03125 56.933594 C 90.144531 56.878906 90.261719 56.789062 90.375 56.734375 C 90.40625 56.734375 90.433594 56.703125 90.464844 56.703125 C 90.578125 56.644531 90.722656 56.589844 90.867188 56.53125 C 91.011719 56.472656 91.160156 56.414062 91.273438 56.355469 C 91.304688 56.355469 91.332031 56.328125 91.359375 56.328125 C 91.476562 56.300781 91.59375 56.242188 91.707031 56.210938 C 91.738281 56.210938 91.796875 56.183594 91.824219 56.183594 C 91.96875 56.152344 92.085938 56.125 92.230469 56.097656 L 92.257812 56.097656 L 92.691406 56.007812 C 92.722656 56.007812 92.78125 56.007812 92.808594 55.980469 C 92.925781 55.980469 93.039062 55.953125 93.15625 55.953125 L 93.300781 55.953125 C 93.445312 55.953125 93.589844 55.921875 93.765625 55.921875 L 94.140625 55.921875 C 94.257812 55.921875 94.34375 55.921875 94.460938 55.953125 L 94.515625 55.953125 C 94.75 55.980469 94.980469 56.007812 95.210938 56.066406 C 98.511719 56.761719 101.03125 59.714844 101.03125 63.246094 Z M 55.808594 19.789062 L 101.347656 19.789062 L 90.898438 50.625 C 90.464844 50.710938 90.03125 50.855469 89.59375 51 L 78.59375 28.5625 L 67.5625 50.855469 C 67.128906 50.710938 66.664062 50.625 66.203125 50.539062 Z M 76.507812 60.726562 C 75.957031 58.007812 74.570312 55.574219 72.601562 53.78125 L 78.59375 41.679688 L 84.644531 54.039062 C 82.847656 55.835938 81.546875 58.121094 81.023438 60.726562 Z M 62.003906 56.152344 C 62.148438 56.125 62.265625 56.097656 62.410156 56.066406 L 62.496094 56.066406 C 62.613281 56.039062 62.726562 56.039062 62.84375 56.007812 L 62.960938 56.007812 C 63.074219 56.007812 63.160156 55.980469 63.277344 55.980469 L 64.40625 55.980469 C 64.523438 55.980469 64.609375 56.007812 64.695312 56.007812 C 64.753906 56.007812 64.78125 56.007812 64.839844 56.039062 C 64.957031 56.066406 65.042969 56.066406 65.160156 56.097656 C 65.1875 56.097656 65.21875 56.097656 65.277344 56.125 C 65.421875 56.152344 65.566406 56.183594 65.679688 56.210938 L 65.710938 56.210938 C 65.824219 56.242188 65.941406 56.269531 66.058594 56.328125 C 66.085938 56.328125 66.113281 56.355469 66.171875 56.355469 C 66.261719 56.386719 66.375 56.414062 66.460938 56.472656 C 66.492188 56.472656 66.519531 56.5 66.550781 56.5 C 66.664062 56.558594 66.78125 56.589844 66.898438 56.644531 L 66.925781 56.644531 C 67.070312 56.703125 67.1875 56.761719 67.300781 56.847656 L 67.332031 56.847656 C 67.445312 56.90625 67.5625 56.992188 67.679688 57.050781 C 67.707031 57.050781 67.707031 57.082031 67.738281 57.082031 C 67.851562 57.136719 67.9375 57.226562 68.054688 57.28125 L 68.082031 57.3125 C 68.429688 57.574219 68.75 57.863281 69.066406 58.152344 L 69.097656 58.179688 C 69.386719 58.5 69.675781 58.847656 69.90625 59.222656 C 70.660156 60.382812 71.09375 61.742188 71.09375 63.21875 C 71.09375 67.242188 67.824219 70.515625 63.800781 70.515625 C 59.773438 70.515625 56.503906 67.242188 56.503906 63.21875 C 56.472656 59.832031 58.820312 56.964844 62.003906 56.152344 Z M 33.515625 55.953125 C 37.539062 55.953125 40.8125 59.222656 40.8125 63.246094 C 40.8125 67.273438 37.539062 70.542969 33.515625 70.542969 C 29.492188 70.542969 26.21875 67.273438 26.21875 63.246094 C 26.21875 59.222656 29.492188 55.953125 33.515625 55.953125 Z M 100.859375 81.050781 C 100.21875 84.757812 97.933594 88 94.574219 89.941406 C 91.417969 91.765625 87.539062 92.34375 83.457031 92.921875 C 81.226562 93.242188 78.882812 93.589844 76.625 94.140625 C 70.601562 95.617188 64.8125 98.511719 59.195312 101.289062 C 52.015625 104.851562 45.242188 108.210938 38.957031 108.210938 C 35.6875 108.210938 32.761719 107.28125 29.984375 105.34375 C 23.613281 100.941406 23.933594 92.691406 24.683594 88.175781 C 25.378906 83.949219 27.320312 79.980469 29.171875 76.1875 C 29.289062 75.957031 29.375 75.753906 29.492188 75.523438 C 30.128906 75.753906 30.792969 75.929688 31.488281 76.042969 C 30.386719 82.183594 33.515625 88.523438 39.59375 91.648438 L 40.695312 92.226562 L 41.882812 91.792969 C 46.949219 90 51.640625 87.074219 55.777344 83.164062 C 58.125 80.964844 60.121094 78.59375 61.800781 76.015625 C 62.46875 76.132812 63.132812 76.160156 63.800781 76.160156 C 69.820312 76.160156 74.886719 72.019531 76.335938 66.460938 L 81.199219 66.460938 C 82.648438 72.046875 87.714844 76.160156 93.734375 76.160156 C 96.136719 76.160156 98.367188 75.492188 100.277344 74.363281 C 101.03125 76.535156 101.261719 78.792969 100.859375 81.050781 Z M 100.859375 81.050781 "/>
</g>
</svg>
