<svg version="1.1" id="Layer_1" xmlns="http://www.w3.org/2000/svg" xmlns:xlink="http://www.w3.org/1999/xlink" x="0px" y="0px"
	 width="100%" viewBox="0 0 512 512" enable-background="new 0 0 512 512" xml:space="preserve">
<path fill="#1867db" opacity="1.000000" stroke="none"
	d="
M253.000000,513.000000
	C168.687119,513.000000 84.874237,513.000000 1.030678,513.000000
	C1.030678,342.395416 1.030678,171.790848 1.030678,1.093132
	C171.562897,1.093132 342.125885,1.093132 512.844421,1.093132
	C512.844421,171.666550 512.844421,342.333252 512.844421,513.000000
	C426.457489,513.000000 339.978729,513.000000 253.000000,513.000000
M331.609619,329.037964
	C331.612488,285.371460 331.619904,241.704971 331.615265,198.038483
	C331.614014,186.433701 327.564117,182.334030 316.045227,182.330353
	C273.045410,182.316635 230.045578,182.324631 187.045761,182.324493
	C185.477417,182.324493 183.909073,182.324493 182.375061,182.324493
	C181.809357,200.624817 191.264984,219.841980 205.900208,231.156357
	C217.662781,240.249908 230.961853,244.616272 245.808151,244.462555
	C253.577820,244.382111 261.348999,244.448349 269.823212,244.448349
	C269.823212,254.727066 269.336212,264.383240 269.915771,273.974976
	C271.562653,301.231903 292.753296,324.930176 319.602722,329.779205
	C323.468323,330.477356 327.560089,329.922913 331.609619,329.037964
M269.174286,158.329636
	C282.026550,170.446426 297.285339,176.256042 314.941864,175.947525
	C322.393036,175.817322 329.848389,175.925812 337.768646,175.925812
	C337.768646,184.485260 337.775299,192.602539 337.767181,200.719818
	C337.752869,215.067795 342.245239,227.911804 351.261169,238.985199
	C363.601288,254.141342 379.607025,261.978912 399.586853,262.329834
	C399.669983,260.446136 399.790497,258.985046 399.790833,257.523956
	C399.800812,214.552353 399.809052,171.580750 399.791443,128.609146
	C399.787170,118.133957 395.480133,113.925468 384.847443,113.923576
	C341.709290,113.915894 298.571136,113.920387 255.432968,113.920387
	C253.818069,113.920387 252.203171,113.920387 250.354141,113.920387
	C250.675705,131.407684 256.902344,145.778641 269.174286,158.329636
M263.350952,342.500214
	C263.350891,316.670471 263.383789,290.840637 263.333801,265.010986
	C263.314911,255.245026 259.019989,251.008698 249.311615,251.005463
	C205.650864,250.990875 161.990112,250.996872 118.329369,251.009109
	C116.911690,251.009506 115.494057,251.157684 114.107323,251.235260
	C114.145409,284.516876 141.433548,312.376923 174.193924,312.962189
	C183.145370,313.122101 192.102112,312.986481 201.307312,312.986481
	C201.307312,321.307312 201.229675,329.114746 201.322723,336.920135
	C201.549332,355.929199 208.566208,371.954895 222.990967,384.421570
	C234.420547,394.299622 247.723907,399.471283 263.350983,399.355347
	C263.350983,380.451874 263.350983,361.976074 263.350952,342.500214
z"/>
<path fill="#FCFCFC" opacity="1.000000" stroke="none"
	d="
M331.578430,329.493042
	C327.560089,329.922913 323.468323,330.477356 319.602722,329.779205
	C292.753296,324.930176 271.562653,301.231903 269.915771,273.974976
	C269.336212,264.383240 269.823212,254.727066 269.823212,244.448349
	C261.348999,244.448349 253.577820,244.382111 245.808151,244.462555
	C230.961853,244.616272 217.662781,240.249908 205.900208,231.156357
	C191.264984,219.841980 181.809357,200.624817 182.375061,182.324493
	C183.909073,182.324493 185.477417,182.324493 187.045761,182.324493
	C230.045578,182.324631 273.045410,182.316635 316.045227,182.330353
	C327.564117,182.334030 331.614014,186.433701 331.615265,198.038483
	C331.619904,241.704971 331.612488,285.371460 331.578430,329.493042
z"/>
<path fill="#FEFEFE" opacity="1.000000" stroke="none"
	d="
M268.907471,158.093079
	C256.902344,145.778641 250.675705,131.407684 250.354141,113.920387
	C252.203171,113.920387 253.818069,113.920387 255.432968,113.920387
	C298.571136,113.920387 341.709290,113.915894 384.847443,113.923576
	C395.480133,113.925468 399.787170,118.133957 399.791443,128.609146
	C399.809052,171.580750 399.800812,214.552353 399.790833,257.523956
	C399.790497,258.985046 399.669983,260.446136 399.586853,262.329834
	C379.607025,261.978912 363.601288,254.141342 351.261169,238.985199
	C342.245239,227.911804 337.752869,215.067795 337.767181,200.719818
	C337.775299,192.602539 337.768646,184.485260 337.768646,175.925812
	C329.848389,175.925812 322.393036,175.817322 314.941864,175.947525
	C297.285339,176.256042 282.026550,170.446426 268.907471,158.093079
z"/>
<path fill="#FEFEFE" opacity="1.000000" stroke="none"
	d="
M263.350952,343.000244
	C263.350983,361.976074 263.350983,380.451874 263.350983,399.355347
	C247.723907,399.471283 234.420547,394.299622 222.990967,384.421570
	C208.566208,371.954895 201.549332,355.929199 201.322723,336.920135
	C201.229675,329.114746 201.307312,321.307312 201.307312,312.986481
	C192.102112,312.986481 183.145370,313.122101 174.193924,312.962189
	C141.433548,312.376923 114.145409,284.516876 114.107323,251.235260
	C115.494057,251.157684 116.911690,251.009506 118.329369,251.009109
	C161.990112,250.996872 205.650864,250.990875 249.311615,251.005463
	C259.019989,251.008698 263.314911,255.245026 263.333801,265.010986
	C263.383789,290.840637 263.350891,316.670471 263.350952,343.000244
z"/>
</svg>
