<?xml version="1.0" encoding="UTF-8"?>
<svg xmlns="http://www.w3.org/2000/svg" xmlns:xlink="http://www.w3.org/1999/xlink" viewBox="0 0 128 128" version="1.1">
<g id="surface1">
<path style=" stroke:none;fill-rule:nonzero;fill:rgb(99.607843%,87.058824%,0%);fill-opacity:1;" d="M 0 0 C 42.238281 0 84.480469 0 128 0 C 128 42.238281 128 84.480469 128 128 C 85.761719 128 43.519531 128 0 128 C 0 85.761719 0 43.519531 0 0 Z M 0 0 "/>
<path style=" stroke:none;fill-rule:nonzero;fill:rgb(1.176471%,0.784314%,0%);fill-opacity:1;" d="M 107.5 60 C 110.195312 62.003906 112.511719 64.289062 114.5 67 C 114.5 67.328125 114.5 67.660156 114.5 68 C 113.21875 69.085938 111.78125 69.957031 110.375 70.875 C 109.988281 71.140625 109.597656 71.40625 109.195312 71.679688 C 108.820312 71.929688 108.441406 72.175781 108.054688 72.429688 C 107.710938 72.660156 107.363281 72.886719 107.007812 73.125 C 106 73.5 106 73.5 104.933594 73.144531 C 103.695312 72.289062 102.9375 71.171875 102 70 C 99.898438 68.707031 97.902344 68.722656 95.5 69 C 94.050781 69.617188 93.296875 70.132812 92.3125 71.34375 C 91.832031 73.113281 91.796875 74.8125 92.5 76.5 C 95.5625 79.730469 99.96875 81.195312 103.953125 83.003906 C 109.726562 85.695312 114.660156 88.84375 117.4375 94.78125 C 118.78125 98.824219 118.617188 104.058594 117.015625 108.007812 C 114.59375 112.667969 110.957031 115.433594 106.058594 117.226562 C 98.769531 119.097656 90.777344 118.605469 84.234375 114.753906 C 83.257812 114.050781 82.375 113.320312 81.5 112.5 C 81.046875 112.078125 80.59375 111.65625 80.125 111.21875 C 76.992188 107.824219 76.992188 107.824219 76.5 105.5 C 77.519531 104.863281 78.539062 104.226562 79.5625 103.59375 C 79.847656 103.414062 80.132812 103.238281 80.425781 103.054688 C 82.238281 101.929688 84.078125 100.925781 86 100 C 86.289062 100.34375 86.578125 100.6875 86.878906 101.039062 C 87.269531 101.492188 87.660156 101.941406 88.0625 102.40625 C 88.445312 102.851562 88.828125 103.300781 89.222656 103.757812 C 91.738281 106.203125 94.066406 106.753906 97.5 106.71875 C 97.84375 106.730469 98.1875 106.738281 98.539062 106.75 C 101.09375 106.746094 102.53125 106.089844 104.5 104.5 C 105.679688 102.894531 105.660156 101.453125 105.5 99.5 C 105.222656 98.117188 105.222656 98.117188 104.5 97 C 103.679688 96.640625 102.839844 96.3125 102 96 C 83.535156 87.769531 83.535156 87.769531 80.441406 80.117188 C 79.367188 76.183594 79.351562 70.800781 80.921875 67.007812 C 83.566406 62.386719 87.457031 59.863281 92.445312 58.179688 C 97.433594 57.324219 102.996094 57.601562 107.5 60 Z M 107.5 60 "/>
<path style=" stroke:none;fill-rule:nonzero;fill:rgb(1.568628%,1.176471%,0%);fill-opacity:1;" d="M 57.5 58.5 C 61.460938 58.5 65.421875 58.5 69.5 58.5 C 69.546875 64.394531 69.582031 70.289062 69.605469 76.183594 C 69.613281 78.917969 69.628906 81.65625 69.652344 84.394531 C 69.671875 87.039062 69.683594 89.683594 69.691406 92.332031 C 69.695312 93.335938 69.699219 94.339844 69.710938 95.347656 C 69.851562 108.703125 69.851562 108.703125 65.09375 113.625 C 59.832031 117.835938 54.039062 118.484375 47.5 118 C 42.070312 116.726562 37.734375 113.671875 34.53125 109.125 C 34 108 34 108 34 106.5 C 34.828125 105.824219 34.828125 105.824219 35.96875 105.148438 C 36.578125 104.785156 36.578125 104.785156 37.199219 104.414062 C 37.628906 104.164062 38.058594 103.914062 38.5 103.65625 C 38.929688 103.402344 39.359375 103.144531 39.800781 102.882812 C 40.863281 102.25 41.929688 101.621094 43 101 C 44.175781 102.152344 45.285156 103.308594 46.3125 104.59375 C 47.347656 106.003906 47.347656 106.003906 48.5 106.5 C 49.394531 106.5625 50.292969 106.585938 51.1875 106.59375 C 51.90625 106.605469 51.90625 106.605469 52.636719 106.617188 C 54.058594 106.496094 54.835938 106.3125 56 105.5 C 57.363281 103.585938 57.152344 101.394531 57.160156 99.140625 C 57.167969 98.484375 57.167969 98.484375 57.175781 97.8125 C 57.191406 96.359375 57.199219 94.910156 57.207031 93.460938 C 57.214844 92.453125 57.226562 91.449219 57.238281 90.441406 C 57.261719 87.796875 57.28125 85.148438 57.300781 82.503906 C 57.320312 79.800781 57.347656 77.101562 57.371094 74.398438 C 57.417969 69.097656 57.460938 63.800781 57.5 58.5 Z M 57.5 58.5 "/>
</g>
</svg>
