<svg viewBox="0 0 830 200" fill="none" xmlns="http://www.w3.org/2000/svg">
<path d="M147.866 74.8721C149.191 75.5603 150.022 76.9288 150.022 78.4215V147.528C150.022 149.043 149.166 150.428 147.811 151.106L55.8108 197.106C53.1512 198.435 50.022 196.501 50.022 193.528V144.25L97.9662 117.57C99.2351 116.864 100.022 115.526 100.021 114.074L100.002 56.5887C100.001 53.5873 103.183 51.6541 105.847 53.0379L147.866 74.8721Z" fill="#111111"/>
<path d="M50.022 144.25L5.9456 168.787C3.27942 170.271 0 168.343 0 165.292V30.2078C0 28.7568 0.785697 27.4197 2.05318 26.7135L44.0542 3.31268C46.7202 1.82735 50.0006 3.75452 50.001 6.80634L50.022 144.25Z" fill="#111111"/>
<path d="M224.977 152.521H296.02V175.03H200.021V34.4244H224.977V152.521Z" fill="#111111"/>
<path d="M329.08 52.9304C321.231 52.9304 314.992 46.2924 314.992 38.8497C314.992 31.4071 321.231 24.9702 329.08 24.9702C336.727 24.9702 342.966 31.4071 342.966 38.8497C342.966 46.2924 336.727 52.9304 329.08 52.9304ZM316.602 175.03V68.6203H341.155V175.03H316.602Z" fill="#111111"/>
<path d="M381.775 52.9304C373.927 52.9304 367.688 46.2924 367.688 38.8497C367.688 31.4071 373.927 24.9702 381.775 24.9702C389.423 24.9702 395.662 31.4071 395.662 38.8497C395.662 46.2924 389.423 52.9304 381.775 52.9304ZM369.298 175.03V68.6203H393.851V175.03H369.298Z" fill="#111111"/>
<path d="M421.994 175.03V32.0105H446.547V175.03H421.994Z" fill="#111111"/>
<path d="M553.783 32.0105H578.336V175.03H553.783V156.524C545.531 168.191 533.053 175.03 517.758 175.03C490.186 175.03 470.061 152.501 470.061 120.518C470.061 88.7355 490.186 66.2064 517.758 66.2064C533.053 66.2064 545.531 73.0456 553.783 84.7124V32.0105ZM524.399 154.11C541.707 154.11 553.783 140.029 553.783 120.518C553.783 101.006 541.707 87.1263 524.399 87.1263C506.89 87.1263 494.412 101.006 494.412 120.518C494.412 140.029 506.89 154.11 524.399 154.11Z" fill="#111111"/>
<path d="M655.486 153.305C665.146 153.305 676.618 148.88 682.454 142.845L697.951 158.938C688.894 168.593 670.781 175.03 655.687 175.03C625.901 175.03 601.348 152.3 601.348 120.316C601.348 89.1378 624.694 66.2064 654.278 66.2064C686.479 66.2064 705.196 90.5458 705.196 128.966H626.706C629.725 143.248 640.593 153.305 655.486 153.305ZM655.285 87.9309C641.599 87.9309 630.53 96.5804 626.908 110.259H681.649C678.832 97.1839 669.976 87.9309 655.285 87.9309Z" fill="#111111"/>
<path d="M762.37 175.03L717.623 68.6203H743.585L773.774 144.253L803.358 68.6203H829.521L785.514 175.03H762.37Z" fill="#111111"/>
</svg>
