<?xml version="1.0" encoding="UTF-8"?>
<svg version="1.1" xmlns="http://www.w3.org/2000/svg" width="512" height="512">
<path d="M0 0 C168.96 0 337.92 0 512 0 C512 168.96 512 337.92 512 512 C343.04 512 174.08 512 0 512 C0 343.04 0 174.08 0 0 Z " fill="#E05D0D" transform="translate(0,0)"/>
<path d="M0 0 C20.79 0 41.58 0 63 0 C63 6.6 63 13.2 63 20 C50.46 20 37.92 20 25 20 C25 95.9 25 171.8 25 250 C37.87 250 50.74 250 64 250 C64.020625 253.444375 64.04125 256.88875 64.0625 260.4375 C64.071604 261.52474365 64.08070801 262.6119873 64.09008789 263.73217773 C64.09258545 264.58239502 64.09508301 265.4326123 64.09765625 266.30859375 C64.10289307 267.18314209 64.10812988 268.05769043 64.11352539 268.95874023 C64 271 64 271 63 272 C42.21 272 21.42 272 0 272 C0 182.24 0 92.48 0 0 Z " fill="#FEFCFB" transform="translate(353,120)"/>
<path d="M0 0 C20.79 0 41.58 0 63 0 C63 89.43 63 178.86 63 271 C42.21 271 21.42 271 0 271 C0 264.07 0 257.14 0 250 C12.87 250 25.74 250 39 250 C39 174.1 39 98.2 39 20 C26.13 20 13.26 20 0 20 C0 13.4 0 6.8 0 0 Z " fill="#FDFEFD" transform="translate(96,120)"/>
<path d="M0 0 C9.57 0 19.14 0 29 0 C29.825 3.09375 30.65 6.1875 31.5 9.375 C36.26649432 26.97487859 41.55338291 44.43088235 47.76171875 61.578125 C49.58271454 66.61027739 51.2587017 71.68506848 52.890625 76.78125 C54.89442434 82.95167971 57.15623005 88.92532188 59.6953125 94.89453125 C61.12002502 98.28568829 62.47769116 101.69748238 63.8125 105.125 C64.23144531 106.20007813 64.65039062 107.27515625 65.08203125 108.3828125 C66 111 66 111 66 113 C66.66 113 67.32 113 68 113 C68.11601562 112.30519531 68.23203125 111.61039062 68.3515625 110.89453125 C69.07445278 107.66765356 70.15975378 104.7624412 71.375 101.6875 C72.74580958 98.20160693 74.11275794 94.71652284 75.421875 91.20703125 C76.5473312 88.19125621 77.69959372 85.18721285 78.8671875 82.1875 C82.7169283 72.26543853 86.28012182 62.35470239 89.33740234 52.15966797 C90.0688907 49.77545796 90.83767944 47.40537728 91.61328125 45.03515625 C95.36290998 33.54435852 98.71271902 21.99610559 101.77880859 10.30322266 C102.05547363 9.24925293 102.33213867 8.1952832 102.6171875 7.109375 C102.98239502 5.70123535 102.98239502 5.70123535 103.35498047 4.26464844 C104 2 104 2 105 0 C113.91 0 122.82 0 132 0 C130.49123302 7.54383488 128.7859973 14.66006089 126.625 22 C126.33367187 23.01578125 126.04234375 24.0315625 125.7421875 25.078125 C124.07044382 30.79724812 122.18058408 36.3115808 119.84521484 41.79492188 C118.98962203 44.02707506 118.46647105 46.15797958 118 48.5 C117.37414853 51.59059985 116.5412246 54.35953541 115.3359375 57.2734375 C113.52253726 61.71618634 111.73773474 66.16912636 109.9765625 70.6328125 C109.70575867 71.31869446 109.43495483 72.00457642 109.15594482 72.71124268 C108.59499017 74.13229229 108.03422201 75.55341555 107.47363281 76.97460938 C106.91202812 78.39768593 106.34986204 79.82054108 105.78710938 81.24316406 C104.95307703 83.35168378 104.12056921 85.46079555 103.2890625 87.5703125 C102.87844574 88.6117038 102.87844574 88.6117038 102.45953369 89.6741333 C100.792676 93.92166962 99.18245938 98.18667857 97.60523987 102.46824646 C95.65123978 107.76773097 93.68960285 112.9720802 91.03662109 117.96923828 C87.97922147 123.95874606 85.47919927 130.2494128 82.80273438 136.41601562 C82.32771484 137.50462891 81.85269531 138.59324219 81.36328125 139.71484375 C80.93313721 140.70605225 80.50299316 141.69726074 80.05981445 142.71850586 C79 145 79 145 78 146 C76.21928754 146.08726223 74.4351686 146.10699041 72.65234375 146.09765625 C71.57275391 146.09443359 70.49316406 146.09121094 69.38085938 146.08789062 C68.24455078 146.07951172 67.10824219 146.07113281 65.9375 146.0625 C64.79732422 146.05798828 63.65714844 146.05347656 62.48242188 146.04882812 C59.65489649 146.03699747 56.8274736 146.0205141 54 146 C44.99274034 126.9158686 36.72099237 107.64344563 29 88 C28.6498584 87.11086914 28.2997168 86.22173828 27.93896484 85.30566406 C23.60502141 74.28585919 19.2984744 63.26284591 15.7109375 51.97265625 C15.05491033 49.99291646 15.05491033 49.99291646 14.0390625 48.24609375 C12.81698139 45.60437707 12.18406544 42.91667674 11.51367188 40.09228516 C10.73294522 36.91223409 9.73865887 33.8083665 8.75 30.6875 C8.53964111 30.01887939 8.32928223 29.35025879 8.11254883 28.66137695 C6.86989102 24.71732845 5.60800161 20.77966553 4.33984375 16.84375 C4.06495117 15.98563721 3.79005859 15.12752441 3.50683594 14.2434082 C2.96835546 12.5636251 2.42614675 10.88503175 1.87988281 9.20776367 C1.63463867 8.44181885 1.38939453 7.67587402 1.13671875 6.88671875 C0.91717529 6.20826904 0.69763184 5.52981934 0.47143555 4.83081055 C0 3 0 3 0 0 Z " fill="#FEFCF9" transform="translate(190,194)"/>
<path d="M0 0 C20.79 0 41.58 0 63 0 C63 6.6 63 13.2 63 20 C50.46 20 37.92 20 25 20 C25 19.67 25 19.34 25 19 C37.21 19 49.42 19 62 19 C62 13.06 62 7.12 62 1 C42.2 1 22.4 1 2 1 C2.33 89.44 2.66 177.88 3 269 C32.7 269.495 32.7 269.495 63 270 C63 263.73 63 257.46 63 251 C50.46 251 37.92 251 25 251 C25 250.67 25 250.34 25 250 C37.87 250 50.74 250 64 250 C64.020625 253.444375 64.04125 256.88875 64.0625 260.4375 C64.071604 261.52474365 64.08070801 262.6119873 64.09008789 263.73217773 C64.09258545 264.58239502 64.09508301 265.4326123 64.09765625 266.30859375 C64.10289307 267.18314209 64.10812988 268.05769043 64.11352539 268.95874023 C64 271 64 271 63 272 C42.21 272 21.42 272 0 272 C0 182.24 0 92.48 0 0 Z " fill="#FDE1C7" transform="translate(353,120)"/>
<path d="M0 0 C20.79 0 41.58 0 63 0 C63 89.43 63 178.86 63 271 C42.21 271 21.42 271 0 271 C0 264.07 0 257.14 0 250 C12.87 250 25.74 250 39 250 C39 174.43 39 98.86 39 21 C39.33 21 39.66 21 40 21 C40 96.9 40 172.8 40 251 C26.88828407 251.59598709 14.07986353 252.11473565 1 252 C1 257.94 1 263.88 1 270 C8.67545795 269.89208068 16.35083421 269.78004053 24.02612209 269.66066074 C27.58972968 269.60539973 31.15334543 269.55197482 34.71704102 269.50268555 C38.81015245 269.44599468 42.9031061 269.38142682 46.99609375 269.31640625 C48.92418129 269.29133751 48.92418129 269.29133751 50.89122009 269.26576233 C52.07236893 269.24581711 53.25351776 269.22587189 54.47045898 269.20532227 C55.51636703 269.18977798 56.56227509 269.1742337 57.63987732 269.15821838 C59.95640697 269.26300176 59.95640697 269.26300176 61 268 C61.10158144 266.57189997 61.1339711 265.13881476 61.1386652 263.70711422 C61.14413964 262.77505655 61.14961409 261.84299888 61.15525442 260.88269705 C61.15623253 259.84672669 61.15721064 258.81075634 61.15821838 257.74339294 C61.16315636 256.65223004 61.16809434 255.56106713 61.17318195 254.43683869 C61.18864165 250.75013041 61.19694038 247.06343966 61.20532227 243.37670898 C61.21489414 240.74605147 61.2249038 238.11539551 61.23532104 235.48474121 C61.25711511 229.80548779 61.27524883 224.12623202 61.29092598 218.44695854 C61.313598 210.23559153 61.34174447 202.02425054 61.37124526 193.81290556 C61.41895396 180.49189968 61.46220923 167.17088319 61.50268555 153.84985352 C61.54202382 140.90648573 61.58344601 127.96312739 61.62768555 115.01977539 C61.63040982 114.22251029 61.63313409 113.4252452 61.63594092 112.60382055 C61.64962012 108.60434405 61.66334045 104.60486768 61.67708123 100.60539138 C61.79109749 67.40361277 61.89707891 34.20181533 62 1 C41.87 1 21.74 1 1 1 C1 6.94 1 12.88 1 19 C13.21 19 25.42 19 38 19 C38 19.33 38 19.66 38 20 C25.46 20 12.92 20 0 20 C0 13.4 0 6.8 0 0 Z " fill="#FEF4DE" transform="translate(96,120)"/>
<path d="M0 0 C8.32728947 -0.02312684 16.65456563 -0.04091683 24.98187923 -0.05181217 C28.84820118 -0.05704026 32.71450121 -0.06413654 36.58081055 -0.07543945 C40.30903401 -0.086271 44.03723634 -0.0922774 47.76547432 -0.09487724 C49.19089656 -0.09673101 50.61631759 -0.10035071 52.04173088 -0.10573006 C54.03163408 -0.11294393 56.02155834 -0.11340808 58.01147461 -0.11352539 C59.14620712 -0.115746 60.28093964 -0.11796661 61.45005798 -0.12025452 C64 0 64 0 65 1 C65.09757355 2.45339225 65.1255546 3.91151548 65.12584114 5.36817932 C65.12844889 6.31703727 65.13105664 7.26589521 65.13374341 8.24350643 C65.13151268 9.29824941 65.12928196 10.35299238 65.12698364 11.43969727 C65.12932363 13.10600992 65.12932363 13.10600992 65.13171089 14.80598545 C65.13572613 18.55947221 65.13252922 22.31291913 65.12939453 26.06640625 C65.13074834 28.74470133 65.13249173 31.4229936 65.13470459 34.10128784 C65.13916301 40.63940057 65.1381855 47.17750185 65.13529195 53.71561503 C65.1330382 59.02689251 65.13272527 64.33816676 65.13381577 69.64944458 C65.133969 70.40391862 65.13412223 71.15839267 65.13428011 71.93572956 C65.13459982 73.4681863 65.13492403 75.00064304 65.1352527 76.53309977 C65.1381077 90.9200451 65.13482015 105.30698407 65.12945233 119.69392836 C65.12498428 132.05214032 65.1257602 144.41034289 65.13037109 156.76855469 C65.1357165 171.10224404 65.13783301 185.43592782 65.13475883 199.76961803 C65.13444026 201.29659716 65.13412589 202.82357629 65.13381577 204.35055542 C65.13358435 205.47765886 65.13358435 205.47765886 65.13334826 206.62753206 C65.13248301 211.93553746 65.13394617 217.24353934 65.13629532 222.55154419 C65.13909314 229.01576565 65.13835543 235.47997497 65.13301457 241.94419503 C65.13037732 245.24551828 65.12990666 248.54681693 65.13266373 251.84814072 C65.13537207 255.41888203 65.13199799 258.98956519 65.12698364 262.56030273 C65.13032973 264.1424172 65.13032973 264.1424172 65.13374341 265.75649357 C65.12983178 267.17978049 65.12983178 267.17978049 65.12584114 268.63182068 C65.12567879 269.45717032 65.12551644 270.28251997 65.12534916 271.13288021 C65 273 65 273 64 274 C61.97505769 274.09409479 59.9468013 274.11743122 57.91967773 274.11352539 C55.96776772 274.11341209 55.96776772 274.11341209 53.97642517 274.11329651 C52.54548098 274.10818909 51.11453718 274.10297308 49.68359375 274.09765625 C48.2277074 274.09579203 46.77182043 274.09436815 45.31593323 274.09336853 C41.47720621 274.08954365 37.63851681 274.07971364 33.79980469 274.06866455 C29.88542184 274.05844978 25.97103294 274.05387077 22.05664062 274.04882812 C14.37107657 274.03809134 6.68554355 274.02101529 -1 274 C-1 273.34 -1 272.68 -1 272 C20.12 272 41.24 272 63 272 C63 182.57 63 93.14 63 1 C42.21 1 21.42 1 0 1 C0 0.67 0 0.34 0 0 Z " fill="#CE743F" transform="translate(96,119)"/>
<path d="M0 0 C12.54 0 25.08 0 38 0 C38 0.66 38 1.32 38 2 C26.78 2.33 15.56 2.66 4 3 C4 2.34 4 1.68 4 1 C3.01 1 2.02 1 1 1 C1 76.24 1 151.48 1 229 C13.87 228.67 26.74 228.34 40 228 C42.39426298 230.39426298 41.57582779 236.14644205 41.75 239.375 C41.81832031 240.34695313 41.88664062 241.31890625 41.95703125 242.3203125 C42.00730469 243.25359375 42.05757813 244.186875 42.109375 245.1484375 C42.18623535 246.43500244 42.18623535 246.43500244 42.26464844 247.74755859 C42 250 42 250 40.87193298 251.61949158 C38.16242716 253.61769111 36.12772022 253.36028126 32.78442383 253.34057617 C31.5033223 253.34034958 30.22222076 253.34012299 28.90229797 253.33988953 C27.50387219 253.32456957 26.10544996 253.30892158 24.70703125 253.29296875 C23.27642766 253.28737268 21.84581831 253.28310263 20.41520691 253.28010559 C16.65198868 253.26865756 12.88911844 253.23919115 9.1260376 253.20599365 C5.28524483 253.17529163 1.44439577 253.1616 -2.39648438 253.14648438 C-9.93114814 253.11432106 -17.46552529 253.06312566 -25 253 C-25 252.67 -25 252.34 -25 252 C-4.21 251.67 16.58 251.34 38 251 C38.33 244.07 38.66 237.14 39 230 C26.13 230 13.26 230 0 230 C0 154.1 0 78.2 0 0 Z " fill="#D87130" transform="translate(378,140)"/>
<path d="M0 0 C12.54 0 25.08 0 38 0 C38 75.57 38 151.14 38 229 C25.13 229 12.26 229 -1 229 C-1 235.6 -1 242.2 -1 249 C-1.66 249 -2.32 249 -3 249 C-3.02895976 245.87501937 -3.04678483 242.7500731 -3.0625 239.625 C-3.07087891 238.73554688 -3.07925781 237.84609375 -3.08789062 236.9296875 C-3.09111328 236.07890625 -3.09433594 235.228125 -3.09765625 234.3515625 C-3.10289307 233.56604004 -3.10812988 232.78051758 -3.11352539 231.97119141 C-3 230 -3 230 -2 228 C10.87 228 23.74 228 37 228 C36.67 153.75 36.34 79.5 36 3 C32.11565393 2.02891348 28.57488562 1.78115305 24.609375 1.68359375 C23.90476135 1.66281265 23.20014771 1.64203156 22.47418213 1.62062073 C20.23288319 1.55546163 17.99147136 1.49639752 15.75 1.4375 C14.22655103 1.39428274 12.70311329 1.35066743 11.1796875 1.30664062 C7.45324409 1.19981509 3.72667506 1.09845361 0 1 C0 0.67 0 0.34 0 0 Z " fill="#C65A19" transform="translate(96,141)"/>
<path d="M0 0 C0.66 0 1.32 0 2 0 C2 1.32 2 2.64 2 4 C2.66 4 3.32 4 4 4 C4 5.32 4 6.64 4 8 C4.66 8 5.32 8 6 8 C6 8.66 6 9.32 6 10 C6.66 10 7.32 10 8 10 C8.61875 10.78375 9.2375 11.5675 9.875 12.375 C11.88852174 14.86229156 13.08642859 15.85538266 16 17 C16 17.99 16 18.98 16 20 C17.32 20 18.64 20 20 20 C20 20.66 20 21.32 20 22 C21.32 22 22.64 22 24 22 C24 22.66 24 23.32 24 24 C16.08 24 8.16 24 0 24 C0 16.08 0 8.16 0 0 Z " fill="#88817E" transform="translate(0,488)"/>
<path d="M0 0 C0.66 0 1.32 0 2 0 C2 7.92 2 15.84 2 24 C-5.92 24 -13.84 24 -22 24 C-22 23.34 -22 22.68 -22 22 C-20.68 22 -19.36 22 -18 22 C-18 21.34 -18 20.68 -18 20 C-16.68 20 -15.36 20 -14 20 C-14 19.34 -14 18.68 -14 18 C-13.34 18 -12.68 18 -12 18 C-12 17.34 -12 16.68 -12 16 C-11.34 16 -10.68 16 -10 16 C-10 15.34 -10 14.68 -10 14 C-9.34 14 -8.68 14 -8 14 C-8 13.34 -8 12.68 -8 12 C-7.34 12 -6.68 12 -6 12 C-6 11.34 -6 10.68 -6 10 C-5.34 10 -4.68 10 -4 10 C-4 9.34 -4 8.68 -4 8 C-3.34 8 -2.68 8 -2 8 C-2 6.68 -2 5.36 -2 4 C-1.34 4 -0.68 4 0 4 C0 2.68 0 1.36 0 0 Z " fill="#948884" transform="translate(510,488)"/>
<path d="M0 0 C7.92 0 15.84 0 24 0 C24 7.92 24 15.84 24 24 C23.34 24 22.68 24 22 24 C22 22.68 22 21.36 22 20 C21.34 20 20.68 20 20 20 C20 18.68 20 17.36 20 16 C19.38125 15.71125 18.7625 15.4225 18.125 15.125 C16 14 16 14 14 12 C14 11.01 14 10.02 14 9 C12.68 8.67 11.36 8.34 10 8 C10 7.34 10 6.68 10 6 C9.34 6 8.68 6 8 6 C8 5.34 8 4.68 8 4 C6.68 4 5.36 4 4 4 C4 3.34 4 2.68 4 2 C2.68 2 1.36 2 0 2 C0 1.34 0 0.68 0 0 Z " fill="#968881" transform="translate(488,0)"/>
<path d="M0 0 C7.92 0 15.84 0 24 0 C24 0.66 24 1.32 24 2 C22.68 2 21.36 2 20 2 C20 2.66 20 3.32 20 4 C19.278125 4.226875 18.55625 4.45375 17.8125 4.6875 C14.41431697 6.27331875 12.54769001 8.26123324 10 11 C8.63875 12.2684375 8.63875 12.2684375 7.25 13.5625 C5.11767389 15.87251995 4.33978908 16.94189832 4 20 C3.34 20 2.68 20 2 20 C2 21.32 2 22.64 2 24 C1.34 24 0.68 24 0 24 C0 16.08 0 8.16 0 0 Z " fill="#847F7F" transform="translate(0,0)"/>
<path d="M0 0 C1.40726547 4.35491612 -0.02203711 7.06976204 -2 11 C-2.556875 12.010625 -3.11375 13.02125 -3.6875 14.0625 C-5.13063602 17.29237586 -5.24977941 19.50308824 -5 23 C-6.32 23.33 -7.64 23.66 -9 24 C-9.33 26.97 -9.66 29.94 -10 33 C-18.91 33 -27.82 33 -37 33 C-37 32.34 -37 31.68 -37 31 C-29.08 30.67 -21.16 30.34 -13 30 C-10.21755831 23.49456339 -10.21755831 23.49456339 -7.43652344 16.98852539 C-5.00314984 11.30495446 -2.52844857 5.64192783 0 0 Z " fill="#D97735" transform="translate(281,309)"/>
<path d="M0 0 C0.99 0.33 1.98 0.66 3 1 C3.25477428 4.4361064 3.47439003 7.87357801 3.6875 11.3125 C3.76033203 12.28896484 3.83316406 13.26542969 3.90820312 14.27148438 C3.96298828 15.20927734 4.01777344 16.14707031 4.07421875 17.11328125 C4.13182373 17.97735596 4.18942871 18.84143066 4.2487793 19.73168945 C4 22 4 22 2.8729248 23.6204834 C0.16249555 25.61687009 -1.87248569 25.36028005 -5.21557617 25.34057617 C-6.4966777 25.34034958 -7.77777924 25.34012299 -9.09770203 25.33988953 C-10.49612781 25.32456957 -11.89455004 25.30892158 -13.29296875 25.29296875 C-14.72357234 25.28737268 -16.15418169 25.28310263 -17.58479309 25.28010559 C-21.34801132 25.26865756 -25.11088156 25.23919115 -28.8739624 25.20599365 C-32.71475517 25.17529163 -36.55560423 25.1616 -40.39648438 25.14648438 C-47.93114814 25.11432106 -55.46552529 25.06312566 -63 25 C-63 24.67 -63 24.34 -63 24 C-42.21 23.67 -21.42 23.34 0 23 C0 15.41 0 7.82 0 0 Z " fill="#DD6A21" transform="translate(416,368)"/>
<path d="M0 0 C9.57 0 19.14 0 29 0 C29.845625 2.7225 30.69125 5.445 31.5625 8.25 C31.96770874 9.52665527 31.96770874 9.52665527 32.38110352 10.82910156 C32.58662842 11.5094043 32.79215332 12.18970703 33.00390625 12.890625 C33.21861572 13.58188477 33.4333252 14.27314453 33.65454102 14.98535156 C34.0491764 17.28678704 33.71084423 18.79616682 33 21 C32.32532438 19.25307205 31.66055844 17.50231475 31 15.75 C30.62875 14.77546875 30.2575 13.8009375 29.875 12.796875 C29 10 29 10 29 6 C28.34 6 27.68 6 27 6 C27 4.68 27 3.36 27 2 C19.08 2 11.16 2 3 2 C3 3.98 3 5.96 3 8 C1 6 1 6 0 0 Z " fill="#FCE3CB" transform="translate(190,194)"/>
<path d="M0 0 C5.28 0 10.56 0 16 0 C16 2.64 16 5.28 16 8 C17.32 8.33 18.64 8.66 20 9 C19.67 9.33 19.34 9.66 19 10 C12.60465116 9.30232558 12.60465116 9.30232558 10 8 C10 7.34 10 6.68 10 6 C9.34 6 8.68 6 8 6 C8 5.34 8 4.68 8 4 C6.68 4 5.36 4 4 4 C4 3.34 4 2.68 4 2 C2.68 2 1.36 2 0 2 C0 1.34 0 0.68 0 0 Z " fill="#908A89" transform="translate(488,0)"/>
<path d="M0 0 C1.98 0 3.96 0 6 0 C5.34 3.3 4.68 6.6 4 10 C-1.28 10 -6.56 10 -12 10 C-12 9.34 -12 8.68 -12 8 C-10.68 8 -9.36 8 -8 8 C-8 7.34 -8 6.68 -8 6 C-6.68 6 -5.36 6 -4 6 C-4 5.34 -4 4.68 -4 4 C-3.34 4 -2.68 4 -2 4 C-2 3.34 -2 2.68 -2 2 C-1.34 2 -0.68 2 0 2 C0 1.34 0 0.68 0 0 Z " fill="#918683" transform="translate(500,502)"/>
<path d="M0 0 C5.75 -0.125 5.75 -0.125 8 1 C8 1.99 8 2.98 8 4 C9.32 4 10.64 4 12 4 C12 4.66 12 5.32 12 6 C13.32 6 14.64 6 16 6 C16 6.66 16 7.32 16 8 C10.72 8 5.44 8 0 8 C0 5.36 0 2.72 0 0 Z " fill="#8C847E" transform="translate(8,504)"/>
<path d="M0 0 C8.91 0 17.82 0 27 0 C25.8229345 5.88532748 24.72639365 11.32756373 23 17 C22.67 17 22.34 17 22 17 C22 14.36 22 11.72 22 9 C22.66 9 23.32 9 24 9 C24 6.69 24 4.38 24 2 C16.08 2.33 8.16 2.66 0 3 C-0.33 3.99 -0.66 4.98 -1 6 C-0.67 4.02 -0.34 2.04 0 0 Z " fill="#FEE9D1" transform="translate(295,194)"/>
<path d="M0 0 C5.28 0 10.56 0 16 0 C16 0.66 16 1.32 16 2 C14.68 2 13.36 2 12 2 C12 2.66 12 3.32 12 4 C11.195625 4.28875 10.39125 4.5775 9.5625 4.875 C6.8673532 5.73262568 6.8673532 5.73262568 6 8 C4.02 8 2.04 8 0 8 C0 5.36 0 2.72 0 0 Z " fill="#868383" transform="translate(8,0)"/>
<path d="M0 0 C0.33 0 0.66 0 1 0 C0.69467971 6.31697151 0.34080857 12.06458152 -2.16796875 17.91015625 C-3.85091144 22.13726583 -4.85987694 26.60122733 -6 31 C-6.66 31 -7.32 31 -8 31 C-8.495 33.475 -8.495 33.475 -9 36 C-10.20115756 32.39652732 -9.72549603 31.61016572 -8.4375 28.125 C-6.30405199 22.06151618 -4.49891632 15.93495071 -2.75 9.75 C-2.47986084 8.79625488 -2.20972168 7.84250977 -1.93139648 6.85986328 C-1.28545394 4.57383711 -0.64156373 2.28725826 0 0 Z " fill="#FDE3C9" transform="translate(293,201)"/>
<path d="M0 0 C2.64 0 5.28 0 8 0 C8 2.64 8 5.28 8 8 C5.36 8 2.72 8 0 8 C0 5.36 0 2.72 0 0 Z " fill="#000000" transform="translate(504,504)"/>
<path d="M0 0 C2.64 0 5.28 0 8 0 C8 2.64 8 5.28 8 8 C5.36 8 2.72 8 0 8 C0 5.36 0 2.72 0 0 Z " fill="#020002" transform="translate(0,504)"/>
<path d="M0 0 C2.64 0 5.28 0 8 0 C8 2.64 8 5.28 8 8 C5.36 8 2.72 8 0 8 C0 5.36 0 2.72 0 0 Z " fill="#000100" transform="translate(504,0)"/>
<path d="M0 0 C2.64 0 5.28 0 8 0 C8 2.64 8 5.28 8 8 C5.36 8 2.72 8 0 8 C0 5.36 0 2.72 0 0 Z " fill="#000000" transform="translate(0,0)"/>
<path d="M0 0 C0.66 0 1.32 0 2 0 C3.59162079 5.57067277 4.20674944 10.21101581 4 16 C3.34 16.33 2.68 16.66 2 17 C1.34 17.99 0.68 18.98 0 20 C0 13.4 0 6.8 0 0 Z " fill="#E5772F" transform="translate(416,120)"/>
<path d="M0 0 C0.66 1.32 1.32 2.64 2 4 C-6.91 4 -15.82 4 -25 4 C-25 3.34 -25 2.68 -25 2 C-24.27820557 1.97494385 -23.55641113 1.9498877 -22.81274414 1.92407227 C-19.562465 1.80848698 -16.31250312 1.68559226 -13.0625 1.5625 C-11.92619141 1.52318359 -10.78988281 1.48386719 -9.61914062 1.44335938 C-7.99975586 1.38051758 -7.99975586 1.38051758 -6.34765625 1.31640625 C-5.34742432 1.27974854 -4.34719238 1.24309082 -3.31665039 1.20532227 C-1.03930812 1.25328159 -1.03930812 1.25328159 0 0 Z " fill="#D76D2C" transform="translate(269,338)"/>
<path d="M0 0 C1.12018319 3.36054957 0.90181274 4.01723271 -0.21484375 7.23046875 C-0.48876953 8.03291016 -0.76269531 8.83535156 -1.04492188 9.66210938 C-1.48674805 10.91217773 -1.48674805 10.91217773 -1.9375 12.1875 C-2.22818359 13.03248047 -2.51886719 13.87746094 -2.81835938 14.74804688 C-3.53757537 16.83495229 -4.2650343 18.91859994 -5 21 C-6.91544295 17.44493789 -7.51044066 15.08352528 -7 11 C-5.66666667 9.66666667 -4.33333333 8.33333333 -3 7 C-2.66551741 3.832168 -2.66551741 3.832168 -3 1 C-2.01 0.67 -1.02 0.34 0 0 Z " fill="#E36E26" transform="translate(279,244)"/>
<path d="M0 0 C2.3924113 2.3924113 2.76268892 4.0335022 3.69140625 7.26953125 C4.14870117 8.85024414 4.14870117 8.85024414 4.61523438 10.46289062 C4.92783203 11.56826172 5.24042969 12.67363281 5.5625 13.8125 C5.87896484 14.90626953 6.19542969 16.00003906 6.52148438 17.12695312 C7.84370876 21.73368396 9.11565256 26.28651931 10 31 C9.34 30.67 8.68 30.34 8 30 C8 29.34 8 28.68 8 28 C7.34 28 6.68 28 6 28 C5.81824219 27.154375 5.63648438 26.30875 5.44921875 25.4375 C3.81558138 17.9004627 3.81558138 17.9004627 1.3125 10.625 C-0.12719698 6.64869406 -0.2597309 4.15569437 0 0 Z " fill="#C86B30" transform="translate(191,200)"/>
<path d="M0 0 C0.99 0 1.98 0 3 0 C2.31063929 3.91121498 1.21749819 7.55508596 -0.0625 11.3125 C-0.42472656 12.38113281 -0.78695313 13.44976562 -1.16015625 14.55078125 C-1.43730469 15.35902344 -1.71445312 16.16726563 -2 17 C-2.33 17 -2.66 17 -3 17 C-3.33 14.36 -3.66 11.72 -4 9 C-3.34 9 -2.68 9 -2 9 C-1.34 6.03 -0.68 3.06 0 0 Z " fill="#E1722A" transform="translate(268,271)"/>
<path d="M0 0 C0.66 0 1.32 0 2 0 C2 1.32 2 2.64 2 4 C2.66 4 3.32 4 4 4 C4.28875 4.78375 4.5775 5.5675 4.875 6.375 C5.84912254 9.09671632 5.84912254 9.09671632 8 11 C7.625 13.125 7.625 13.125 7 15 C6.34 15 5.68 15 5 15 C4.16013916 13.06532058 3.32831973 11.12714871 2.5 9.1875 C2.0359375 8.10855469 1.571875 7.02960938 1.09375 5.91796875 C0 3 0 3 0 0 Z " fill="#D06D30" transform="translate(251,292)"/>
<path d="M0 0 C1.62371862 4.01969365 0.28079042 6.72764278 -1.25 10.625 C-1.68828125 11.77226562 -2.1265625 12.91953125 -2.578125 14.1015625 C-4 17 -4 17 -7 19 C-4.94235079 12.54646385 -2.57616518 6.2638737 0 0 Z " fill="#E07B3B" transform="translate(289,290)"/>
<path d="M0 0 C2.22023926 2.22023926 2.99988963 3.98529101 4.1875 6.875 C4.55230469 7.73867188 4.91710937 8.60234375 5.29296875 9.4921875 C6.04664008 12.16543056 5.9388856 13.42852989 5 16 C5 15.34 5 14.68 5 14 C4.01 13.67 3.02 13.34 2 13 C1.26953125 11.07421875 1.26953125 11.07421875 0.8125 8.6875 C0.65394531 7.90761719 0.49539062 7.12773437 0.33203125 6.32421875 C0 4 0 4 0 0 Z " fill="#D7773F" transform="translate(222,289)"/>
<path d="M0 0 C0.66 0.66 1.32 1.32 2 2 C1.67 2.66 1.34 3.32 1 4 C8.59 4 16.18 4 24 4 C24 4.33 24 4.66 24 5 C16.08 5 8.16 5 0 5 C-0.33 3.68 -0.66 2.36 -1 1 C-0.67 0.67 -0.34 0.34 0 0 Z " fill="#FDE4CE" transform="translate(244,335)"/>
<path d="M0 0 C1.63996535 5.36502951 -0.28832845 9.49454095 -2.625 14.4375 C-3.305625 15.7059375 -3.305625 15.7059375 -4 17 C-5.6852084 12.92320841 -4.16939007 10.16924407 -2.5625 6.25 C-2.08941406 5.07953125 -1.61632812 3.9090625 -1.12890625 2.703125 C-0.75636719 1.81109375 -0.38382812 0.9190625 0 0 Z " fill="#DF844C" transform="translate(313,225)"/>
<path d="M0 0 C2.92300138 2.47783163 3.97340327 4.9851711 5.25 8.5625 C5.60578125 9.53316406 5.9615625 10.50382812 6.328125 11.50390625 C7 14 7 14 6 16 C4 15 4 15 3.18359375 12.890625 C2.93738281 12.01921875 2.69117188 11.1478125 2.4375 10.25 C2.18871094 9.38890625 1.93992188 8.5278125 1.68359375 7.640625 C1.02733561 5.10559354 0.48583324 2.57260268 0 0 Z " fill="#CD6C2F" transform="translate(213,268)"/>
<path d="M0 0 C1.35814777 4.0744433 -0.05254238 6.81468116 -1.4375 10.6875 C-1.68048828 11.38939453 -1.92347656 12.09128906 -2.17382812 12.81445312 C-2.7744944 14.54578532 -3.38619719 16.27328137 -4 18 C-4.33 18 -4.66 18 -5 18 C-5.37425983 12.88511563 -4.17541386 9.60183702 -2 5 C-1.32723284 3.3357865 -0.65793165 1.67013418 0 0 Z " fill="#FEE5CB" transform="translate(316,212)"/>
<path d="M0 0 C0.33 0 0.66 0 1 0 C1.20719042 6.00852226 0.73710708 10.52578585 -2 16 C-2.66 16 -3.32 16 -4 16 C-2.68 10.72 -1.36 5.44 0 0 Z " fill="#DD7633" transform="translate(318,208)"/>
<path d="M0 0 C0.99 0.66 1.98 1.32 3 2 C2.34 2 1.68 2 1 2 C1.2475 2.5775 1.495 3.155 1.75 3.75 C1.8325 4.4925 1.915 5.235 2 6 C0.0625 8.25 0.0625 8.25 -2 10 C-3.39195915 5.82412255 -1.82323219 3.86525224 0 0 Z " fill="#E3752D" transform="translate(306,247)"/>
<path d="M0 0 C3.42931954 3.7559214 4.56429083 8.23466745 6 13 C5.01 13 4.02 13 3 13 C3 11.35 3 9.7 3 8 C2.01 7.67 1.02 7.34 0 7 C0 4.69 0 2.38 0 0 Z " fill="#D7773D" transform="translate(234,318)"/>
<path d="M0 0 C1.32 0 2.64 0 4 0 C4 0.66 4 1.32 4 2 C5.32 2 6.64 2 8 2 C8 2.66 8 3.32 8 4 C5.36 4 2.72 4 0 4 C0 2.68 0 1.36 0 0 Z " fill="#88736D" transform="translate(16,508)"/>
<path d="M0 0 C0.66 0 1.32 0 2 0 C2 1.32 2 2.64 2 4 C2.66 4 3.32 4 4 4 C4 5.32 4 6.64 4 8 C2.68 8 1.36 8 0 8 C0 5.36 0 2.72 0 0 Z " fill="#7C7267" transform="translate(0,488)"/>
<path d="M0 0 C1.32 0 2.64 0 4 0 C4 1.32 4 2.64 4 4 C3.34 4 2.68 4 2 4 C2 5.32 2 6.64 2 8 C1.34 8 0.68 8 0 8 C0 5.36 0 2.72 0 0 Z " fill="#807069" transform="translate(0,16)"/>
<path d="M0 0 C2.64 0 5.28 0 8 0 C8 0.66 8 1.32 8 2 C6.68 2 5.36 2 4 2 C4 2.66 4 3.32 4 4 C2.68 4 1.36 4 0 4 C0 2.68 0 1.36 0 0 Z " fill="#807069" transform="translate(16,0)"/>
<path d="M0 0 C0.66 0 1.32 0 2 0 C2 2.97 2 5.94 2 9 C1.01 9.495 1.01 9.495 0 10 C-0.74926071 6.33694766 -1.2380014 3.57644848 0 0 Z " fill="#8C827F" transform="translate(510,488)"/>
<path d="M0 0 C0.99 0.33 1.98 0.66 3 1 C2.67 1.66 2.34 2.32 2 3 C2.66 3 3.32 3 4 3 C4 5.64 4 8.28 4 11 C1.54176828 7.31265242 0.98757384 4.30300029 0 0 Z " fill="#F9E2C7" transform="translate(197,218)"/>
<path d="M0 0 C1.98 0 3.96 0 6 0 C6 0.99 6 1.98 6 3 C6.99 3 7.98 3 9 3 C9.33 3.99 9.66 4.98 10 6 C9.34 6 8.68 6 8 6 C8 5.34 8 4.68 8 4 C6.68 4 5.36 4 4 4 C4 3.34 4 2.68 4 2 C2.68 2 1.36 2 0 2 C0 1.34 0 0.68 0 0 Z " fill="#967E73" transform="translate(488,0)"/>
<path d="M0 0 C1.63814448 2.45721672 2.61952199 4.34567811 3.625 7.0625 C3.88539063 7.75472656 4.14578125 8.44695312 4.4140625 9.16015625 C5 11 5 11 5 13 C4.34 13 3.68 13 3 13 C2.49242138 11.58603098 1.99425075 10.16868271 1.5 8.75 C1.08234375 7.56664062 1.08234375 7.56664062 0.65625 6.359375 C0 4 0 4 0 0 Z " fill="#CB6F3B" transform="translate(208,253)"/>
<path d="M0 0 C2 2 2 2 2 5 C1.34 5 0.68 5 0 5 C0 5.99 0 6.98 0 8 C-0.99 8.33 -1.98 8.66 -3 9 C-2.01 6.03 -1.02 3.06 0 0 Z " fill="#E27A35" transform="translate(298,268)"/>
<path d="M0 0 C2.97 0.495 2.97 0.495 6 1 C6.33 3.31 6.66 5.62 7 8 C5.2925002 6.71937515 3.62626404 5.38232443 2 4 C2 3.34 2 2.68 2 2 C1.34 2 0.68 2 0 2 C0 1.34 0 0.68 0 0 Z " fill="#C46126" transform="translate(6,496)"/>
<path d="M0 0 C0.99 0 1.98 0 3 0 C3 2.64 3 5.28 3 8 C2.34 8 1.68 8 1 8 C0.67 5.36 0.34 2.72 0 0 Z " fill="#8E7E7E" transform="translate(509,16)"/>
<path d="M0 0 C2 1 2 1 2.8515625 3.06640625 C3.10679687 3.89011719 3.36203125 4.71382813 3.625 5.5625 C3.88539063 6.38878906 4.14578125 7.21507812 4.4140625 8.06640625 C4.60742188 8.70449219 4.80078125 9.34257812 5 10 C4.34 10.66 3.68 11.32 3 12 C2.49440092 10.56445975 1.9957251 9.1264798 1.5 7.6875 C1.2215625 6.88699219 0.943125 6.08648437 0.65625 5.26171875 C0 3 0 3 0 0 Z " fill="#D7743B" transform="translate(242,268)"/>
<path d="M0 0 C3.00617269 3.00617269 2.59585316 5.82381598 3 10 C1.5 8.9375 1.5 8.9375 0 7 C-0.1875 3.3125 -0.1875 3.3125 0 0 Z " fill="#D77845" transform="translate(191,200)"/>
</svg>
