<?xml version="1.0" encoding="UTF-8"?>
<svg xmlns="http://www.w3.org/2000/svg" xmlns:xlink="http://www.w3.org/1999/xlink" viewBox="0 0 128 128" version="1.1">
<g id="surface1">
<path style=" stroke:none;fill-rule:nonzero;fill:rgb(91.764706%,40.000001%,9.411765%);fill-opacity:1;" d="M 128 118.195312 L 128 9.804688 C 128 5.355469 125.039062 1.605469 120.980469 0.402344 L 116.375 3.160156 L 65.242188 57.679688 L 63.636719 62.691406 L 62.703125 67.5 L 78.648438 127.089844 L 81.113281 128 L 118.195312 128 C 123.609375 128 128 123.609375 128 118.195312 "/>
<path style=" stroke:none;fill-rule:nonzero;fill:rgb(83.92157%,34.509805%,7.450981%);fill-opacity:1;" d="M 0 9.804688 L 0 118.195312 C 0 121.546875 1.683594 124.507812 4.25 126.273438 L 7.394531 124.769531 L 61.515625 66.820312 L 63.636719 62.691406 L 63.71875 58.695312 L 48.988281 2.652344 L 46.757812 0 L 9.804688 0 C 4.390625 0 0 4.390625 0 9.804688 "/>
<path style=" stroke:none;fill-rule:nonzero;fill:rgb(87.843138%,36.862746%,6.666667%);fill-opacity:1;" d="M 63.636719 62.691406 L 120.980469 0.402344 C 120.097656 0.140625 119.164062 0 118.195312 0 L 46.757812 0 Z M 63.636719 62.691406 "/>
<path style=" stroke:none;fill-rule:nonzero;fill:rgb(87.058824%,36.078432%,8.627451%);fill-opacity:1;" d="M 9.804688 128 L 81.113281 128 L 63.636719 62.691406 L 4.25 126.273438 C 5.828125 127.363281 7.742188 128 9.804688 128 "/>
<path style=" stroke:none;fill-rule:nonzero;fill:rgb(100%,100%,100%);fill-opacity:1;" d="M 47.460938 48.515625 L 54.570312 48.515625 C 57.40625 59.207031 60.632812 68.589844 64.230469 77.058594 C 68.304688 67.53125 71.292969 58.140625 73.820312 48.515625 L 80.542969 48.515625 C 77.53125 60.476562 72.609375 72.535156 66.976562 84.980469 L 61.03125 84.980469 C 55.621094 73.1875 51.015625 61.0625 47.460938 48.515625 Z M 24 29.988281 L 39.8125 29.988281 L 39.8125 97.804688 L 23.929688 97.804688 L 23.929688 92.578125 L 33.664062 92.578125 L 33.664062 35.074219 L 24 35.074219 Z M 104.082031 35.074219 L 94.417969 35.074219 L 94.417969 92.578125 L 104.152344 92.578125 L 104.152344 97.804688 L 88.269531 97.804688 L 88.269531 29.988281 L 104.082031 29.988281 Z M 104.082031 35.074219 "/>
</g>
</svg>
