<?xml version="1.0" encoding="UTF-8"?>
<svg version="1.1" xmlns="http://www.w3.org/2000/svg" width="224" height="224">
<path d="M0 0 C73.92 0 147.84 0 224 0 C224 73.92 224 147.84 224 224 C150.08 224 76.16 224 0 224 C0 150.08 0 76.16 0 0 Z " fill="#021723" transform="translate(0,0)"/>
<path d="M0 0 C4.40312022 1.76124809 7.49294479 3.67719185 11.125 6.5625 C11.6912207 7.00577637 12.25744141 7.44905273 12.84082031 7.90576172 C14.56706852 9.2625136 16.28498406 10.62908598 18 12 C19.47339844 13.17755859 19.47339844 13.17755859 20.9765625 14.37890625 C26.7975563 19.09309137 32.44968618 23.97045637 38 29 C41.3567904 27.53329428 43.60885392 25.64609399 46.25 23.125 C71.46708401 0 71.46708401 0 79 0 C79.33 8.58 79.66 17.16 80 26 C85.17777319 23.37157594 85.17777319 23.37157594 90.35107422 20.734375 C90.9957666 20.40953125 91.64045898 20.0846875 92.3046875 19.75 C92.96452637 19.41484375 93.62436523 19.0796875 94.30419922 18.734375 C96 18 96 18 98 18 C98 26.25 98 34.5 98 43 C99.85625 42.401875 101.7125 41.80375 103.625 41.1875 C123.60356243 35.06044909 123.60356243 35.06044909 129 37 C122.64069607 44.98811748 116.18842871 52.89669267 109.7109375 60.7890625 C108.96070313 61.70429687 108.21046875 62.61953125 107.4375 63.5625 C106.70402344 64.45710938 105.97054687 65.35171875 105.21484375 66.2734375 C102.28133236 69.88470902 99.40142421 73.53746871 96.53125 77.19921875 C96.0259375 77.79347656 95.520625 78.38773437 95 79 C94.67 79 94.34 79 94 79 C94 69.43 94 59.86 94 50 C87.565 52.97 87.565 52.97 81 56 C80.34 56 79.68 56 79 56 C79.04713135 56.76554199 79.0942627 57.53108398 79.14282227 58.31982422 C79.3315832 61.83752098 79.44745154 65.35415202 79.5625 68.875 C79.63791016 70.07898438 79.71332031 71.28296875 79.79101562 72.5234375 C79.95435705 79.20228688 79.52704732 83.26382688 74.98828125 88.34765625 C73.34948381 89.92373926 71.68677812 91.47537733 70 93 C68.58843913 94.45198247 67.18444764 95.91137176 65.7890625 97.37890625 C64.4051546 98.77751919 63.01709029 100.17203106 61.625 101.5625 C60.8932959 102.29339844 60.1615918 103.02429688 59.40771484 103.77734375 C45.03579062 117.98806979 45.03579062 117.98806979 39 120 C27.11722543 112.52710338 16.34439544 100.70793786 6.61499023 90.64160156 C5.17881987 89.18176641 3.65096273 87.81343136 2.11328125 86.4609375 C-1.79698889 81.64312615 -0.78606229 74.48242188 -0.8125 68.625 C-0.83763672 67.31660156 -0.86277344 66.00820312 -0.88867188 64.66015625 C-0.94742607 61.44042637 -0.97660371 58.22018092 -1 55 C-5.95 52.69 -10.9 50.38 -16 48 C-16 57.9 -16 67.8 -16 78 C-21.62811791 72.37188209 -21.62811791 72.37188209 -23.9453125 69.50390625 C-24.45964844 68.86960693 -24.97398438 68.23530762 -25.50390625 67.58178711 C-26.03886719 66.91542236 -26.57382812 66.24905762 -27.125 65.5625 C-27.68832031 64.86455322 -28.25164063 64.16660645 -28.83203125 63.44750977 C-32.57800432 58.79608449 -36.30071109 54.12613362 -40 49.4375 C-40.43199707 48.89101807 -40.86399414 48.34453613 -41.30908203 47.78149414 C-44.3260739 43.93532901 -47.18019567 39.99304434 -50 36 C-40.08481746 36.58681693 -30.61951731 38.59512067 -21 41 C-20.67 33.41 -20.34 25.82 -20 18 C-13.25 20.25 -13.25 20.25 -10.3515625 21.7265625 C-9.79807129 22.00580566 -9.24458008 22.28504883 -8.67431641 22.57275391 C-7.99804199 22.91999512 -7.32176758 23.26723633 -6.625 23.625 C-4.43875 24.73875 -2.2525 25.8525 0 27 C0 18.09 0 9.18 0 0 Z " fill="#B48858" transform="translate(72,52)"/>
<path d="M0 0 C3.43595166 1.52708963 6.11912454 3.59927045 9 6 C7.5140084 10.59306496 5.14985318 13.43569245 2 17 C5.88031952 21.97165938 10.21204997 25.91665963 15 30 C16.66994534 31.47546412 18.33664845 32.9546064 20 34.4375 C20.763125 35.11683594 21.52625 35.79617187 22.3125 36.49609375 C22.869375 36.99238281 23.42625 37.48867187 24 38 C27.10842155 36.60867688 29.32111167 34.97011082 31.78515625 32.62890625 C32.48060547 31.97212891 33.17605469 31.31535156 33.89257812 30.63867188 C34.96668945 29.6109668 34.96668945 29.6109668 36.0625 28.5625 C36.78244141 27.88123047 37.50238281 27.19996094 38.24414062 26.49804688 C41.19730041 23.69844043 44.13294147 20.88797391 47 18 C45.82548531 15.22387436 44.33031986 13.1349731 42.375 10.875 C40 8 40 8 40 6 C41.96875 4.4921875 41.96875 4.4921875 44.5 2.875 C45.3353125 2.33617188 46.170625 1.79734375 47.03125 1.2421875 C47.6809375 0.83226563 48.330625 0.42234375 49 0 C52.09892056 2.91987182 54.52512503 5.95081124 56.875 9.5 C57.51179688 10.4384375 58.14859375 11.376875 58.8046875 12.34375 C60 15 60 15 59.44921875 17.05078125 C50.11596965 29.60412708 38.0094866 40.09217356 26 50 C20.71066815 48.49020987 17.4765039 45.03601114 13.625 41.3125 C12.93543213 40.6520166 12.24586426 39.9915332 11.53540039 39.31103516 C10.08836341 37.92039332 8.64481991 36.52610823 7.20458984 35.12841797 C5.01527647 33.01474864 2.80090234 30.93022455 0.58203125 28.84765625 C-0.80064663 27.52465655 -2.18219925 26.20047959 -3.5625 24.875 C-4.55419189 23.95328003 -4.55419189 23.95328003 -5.56591797 23.01293945 C-9.95652277 18.72462049 -9.95652277 18.72462049 -10.15234375 15.4609375 C-8.68984474 12.33763454 -6.95863191 9.59001626 -5 6.75 C-4.278125 5.69296875 -3.55625 4.6359375 -2.8125 3.546875 C-1 1 -1 1 0 0 Z " fill="#041723" transform="translate(87,117)"/>
<path d="M0 0 C0 8.25 0 16.5 0 25 C1.85625 24.401875 3.7125 23.80375 5.625 23.1875 C25.60356243 17.06044909 25.60356243 17.06044909 31 19 C24.64069607 26.98811748 18.18842871 34.89669267 11.7109375 42.7890625 C10.96070313 43.70429687 10.21046875 44.61953125 9.4375 45.5625 C8.70402344 46.45710938 7.97054687 47.35171875 7.21484375 48.2734375 C4.28133236 51.88470902 1.40142421 55.53746871 -1.46875 59.19921875 C-1.9740625 59.79347656 -2.479375 60.38773438 -3 61 C-3.33 61 -3.66 61 -4 61 C-4 51.43 -4 41.86 -4 32 C-4.99 32 -5.98 32 -7 32 C-6.34 30.35 -5.68 28.7 -5 27 C-4.34 27 -3.68 27 -3 27 C-3 19.74 -3 12.48 -3 5 C-3.99 4.67 -4.98 4.34 -6 4 C-2.25 0 -2.25 0 0 0 Z " fill="#B48958" transform="translate(170,70)"/>
<path d="M0 0 C1.62788399 19.57718328 1.62788399 19.57718328 -1.83984375 24.73828125 C-4.47484747 26.48246223 -7.11482308 27.71558174 -10 29 C-12.07139444 30.43724106 -14.11402032 31.91687594 -16.125 33.4375 C-17.05570313 34.11683594 -17.98640625 34.79617187 -18.9453125 35.49609375 C-19.62335938 35.99238281 -20.30140625 36.48867187 -21 37 C-24.45201639 35.52278578 -26.64961936 33.56205999 -29.25 30.875 C-29.95640625 30.15054688 -30.6628125 29.42609375 -31.390625 28.6796875 C-31.92171875 28.12539062 -32.4528125 27.57109375 -33 27 C-31.43259241 22.29777723 -27.76515032 20.09783982 -24 17 C-23.43313477 16.53287598 -22.86626953 16.06575195 -22.28222656 15.58447266 C-20.36084512 14.00709181 -18.43189898 12.43947819 -16.5 10.875 C-15.88366699 10.37234619 -15.26733398 9.86969238 -14.63232422 9.35180664 C-2.97216998 0 -2.97216998 0 0 0 Z " fill="#041722" transform="translate(147,59)"/>
<path d="M0 0 C4.91571868 2.64930064 9.06646884 5.50518542 13.25 9.1875 C14.37265629 10.1626588 15.4963742 11.13659662 16.62109375 12.109375 C17.18038574 12.59341797 17.73967773 13.07746094 18.31591797 13.57617188 C19.943412 14.95215697 21.60069092 16.27277856 23.28515625 17.578125 C24.28417969 18.35671875 25.28320312 19.1353125 26.3125 19.9375 C27.66794922 20.97197266 27.66794922 20.97197266 29.05078125 22.02734375 C31 24 31 24 31 28 C29.25 30.359375 29.25 30.359375 27 32.75 C26.2575 33.54921875 25.515 34.3484375 24.75 35.171875 C24.1725 35.77515625 23.595 36.3784375 23 37 C18.61982137 36.1124077 15.58849868 33.74813495 12.0625 31.125 C10.84636384 30.22998569 9.62893877 29.33671978 8.41015625 28.4453125 C7.60783569 27.85000732 7.60783569 27.85000732 6.78930664 27.24267578 C4.91649648 25.87606328 4.91649648 25.87606328 2.31738281 24.67993164 C0 23 0 23 -0.56762695 20.5480957 C-0.54144287 19.60023193 -0.51525879 18.65236816 -0.48828125 17.67578125 C-0.47216797 16.64775391 -0.45605469 15.61972656 -0.43945312 14.56054688 C-0.39755859 13.48869141 -0.35566406 12.41683594 -0.3125 11.3125 C-0.27866211 9.68731445 -0.27866211 9.68731445 -0.24414062 8.02929688 C-0.1851579 5.35148095 -0.10290307 2.67642973 0 0 Z " fill="#041823" transform="translate(76,59)"/>
<path d="M0 0 C1.27609323 0.90933009 2.54565553 1.82782853 3.8125 2.75 C4.87404297 3.51570312 4.87404297 3.51570312 5.95703125 4.296875 C8.02977691 6.02482358 9.47375854 7.78526476 11 10 C14.47775179 8.48446596 16.9557984 6.4226544 19.75 3.875 C20.54921875 3.15054688 21.3484375 2.42609375 22.171875 1.6796875 C22.77515625 1.12539062 23.3784375 0.57109375 24 0 C27.00765886 2.84936103 29.27845212 5.23511958 31 9 C30.10796875 9.81984375 29.2159375 10.6396875 28.296875 11.484375 C27.11454214 12.57287192 25.93225277 13.66141608 24.75 14.75 C24.16347656 15.28882813 23.57695313 15.82765625 22.97265625 16.3828125 C19.91843019 19.19681853 16.90859255 22.03381156 14 25 C9.72116465 23.29268146 6.69474128 20.21502704 3.375 17.125 C2.49714844 16.33029297 2.49714844 16.33029297 1.6015625 15.51953125 C-3.62946223 10.6844327 -3.62946223 10.6844327 -5 7 C-3.35 4.69 -1.7 2.38 0 0 Z " fill="#051723" transform="translate(99,126)"/>
<path d="M0 0 C0 6.93 0 13.86 0 21 C-2.289375 22.155 -4.57875 23.31 -6.9375 24.5 C-7.65929443 24.86544922 -8.38108887 25.23089844 -9.12475586 25.60742188 C-13.88888889 28 -13.88888889 28 -15 28 C-15 21.07 -15 14.14 -15 7 C-12.89625 5.845 -10.7925 4.69 -8.625 3.5 C-7.9645166 3.13455078 -7.3040332 2.76910156 -6.62353516 2.39257812 C-2.22222222 0 -2.22222222 0 0 0 Z " fill="#031522" transform="translate(166,76)"/>
<path d="M0 0 C4.13249388 1.37749796 7.15738707 2.47653266 10.8125 4.5625 C11.58207031 4.99691406 12.35164063 5.43132812 13.14453125 5.87890625 C15 7 15 7 16 8 C16.08631874 9.34267413 16.10706473 10.68974322 16.09765625 12.03515625 C16.09443359 12.84404297 16.09121094 13.65292969 16.08789062 14.48632812 C16.07951172 15.33646484 16.07113281 16.18660156 16.0625 17.0625 C16.05798828 17.91650391 16.05347656 18.77050781 16.04882812 19.65039062 C16.03700373 21.76695663 16.01906769 23.88348685 16 26 C10.55838105 24.22868122 5.30205041 22.1494799 0 20 C0 13.4 0 6.8 0 0 Z " fill="#061823" transform="translate(56,76)"/>
<path d="M0 0 C0.20414775 3.22822651 0.32787876 6.45479191 0.4375 9.6875 C0.49615234 10.59951172 0.55480469 11.51152344 0.61523438 12.45117188 C0.78269561 19.03000615 0.78269561 19.03000615 -1.44873047 21.79541016 C-5.79857306 25.15332603 -5.79857306 25.15332603 -9.09667969 24.73242188 C-11.87940637 23.66159324 -13.33728345 21.8938205 -15.3125 19.6875 C-16.03050781 18.90761719 -16.74851563 18.12773438 -17.48828125 17.32421875 C-19 15 -19 15 -18.81494141 13.02954102 C-17.79793406 10.49677228 -16.72276953 9.72042999 -14.47265625 8.203125 C-13.76302734 7.71972656 -13.05339844 7.23632812 -12.32226562 6.73828125 C-11.57654297 6.24714844 -10.83082031 5.75601563 -10.0625 5.25 C-9.32064453 4.74339844 -8.57878906 4.23679687 -7.81445312 3.71484375 C-2.29225278 0 -2.29225278 0 0 0 Z " fill="#041622" transform="translate(147,86)"/>
<path d="M0 0 C4.35077499 1.52400028 8.02727973 3.79244169 11.8125 6.375 C12.7087207 6.95507812 12.7087207 6.95507812 13.62304688 7.546875 C15.33203125 8.7109375 15.33203125 8.7109375 18 11 C18 15.59151206 17.31497074 16.33182124 14.5 19.75 C13.8503125 20.54921875 13.200625 21.3484375 12.53125 22.171875 C12.0259375 22.77515625 11.520625 23.3784375 11 24 C6.83023669 22.52831883 3.29678988 20.98326231 0 18 C-0.7364922 14.88767773 -0.56852443 11.92578546 -0.375 8.75 C-0.34792969 7.90953125 -0.32085937 7.0690625 -0.29296875 6.203125 C-0.22244109 4.13431366 -0.11482367 2.06682607 0 0 Z " fill="#061823" transform="translate(76,87)"/>
<path d="M0 0 C1.79299952 0.26186419 3.58433748 0.53510518 5.375 0.8125 C6.87160156 1.03873047 6.87160156 1.03873047 8.3984375 1.26953125 C13.00591317 2.20401927 17.49698369 3.64909511 22 5 C22 12.26 22 19.52 22 27 C17.64870124 22.64870124 13.76461585 18.24123701 9.875 13.5 C9.25496094 12.75363281 8.63492188 12.00726563 7.99609375 11.23828125 C5.02653433 7.6301069 2.24143824 4.1229375 0 0 Z " fill="#0C1B24" transform="translate(31,93)"/>
<path d="M0 0 C0 3.45838966 -0.38324896 3.79831132 -2.59765625 6.2578125 C-3.14905273 6.87970459 -3.70044922 7.50159668 -4.26855469 8.14233398 C-4.86055664 8.79661377 -5.45255859 9.45089355 -6.0625 10.125 C-7.2583312 11.47104085 -8.45235217 12.81869218 -9.64453125 14.16796875 C-10.22283691 14.82200684 -10.80114258 15.47604492 -11.39697266 16.14990234 C-14.01971536 19.17688135 -16.4384079 22.346672 -18.828125 25.55859375 C-19.21484375 26.03425781 -19.6015625 26.50992188 -20 27 C-20.33 27 -20.66 27 -21 27 C-21 20.4 -21 13.8 -21 7 C-10.875 2.5 -10.875 2.5 -5.4375 1.25 C-3.88869141 0.88648437 -3.88869141 0.88648437 -2.30859375 0.515625 C-1.54675781 0.34546875 -0.78492188 0.1753125 0 0 Z " fill="#061723" transform="translate(191,93)"/>
<path d="M0 0 C3.13010458 1.39192704 5.32336692 3.02642226 7.75 5.4375 C8.67039062 6.33275391 8.67039062 6.33275391 9.609375 7.24609375 C11 9 11 9 11 12 C9.35546875 13.82421875 9.35546875 13.82421875 7.1875 15.6875 C6.47980469 16.31011719 5.77210937 16.93273437 5.04296875 17.57421875 C3 19 3 19 0 19 C-2.26171875 17.46875 -2.26171875 17.46875 -4.6875 15.5 C-5.49574219 14.8503125 -6.30398437 14.200625 -7.13671875 13.53125 C-8.05904297 12.77328125 -8.05904297 12.77328125 -9 12 C-7.55575365 8.76138697 -5.74227753 6.38030837 -3.375 3.75 C-2.74335937 3.04359375 -2.11171875 2.3371875 -1.4609375 1.609375 C-0.97882813 1.07828125 -0.49671875 0.5471875 0 0 Z " fill="#061823" transform="translate(110,88)"/>
<path d="M0 0 C3.67056937 1.47797262 5.41085783 3.47615477 7.75 6.625 C8.67039063 7.85089844 8.67039063 7.85089844 9.609375 9.1015625 C10.06828125 9.72804688 10.5271875 10.35453125 11 11 C7.75255007 14.43301849 5.14054132 16.51567521 1 19 C-2.3 15.7 -5.6 12.4 -9 9 C-5.98380943 5.22976179 -3.74138791 2.80604094 0 0 Z " fill="#041622" transform="translate(123,102)"/>
<path d="M0 0 C3.74281699 2.38179263 6.97727468 4.74475735 10 8 C8.34908222 12.29238623 5.26245434 14.8793915 2 18 C-1.99500618 16.6302836 -4.80009492 14.74277578 -8 12 C-6.49087042 7.01987239 -3.44338151 3.75740058 0 0 Z " fill="#051723" transform="translate(98,102)"/>
<path d="M0 0 C2.75013937 1.11024145 3.9805225 2.63776044 5.859375 4.9140625 C6.47296875 5.64753906 7.0865625 6.38101563 7.71875 7.13671875 C8.17765625 7.70261719 8.6365625 8.26851562 9.109375 8.8515625 C5.93984653 12.11164893 2.70999511 15.07394127 -0.890625 17.8515625 C-3.860625 15.2115625 -6.830625 12.5715625 -9.890625 9.8515625 C-3.44912232 -0.27079886 -3.44912232 -0.27079886 0 0 Z " fill="#071723" transform="translate(111.890625,114.1484375)"/>
<path d="M0 0 C5.625 2.25 5.625 2.25 8 5 C6.85845641 6.83600745 5.71165684 8.66874805 4.5625 10.5 C3.92441406 11.5209375 3.28632812 12.541875 2.62890625 13.59375 C2.09136719 14.3878125 1.55382812 15.181875 1 16 C0.67 16 0.34 16 0 16 C0 10.72 0 5.44 0 0 Z " fill="#0C1A24" transform="translate(76,110)"/>
<path d="M0 0 C0 4.62 0 9.24 0 14 C-7 5.25 -7 5.25 -7 3 C-2.61538462 0 -2.61538462 0 0 0 Z " fill="#061121" transform="translate(147,111)"/>
</svg>
