<?xml version="1.0" encoding="UTF-8"?>
<svg xmlns="http://www.w3.org/2000/svg" xmlns:xlink="http://www.w3.org/1999/xlink" viewBox="0 0 128 128" version="1.1">
<g id="surface1">
<path style=" stroke:none;fill-rule:nonzero;fill:rgb(14.117648%,16.078432%,21.960784%);fill-opacity:1;" d="M 30 0 L 98 0 C 114.570312 0 128 13.429688 128 30 L 128 98 C 128 114.570312 114.570312 128 98 128 L 30 128 C 13.429688 128 0 114.570312 0 98 L 0 30 C 0 13.429688 13.429688 0 30 0 Z M 30 0 "/>
<path style=" stroke:none;fill-rule:nonzero;fill:rgb(100%,100%,100%);fill-opacity:1;" d="M 60.726562 14.027344 C 60.511719 14.046875 59.824219 14.113281 59.210938 14.164062 C 45.007812 15.445312 31.703125 23.109375 23.277344 34.886719 C 18.585938 41.4375 15.582031 48.867188 14.449219 56.734375 C 14.050781 59.480469 14 60.292969 14 64.015625 C 14 67.742188 14.050781 68.554688 14.449219 71.300781 C 17.167969 90.078125 30.53125 105.855469 48.652344 111.699219 C 51.898438 112.746094 55.320312 113.460938 59.210938 113.890625 C 60.726562 114.054688 67.273438 114.054688 68.789062 113.890625 C 75.503906 113.148438 81.195312 111.484375 86.804688 108.621094 C 87.664062 108.179688 87.832031 108.0625 87.714844 107.964844 C 87.636719 107.90625 83.96875 102.992188 79.570312 97.046875 L 71.574219 86.246094 L 61.554688 71.417969 C 56.042969 63.265625 51.507812 56.597656 51.46875 56.597656 C 51.429688 56.589844 51.390625 63.175781 51.371094 71.222656 C 51.339844 85.308594 51.332031 85.875 51.15625 86.207031 C 50.902344 86.683594 50.707031 86.882812 50.296875 87.097656 C 49.980469 87.253906 49.707031 87.28125 48.234375 87.28125 L 46.542969 87.28125 L 46.09375 87 C 45.796875 86.8125 45.582031 86.570312 45.4375 86.285156 L 45.230469 85.84375 L 45.25 66.246094 L 45.28125 46.636719 L 45.582031 46.253906 C 45.738281 46.050781 46.074219 45.785156 46.308594 45.660156 C 46.707031 45.464844 46.863281 45.445312 48.554688 45.445312 C 50.550781 45.445312 50.882812 45.523438 51.398438 46.089844 C 51.546875 46.246094 56.972656 54.417969 63.460938 64.261719 C 69.953125 74.105469 78.828125 87.546875 83.1875 94.144531 L 91.105469 106.136719 L 91.507812 105.875 C 95.054688 103.566406 98.808594 100.28125 101.78125 96.863281 C 108.105469 89.597656 112.183594 80.742188 113.550781 71.300781 C 113.949219 68.554688 114 67.742188 114 64.015625 C 114 60.292969 113.949219 59.480469 113.550781 56.734375 C 110.832031 37.957031 97.46875 22.179688 79.347656 16.332031 C 76.152344 15.296875 72.75 14.585938 68.9375 14.152344 C 67.996094 14.054688 61.535156 13.949219 60.726562 14.027344 Z M 81.195312 44.269531 C 81.664062 44.503906 82.046875 44.957031 82.183594 45.425781 C 82.261719 45.679688 82.28125 51.113281 82.261719 63.363281 L 82.230469 80.9375 L 79.132812 76.1875 L 76.023438 71.4375 L 76.023438 58.660156 C 76.023438 50.402344 76.0625 45.757812 76.121094 45.53125 C 76.277344 44.984375 76.621094 44.554688 77.089844 44.300781 C 77.488281 44.09375 77.636719 44.074219 79.171875 44.074219 C 80.617188 44.074219 80.871094 44.09375 81.195312 44.269531 Z M 81.195312 44.269531 "/>
</g>
</svg>
