<?xml version="1.0" encoding="UTF-8"?>
<svg version="1.1" xmlns="http://www.w3.org/2000/svg" width="256" height="256">
<path d="M0 0 C1.53672103 -0.00599196 3.07343906 -0.01279903 4.6101532 -0.02035522 C8.76746079 -0.03795708 12.92468594 -0.04270821 17.0820272 -0.0439868 C19.6852813 -0.04541255 22.28851474 -0.04969022 24.89176369 -0.05498123 C33.99068141 -0.07346411 43.08954069 -0.08165426 52.18847656 -0.08007812 C60.64202175 -0.07887804 69.09531109 -0.09995874 77.54879159 -0.13156545 C84.82893808 -0.15780568 92.10900142 -0.16844215 99.38919479 -0.16716731 C103.72730984 -0.16665983 108.06519746 -0.17222294 112.403265 -0.19352341 C116.48855445 -0.21303631 120.5734026 -0.21294224 124.65870857 -0.19849014 C126.14810209 -0.19641682 127.63752419 -0.20101358 129.1268692 -0.21321106 C147.62871168 -0.3547807 162.79169256 5.36418369 176.05981445 18.35693359 C188.74963283 31.48749188 192.09841534 46.92594305 192.0847168 64.49633789 C192.09070876 66.03305892 192.09751583 67.56977695 192.10507202 69.10649109 C192.12267387 73.26379868 192.12742501 77.42102383 192.12870359 81.57836509 C192.13012935 84.18161919 192.13440702 86.78485263 192.13969803 89.38810158 C192.1581809 98.4870193 192.16637105 107.58587858 192.16479492 116.68481445 C192.16359483 125.13835964 192.18467554 133.59164898 192.21628225 142.04512948 C192.24252248 149.32527597 192.25315894 156.60533932 192.2518841 163.88553268 C192.25137663 168.22364773 192.25693973 172.56153535 192.2782402 176.89960289 C192.29775311 180.98489235 192.29765904 185.06974049 192.28320694 189.15504646 C192.28113362 190.64443998 192.28573038 192.13386208 192.29792786 193.62320709 C192.4394975 212.12504957 186.7205331 227.28803045 173.7277832 240.55615234 C160.59722492 253.24597072 145.15877375 256.59475323 127.58837891 256.58105469 C126.05165788 256.58704665 124.51493984 256.59385372 122.97822571 256.60140991 C118.82091812 256.61901176 114.66369297 256.6237629 110.50635171 256.62504148 C107.9030976 256.62646724 105.29986417 256.63074491 102.69661522 256.63603592 C93.5976975 256.65451879 84.49883821 256.66270895 75.39990234 256.66113281 C66.94635716 256.65993273 58.49306782 256.68101343 50.03958732 256.71262014 C42.75944083 256.73886037 35.47937748 256.74949683 28.19918412 256.74822199 C23.86106906 256.74771452 19.52318145 256.75327762 15.18511391 256.77457809 C11.09982445 256.794091 7.01497631 256.79399693 2.92967033 256.77954483 C1.44027682 256.77747151 -0.04914528 256.78206827 -1.5384903 256.79426575 C-20.04033277 256.93583539 -35.20331366 251.21687099 -48.47143555 238.22412109 C-61.16125392 225.09356281 -64.51003644 209.65511164 -64.49633789 192.0847168 C-64.50232985 190.54799577 -64.50913693 189.01127773 -64.51669312 187.4745636 C-64.53429497 183.31725601 -64.5390461 179.16003086 -64.54032469 175.0026896 C-64.54175044 172.39943549 -64.54602811 169.79620206 -64.55131912 167.19295311 C-64.569802 158.09403539 -64.57799215 148.99517611 -64.57641602 139.89624023 C-64.57521593 131.44269505 -64.59629663 122.98940571 -64.62790334 114.53592521 C-64.65414357 107.25577872 -64.66478004 99.97571537 -64.6635052 92.69552201 C-64.66299772 88.35740695 -64.66856083 84.01951934 -64.6898613 79.6814518 C-64.7093742 75.59616234 -64.70928013 71.5113142 -64.69482803 67.42600822 C-64.69275471 65.93661471 -64.69735147 64.44719261 -64.70954895 62.9578476 C-64.85111859 44.45600512 -59.1321542 29.29302424 -46.1394043 16.02490234 C-33.00884601 3.33508397 -17.57039484 -0.01369855 0 0 Z " fill="#252837" transform="translate(64.205810546875,-0.29052734375)"/>
<path d="M0 0 C1.134375 0.28875 2.26875 0.5775 3.4375 0.875 C13.17531657 3.95009997 22.17849036 7.85559258 31 13 C31 13.66 31 14.32 31 15 C31.72703125 15.2475 32.4540625 15.495 33.203125 15.75 C49.63836722 23.09535965 62.18888818 44.31348978 68.71875 60.40234375 C76.07825292 81.06728946 77.93367634 103.70531107 72 125 C71.70996094 126.175625 71.70996094 126.175625 71.4140625 127.375 C69.57004516 133.88893137 66.08367075 139.74358416 62.83984375 145.64453125 C61.50570497 148.07770579 60.21267647 150.50553079 59 153 C58.34 153 57.68 153 57 153 C57 153.99 57 154.98 57 156 C56.34 156 55.68 156 55 156 C54.77183594 156.54269531 54.54367188 157.08539063 54.30859375 157.64453125 C52.61485469 160.69326156 50.41394435 163.14067979 48.0625 165.6875 C47.58321045 166.20989258 47.1039209 166.73228516 46.61010742 167.27050781 C41.81947964 172.3798873 36.56098299 176.74052367 31 181 C26.8044695 179.48028562 25.39986377 176.91845362 23.125 173.1875 C22.32495421 171.89977354 21.52273324 170.61339683 20.71875 169.328125 C20.28304687 168.62880859 19.84734375 167.92949219 19.3984375 167.20898438 C16.88273355 163.23515593 14.24683033 159.34176364 11.625 155.4375 C5.81970455 146.76493535 0.08622931 138.04711432 -5.625 129.3125 C-11.2564268 120.70038902 -16.90976941 112.10477012 -22.63623047 103.55541992 C-26.72242488 97.44329118 -30.73879149 91.28653184 -34.75 85.125 C-36.616885 82.26032556 -38.48394951 79.39576821 -40.35107422 76.53125 C-41.37190812 74.96417776 -42.39192808 73.39657456 -43.41064453 71.828125 C-44.54014116 70.09084531 -45.67594908 68.3576729 -46.8125 66.625 C-47.39644531 65.73039062 -47.98039062 64.83578125 -48.58203125 63.9140625 C-49.86674438 61.87809196 -49.86674438 61.87809196 -52 61 C-55.3 61 -58.6 61 -62 61 C-61.67 87.73 -61.34 114.46 -61 142 C-57.7 142 -54.4 142 -51 142 C-50.67 122.53 -50.34 103.06 -50 83 C-46.85028348 86.14971652 -44.75157786 88.65661534 -42.375 92.3125 C-41.66988281 93.38757813 -40.96476562 94.46265625 -40.23828125 95.5703125 C-39.86912598 96.1365332 -39.4999707 96.70275391 -39.11962891 97.28613281 C-27.00255787 115.83428778 -14.71132292 134.3393462 -1.43359375 152.07910156 C2.06529697 156.76732911 5.52201856 161.48701214 8.98950195 166.19848633 C9.56659912 166.98247803 10.14369629 167.76646973 10.73828125 168.57421875 C11.29467285 169.33009277 11.85106445 170.0859668 12.42431641 170.86474609 C13.83359889 172.77450509 15.2492409 174.67928612 16.66796875 176.58203125 C17.39628906 177.56558594 18.12460938 178.54914063 18.875 179.5625 C19.49117187 180.38878906 20.10734375 181.21507812 20.7421875 182.06640625 C22 184 22 184 22 186 C-3.47371848 197.61415736 -32.04816036 201.83491043 -59 192 C-70.21423417 187.7179479 -70.21423417 187.7179479 -75 184 C-76.46575579 183.16354902 -77.94549136 182.35117008 -79.4375 181.5625 C-82.91808329 179.65564579 -86.08329939 177.72852637 -89 175 C-89 174.34 -89 173.68 -89 173 C-89.56460938 172.75636719 -90.12921875 172.51273438 -90.7109375 172.26171875 C-106.33910548 163.6475579 -116.39092931 142.23273856 -121.28125 125.8671875 C-129.31526164 97.27737705 -124.42163988 72.13649159 -112 46 C-111.34 46 -110.68 46 -110 46 C-109.9175 45.46375 -109.835 44.9275 -109.75 44.375 C-107.95896137 38.70337767 -103.67261997 34.28239287 -99.6875 30 C-99.20547119 29.47889648 -98.72344238 28.95779297 -98.22680664 28.42089844 C-94.68470161 24.6355511 -91.11476791 21.15173712 -87 18 C-86.34 18 -85.68 18 -85 18 C-85 17.34 -85 16.68 -85 16 C-63.99518739 -2.01963253 -25.89017917 -8.88170812 0 0 Z " fill="#FCFDFD" transform="translate(153,31)"/>
<path d="M0 0 C1.21816406 0.03480469 1.21816406 0.03480469 2.4609375 0.0703125 C3.68683594 0.09738281 3.68683594 0.09738281 4.9375 0.125 C5.87722656 0.15980469 5.87722656 0.15980469 6.8359375 0.1953125 C8.28551206 3.09446161 7.95526674 5.6095955 7.94946289 8.84814453 C7.94960892 9.53118652 7.94975494 10.21422852 7.9499054 10.91796875 C7.94920773 13.1797196 7.94142215 15.4413885 7.93359375 17.703125 C7.93172905 19.26968338 7.93030539 20.83624234 7.92930603 22.40280151 C7.92548493 26.52921148 7.9156581 30.65558634 7.90460205 34.78198242 C7.8943792 38.99136887 7.88980653 43.20076097 7.88476562 47.41015625 C7.87403548 55.67189112 7.85696392 63.93359745 7.8359375 72.1953125 C-1.66973717 62.74050811 -4.85285386 55.8657915 -5.015625 42.40234375 C-5.01208477 38.82606253 -4.96352249 35.25567011 -4.87744141 31.68041992 C-4.78835597 27.97845245 -4.75441368 24.27908455 -4.73046875 20.57617188 C-4.70365426 18.22652465 -4.67381765 15.87690953 -4.640625 13.52734375 C-4.62585114 12.41913773 -4.61107727 11.3109317 -4.59585571 10.16914368 C-4.57018524 9.15015488 -4.54451477 8.13116608 -4.51806641 7.08129883 C-4.49837799 6.18341141 -4.47868958 5.28552399 -4.45840454 4.36042786 C-4.04249277 1.30107232 -3.09393073 0.27923563 0 0 Z " fill="#262A36" transform="translate(156.1640625,87.8046875)"/>
</svg>
