<?xml version="1.0" encoding="UTF-8"?>
<svg version="1.1" xmlns="http://www.w3.org/2000/svg" width="800" height="682">
<path d="M0 0 C264 0 528 0 800 0 C800 225.06 800 450.12 800 682 C536 682 272 682 0 682 C0 456.94 0 231.88 0 0 Z " fill="#282D32" transform="translate(0,0)"/>
<path d="M0 0 C11.06372344 5.42708525 20.76194153 12.15819856 30.33984375 19.86328125 C31.32339844 20.63542969 32.30695313 21.40757812 33.3203125 22.203125 C44.28711741 30.95441377 54.28452612 40.7231906 64.21484375 50.61328125 C65.01148438 51.40524902 65.808125 52.1972168 66.62890625 53.01318359 C71.40268146 57.79997455 75.96267463 62.71097004 80.33984375 67.86328125 C84.0136978 64.86421672 87.38982684 61.92697869 90.4453125 58.296875 C94.92952887 53.1095211 99.74485849 48.27426217 104.58984375 43.42578125 C105.46769531 42.53568359 106.34554688 41.64558594 107.25 40.72851562 C113.29822401 34.66700854 119.63568585 29.18386294 126.33984375 23.86328125 C127.4979122 22.91106143 128.6544739 21.95700183 129.80859375 21 C143.42522236 9.99790446 157.68462714 0.51670032 174.33984375 -5.13671875 C175.76103516 -5.69359375 175.76103516 -5.69359375 177.2109375 -6.26171875 C186.09014869 -8.74479404 197.95439031 -8.58973734 206.24609375 -4.4296875 C206.93703125 -4.00300781 207.62796875 -3.57632813 208.33984375 -3.13671875 C209.03078125 -2.72035156 209.72171875 -2.30398437 210.43359375 -1.875 C215.28541617 1.67989297 217.9838296 6.25041279 220.71484375 11.48828125 C221.04887207 12.11444336 221.38290039 12.74060547 221.72705078 13.38574219 C226.86548448 23.96938175 226.67730711 36.03304238 226.58984375 47.55078125 C226.58607727 48.20791107 226.58231079 48.86504089 226.57843018 49.54208374 C226.41059451 74.61756767 220.74277353 97.32522824 214.15234375 121.42578125 C213.81960449 122.64434814 213.48686523 123.86291504 213.14404297 125.1184082 C211.46566503 131.15879853 209.66489259 137.0398617 207.33984375 142.86328125 C207.92975098 142.90211426 208.5196582 142.94094727 209.12744141 142.98095703 C215.89723112 143.52935889 222.1777014 144.93773245 228.71484375 146.73828125 C230.75375835 147.28700819 232.79281927 147.83519175 234.83203125 148.3828125 C235.79206055 148.64271973 236.75208984 148.90262695 237.74121094 149.17041016 C240.76203796 149.97585051 243.79696593 150.7085907 246.83984375 151.42578125 C253.13920906 152.99151945 259.26989019 155.03857622 265.39111328 157.18505859 C266.67307224 157.63122271 267.95788148 158.06929383 269.24560547 158.49853516 C292.96222166 166.40407389 319.03615915 180.31479745 331.43359375 202.8515625 C334.55014076 209.82050789 334.34661497 218.15449334 332.33984375 225.42578125 C324.30713012 246.08666795 302.41113102 257.25869959 283.33984375 265.86328125 C262.59862576 274.80098736 241.23751042 281.28466096 219.21484375 286.23828125 C218.47540527 286.40585937 217.7359668 286.5734375 216.97412109 286.74609375 C213.64916398 287.47057372 210.76438988 287.86328125 207.33984375 287.86328125 C207.76394531 289.07757813 208.18804688 290.291875 208.625 291.54296875 C218.40097784 319.94816248 226.49813511 348.75857983 226.58007812 378.94775391 C226.5897648 381.09577467 226.6208814 383.24282799 226.65234375 385.390625 C226.77659495 401.72274209 224.19924293 418.7157995 212.33984375 430.86328125 C209.80361262 432.84019144 207.22765219 434.45335125 204.33984375 435.86328125 C203.60507812 436.22550781 202.8703125 436.58773438 202.11328125 436.9609375 C187.98046469 441.55907923 173.52898043 436.22405518 160.80859375 430.1875 C150.40698348 424.80095182 140.78993673 418.26276425 131.74609375 410.8359375 C130.20242245 409.57042775 128.64105678 408.32602894 127.05859375 407.109375 C112.54476582 395.90953778 98.23667014 382.53671727 86.93359375 368.0625 C84.53120744 364.99359797 83.17114057 363.56501351 79.33984375 362.86328125 C78.93894531 363.32476562 78.53804687 363.78625 78.125 364.26171875 C76.2025686 366.46750172 74.27093939 368.66508079 72.33984375 370.86328125 C71.72238281 371.57613281 71.10492188 372.28898437 70.46875 373.0234375 C59.73894019 385.21735391 48.25846137 396.99345738 35.33984375 406.86328125 C34.00836965 407.9105119 32.67770546 408.95877275 31.34765625 410.0078125 C11.91091158 425.23709941 -10.75607593 440.59321946 -36.66015625 437.86328125 C-45.14997697 435.73510517 -51.14175511 431.57506518 -55.78515625 424.11328125 C-56.76236348 422.37375005 -57.72150446 420.62391625 -58.66015625 418.86328125 C-59.25183594 417.7959375 -59.25183594 417.7959375 -59.85546875 416.70703125 C-65.18165292 406.13356933 -65.02724883 393.45352435 -64.97265625 381.86328125 C-64.96528442 379.9759729 -64.96528442 379.9759729 -64.95776367 378.05053711 C-64.63838627 352.23992989 -58.54985434 327.66243848 -50.45605469 303.28369141 C-49.332004 299.86533603 -48.27408685 296.4296658 -47.22265625 292.98828125 C-46.91457031 291.98023438 -46.60648437 290.9721875 -46.2890625 289.93359375 C-46.08152344 289.25039063 -45.87398438 288.5671875 -45.66015625 287.86328125 C-47.32498047 287.68345703 -47.32498047 287.68345703 -49.0234375 287.5 C-54.03916125 286.86931979 -58.92392373 285.80714713 -63.84765625 284.67578125 C-64.80091797 284.45728516 -65.75417969 284.23878906 -66.73632812 284.01367188 C-81.64406552 280.52963845 -96.36831698 276.37533484 -110.66015625 270.86328125 C-111.624375 270.49847656 -112.58859375 270.13367188 -113.58203125 269.7578125 C-134.47681925 261.4846059 -158.69909177 249.12904985 -168.984375 228.1640625 C-172.31101217 219.98170231 -173.10841624 212.22438123 -170.16015625 203.80078125 C-159.36242954 179.94007048 -130.70262441 167.19718615 -107.56958008 158.36889648 C-94.99208461 153.69496276 -82.21429579 149.89405465 -69.22265625 146.55078125 C-68.25247559 146.29611084 -67.28229492 146.04144043 -66.28271484 145.77905273 C-59.42478018 144.0660282 -52.71381383 143.25838543 -45.66015625 142.86328125 C-45.93110107 142.03642822 -45.93110107 142.03642822 -46.20751953 141.19287109 C-76.5605455 48.17800756 -76.5605455 48.17800756 -59.09765625 11.55078125 C-46.55805707 -12.99038587 -21.60408674 -10.11567047 0 0 Z " fill="#82D5F3" transform="translate(326.66015625,113.13671875)"/>
<path d="M0 0 C1.11563828 -0.00315216 2.23127655 -0.00630432 3.38072205 -0.009552 C4.57967606 -0.00752777 5.77863007 -0.00550354 7.01391602 -0.00341797 C8.26100845 -0.00437469 9.50810089 -0.00533142 10.79298401 -0.00631714 C13.43494124 -0.00699755 16.07680599 -0.0056574 18.71875 -0.00097656 C21.40204081 0.00355152 24.08526401 0.00362135 26.76855469 -0.00097656 C30.66286185 -0.00722167 34.55710598 -0.00638506 38.45141602 -0.00341797 C40.22251991 -0.00645432 40.22251991 -0.00645432 42.02940369 -0.009552 C45.4649046 -0.00008594 48.89572581 0.05084983 52.33032227 0.12939453 C54.22974579 0.16697121 54.22974579 0.16697121 56.1675415 0.20530701 C57.41517273 0.25671341 58.66280396 0.30811981 59.94824219 0.36108398 C61.6399781 0.42148613 61.6399781 0.42148613 63.3658905 0.48310852 C67.05322339 1.2869967 68.13827064 2.54342289 70.32250977 5.55517578 C71.36432674 7.39154924 72.36730345 9.25049995 73.33032227 11.12939453 C74.34554819 12.79458504 75.36890945 14.45484486 76.40063477 16.10986328 C77.42374974 17.84266487 78.44181845 19.57845397 79.45532227 21.31689453 C80.2790332 22.72116699 80.2790332 22.72116699 81.11938477 24.15380859 C85.2386138 31.2009669 89.3003691 38.28085192 93.33032227 45.37939453 C93.85770996 46.30647217 94.38509766 47.2335498 94.9284668 48.1887207 C96.41586096 50.82507572 97.87806128 53.47354738 99.33032227 56.12939453 C99.83176758 57.0259375 100.33321289 57.92248047 100.84985352 58.84619141 C101.55174805 60.15426758 101.55174805 60.15426758 102.26782227 61.48876953 C102.6893457 62.26188477 103.11086914 63.035 103.54516602 63.83154297 C104.84322134 67.63045363 103.76897456 70.17704081 102.13452148 73.72558594 C101.63968262 74.6348584 101.14484375 75.54413086 100.63500977 76.48095703 C100.08329102 77.49802734 99.53157227 78.51509766 98.96313477 79.56298828 C98.38305664 80.61615234 97.80297852 81.66931641 97.20532227 82.75439453 C96.64844727 83.78435547 96.09157227 84.81431641 95.51782227 85.87548828 C92.19655113 91.95938357 88.68223371 97.85645862 84.88842773 103.65771484 C83.32621176 106.13591517 81.93933217 108.6601595 80.58032227 111.25439453 C79.49828805 113.21344596 78.41474982 115.17166691 77.33032227 117.12939453 C76.78214844 118.18126953 76.78214844 118.18126953 76.22290039 119.25439453 C74.97488801 121.61862919 73.65903396 123.93470549 72.33032227 126.25439453 C71.94650391 127.01381348 71.56268555 127.77323242 71.16723633 128.55566406 C69.73155701 130.97101574 68.56058744 132.4042708 66.33032227 134.12939453 C63.38999939 134.67840576 63.38999939 134.67840576 59.94335938 134.83544922 C58.06630814 134.92604111 58.06630814 134.92604111 56.15133667 135.01846313 C50.41846579 135.1848994 44.69452567 135.27247449 38.95922852 135.26220703 C37.14937721 135.26364212 37.14937721 135.26364212 35.30296326 135.2651062 C32.77961169 135.2657807 30.2562583 135.26397796 27.73291016 135.25976562 C23.87797169 135.25437376 20.02314796 135.25975241 16.16821289 135.26611328 C13.70271784 135.26545301 11.23722287 135.26417291 8.77172852 135.26220703 C7.62684464 135.26423126 6.48196075 135.26625549 5.30238342 135.26834106 C-9.57910121 135.22472303 -9.57910121 135.22472303 -12.46264648 132.32861328 C-12.9228418 131.49974609 -13.38303711 130.67087891 -13.85717773 129.81689453 C-14.43725586 128.81271484 -15.01733398 127.80853516 -15.61499023 126.77392578 C-15.93628906 126.19852051 -16.25758789 125.62311523 -16.58862305 125.03027344 C-17.7797732 122.93580752 -19.02703606 120.88248654 -20.28686523 118.82861328 C-27.91051308 106.37114946 -35.101726 93.6735553 -42.1340332 80.87402344 C-43.13342199 79.08783445 -44.16249641 77.3178297 -45.22485352 75.56835938 C-45.92650635 74.39781006 -45.92650635 74.39781006 -46.64233398 73.20361328 C-47.05878174 72.53289795 -47.47522949 71.86218262 -47.90429688 71.17114258 C-49.20878222 67.69126668 -48.09606831 65.08586248 -46.63256836 61.80297852 C-46.20137695 61.00190674 -45.77018555 60.20083496 -45.32592773 59.37548828 C-44.8297998 58.4521167 -44.33367187 57.52874512 -43.82250977 56.57739258 C-43.2770752 55.58392822 -42.73164063 54.59046387 -42.16967773 53.56689453 C-41.6023291 52.52637939 -41.03498047 51.48586426 -40.45043945 50.41381836 C-33.87179509 38.48417846 -26.81757422 26.83157348 -19.61206055 15.27148438 C-18.30868068 13.16307577 -17.0321372 11.03785785 -15.78198242 8.89746094 C-14.88721191 7.39771729 -14.88721191 7.39771729 -13.97436523 5.86767578 C-13.45600098 4.97733643 -12.93763672 4.08699707 -12.40356445 3.16967773 C-9.25512009 -0.5351307 -4.59665989 0.00374303 0 0 Z " fill="#282E34" transform="translate(379.669677734375,260.87060546875)"/>
<path d="M0 0 C3.03627293 5.86244662 5.60247429 11.78915769 8 17.9375 C11.18149446 26.05901027 14.51116334 34.04524314 18.39453125 41.859375 C18.79220703 42.66503906 19.18988281 43.47070312 19.59960938 44.30078125 C20.41827692 45.95393601 21.24665833 47.60231083 22.08398438 49.24609375 C22.67083008 50.44685547 22.67083008 50.44685547 23.26953125 51.671875 C23.62635986 52.3844043 23.98318848 53.09693359 24.35083008 53.83105469 C25.71941411 58.40363858 23.58092765 62.21228836 21.55859375 66.2890625 C21.06101562 67.30411865 20.5634375 68.3191748 20.05078125 69.36499023 C19.25220703 70.97869507 19.25220703 70.97869507 18.4375 72.625 C13.24229865 83.27593586 8.4347441 94.01292149 4 105 C3.54625 106.11890625 3.0925 107.2378125 2.625 108.390625 C1.74027645 110.59014606 0.86283445 112.791825 0 115 C-11.7633598 113.77235965 -23.11066373 111.32333815 -34.60205078 108.56982422 C-36.52102142 108.11381959 -38.44528893 107.68012725 -40.37109375 107.25390625 C-65.81897633 101.44240399 -96.26043424 90.5376015 -112.5 69.01171875 C-115.81768953 63.44767693 -116.04101201 57.28673656 -115 51 C-109.7344578 36.91056091 -94.84222172 28.10356116 -81.87792969 22.02124023 C-60.98858814 12.55222033 -38.49356431 6.22052076 -16.0625 1.625 C-15.25224365 1.45718018 -14.4419873 1.28936035 -13.60717773 1.11645508 C-8.98357347 0.21565193 -4.70971016 -0.16305255 0 0 Z " fill="#282E33" transform="translate(287,271)"/>
<path d="M0 0 C1.67827613 2.94145106 2.62017792 6.08961123 3.625 9.3125 C4.07601074 10.67822144 4.07601074 10.67822144 4.53613281 12.0715332 C6.37223318 17.71979934 8.03267186 23.39291433 9.296875 29.19921875 C9.89692312 31.58941044 10.6137936 33.83840543 11.41796875 36.1640625 C14.37656483 44.89581622 16.10850856 53.98962261 18 63 C18.25265625 64.1859375 18.5053125 65.371875 18.765625 66.59375 C21.87097009 84.16113081 22.70019285 104.49297334 14.125 120.5 C9.61461178 125.80633908 5.00946723 129.51906643 -2.09375 130.37109375 C-23.96083048 130.79740151 -41.18220764 116.56899282 -57 103 C-57.61431885 102.48139404 -58.2286377 101.96278809 -58.86157227 101.4284668 C-64.36828532 96.71452993 -69.50676021 91.6461942 -74.6184082 86.51196289 C-76.06025221 85.06475615 -77.50737116 83.62297974 -78.95507812 82.18164062 C-85.69667747 75.44559633 -92.1394573 68.57295373 -97.9375 61 C-98.52402344 60.236875 -99.11054688 59.47375 -99.71484375 58.6875 C-100.13894531 58.130625 -100.56304687 57.57375 -101 57 C-97.87052893 52.16628685 -94.46150882 47.61425769 -90.9375 43.0625 C-86.65654065 37.49556077 -82.4128265 31.90586094 -78.25 26.25 C-77.7950415 25.64397949 -77.34008301 25.03795898 -76.87133789 24.41357422 C-74.66760709 21.44466466 -72.67265152 18.50126407 -70.9140625 15.24609375 C-68.20667911 10.38771028 -65.98408944 6.66949163 -60.50390625 4.8203125 C-56.87918643 4.24173766 -53.25960649 4.13440042 -49.59423828 4.07275391 C-44.67353917 3.93475576 -39.77718743 3.4301106 -34.875 3 C-33.85116211 2.91733887 -32.82732422 2.83467773 -31.77246094 2.74951172 C-23.50439172 2.08196135 -7.08168034 -3.1922036 0 0 Z " fill="#282E33" transform="translate(519,405)"/>
<path d="M0 0 C2.01834004 0.21765454 4.02905165 0.50557776 6.03515625 0.81640625 C11.87966529 1.67127339 17.70941188 2.250085 23.60043335 2.67807007 C27.8027438 2.98375239 32.0010529 3.33377821 36.19995117 3.68286133 C38.36957957 3.85350626 40.54062232 4.00698478 42.71264648 4.14379883 C60.84072675 5.31208009 60.84072675 5.31208009 66.08569336 9.41210938 C68.1193217 12.19474458 69.58421247 14.86569715 71 18 C71.80525868 19.20174506 72.63824295 20.38594813 73.51171875 21.5390625 C74.22972656 22.55742187 74.94773437 23.57578125 75.6875 24.625 C80.59727215 31.54367096 85.74335551 38.27345261 90.921875 44.9921875 C93.98499944 48.96718957 96.99871786 52.97817465 100 57 C98.26383071 60.69247839 96.10549826 63.2559743 93.3125 66.25 C92.48363281 67.14203125 91.65476562 68.0340625 90.80078125 68.953125 C90.35162354 69.43628174 89.90246582 69.91943848 89.43969727 70.41723633 C87.87811221 72.13400009 86.37047311 73.89101158 84.859375 75.65234375 C80.1141025 81.0922505 75.03661738 86.20728258 69.9375 91.3125 C69.42833038 91.82234436 68.91916077 92.33218872 68.39456177 92.85748291 C54.87341623 106.35026111 39.76209965 119.39272624 22 127 C21.20851563 127.36996094 20.41703125 127.73992187 19.6015625 128.12109375 C11.88915747 131.38925365 4.30332627 132.22630862 -4 131 C-7.3699717 129.54396643 -9.56194626 127.71703501 -12 125 C-12.47695313 124.505 -12.95390625 124.01 -13.4453125 123.5 C-23.51039212 111.44601244 -21.99070255 93.67543937 -20.75244141 79.08251953 C-18.25280139 54.88352518 -11.25085393 31.58301725 -3.625 8.5625 C-3.24915771 7.42663452 -3.24915771 7.42663452 -2.86572266 6.26782227 C-1.12932872 1.12932872 -1.12932872 1.12932872 0 0 Z " fill="#282D33" transform="translate(297,404)"/>
<path d="M0 0 C1.16917969 0.51433594 2.33835937 1.02867188 3.54296875 1.55859375 C18.1821464 8.27426209 30.26818626 18.07874794 42 29 C43.28802136 30.10841679 44.57959201 31.21272505 45.875 32.3125 C54.18776775 39.56298709 61.90872506 47.55871246 69 56 C69.95530813 57.12665922 70.91107906 58.25292611 71.8671875 59.37890625 C74.58390951 62.5810817 77.2933943 65.78927063 80 69 C78.59832646 73.16028635 76.64017289 75.84245264 73.75 79.125 C69.2804277 84.32965004 65.1355842 89.73087665 61.0625 95.25 C60.4526123 96.0558252 59.84272461 96.86165039 59.21435547 97.69189453 C56.32377111 101.56479877 53.74260925 105.31112761 51.64453125 109.671875 C49.37200106 114.16682064 47.28127829 118.15539228 43 121 C34.01089136 123.9031205 24.35888421 123.78517392 15 124 C12.64451816 124.1221714 10.29307384 124.27204815 7.93994141 124.43212891 C6.07703943 124.55732267 4.21230472 124.65427473 2.34765625 124.75 C-1.97298325 125.07266153 -6.16857026 125.80577351 -10.42578125 126.58984375 C-13.68197895 127.10866129 -16.7123717 127.14943765 -20 127 C-22.75967396 120.33331183 -25.209945 113.632052 -27.375 106.75 C-27.67245117 105.80688965 -27.96990234 104.8637793 -28.27636719 103.89208984 C-49.09536955 37.13189895 -49.09536955 37.13189895 -36.875 9.6875 C-29.18419876 -4.50385944 -13.9820842 -6.41479757 0 0 Z " fill="#282D33" transform="translate(317,125)"/>
<path d="M0 0 C36.31330582 2.90821914 86.28855132 14.43423612 111.140625 43.50390625 C115.40583073 49.7123716 116.17699791 55.61050007 115 63 C114.09925104 66.04463685 112.81805242 68.40668198 111 71 C110.34064453 71.96486328 110.34064453 71.96486328 109.66796875 72.94921875 C104.45126019 79.67150902 97.26790909 83.82668127 90 88 C89.41138184 88.3403125 88.82276367 88.680625 88.21630859 89.03125 C67.16587101 100.94373858 42.47707797 107.46642584 18.9375 112.25 C17.0203418 112.6521875 17.0203418 112.6521875 15.06445312 113.0625 C4.82218941 115.16788405 4.82218941 115.16788405 0 115 C-0.34285034 114.13362915 -0.34285034 114.13362915 -0.69262695 113.24975586 C-3.44769043 106.32139037 -6.29308112 99.43373675 -9.1875 92.5625 C-9.66292236 91.43102539 -10.13834473 90.29955078 -10.62817383 89.13378906 C-13.9553227 81.28342481 -17.47237486 73.55397855 -21.3581543 65.96313477 C-23.42040494 61.80870447 -24.78746028 58.72476166 -24 54 C-22.74883642 50.76650844 -21.20044729 47.71095159 -19.625 44.625 C-14.72452092 34.71094027 -10.41383035 24.62287996 -6.2265625 14.390625 C-4.2451199 9.55016975 -2.15742923 4.76438449 0 0 Z " fill="#282D33" transform="translate(528,271)"/>
<path d="M0 0 C0.69931641 -0.020625 1.39863281 -0.04125 2.11914062 -0.0625 C9.22647187 -0.11568863 14.0386618 2.51863517 19.1875 7.25 C30.37279331 21.87692201 26.98518054 47.47992609 24.88330078 64.46289062 C22.97776309 77.53061706 19.06708783 90.16256709 15.24169922 102.7734375 C14.3546474 105.69877744 13.48642623 108.62841942 12.62890625 111.5625 C10.68401549 118.11951879 8.54946335 124.27317627 5.1875 130.25 C-2.17204542 130.52138449 -8.96114111 129.70583403 -16.1875 128.375 C-23.26198203 127.08405957 -30.07801743 126.14087328 -37.28125 126.1015625 C-56.8955254 125.9357972 -56.8955254 125.9357972 -61.53125 121.23828125 C-64.01939947 117.94316438 -65.79999276 114.33824998 -67.57373047 110.62207031 C-69.82290381 106.31521809 -72.81958558 102.54817981 -75.75 98.6875 C-76.33523438 97.89698242 -76.92046875 97.10646484 -77.5234375 96.29199219 C-83.08606788 88.78367458 -88.90489584 81.48843806 -94.8125 74.25 C-93.10268464 70.11794622 -90.20915144 66.96218102 -87.3125 63.625 C-86.77858643 63.00544434 -86.24467285 62.38588867 -85.69458008 61.74755859 C-81.6702949 57.12498002 -77.44079655 52.76627065 -73.05078125 48.48828125 C-70.98288244 46.42038244 -69.07671564 44.29288324 -67.1875 42.0625 C-64.33830714 38.7417624 -61.28183874 35.89488755 -57.94140625 33.07421875 C-56.50197784 31.84080028 -55.09317879 30.57086433 -53.71484375 29.26953125 C-39.54943849 15.93023881 -20.27424387 0.14704801 0 0 Z " fill="#282D33" transform="translate(512.8125,121.75)"/>
<path d="M0 0 C10.70470307 7.01342615 16.39156128 15.37780883 20.41796875 27.45703125 C21.14021462 40.52464257 19.88205897 49.64758975 12.41796875 60.45703125 C11.97582031 61.09769531 11.53367187 61.73835938 11.078125 62.3984375 C5.26663797 69.9281033 -3.23800625 74.90715022 -12.58203125 76.45703125 C-15.56824645 76.73218296 -18.52179011 76.7918953 -21.51953125 76.76953125 C-22.31222412 76.7638916 -23.10491699 76.75825195 -23.92163086 76.75244141 C-34.39095983 76.53471213 -42.6782407 73.16001259 -50.3046875 65.79296875 C-60.6572874 54.19593868 -62.47164613 42.89220702 -61.77294922 27.74121094 C-60.96045926 18.02042317 -54.59383744 9.86969586 -47.51953125 3.51953125 C-44.56910796 1.44795745 -42.05441716 0.36646565 -38.58203125 -0.54296875 C-38.58203125 -1.20296875 -38.58203125 -1.86296875 -38.58203125 -2.54296875 C-25.51971275 -7.81813584 -12.03805037 -7.19369122 0 0 Z " fill="#80D6F5" transform="translate(428.58203125,292.54296875)"/>
<path d="M0 0 C17.49 0 34.98 0 53 0 C46.45561858 13.08876283 36.65723416 25.07207713 27 36 C22.4977084 32.7688472 19.53393496 29.05103589 16.3125 24.625 C15.79719727 23.92616699 15.28189453 23.22733398 14.75097656 22.50732422 C13.15996611 20.34349141 11.57955929 18.1722009 10 16 C9.49581543 15.31292969 8.99163086 14.62585938 8.47216797 13.91796875 C7.05857452 11.99140408 5.65255478 10.05961116 4.25 8.125 C3.81985596 7.5367041 3.38971191 6.9484082 2.9465332 6.34228516 C0 2.23285514 0 2.23285514 0 0 Z " fill="#28323B" transform="translate(381,412)"/>
<path d="M0 0 C4.34948114 3.6803302 6.5676758 8.36095814 9.1875 13.3125 C12.98806104 20.37123432 16.89275206 27.32563545 21.09448242 34.15356445 C23.25870348 37.68676685 25.19683836 41.26970936 27 45 C19.61923115 45.12859194 12.35278899 44.75017368 5 44.125 C3.98421875 44.04636719 2.9684375 43.96773438 1.921875 43.88671875 C-4.50193579 43.35140118 -10.71142002 42.41736523 -17 41 C-16.46441195 35.46349332 -15.00689448 31.14980554 -12.65625 26.1328125 C-12.32709595 25.41261932 -11.99794189 24.69242615 -11.65881348 23.95040894 C-10.96702606 22.44091109 -10.27095377 20.93337024 -9.57080078 19.42773438 C-8.49521931 17.11471924 -7.4320672 14.79630971 -6.37109375 12.4765625 C-5.69601705 11.00748854 -5.02026011 9.53872693 -4.34375 8.0703125 C-4.02394165 7.37559845 -3.7041333 6.6808844 -3.37463379 5.96511841 C-1.11839291 1.11839291 -1.11839291 1.11839291 0 0 Z " fill="#273037" transform="translate(321,348)"/>
<path d="M0 0 C2.88668698 2.49881996 4.20027382 5.17829156 5.77734375 8.62890625 C6.29103516 9.74716797 6.80472656 10.86542969 7.33398438 12.01757812 C7.86314453 13.18740234 8.39230469 14.35722656 8.9375 15.5625 C9.46279297 16.70525391 9.98808594 17.84800781 10.52929688 19.02539062 C19 37.56764315 19 37.56764315 19 41 C4.66603825 43.78963231 -10.38954438 45.61589743 -25 45 C-24.31918818 41.2146863 -22.62018293 38.36366649 -20.6875 35.0625 C-19.96700938 33.82447386 -19.24698904 32.58617396 -18.52734375 31.34765625 C-18.1288623 30.66461426 -17.73038086 29.98157227 -17.31982422 29.27783203 C-15.84572269 26.73373894 -14.39218388 24.1785572 -12.94140625 21.62109375 C-12.41393799 20.69224365 -11.88646973 19.76339355 -11.34301758 18.80639648 C-10.29874303 16.96671282 -9.2555716 15.12640244 -8.21362305 13.28540039 C-5.62467982 8.73861958 -2.97417411 4.3054711 0 0 Z " fill="#283038" transform="translate(493,348)"/>
<path d="M0 0 C15.01395717 -0.53621276 30.20393437 2.7260145 45 5 C39.72116515 18.5207214 34.07072164 31.81568134 28 45 C27.01 45 26.02 45 25 45 C24.68361572 44.41210693 24.36723145 43.82421387 24.04125977 43.21850586 C13.57501696 23.56619563 13.57501696 23.56619563 1.75 4.71875 C0 2 0 2 0 0 Z " fill="#262F35" transform="translate(467,263)"/>
<path d="M0 0 C-1.54682306 5.70851369 -4.41546745 10.27351807 -7.5 15.25 C-13.267205 24.69331496 -18.69878834 34.28893086 -24 44 C-24.99 44 -25.98 44 -27 44 C-27.24645264 43.41621582 -27.49290527 42.83243164 -27.74682617 42.23095703 C-28.89037299 39.52754295 -30.03891171 36.82627578 -31.1875 34.125 C-31.57486328 33.2071875 -31.96222656 32.289375 -32.36132812 31.34375 C-34.68639614 25.88656558 -37.16088382 20.56004273 -39.8984375 15.296875 C-41.64389007 11.6574207 -42.85221885 7.86326337 -44 4 C-29.1313909 1.25741433 -15.12556744 -0.15792356 0 0 Z " fill="#273038" transform="translate(347,264)"/>
<path d="M0 0 C10.25901035 9.61782221 18.94774023 21.87892852 26 34 C26 34.66 26 35.32 26 36 C9.17 36 -7.66 36 -25 36 C-23.56638962 32.41597406 -22.58830644 30.14451757 -20.4609375 27.14453125 C-19.96650146 26.44416748 -19.47206543 25.74380371 -18.96264648 25.0222168 C-18.17676147 23.92840698 -18.17676147 23.92840698 -17.375 22.8125 C-16.83883057 22.0594458 -16.30266113 21.3063916 -15.75024414 20.53051758 C-12.18405729 15.55559874 -8.51136784 10.70736092 -4.62109375 5.98046875 C-3.02193471 4.02679735 -1.50074672 2.02988539 0 0 Z " fill="#262E36" transform="translate(407,208)"/>
<path d="M0 0 C1.12209366 -0.00315216 2.24418732 -0.00630432 3.40028381 -0.009552 C4.60551193 -0.00752777 5.81074005 -0.00550354 7.05249023 -0.00341797 C8.30432602 -0.00437469 9.5561618 -0.00533142 10.84593201 -0.00631714 C13.49628149 -0.00699745 16.14653872 -0.00565779 18.796875 -0.00097656 C21.49383755 0.00355955 24.19073286 0.00361359 26.88769531 -0.00097656 C30.79681369 -0.00720623 34.70586905 -0.00638965 38.61499023 -0.00341797 C39.80604874 -0.0054422 40.99710724 -0.00746643 42.22425842 -0.009552 C49.63029315 0.01085164 56.92899585 0.39351096 64.29858398 1.12939453 C64.29858398 1.45939453 64.29858398 1.78939453 64.29858398 2.12939453 C63.49171646 2.139702 62.68484894 2.15000946 61.85353088 2.16062927 C54.21858889 2.25894564 46.58372089 2.36150581 38.94889927 2.46873379 C35.02455298 2.52370261 31.10019897 2.57707824 27.17578125 2.62670898 C23.38262484 2.67474007 19.58954961 2.72709184 15.79649162 2.78233528 C14.35537701 2.80258486 12.9142403 2.82132446 11.4730854 2.83846855 C4.02620841 2.92803962 -3.31199191 3.12774081 -10.70141602 4.12939453 C-10.94891602 5.24314453 -11.19641602 6.35689453 -11.45141602 7.50439453 C-12.70141602 11.12939453 -12.70141602 11.12939453 -14.70141602 12.25439453 C-15.36141602 12.54314453 -16.02141602 12.83189453 -16.70141602 13.12939453 C-17.42597236 14.77172225 -18.07915997 16.44564288 -18.70141602 18.12939453 C-20.28961838 20.84698525 -21.98591958 23.49067292 -23.70141602 26.12939453 C-24.36141602 25.79939453 -25.02141602 25.46939453 -25.70141602 25.12939453 C-23.76757296 21.87720538 -21.82870608 18.62803948 -19.88891602 15.37939453 C-19.06810547 13.99880859 -19.06810547 13.99880859 -18.23071289 12.59033203 C-17.69897461 11.70087891 -17.16723633 10.81142578 -16.61938477 9.89501953 C-15.88884888 8.66960449 -15.88884888 8.66960449 -15.14355469 7.41943359 C-14.66764893 6.6637207 -14.19174316 5.90800781 -13.70141602 5.12939453 C-13.24935791 4.39172852 -12.7972998 3.6540625 -12.33154297 2.89404297 C-9.18233366 -0.51504567 -4.38936664 0.0035523 0 0 Z " fill="#213D4C" transform="translate(379.701416015625,260.87060546875)"/>
<path d="M0 0 C1.85625 0.0309375 1.85625 0.0309375 3.75 0.0625 C3.42 1.0525 3.09 2.0425 2.75 3.0625 C-6.38975401 3.81725582 -15.45150402 4.21172811 -24.62109375 4.1953125 C-26.43094505 4.19674759 -26.43094505 4.19674759 -28.27735901 4.19821167 C-30.80071058 4.19888617 -33.32406396 4.19708342 -35.84741211 4.19287109 C-39.70235058 4.18747923 -43.5571743 4.19285787 -47.41210938 4.19921875 C-49.87760442 4.19855848 -52.3430994 4.19727838 -54.80859375 4.1953125 C-55.95347763 4.19733673 -57.09836151 4.19936096 -58.27793884 4.20144653 C-63.70894656 4.1855281 -68.90121888 4.02855194 -74.25 3.0625 C-74.25 2.7325 -74.25 2.4025 -74.25 2.0625 C-73.43202942 2.05219254 -72.61405884 2.04188507 -71.77130127 2.03126526 C-64.06121627 1.93327158 -56.35121096 1.83075445 -48.64125443 1.72316074 C-44.6775308 1.66800579 -40.7137997 1.61459777 -36.75 1.56518555 C-32.92444278 1.5174323 -29.09897343 1.46508573 -25.27352142 1.40955925 C-23.81432026 1.3891853 -22.35509506 1.37046414 -20.89585114 1.35342598 C-18.85137754 1.32927183 -16.80706852 1.29923287 -14.76269531 1.26782227 C-13.59909485 1.25227798 -12.43549438 1.2367337 -11.2366333 1.22071838 C-7.36844935 1.01579942 -3.89148501 -0.06485808 0 0 Z " fill="#304F5C" transform="translate(443.25,391.9375)"/>
<path d="M0 0 C0.33 0 0.66 0 1 0 C1.74774154 3.90487248 2.08209945 7.18069712 1.53344727 11.12475586 C0.92984356 16.12140559 0.87259253 21.03850813 0.90234375 26.06640625 C0.9037587 26.98590561 0.90517365 27.90540497 0.90663147 28.85276794 C0.91217688 31.75604671 0.92471883 34.65924501 0.9375 37.5625 C0.94252207 39.54492075 0.94708373 41.52734273 0.95117188 43.50976562 C0.96212836 48.3398742 0.97935458 53.16992351 1 58 C1.66 58 2.32 58 3 58 C3.33773438 58.90363281 3.67546875 59.80726563 4.0234375 60.73828125 C4.46945312 61.91777344 4.91546875 63.09726562 5.375 64.3125 C5.81585938 65.48425781 6.25671875 66.65601563 6.7109375 67.86328125 C7.91489648 71.08553593 7.91489648 71.08553593 10 74 C9.01 74 8.02 74 7 74 C5.84886181 71.80237256 4.73080009 69.59537636 3.625 67.375 C3.30789063 66.776875 2.99078125 66.17875 2.6640625 65.5625 C-2.58867582 54.83815926 -2.33777984 42.31461055 -2.25 30.625 C-2.24613281 29.36727783 -2.24226563 28.10955566 -2.23828125 26.8137207 C-2.15405486 17.74242206 -1.57637395 8.93747728 0 0 Z " fill="#86C7DD" transform="translate(264,464)"/>
<path d="M0 0 C0.66 0 1.32 0 2 0 C9.75923222 13.93324496 6.76208983 37.74079384 4 53 C3.34 53 2.68 53 2 53 C1.67 53.66 1.34 54.32 1 55 C1.144375 53.93265625 1.28875 52.8653125 1.4375 51.765625 C3.64896435 34.44183177 4.46207872 17.04433674 0 0 Z " fill="#86C2D8" transform="translate(535,135)"/>
<path d="M0 0 C0.66 0.33 1.32 0.66 2 1 C1.3503125 2.2684375 1.3503125 2.2684375 0.6875 3.5625 C-4.07244789 13.25869015 -5.161995 21.2123752 -5.5625 31.875 C-5.60568359 32.94492188 -5.64886719 34.01484375 -5.69335938 35.1171875 C-5.79892817 37.74467754 -5.90103791 40.37225422 -6 43 C-8.59970084 40.40029916 -8.25823871 38.57678562 -8.27856445 35.03320312 C-8.26913818 34.23849609 -8.25971191 33.44378906 -8.25 32.625 C-8.24250732 31.81224609 -8.23501465 30.99949219 -8.22729492 30.16210938 C-8.05011306 20.16073776 -7.5949704 7.5949704 0 0 Z " fill="#223D49" transform="translate(284,129)"/>
<path d="M0 0 C0.33 0.99 0.66 1.98 1 3 C1.66 3 2.32 3 3 3 C3.04940499 8.64166991 3.08572193 14.28321413 3.10986328 19.92504883 C3.11992639 21.84466749 3.13357816 23.76427081 3.15087891 25.68383789 C3.17511364 28.44160752 3.18647992 31.19917464 3.1953125 33.95703125 C3.20563507 34.81649857 3.21595764 35.67596588 3.22659302 36.56147766 C3.22674408 37.36208115 3.22689514 38.16268463 3.22705078 38.98754883 C3.231492 39.6914827 3.23593323 40.39541656 3.24050903 41.12068176 C3 43 3 43 1 46 C0.34 46 -0.32 46 -1 46 C-0.9285376 45.33967773 -0.8570752 44.67935547 -0.78344727 43.99902344 C0.11270635 34.73537785 0.11437497 25.54442852 0.0625 16.25 C0.05747097 14.66666809 0.05291057 13.08333463 0.04882812 11.5 C0.03794281 7.66662728 0.02075696 3.83333146 0 0 Z " fill="#2F4E5C" transform="translate(552,142)"/>
<path d="M0 0 C0.33 0.99 0.66 1.98 1 3 C-11.64949941 17.59327591 -11.64949941 17.59327591 -17 21 C-19.26171875 20.70703125 -19.26171875 20.70703125 -21 20 C-20.154375 19.2265625 -19.30875 18.453125 -18.4375 17.65625 C-12.1587542 11.89695213 -5.94545018 6.10710895 0 0 Z " fill="#1D3542" transform="translate(389,494)"/>
<path d="M0 0 C0.66 0.33 1.32 0.66 2 1 C-0.39391051 4.93285297 -1.94885565 6.97442783 -6 9 C-6.69040574 10.65697379 -7.3530635 12.3255761 -8 14 C-9.53311588 16.19385269 -11.16542113 18.02782771 -13 20 C-13.66 20 -14.32 20 -15 20 C-15.66 20.99 -16.32 21.98 -17 23 C-17 18.73422804 -16.92243577 18.41211608 -14.296875 15.46875 C-13.72839844 14.82292969 -13.15992188 14.17710937 -12.57421875 13.51171875 C-11.97222656 12.84785156 -11.37023437 12.18398437 -10.75 11.5 C-10.16347656 10.83613281 -9.57695312 10.17226562 -8.97265625 9.48828125 C-6.07510288 6.22609195 -3.13288638 3.03983035 0 0 Z " fill="#213A48" transform="translate(436,174)"/>
<path d="M0 0 C0.33 0.99 0.66 1.98 1 3 C-0.14453125 4.97265625 -0.14453125 4.97265625 -1.8125 7.0625 C-2.35519531 7.75472656 -2.89789063 8.44695312 -3.45703125 9.16015625 C-5 11 -5 11 -7 13 C-6.98617135 15.05714832 -6.98617135 15.05714832 -6 17 C-4.0162233 18.28436734 -4.0162233 18.28436734 -2 19 C-2 20.98 -2 22.96 -2 25 C-5.73680173 21.47079837 -8.06734837 18.39897745 -11 14 C-7.37 9.38 -3.74 4.76 0 0 Z " fill="#1F3748" transform="translate(429,447)"/>
<path d="M0 0 C0.99 0 1.98 0 3 0 C2.67 1.32 2.34 2.64 2 4 C1.01 4 0.02 4 -1 4 C-1 4.99 -1 5.98 -1 7 C-1.99 7.33 -2.98 7.66 -4 8 C-4.9434281 9.75672819 -5.88641615 11.5136998 -6.82421875 13.2734375 C-8.67958115 15.99792316 -10.95614018 16.94126615 -14 18 C-14.66 17.67 -15.32 17.34 -16 17 C-15.18015625 16.19175781 -14.3603125 15.38351562 -13.515625 14.55078125 C-12.42694863 13.47149002 -11.3384145 12.39205531 -10.25 11.3125 C-9.71117187 10.78205078 -9.17234375 10.25160156 -8.6171875 9.70507812 C-6.14835849 7.25130295 -3.91185171 4.88418815 -1.796875 2.10546875 C-0.90742188 1.06326172 -0.90742188 1.06326172 0 0 Z " fill="#8ACCE1" transform="translate(387,473)"/>
<path d="M0 0 C0.66 0 1.32 0 2 0 C2.33 1.65 2.66 3.3 3 5 C2.01 5.66 1.02 6.32 0 7 C-1.19232613 9.05003955 -1.19232613 9.05003955 -2 11 C-2.66 11 -3.32 11 -4 11 C-4.061875 11.53625 -4.12375 12.0725 -4.1875 12.625 C-5.38995473 16.13986768 -7.4542686 18.33586248 -10 21 C-12.16796875 21.67578125 -12.16796875 21.67578125 -14 22 C-10.20499549 16.04874292 -6.10426795 10.54997904 -1.5390625 5.1640625 C0.2897836 3.03512737 0.2897836 3.03512737 0 0 Z " fill="#89CAE2" transform="translate(396,193)"/>
<path d="M0 0 C1.18215088 0.00870117 1.18215088 0.00870117 2.38818359 0.01757812 C8.33594445 0.1497234 13.67108251 1.04646196 19.1875 3.375 C16.25836309 4.27385532 15.34884054 4.42761105 12.3125 3.4375 C5.1640913 1.1375772 -3.5755646 1.66817561 -10.8125 3.375 C-11.1425 4.365 -11.4725 5.355 -11.8125 6.375 C-13.4625 6.045 -15.1125 5.715 -16.8125 5.375 C-15.46266297 2.67532594 -13.6014882 2.09714926 -10.88525391 0.99902344 C-7.27180511 -0.08884171 -3.74799412 -0.06677232 0 0 Z " fill="#85C2D7" transform="translate(296.8125,105.625)"/>
<path d="M0 0 C1 2 1 2 0.58203125 3.875 C-1.54015061 9.73523823 -1.54015061 9.73523823 -4.0625 11.1875 C-4.701875 11.455625 -5.34125 11.72375 -6 12 C-6.72455635 13.64232772 -7.37774395 15.31624835 -8 17 C-9.58820237 19.71759071 -11.28450357 22.36127839 -13 25 C-13.66 24.67 -14.32 24.34 -15 24 C-13.06615695 20.74781085 -11.12729006 17.49864495 -9.1875 14.25 C-8.36668945 12.86941406 -8.36668945 12.86941406 -7.52929688 11.4609375 C-6.99755859 10.57148438 -6.46582031 9.68203125 -5.91796875 8.765625 C-5.43094482 7.94868164 -4.9439209 7.13173828 -4.44213867 6.29003906 C-3.06252275 4.09928279 -1.58406976 2.04634693 0 0 Z " fill="#203D49" transform="translate(369,262)"/>
<path d="M0 0 C0.58300781 1.86572266 0.58300781 1.86572266 1 4 C-0.328125 6.1484375 -0.328125 6.1484375 -2.25 8.375 C-5.07676308 11.77945475 -7.05610527 15.01501581 -9 19 C-9.99 19.66 -10.98 20.32 -12 21 C-12.33 20.01 -12.66 19.02 -13 18 C-11.92016602 16.00708008 -11.92016602 16.00708008 -10.25390625 13.76953125 C-9.66416016 12.96708984 -9.07441406 12.16464844 -8.46679688 11.33789062 C-7.83837891 10.50451172 -7.20996094 9.67113281 -6.5625 8.8125 C-5.93794922 7.96751953 -5.31339844 7.12253906 -4.66992188 6.25195312 C-3.12235069 4.16096 -1.5655238 2.07756672 0 0 Z " fill="#243845" transform="translate(399,218)"/>
<path d="M0 0 C0.33 1.32 0.66 2.64 1 4 C-6.48064025 7.70721995 -12.69914269 8.51345509 -21 8 C-21 7.34 -21 6.68 -21 6 C-20.2265625 5.97421875 -19.453125 5.9484375 -18.65625 5.921875 C-11.9166021 5.55486447 -5.07463149 5.07463149 0 0 Z " fill="#88C5DF" transform="translate(529,529)"/>
<path d="M0 0 C0.66 0.99 1.32 1.98 2 3 C1.34 3 0.68 3 0 3 C0 6.96 0 10.92 0 15 C1.65 15.33 3.3 15.66 5 16 C5 16.33 5 16.66 5 17 C1.7 16.67 -1.6 16.34 -5 16 C-4.49228528 10.03435204 -2.61407872 5.36190101 0 0 Z " fill="#274252" transform="translate(309,373)"/>
<path d="M0 0 C0.33 0.66 0.66 1.32 1 2 C0.01 2.99 -0.98 3.98 -2 5 C-2.66 4.67 -3.32 4.34 -4 4 C-4.3403125 4.86625 -4.3403125 4.86625 -4.6875 5.75 C-6.39564155 8.67824265 -8.13256637 10.19951842 -11 12 C-13.8125 11.75 -13.8125 11.75 -16 11 C-13.26882106 7.87442699 -9.83329412 5.92192486 -6.3125 3.8125 C-5.70599609 3.44447266 -5.09949219 3.07644531 -4.47460938 2.69726562 C-2.98538612 1.79435074 -1.49300185 0.89665304 0 0 Z " fill="#233341" transform="translate(348,530)"/>
<path d="M0 0 C0.99 0.33 1.98 0.66 3 1 C3 2.32 3 3.64 3 5 C12.9 4.505 12.9 4.505 23 4 C19.54350424 5.72824788 17.27555438 6.47611671 13.5625 7.125 C12.63566406 7.29257812 11.70882812 7.46015625 10.75390625 7.6328125 C8.12946175 7.98273843 5.64357647 8.06716891 3 8 C0 2.25 0 2.25 0 0 Z " fill="#274451" transform="translate(525,378)"/>
<path d="M0 0 C0.66 1.32 1.32 2.64 2 4 C1.154375 4.33 0.30875 4.66 -0.5625 5 C-4.45347571 7.26384041 -6.67359383 9.80131133 -9.484375 13.2578125 C-11 15 -11 15 -13 16 C-13.66 15.34 -14.32 14.68 -15 14 C-10.2347969 9.0759568 -5.11342667 4.55740358 0 0 Z " fill="#1B3341" transform="translate(458,152)"/>
<path d="M0 0 C3.34249629 0.59687434 5.46436342 1.73603877 8 4 C8 4.66 8 5.32 8 6 C8.639375 6.2475 9.27875 6.495 9.9375 6.75 C12 8 12 8 12.625 10.0625 C12.74875 10.701875 12.8725 11.34125 13 12 C13.66 12.33 14.32 12.66 15 13 C12 13 12 13 9.08203125 10.41015625 C7.98442437 9.30190591 6.89485507 8.18565055 5.8125 7.0625 C5.25369141 6.49853516 4.69488281 5.93457031 4.11914062 5.35351562 C0 1.15390339 0 1.15390339 0 0 Z " fill="#83C4D8" transform="translate(424,492)"/>
<path d="M0 0 C1.1360112 3.4080336 0.70301403 5.52371681 0 9 C-0.12756657 11.93835544 -0.09454165 14.87206235 -0.0625 17.8125 C-0.05798828 18.60076172 -0.05347656 19.38902344 -0.04882812 20.20117188 C-0.03711312 22.13414761 -0.01917998 24.06708393 0 26 C-3.71659083 20.42511376 -3.54025367 14.54607358 -3 8 C-2.23080337 5.14234506 -1.22644081 2.70839013 0 0 Z " fill="#87C5D8" transform="translate(158,314)"/>
<path d="M0 0 C3.63 0 7.26 0 11 0 C10.61271765 5.71241466 10.12989477 8.73688282 6 13 C5.01 12.67 4.02 12.34 3 12 C4.98 8.37 6.96 4.74 9 1 C6.03 1 3.06 1 0 1 C0 0.67 0 0.34 0 0 Z " fill="#76B8D0" transform="translate(338,263)"/>
<path d="M0 0 C0.33 0.99 0.66 1.98 1 3 C-1.97 5.97 -4.94 8.94 -8 12 C-9 8 -9 8 -8 6 C-7.34 6 -6.68 6 -6 6 C-6 5.34 -6 4.68 -6 4 C-2.47058824 0 -2.47058824 0 0 0 Z " fill="#81C9DE" transform="translate(396,484)"/>
<path d="M0 0 C1.32 0 2.64 0 4 0 C4 0.66 4 1.32 4 2 C2.09370402 3.58414673 0.19294416 5.05200918 -1.8125 6.5 C-2.63331055 7.10521484 -2.63331055 7.10521484 -3.47070312 7.72265625 C-5.94565963 9.5406243 -8.44455191 11.29636794 -11 13 C-11.33 12.01 -11.66 11.02 -12 10 C-11.01 10 -10.02 10 -9 10 C-9 9.34 -9 8.68 -9 8 C-8.34 8 -7.68 8 -7 8 C-6.34 6.68 -5.68 5.36 -5 4 C-3.68 4 -2.36 4 -1 4 C-0.67 2.68 -0.34 1.36 0 0 Z " fill="#87C8DE" transform="translate(473,136)"/>
<path d="M0 0 C0.99 0.33 1.98 0.66 3 1 C3.33 1.99 3.66 2.98 4 4 C2.3603125 4.5878125 2.3603125 4.5878125 0.6875 5.1875 C-2.91074922 6.7025523 -4.34524223 8.39846838 -6 12 C-6.99 11.67 -7.98 11.34 -9 11 C-8.60167969 10.54109375 -8.20335937 10.0821875 -7.79296875 9.609375 C-5.08857938 6.47728415 -2.42008229 3.36122541 0 0 Z " fill="#263F51" transform="translate(406,475)"/>
<path d="M0 0 C0.33 1.32 0.66 2.64 1 4 C-1.05171115 6.33667103 -2.25651321 7.65338011 -5 9 C-9.08015073 9.14534888 -12.97727425 8.65743576 -17 8 C-17 7.34 -17 6.68 -17 6 C-16.02417969 5.98582031 -15.04835938 5.97164063 -14.04296875 5.95703125 C-12.77066406 5.90933594 -11.49835938 5.86164063 -10.1875 5.8125 C-8.92292969 5.77769531 -7.65835937 5.74289062 -6.35546875 5.70703125 C-2.8234665 5.34379606 -2.8234665 5.34379606 -1.05078125 2.44921875 C-0.70402344 1.64097656 -0.35726563 0.83273437 0 0 Z " fill="#83BDD4" transform="translate(449,389)"/>
<path d="M0 0 C0.66666667 1.33333333 1.33333333 2.66666667 2 4 C2.32742188 4.60070312 2.65484375 5.20140625 2.9921875 5.8203125 C4.11245202 8.24321018 4.70436739 10.51375824 5.25 13.125 C5.44078125 13.99382812 5.6315625 14.86265625 5.828125 15.7578125 C5.88484375 16.49773437 5.9415625 17.23765625 6 18 C5.34 18.66 4.68 19.32 4 20 C3.13310822 17.42032203 2.28126211 14.83723873 1.4375 12.25 C1.19064453 11.52039063 0.94378906 10.79078125 0.68945312 10.0390625 C0.46064453 9.33007812 0.23183594 8.62109375 -0.00390625 7.890625 C-0.21861572 7.24125977 -0.4333252 6.59189453 -0.65454102 5.92285156 C-1.06008636 3.66555462 -0.69296911 2.16526518 0 0 Z " fill="#83C6DB" transform="translate(275,230)"/>
<path d="M0 0 C0 0.33 0 0.66 0 1 C-1.41152344 1.03867188 -1.41152344 1.03867188 -2.8515625 1.078125 C-12.24820879 1.34046049 -12.24820879 1.34046049 -20 6 C-21.32 5.01 -22.64 4.02 -24 3 C-16.19436658 -0.90281671 -8.51207047 -0.27891493 0 0 Z " fill="#25404D" transform="translate(521,122)"/>
<path d="M0 0 C0.99 0 1.98 0 3 0 C3.103125 1.0725 3.20625 2.145 3.3125 3.25 C3.99183415 6.95545901 4.69872084 8.19844276 7 11 C7 11.99 7 12.98 7 14 C7.66 14.33 8.32 14.66 9 15 C8.01 15 7.02 15 6 15 C2.01535382 10.5662174 0.36546196 5.84739138 0 0 Z " fill="#83C0DB" transform="translate(368,338)"/>
<path d="M0 0 C2.01822917 0.06510417 4.03645833 0.13020833 6.0546875 0.1953125 C6.0546875 0.8553125 6.0546875 1.5153125 6.0546875 2.1953125 C3.43074444 3.03210527 0.80564366 3.86488192 -1.8203125 4.6953125 C-2.56667969 4.93378906 -3.31304687 5.17226563 -4.08203125 5.41796875 C-9.71875 7.1953125 -9.71875 7.1953125 -11.9453125 7.1953125 C-11.9453125 6.5353125 -11.9453125 5.8753125 -11.9453125 5.1953125 C-11.11386719 4.90527344 -11.11386719 4.90527344 -10.265625 4.609375 C-9.54117188 4.34898437 -8.81671875 4.08859375 -8.0703125 3.8203125 C-6.99136719 3.43746094 -6.99136719 3.43746094 -5.890625 3.046875 C-3.48626765 1.99436515 -2.64750785 0.26581404 0 0 Z " fill="#89CBE2" transform="translate(231.9453125,279.8046875)"/>
<path d="M0 0 C1.83031937 3.0768824 2.19070408 4.81928573 1.5390625 8.328125 C1.39726562 9.12734375 1.25546875 9.9265625 1.109375 10.75 C0.94953125 11.575 0.7896875 12.4 0.625 13.25 C0.47289062 14.09046875 0.32078125 14.9309375 0.1640625 15.796875 C-0.21227683 17.86674133 -0.60459519 19.93369098 -1 22 C-1.66 21.34 -2.32 20.68 -3 20 C-2.57117775 13.24604958 -1.27815681 6.63896986 0 0 Z " fill="#84C2D9" transform="translate(268,444)"/>
<path d="M0 0 C2.64 0 5.28 0 8 0 C6.8782037 1.7936743 5.75245517 3.5848773 4.625 5.375 C3.99851562 6.37273437 3.37203125 7.37046875 2.7265625 8.3984375 C1 11 1 11 -1 13 C-1.125 8.25 -1.125 8.25 0 6 C0.99 6 1.98 6 3 6 C3 4.35 3 2.7 3 1 C2.01 0.67 1.02 0.34 0 0 Z " fill="#223847" transform="translate(425,414)"/>
<path d="M0 0 C1.32 0 2.64 0 4 0 C4 0.66 4 1.32 4 2 C1.41932437 2.69918305 -1.16372847 3.38461049 -3.75 4.0625 C-4.47960937 4.26166016 -5.20921875 4.46082031 -5.9609375 4.66601562 C-9.71031044 5.63744407 -12.30274238 6.15449387 -16 5 C-12.71888625 2.81259083 -10.73165037 2.49044144 -6.875 1.9375 C-3.12083165 1.68226276 -3.12083165 1.68226276 0 0 Z " fill="#1F3948" transform="translate(568,375)"/>
<path d="M0 0 C0.66 0.33 1.32 0.66 2 1 C0.6062718 5.43458973 -1.60582235 7.87378374 -5 11 C-5.99 10.67 -6.98 10.34 -8 10 C-5.36 6.7 -2.72 3.4 0 0 Z " fill="#84C8E0" transform="translate(167,302)"/>
<path d="M0 0 C0.99 0 1.98 0 3 0 C3 0.66 3 1.32 3 2 C4.0725 2.103125 5.145 2.20625 6.25 2.3125 C9.84739269 2.97202199 11.45776191 3.45776191 14 6 C14 6.66 14 7.32 14 8 C8.55123997 6.27933894 3.28830549 4.15294651 -2 2 C-1.34 1.34 -0.68 0.68 0 0 Z " fill="#85C5DB" transform="translate(314,122)"/>
<path d="M0 0 C0.33 0 0.66 0 1 0 C0.40711812 7.34164374 -0.238212 14.67386859 -1 22 C-1.33 22 -1.66 22 -2 22 C-2.05807043 18.89591193 -2.09361914 15.7919636 -2.125 12.6875 C-2.14175781 11.80642578 -2.15851563 10.92535156 -2.17578125 10.01757812 C-2.18222656 9.17001953 -2.18867188 8.32246094 -2.1953125 7.44921875 C-2.20578613 6.66893311 -2.21625977 5.88864746 -2.22705078 5.0847168 C-2 3 -2 3 0 0 Z " fill="#86C4DC" transform="translate(278,464)"/>
<path d="M0 0 C0.66 0.66 1.32 1.32 2 2 C-2.625 6.875 -2.625 6.875 -6 8 C-6 8.66 -6 9.32 -6 10 C-8.5 11.625 -8.5 11.625 -11 13 C-8.72126867 7.61390776 -4.84467788 3.22978525 0 0 Z " fill="#253D4E" transform="translate(186,305)"/>
<path d="M0 0 C7.23403253 3.44625584 11.48781801 8.55173992 16 15 C13 15 13 15 11.38671875 13.49609375 C10.82597656 12.81675781 10.26523437 12.13742188 9.6875 11.4375 C8.77871094 10.35275391 8.77871094 10.35275391 7.8515625 9.24609375 C7.24054688 8.50488281 6.62953125 7.76367188 6 7 C4.85670393 5.6644904 3.71109509 4.33095497 2.5625 3 C1.716875 2.01 0.87125 1.02 0 0 Z " fill="#8CD1E4" transform="translate(366,160)"/>
<path d="M0 0 C1.24363664 4.97454658 0.28581994 6.50718151 -2 11 C-4.1875 13.9375 -4.1875 13.9375 -6 16 C-6.66 15.67 -7.32 15.34 -8 15 C-5.36 10.05 -2.72 5.1 0 0 Z " fill="#87C5DD" transform="translate(477,341)"/>
<path d="M0 0 C0.66 0 1.32 0 2 0 C0.47987323 5.40489519 -3.27385218 8.98492628 -7 13 C-7.99 12.67 -8.98 12.34 -10 12 C-8.625 10.5 -8.625 10.5 -7 9 C-6.34 9 -5.68 9 -5 9 C-5 8.34 -5 7.68 -5 7 C-4.34 7 -3.68 7 -3 7 C-2.814375 5.824375 -2.814375 5.824375 -2.625 4.625 C-2 2 -2 2 0 0 Z " fill="#253F50" transform="translate(639,337)"/>
<path d="M0 0 C0.66 0.66 1.32 1.32 2 2 C1.67028521 5.29714793 1.3773161 6.6226839 -1 9 C-1.144375 9.680625 -1.28875 10.36125 -1.4375 11.0625 C-1.7159375 12.0215625 -1.7159375 12.0215625 -2 13 C-2.99 13.33 -3.98 13.66 -5 14 C-3.45730076 9.27934033 -1.92205381 4.58335908 0 0 Z " fill="#80C2D8" transform="translate(508,276)"/>
<path d="M0 0 C2.97 0 5.94 0 9 0 C9 0.66 9 1.32 9 2 C14.28 2 19.56 2 25 2 C25 2.33 25 2.66 25 3 C22.14557247 3.05437005 19.29219924 3.09384974 16.4375 3.125 C15.63763672 3.14175781 14.83777344 3.15851562 14.01367188 3.17578125 C8.93499665 3.21723982 4.81188094 2.64056075 0 1 C0 0.67 0 0.34 0 0 Z " fill="#76ABBE" transform="translate(501,548)"/>
<path d="M0 0 C-2.90600261 1.25664978 -4.79604584 2 -8 2 C-8.33 2.99 -8.66 3.98 -9 5 C-11.31 5.33 -13.62 5.66 -16 6 C-16 5.01 -16 4.02 -16 3 C-13.89936424 2.30178583 -11.79434263 1.61675528 -9.6875 0.9375 C-8.51574219 0.55464844 -7.34398437 0.17179687 -6.13671875 -0.22265625 C-3 -1 -3 -1 0 0 Z " fill="#2B4956" transform="translate(576,392)"/>
<path d="M0 0 C0.33 0 0.66 0 1 0 C1.65499928 5.0762444 -0.3655219 9.73549365 -3 14 C-3.99 14.33 -4.98 14.66 -6 15 C-4.36041242 9.76727367 -2.61047965 4.84803364 0 0 Z " fill="#7FBDD7" transform="translate(304,344)"/>
<path d="M0 0 C0.66 0.33 1.32 0.66 2 1 C1 4 1 4 -0.671875 5.1328125 C-4.42633057 6.92535332 -7.82129414 8.47766177 -12 9 C-8.63378119 5.21300384 -4.58358196 2.1727369 0 0 Z " fill="#24414E" transform="translate(199,296)"/>
<path d="M0 0 C1.41623216 -0.05447047 2.83308191 -0.09300508 4.25 -0.125 C5.03890625 -0.14820313 5.8278125 -0.17140625 6.640625 -0.1953125 C9.20731941 0.0171622 10.7916067 0.71345895 13 2 C12.06027344 2.19916016 12.06027344 2.19916016 11.1015625 2.40234375 C9.87566406 2.66724609 9.87566406 2.66724609 8.625 2.9375 C7.81289063 3.11152344 7.00078125 3.28554688 6.1640625 3.46484375 C3.970537 3.92330693 3.970537 3.92330693 2 5 C1.34 3.35 0.68 1.7 0 0 Z " fill="#2B5363" transform="translate(467,263)"/>
<path d="M0 0 C0.33 1.32 0.66 2.64 1 4 C-1.46026571 6.87030999 -3.85489214 8.90326143 -7 11 C-7.33 10.01 -7.66 9.02 -8 8 C-5.36 5.36 -2.72 2.72 0 0 Z " fill="#7EC1D5" transform="translate(370,491)"/>
<path d="M0 0 C0.66 0 1.32 0 2 0 C2 0.66 2 1.32 2 2 C2.66 2 3.32 2 4 2 C4.8466034 3.38782485 5.67675339 4.78569397 6.5 6.1875 C6.9640625 6.96480469 7.428125 7.74210937 7.90625 8.54296875 C9.10729647 11.24103386 9.20741043 13.0806982 9 16 C6.40962402 12.79509037 4.62056844 9.44649547 2.8125 5.75 C2.01779297 4.13351562 2.01779297 4.13351562 1.20703125 2.484375 C0.80871094 1.66453125 0.41039062 0.8446875 0 0 Z " fill="#8AC8E0" transform="translate(472,305)"/>
<path d="M0 0 C-1.29731506 2.89401051 -2.37714667 5.16400267 -5 7 C-7.67931112 7.55177892 -10.26287955 7.77564586 -13 8 C-10.83676753 5.68757908 -8.62352196 3.9843604 -5.9375 2.3125 C-5.24527344 1.87550781 -4.55304688 1.43851562 -3.83984375 0.98828125 C-2 0 -2 0 0 0 Z " fill="#89C8E3" transform="translate(192,285)"/>
<path d="M0 0 C0.66 0 1.32 0 2 0 C5.84361434 5.68854922 4.95342799 10.54425869 4 17 C3.67 17 3.34 17 3 17 C2.86722656 16.10796875 2.73445312 15.2159375 2.59765625 14.296875 C2.42105469 13.12640625 2.24445312 11.9559375 2.0625 10.75 C1.88847656 9.58984375 1.71445312 8.4296875 1.53515625 7.234375 C1.1272264 4.76893039 0.66098697 2.40575438 0 0 Z " fill="#80BBD1" transform="translate(535,135)"/>
<path d="M0 0 C0.66 0 1.32 0 2 0 C0.4114658 4.28904235 -2.43127368 6.32345526 -6 9 C-6.66 9 -7.32 9 -8 9 C-8 9.66 -8 10.32 -8 11 C-9.32 10.67 -10.64 10.34 -12 10 C-10.82630859 9.04287109 -10.82630859 9.04287109 -9.62890625 8.06640625 C-8.61699219 7.24011719 -7.60507812 6.41382813 -6.5625 5.5625 C-5.55316406 4.73878906 -4.54382813 3.91507813 -3.50390625 3.06640625 C-1.70216039 1.58798996 -1.70216039 1.58798996 0 0 Z " fill="#89C7DE" transform="translate(460,131)"/>
<path d="M0 0 C4.13621084 3.3810038 7.81316569 6.66590534 11 11 C8 11 8 11 5.375 8.6875 C3 6 3 6 2 3 C1.34 3 0.68 3 0 3 C0 2.01 0 1.02 0 0 Z " fill="#89C4DC" transform="translate(437,484)"/>
<path d="M0 0 C3.39417765 3.12621626 5.6062718 5.56541027 7 10 C5.68 10.99 4.36 11.98 3 13 C2.86722656 12.39671875 2.73445313 11.7934375 2.59765625 11.171875 C2.42105469 10.37265625 2.24445313 9.5734375 2.0625 8.75 C1.88847656 7.96109375 1.71445312 7.1721875 1.53515625 6.359375 C1.052444 4.23121297 0.53836822 2.11467158 0 0 Z " fill="#244050" transform="translate(390,453)"/>
<path d="M0 0 C4.20240011 3.71750779 6.99782679 8.31660979 10 13 C9.01 13 8.02 13 7 13 C5.68359375 11.50390625 5.68359375 11.50390625 4.4375 9.5625 C2.69463071 6.76740279 2.69463071 6.76740279 0 5 C0 3.35 0 1.7 0 0 Z " fill="#89C7DF" transform="translate(384,418)"/>
<path d="M0 0 C-0.33 0.99 -0.66 1.98 -1 3 C-5.62 3 -10.24 3 -15 3 C-9.97583178 -0.34944548 -5.90048743 -0.09834146 0 0 Z " fill="#1B3642" transform="translate(447,392)"/>
<path d="M0 0 C2.50037734 2.17424117 3.43628586 3.73045798 4 7 C3.34 7 2.68 7 2 7 C1.67 6.34 1.34 5.68 1 5 C-0.32 6.32 -1.64 7.64 -3 9 C-3.33 8.01 -3.66 7.02 -4 6 C-2.0625 2.8125 -2.0625 2.8125 0 0 Z " fill="#213E4C" transform="translate(493,348)"/>
<path d="M0 0 C0.66 0 1.32 0 2 0 C1.44449305 3.59905908 0.25112752 4.99909799 -2.5625 7.25 C-3.20316406 7.77078125 -3.84382813 8.2915625 -4.50390625 8.828125 C-5.24447266 9.40820312 -5.24447266 9.40820312 -6 10 C-6.99 8.68 -7.98 7.36 -9 6 C-6.525 6.495 -6.525 6.495 -4 7 C-3.71125 6.401875 -3.4225 5.80375 -3.125 5.1875 C-2 3 -2 3 0 0 Z " fill="#1E3446" transform="translate(413,172)"/>
<path d="M0 0 C0.66 0.33 1.32 0.66 2 1 C0.59155282 4.21524305 -1.10344786 6.32183868 -3.625 8.75 C-4.57246094 9.67039063 -4.57246094 9.67039063 -5.5390625 10.609375 C-6.02117187 11.06828125 -6.50328125 11.5271875 -7 12 C-7.640625 10.171875 -7.640625 10.171875 -8 8 C-5.75 5.25 -5.75 5.25 -3 3 C-2.01 3 -1.02 3 0 3 C0 2.01 0 1.02 0 0 Z " fill="#1F3847" transform="translate(436,148)"/>
<path d="M0 0 C2.2718503 3.40777545 3.5484018 6.81455473 5 10.625 C5.99495495 13.19647651 5.99495495 13.19647651 8 16 C7.01 16 6.02 16 5 16 C-0.74031891 5.62642369 -0.74031891 5.62642369 0 0 Z " fill="#8DCDE3" transform="translate(266,522)"/>
<path d="M0 0 C3.22385295 5.52660506 4.31675402 11.66491954 4 18 C0.15839684 12.23759526 -0.23538321 6.70842135 0 0 Z " fill="#8BCFE4" transform="translate(533,447)"/>
<path d="M0 0 C0.66 0.33 1.32 0.66 2 1 C2 1.99 2 2.98 2 4 C-0.66666667 5.33333333 -3.33333333 6.66666667 -6 8 C-6.99 7.34 -7.98 6.68 -9 6 C-6.03 4.02 -3.06 2.04 0 0 Z " fill="#304854" transform="translate(433,360)"/>
<path d="M0 0 C0.66 0 1.32 0 2 0 C2 0.66 2 1.32 2 2 C2.99 1.67 3.98 1.34 5 1 C5.19335938 1.56589844 5.38671875 2.13179687 5.5859375 2.71484375 C5.84632813 3.44832031 6.10671875 4.18179688 6.375 4.9375 C6.63023437 5.66839844 6.88546875 6.39929688 7.1484375 7.15234375 C7.85271413 9.18682116 7.85271413 9.18682116 10 10 C9.67 11.32 9.34 12.64 9 14 C7.49717827 11.85609361 5.99764203 9.71001973 4.5 7.5625 C4.07074219 6.95083984 3.64148438 6.33917969 3.19921875 5.70898438 C0 1.11328125 0 1.11328125 0 0 Z " fill="#8ACBE3" transform="translate(414,215)"/>
<path d="M0 0 C-5.33333333 2.66666667 -10.66666667 5.33333333 -16 8 C-16 7.01 -16 6.02 -16 5 C-14.58671871 4.18162558 -13.16921654 3.37053781 -11.75 2.5625 C-10.56664062 1.88380859 -10.56664062 1.88380859 -9.359375 1.19140625 C-5.69236889 -0.66031041 -3.96367739 -1.3212258 0 0 Z " fill="#1E3C45" transform="translate(493,112)"/>
<path d="M0 0 C0.33 0.99 0.66 1.98 1 3 C-0.07421875 5.0078125 -0.07421875 5.0078125 -1.6875 7.125 C-2.20699219 7.82882812 -2.72648437 8.53265625 -3.26171875 9.2578125 C-5.18169057 11.18209887 -6.34723083 11.61855607 -9 12 C-6 8 -3 4 0 0 Z " fill="#233E4E" transform="translate(429,447)"/>
<path d="M0 0 C0.66 0 1.32 0 2 0 C1.40380045 4.86896303 0.43023178 9.32790951 -1 14 C-1.66 14 -2.32 14 -3 14 C-2.69147815 12.041036 -2.3780582 10.08284287 -2.0625 8.125 C-1.88847656 7.03445313 -1.71445312 5.94390625 -1.53515625 4.8203125 C-1 2 -1 2 0 0 Z " fill="#89CAE1" transform="translate(283,440)"/>
<path d="M0 0 C0.66 0 1.32 0 2 0 C1.69381595 3.67420866 1.24228216 4.78135513 -1.5625 7.3125 C-2.366875 7.869375 -3.17125 8.42625 -4 9 C-4.66 8.67 -5.32 8.34 -6 8 C-5.04956626 6.66102417 -4.08940853 5.32894573 -3.125 4 C-2.59132813 3.2575 -2.05765625 2.515 -1.5078125 1.75 C-1.01023437 1.1725 -0.51265625 0.595 0 0 Z " fill="#1F3947" transform="translate(449,420)"/>
<path d="M0 0 C3.78239671 0.65690619 7.21841526 1.720131 10.8125 3.0625 C11.78832031 3.42472656 12.76414063 3.78695313 13.76953125 4.16015625 C14.50558594 4.43730469 15.24164063 4.71445312 16 5 C16 5.33 16 5.66 16 6 C10.375 6.25 10.375 6.25 7 4 C4.67891331 3.29187186 2.34622853 2.61975848 0 2 C0 1.34 0 0.68 0 0 Z " fill="#1C3543" transform="translate(225,387)"/>
<path d="M0 0 C7.75 0.875 7.75 0.875 10 2 C10 2.99 10 3.98 10 5 C10.99 5.33 11.98 5.66 13 6 C7.71862571 5.48474397 4.42778844 3.74522883 0 1 C0 0.67 0 0.34 0 0 Z " fill="#7BB4CB" transform="translate(384,362)"/>
<path d="M0 0 C1.2380014 3.57644848 0.74926071 6.33694766 0 10 C1.65 10.33 3.3 10.66 5 11 C1.94736336 11.98120464 0.05263664 11.98120464 -3 11 C-2.44894091 7.0507432 -1.61064629 3.65079826 0 0 Z " fill="#244455" transform="translate(537,245)"/>
<path d="M0 0 C0.66 0 1.32 0 2 0 C2.99 3.3 3.98 6.6 5 10 C4.34 10 3.68 10 3 10 C2.67 10.66 2.34 11.32 2 12 C0.86235649 7.73383684 0 4.43513689 0 0 Z " fill="#213644" transform="translate(539,414)"/>
<path d="M0 0 C1.5 1.375 1.5 1.375 3 3 C3 3.66 3 4.32 3 5 C-0.9813783 6.3271261 -4.85045227 6.06915913 -9 6 C-9 5.34 -9 4.68 -9 4 C-6.03 4 -3.06 4 0 4 C0 2.68 0 1.36 0 0 Z " fill="#234351" transform="translate(509,384)"/>
<path d="M0 0 C7.625 0.875 7.625 0.875 11 2 C11.6875 4.0625 11.6875 4.0625 12 6 C7.76570244 4.68938409 3.92592596 3.05643741 0 1 C0 0.67 0 0.34 0 0 Z " fill="#86C2DB" transform="translate(605,291)"/>
<path d="M0 0 C-0.33 0.99 -0.66 1.98 -1 3 C-1.99 3 -2.98 3 -4 3 C-4 3.66 -4 4.32 -4 5 C-6.64 5 -9.28 5 -12 5 C-8.71329597 1.71329597 -4.64131669 0 0 0 Z " fill="#80C0D4" transform="translate(218,273)"/>
<path d="M0 0 C3.21043882 1.38188453 5.04936365 2.92421903 7.25 5.625 C8.03117187 6.57246094 8.03117187 6.57246094 8.828125 7.5390625 C9.40820312 8.26222656 9.40820312 8.26222656 10 9 C7 9 7 9 4.4375 6.75 C2.42724922 4.48202476 1.12774794 2.76810859 0 0 Z " fill="#273F4F" transform="translate(362,158)"/>
<path d="M0 0 C0 3.19633438 -0.33810135 4.34096216 -2 7 C-4.125 8.75 -4.125 8.75 -6 10 C-6.66 9.34 -7.32 8.68 -8 8 C-5.36 5.36 -2.72 2.72 0 0 Z " fill="#88CDE3" transform="translate(437,151)"/>
<path d="M0 0 C0.33 0 0.66 0 1 0 C2.40454548 6.11980533 3.23268915 11.71739294 3 18 C0.72350188 13.5987703 -0.12094458 10.28028936 -0.0625 5.3125 C-0.05347656 4.31863281 -0.04445313 3.32476562 -0.03515625 2.30078125 C-0.02355469 1.54152344 -0.01195312 0.78226562 0 0 Z " fill="#79B4C3" transform="translate(549,458)"/>
<path d="M0 0 C0.33 0 0.66 0 1 0 C1.33 4.62 1.66 9.24 2 14 C1.01 13.34 0.02 12.68 -1 12 C-1.328125 9.6875 -1.328125 9.6875 -1.25 7 C-1.23453125 6.113125 -1.2190625 5.22625 -1.203125 4.3125 C-1 2 -1 2 0 0 Z " fill="#223946" transform="translate(154,323)"/>
<path d="M0 0 C0.66 0 1.32 0 2 0 C2 0.66 2 1.32 2 2 C2.66 2.33 3.32 2.66 4 3 C1.03839944 6.12613393 -1.09567131 8.04783565 -5 10 C-3.35 6.7 -1.7 3.4 0 0 Z " fill="#203B42" transform="translate(348,296)"/>
<path d="M0 0 C-4.62 0 -9.24 0 -14 0 C-13.67 -0.66 -13.34 -1.32 -13 -2 C-10.8203125 -2.51953125 -10.8203125 -2.51953125 -8.125 -2.8125 C-6.79855469 -2.97685547 -6.79855469 -2.97685547 -5.4453125 -3.14453125 C-3 -3 -3 -3 0 0 Z " fill="#223640" transform="translate(415,287)"/>
<path d="M0 0 C0.33 0.99 0.66 1.98 1 3 C-2.77222089 4.75163456 -5.666639 5.22490027 -9.8125 5.125 C-11.27623047 5.09792969 -11.27623047 5.09792969 -12.76953125 5.0703125 C-13.50558594 5.04710937 -14.24164063 5.02390625 -15 5 C-11.59568053 2.73045369 -9.83475798 2.63450051 -5.8125 2.375 C-4.72582031 2.30023438 -3.63914062 2.22546875 -2.51953125 2.1484375 C-1.27236328 2.07496094 -1.27236328 2.07496094 0 2 C0 1.34 0 0.68 0 0 Z " fill="#7BB8CE" transform="translate(281,254)"/>
<path d="M0 0 C0.99 0 1.98 0 3 0 C2.67 1.32 2.34 2.64 2 4 C-3.44693314 4.09688221 -8.63904667 4.12862175 -14 3 C-14 2.67 -14 2.34 -14 2 C-9.1666528 1.91666643 -4.76307437 2.04738513 0 3 C0 2.01 0 1.02 0 0 Z " fill="#2B505F" transform="translate(516,248)"/>
<path d="M0 0 C0.66 0.66 1.32 1.32 2 2 C1.875 3.9375 1.875 3.9375 1 6 C-1.0625 7.75 -1.0625 7.75 -3 9 C-3.66 8.34 -4.32 7.68 -5 7 C-3.35 4.69 -1.7 2.38 0 0 Z " fill="#81C5E0" transform="translate(381,215)"/>
<path d="M0 0 C0.66 0 1.32 0 2 0 C0.33248852 3.94139078 -2.22710649 6.7892812 -5 10 C-5.75 8.25 -5.75 8.25 -6 6 C-4.1875 3.75 -4.1875 3.75 -2 2 C-1.34 2 -0.68 2 0 2 C0 1.34 0 0.68 0 0 Z " fill="#88C7DC" transform="translate(426,182)"/>
<path d="M0 0 C0.33 1.32 0.66 2.64 1 4 C-0.6875 6.3125 -0.6875 6.3125 -3 8 C-4.32 7.67 -5.64 7.34 -7 7 C-4.69 4.69 -2.38 2.38 0 0 Z " fill="#87C9DC" transform="translate(428,160)"/>
<path d="M0 0 C3.96 1.98 7.92 3.96 12 6 C7.17808219 7.20547945 7.17808219 7.20547945 4 6 C3.67 5.34 3.34 4.68 3 4 C2.01 3.67 1.02 3.34 0 3 C0 2.01 0 1.02 0 0 Z " fill="#223947" transform="translate(477,537)"/>
<path d="M0 0 C0.99 0 1.98 0 3 0 C1.33248852 3.94139078 -1.22710649 6.7892812 -4 10 C-4.33 9.01 -4.66 8.02 -5 7 C-4.34 6.01 -3.68 5.02 -3 4 C-2.34 4 -1.68 4 -1 4 C-0.67 2.68 -0.34 1.36 0 0 Z " fill="#88C9E3" transform="translate(425,448)"/>
<path d="M0 0 C0.66 0 1.32 0 2 0 C0.43358249 4.30764815 -1.68336156 8.06171464 -4 12 C-4.33 12 -4.66 12 -5 12 C-5 10.35 -5 8.7 -5 7 C-4.34 7 -3.68 7 -3 7 C-2.690625 6.030625 -2.38125 5.06125 -2.0625 4.0625 C-1 1 -1 1 0 0 Z " fill="#223C49" transform="translate(453,379)"/>
<path d="M0 0 C0.66 0 1.32 0 2 0 C2.39169887 2.66355234 2.40564529 4.39224373 0.88671875 6.66796875 C-0.36389317 8.1510888 -1.67864514 9.57954352 -3 11 C-3.33 10.34 -3.66 9.68 -4 9 C-3.22265625 6.8359375 -3.22265625 6.8359375 -2.0625 4.375 C-1.68222656 3.55773437 -1.30195313 2.74046875 -0.91015625 1.8984375 C-0.60980469 1.27195312 -0.30945313 0.64546875 0 0 Z " fill="#7FBCD6" transform="translate(297,360)"/>
<path d="M0 0 C0.66 0 1.32 0 2 0 C3.65 2.97 5.3 5.94 7 9 C5.68 8.67 4.36 8.34 3 8 C2.67 6.68 2.34 5.36 2 4 C1.34 4 0.68 4 0 4 C0 2.68 0 1.36 0 0 Z " fill="#2A4151" transform="translate(370,348)"/>
<path d="M0 0 C0.33 0 0.66 0 1 0 C1.05423638 1.91635217 1.09289963 3.83314925 1.125 5.75 C1.14820313 6.81734375 1.17140625 7.8846875 1.1953125 8.984375 C1.00487687 11.92470106 0.52670104 13.52361878 -1 16 C-1.125 10.25 -1.125 10.25 0 8 C-0.66 8 -1.32 8 -2 8 C-1.34 5.36 -0.68 2.72 0 0 Z " fill="#8AC7E1" transform="translate(659,322)"/>
<path d="M0 0 C3.40364888 1.39935885 4.90806188 2.87004732 6.8125 6 C7.25207031 6.70125 7.69164062 7.4025 8.14453125 8.125 C8.42683594 8.74375 8.70914062 9.3625 9 10 C8.67 10.66 8.34 11.32 8 12 C7.34 12 6.68 12 6 12 C5.73445313 11.36191406 5.46890625 10.72382813 5.1953125 10.06640625 C4.84210938 9.24011719 4.48890625 8.41382813 4.125 7.5625 C3.77695312 6.73878906 3.42890625 5.91507812 3.0703125 5.06640625 C2.1755063 2.84253285 2.1755063 2.84253285 0 2 C0 1.34 0 0.68 0 0 Z " fill="#7FBCD3" transform="translate(436,300)"/>
<path d="M0 0 C0.66 0.33 1.32 0.66 2 1 C0.90931332 4.77545388 0.0916909 7.47043472 -3 10 C-3.66 8.35 -4.32 6.7 -5 5 C-3.35 4.67 -1.7 4.34 0 4 C0 2.68 0 1.36 0 0 Z " fill="#1E4252" transform="translate(496,299)"/>
<path d="M0 0 C-0.33 1.32 -0.66 2.64 -1 4 C-1.66 3.67 -2.32 3.34 -3 3 C-7.14503661 2.75212983 -7.14503661 2.75212983 -11 4 C-11.66 3.34 -12.32 2.68 -13 2 C-11.39935157 1.46845258 -9.79431126 0.95011647 -8.1875 0.4375 C-7.29417969 0.14746094 -6.40085938 -0.14257812 -5.48046875 -0.44140625 C-3 -1 -3 -1 0 0 Z " fill="#283E4F" transform="translate(235,284)"/>
<path d="M0 0 C0.99 0.33 1.98 0.66 3 1 C-1 8.57142857 -1 8.57142857 -5 11 C-4.75 8.625 -4.75 8.625 -4 6 C-1.9375 4.6875 -1.9375 4.6875 0 4 C0 2.68 0 1.36 0 0 Z " fill="#203846" transform="translate(385,205)"/>
<path d="M0 0 C0.33 0 0.66 0 1 0 C1.22893297 3.03336186 1.36475845 5.97465051 1 9 C-1 11.0625 -1 11.0625 -3 12 C-2.49202991 7.6822542 -1.80317221 3.96697886 0 0 Z " fill="#80C0D7" transform="translate(534,201)"/>
<path d="M0 0 C5.61 0 11.22 0 17 0 C17 0.33 17 0.66 17 1 C16.20335937 1.06058594 15.40671875 1.12117188 14.5859375 1.18359375 C6.75667303 1.79667866 6.75667303 1.79667866 -1 3 C-0.67 2.01 -0.34 1.02 0 0 Z " fill="#72B2C9" transform="translate(289,121)"/>
<path d="M0 0 C0.33 0.99 0.66 1.98 1 3 C0.01 3 -0.98 3 -2 3 C-2.66 4.32 -3.32 5.64 -4 7 C-5.32 6.67 -6.64 6.34 -8 6 C-7.0479279 4.99403703 -6.08812654 3.99538437 -5.125 3 C-4.59132813 2.443125 -4.05765625 1.88625 -3.5078125 1.3125 C-2 0 -2 0 0 0 Z " fill="#89CCE5" transform="translate(363,500)"/>
<path d="M0 0 C0.66 0 1.32 0 2 0 C4.42857143 8.42857143 4.42857143 8.42857143 3 13 C0.89172945 9.83759418 0.66182535 8.49342531 0.375 4.8125 C0.30023437 3.91144531 0.22546875 3.01039063 0.1484375 2.08203125 C0.09945312 1.39496094 0.05046875 0.70789063 0 0 Z " fill="#283F4C" transform="translate(547,445)"/>
<path d="M0 0 C1.45606519 4.52092968 0.27032841 7.51648796 -1 12 C-1.66 12 -2.32 12 -3 12 C-2.88648483 10.18674449 -2.75887039 8.37436643 -2.625 6.5625 C-2.55539062 5.55316406 -2.48578125 4.54382813 -2.4140625 3.50390625 C-2.27742188 2.67761719 -2.14078125 1.85132813 -2 1 C-1.34 0.67 -0.68 0.34 0 0 Z " fill="#253C4C" transform="translate(267,446)"/>
<path d="M0 0 C0 0.33 0 0.66 0 1 C-4.40914783 2.10228696 -8.48382401 2.07654536 -13 2 C-13 1.34 -13 0.68 -13 0 C-8.37078475 -1.0161692 -4.65537393 -0.83796731 0 0 Z " fill="#81C7DA" transform="translate(325,405)"/>
<path d="M0 0 C0.99 0 1.98 0 3 0 C3 0.66 3 1.32 3 2 C3.66 2 4.32 2 5 2 C6.66670026 5.52948291 7.13583456 7.28272326 6 11 C4.99735282 9.35577799 3.99794896 7.70957779 3 6.0625 C2.443125 5.14597656 1.88625 4.22945313 1.3125 3.28515625 C0 1 0 1 0 0 Z " fill="#213948" transform="translate(359,378)"/>
<path d="M0 0 C1.32 0.33 2.64 0.66 4 1 C3.02501855 2.5027237 2.04490611 4.00211963 1.0625 5.5 C0.51722656 6.3353125 -0.02804687 7.170625 -0.58984375 8.03125 C-1.05519531 8.6809375 -1.52054687 9.330625 -2 10 C-2.33 10 -2.66 10 -3 10 C-3.36629408 5.72656908 -2.40814077 3.51187196 0 0 Z " fill="#253E49" transform="translate(373,300)"/>
<path d="M0 0 C0.66 0.33 1.32 0.66 2 1 C1.360625 1.763125 0.72125 2.52625 0.0625 3.3125 C-2.14232781 5.88246713 -2.14232781 5.88246713 -3 9 C-4.32 9 -5.64 9 -7 9 C-5.44499019 5.18315774 -2.96404505 2.80804268 0 0 Z " fill="#7DB9CD" transform="translate(382,295)"/>
<path d="M0 0 C0.99 0.33 1.98 0.66 3 1 C1.02 4.96 -0.96 8.92 -3 13 C-4 9 -4 9 -3 7 C-2.34 7 -1.68 7 -1 7 C-0.67 4.69 -0.34 2.38 0 0 Z " fill="#85C5DC" transform="translate(347,292)"/>
<path d="M0 0 C0.33 0.66 0.66 1.32 1 2 C1.66 2 2.32 2 3 2 C1.90931332 5.77545388 1.0916909 8.47043472 -2 11 C-1 3.57142857 -1 3.57142857 0 0 Z " fill="#294350" transform="translate(546,212)"/>
<path d="M0 0 C0.33 0 0.66 0 1 0 C1 4.62 1 9.24 1 14 C0.67 14 0.34 14 0 14 C-1.13764351 9.73383684 -2 6.43513689 -2 2 C-1.34 2 -0.68 2 0 2 C0 1.34 0 0.68 0 0 Z " fill="#243948" transform="translate(283,196)"/>
<path d="M0 0 C1.32 0 2.64 0 4 0 C4.66 0.99 5.32 1.98 6 3 C8.05003955 4.19232613 8.05003955 4.19232613 10 5 C9.67 6.32 9.34 7.64 9 9 C7.49704815 7.69088122 5.99770689 6.37761608 4.5 5.0625 C3.6646875 4.33160156 2.829375 3.60070312 1.96875 2.84765625 C1.3190625 2.23792969 0.669375 1.62820312 0 1 C0 0.67 0 0.34 0 0 Z " fill="#264350" transform="translate(362,137)"/>
<path d="M0 0 C1.1875 1.625 1.1875 1.625 2 4 C0.625 7.25 0.625 7.25 -1 10 C-1.66 10 -2.32 10 -3 10 C-3.33 10.66 -3.66 11.32 -4 12 C-3.33501617 7.61110675 -1.81242323 4.0188515 0 0 Z " fill="#7FBAD3" transform="translate(268,124)"/>
<path d="M0 0 C-0.66 0.66 -1.32 1.32 -2 2 C-2.99 2 -3.98 2 -5 2 C-5.33 2.99 -5.66 3.98 -6 5 C-7.65 4.67 -9.3 4.34 -11 4 C-10 2 -10 2 -7.75 0.875 C-4.98386705 -0.00513321 -2.87951649 -0.1645438 0 0 Z " fill="#87C8E3" transform="translate(291,107)"/>
<path d="M0 0 C2.97 1.65 5.94 3.3 9 5 C8.34 5.66 7.68 6.32 7 7 C4.69 6.01 2.38 5.02 0 4 C0 2.68 0 1.36 0 0 Z " fill="#89C9E1" transform="translate(477,520)"/>
<path d="M0 0 C3.3 0.99 6.6 1.98 10 3 C10 3.33 10 3.66 10 4 C6.37 4 2.74 4 -1 4 C-0.67 2.68 -0.34 1.36 0 0 Z " fill="#204051" transform="translate(469,389)"/>
<path d="M0 0 C0.66 0 1.32 0 2 0 C1.52269162 1.4589426 1.04308958 2.91713496 0.5625 4.375 C0.29566406 5.18710937 0.02882813 5.99921875 -0.24609375 6.8359375 C-1 9 -1 9 -2 11 C-2.66 11 -3.32 11 -4 11 C-3.67 9.02 -3.34 7.04 -3 5 C-2.34 5 -1.68 5 -1 5 C-0.67 3.35 -0.34 1.7 0 0 Z " fill="#88CCE5" transform="translate(308,371)"/>
<path d="M0 0 C2.3125 0.5625 2.3125 0.5625 5 2 C6.34776978 4.27962623 7.11364216 6.48087772 8 9 C7.01 9.495 7.01 9.495 6 10 C4.02 6.535 4.02 6.535 2 3 C1.34 3 0.68 3 0 3 C0 2.01 0 1.02 0 0 Z " fill="#82C7DF" transform="translate(320,346)"/>
<path d="M0 0 C3 1 3 1 4.16796875 3.06640625 C4.50441406 3.89011719 4.84085937 4.71382813 5.1875 5.5625 C5.53167969 6.38878906 5.87585938 7.21507812 6.23046875 8.06640625 C6.48441406 8.70449219 6.73835938 9.34257812 7 10 C6.34 10 5.68 10 5 10 C5 9.34 5 8.68 5 8 C4.01 7.67 3.02 7.34 2 7 C2 5.68 2 4.36 2 3 C1.34 3 0.68 3 0 3 C0 2.01 0 1.02 0 0 Z " fill="#86C7DE" transform="translate(338,345)"/>
<path d="M0 0 C1.1092904 3.32787119 1.01557588 4.6993784 0 8 C-0.99 8.66 -1.98 9.32 -3 10 C-3.66 9.34 -4.32 8.68 -5 8 C-3.35 5.36 -1.7 2.72 0 0 Z " fill="#83C6E1" transform="translate(326,301)"/>
<path d="M0 0 C2 4 2 4 2 7 C1.01 7.33 0.02 7.66 -1 8 C-1 9.65 -1 11.3 -1 13 C-1.99 13.495 -1.99 13.495 -3 14 C-2.01 9.38 -1.02 4.76 0 0 Z " fill="#274351" transform="translate(541,230)"/>
<path d="M0 0 C0.66 0.33 1.32 0.66 2 1 C-0.475 4.465 -0.475 4.465 -3 8 C-3.99 7.67 -4.98 7.34 -6 7 C-4.77065985 3.31197956 -3.06140622 2.27643027 0 0 Z " fill="#83CCDF" transform="translate(392,225)"/>
<path d="M0 0 C0.99 0.33 1.98 0.66 3 1 C3 1.66 3 2.32 3 3 C3.99 3.33 4.98 3.66 6 4 C6.33 4.99 6.66 5.98 7 7 C4 7 4 7 2.61328125 5.6875 C1.40885417 4.125 0.20442708 2.5625 -1 1 C-0.67 0.67 -0.34 0.34 0 0 Z " fill="#263C49" transform="translate(378,149)"/>
<path d="M0 0 C0.99 0.33 1.98 0.66 3 1 C0.48169253 4.12270126 -0.7261549 4.94523098 -4.75 5.75 C-6.35875 5.87375 -6.35875 5.87375 -8 6 C-5.38485683 3.87961365 -2.80362384 1.86908256 0 0 Z " fill="#2B4352" transform="translate(487,130)"/>
<path d="M0 0 C0.33 1.32 0.66 2.64 1 4 C-2.4019487 6.09350689 -5.05272412 6.17942163 -9 6 C-6 4 -3 2 0 0 Z " fill="#7ABCCF" transform="translate(529,529)"/>
<path d="M0 0 C3 0 3 0 4.6875 1.5 C5.120625 1.995 5.55375 2.49 6 3 C6 2.34 6 1.68 6 1 C6.99 1.33 7.98 1.66 9 2 C7.35 3.32 5.7 4.64 4 6 C2.62437146 4.71034824 1.29233607 3.37310707 0 2 C0 1.34 0 0.68 0 0 Z " fill="#1E3947" transform="translate(403,442)"/>
<path d="M0 0 C0 0.66 0 1.32 0 2 C-2.99480917 2.8723412 -5.63575911 3.10829766 -8.75 3.0625 C-9.54921875 3.05347656 -10.3484375 3.04445313 -11.171875 3.03515625 C-11.77515625 3.02355469 -12.3784375 3.01195312 -13 3 C-8.49192825 0.69441653 -5.09714099 -0.14158725 0 0 Z " fill="#2D5062" transform="translate(555,397)"/>
<path d="M0 0 C4.3177458 0.50797009 8.03302114 1.19682779 12 3 C11.67 3.66 11.34 4.32 11 5 C9.35 4.67 7.7 4.34 6 4 C6 3.34 6 2.68 6 2 C4.35 2 2.7 2 1 2 C0.67 1.34 0.34 0.68 0 0 Z " fill="#1C343E" transform="translate(212,383)"/>
<path d="M0 0 C3.44216672 2.6598561 3.99504674 5.90288286 5 10 C4.01 9.67 3.02 9.34 2 9 C2 8.01 2 7.02 2 6 C1.34 6 0.68 6 0 6 C0 4.02 0 2.04 0 0 Z " fill="#233E4D" transform="translate(504,372)"/>
<path d="M0 0 C0 0.33 0 0.66 0 1 C-1.58129029 1.22331199 -3.16521089 1.42804644 -4.75 1.625 C-6.07257813 1.79902344 -6.07257813 1.79902344 -7.421875 1.9765625 C-10.22859878 2.00207817 -11.63384866 1.44843844 -14 0 C-9.02936879 -0.91297308 -4.97063121 -0.91297308 0 0 Z " fill="#7FC2DA" transform="translate(311,252)"/>
<path d="M0 0 C3.81300782 3.2870757 5.22972246 6.39727838 7 11 C5.68 10.67 4.36 10.34 3 10 C2.814375 9.071875 2.814375 9.071875 2.625 8.125 C2.12802644 5.80879168 2.12802644 5.80879168 0 4 C0 2.68 0 1.36 0 0 Z " fill="#81C5DA" transform="translate(449,237)"/>
<path d="M0 0 C3.11198065 1.49836105 6.0534615 3.19933758 9 5 C8.67 5.99 8.34 6.98 8 8 C6.66102417 7.04956626 5.32894573 6.08940853 4 5.125 C3.2575 4.59132813 2.515 4.05765625 1.75 3.5078125 C1.1725 3.01023437 0.595 2.51265625 0 2 C0 1.34 0 0.68 0 0 Z " fill="#253F4E" transform="translate(458,503)"/>
<path d="M0 0 C0 1.32 0 2.64 0 4 C-1.96466413 5.06775224 -3.96855359 6.06553465 -6 7 C-6.66 6.67 -7.32 6.34 -8 6 C-7.0479279 4.99403703 -6.08812654 3.99538437 -5.125 3 C-4.59132813 2.443125 -4.05765625 1.88625 -3.5078125 1.3125 C-2 0 -2 0 0 0 Z " fill="#82C3D7" transform="translate(379,484)"/>
<path d="M0 0 C1.9375 0.3125 1.9375 0.3125 4 1 C4.33 1.99 4.66 2.98 5 4 C7.50447516 5.21869929 7.50447516 5.21869929 10 6 C9.01 6.66 8.02 7.32 7 8 C5.83035398 6.8572081 4.66435444 5.71068285 3.5 4.5625 C2.8503125 3.92441406 2.200625 3.28632813 1.53125 2.62890625 C0 1 0 1 0 0 Z " fill="#223544" transform="translate(434,480)"/>
<path d="M0 0 C0.66 0.66 1.32 1.32 2 2 C0.35 4.97 -1.3 7.94 -3 11 C-3.66 10.34 -4.32 9.68 -5 9 C-4.67 8.01 -4.34 7.02 -4 6 C-3.34 6 -2.68 6 -2 6 C-1.855625 5.195625 -1.71125 4.39125 -1.5625 3.5625 C-1 1 -1 1 0 0 Z " fill="#88C5DE" transform="translate(486,356)"/>
<path d="M0 0 C2 2 2 2 2 5 C1.01 5.495 1.01 5.495 0 6 C-0.72159424 7.64363134 -1.39351421 9.31050386 -2 11 C-2.66 11 -3.32 11 -4 11 C-3.52269162 9.5410574 -3.04308958 8.08286504 -2.5625 6.625 C-2.29566406 5.81289063 -2.02882813 5.00078125 -1.75390625 4.1640625 C-1 2 -1 2 0 0 Z " fill="#284151" transform="translate(317,355)"/>
<path d="M0 0 C5 2 5 2 10 4 C9.01 4.99 8.02 5.98 7 7 C5.83040013 6.02433888 4.66438823 5.044375 3.5 4.0625 C2.8503125 3.51722656 2.200625 2.97195313 1.53125 2.41015625 C1.0259375 1.94480469 0.520625 1.47945313 0 1 C0 0.67 0 0.34 0 0 Z " fill="#84C4DA" transform="translate(166,353)"/>
<path d="M0 0 C0.99 0.33 1.98 0.66 3 1 C1.27404519 4.45190963 -1.28314438 7.28314438 -4 10 C-3.125 4.25 -3.125 4.25 -2 2 C-1.34 2 -0.68 2 0 2 C0 1.34 0 0.68 0 0 Z " fill="#84C4DB" transform="translate(492,346)"/>
<path d="M0 0 C0.66 0.66 1.32 1.32 2 2 C1.69670231 5.84177074 0.47524576 8.09427672 -2 11 C-1.85892253 9.54119891 -1.71197585 8.08296449 -1.5625 6.625 C-1.48128906 5.81289063 -1.40007812 5.00078125 -1.31640625 4.1640625 C-1 2 -1 2 0 0 Z " fill="#234253" transform="translate(482,325)"/>
<path d="M0 0 C0.99 0 1.98 0 3 0 C5.7349101 2.93026082 7.72575695 5.17727085 9 9 C8.01 9.495 8.01 9.495 7 10 C6.01886757 8.70982586 5.04015801 7.41780894 4.0625 6.125 C3.24458984 5.04605469 3.24458984 5.04605469 2.41015625 3.9453125 C1 2 1 2 0 0 Z " fill="#89CBE0" transform="translate(633,308)"/>
<path d="M0 0 C3.96 0.33 7.92 0.66 12 1 C12 1.66 12 2.32 12 3 C7.06729471 4.6442351 4.45975807 3.18615592 0 1 C0 0.67 0 0.34 0 0 Z " fill="#80C4D7" transform="translate(595,287)"/>
<path d="M0 0 C3.24208567 0.35049575 4.61527704 0.56221181 6.8125 3.0625 C7.204375 3.701875 7.59625 4.34125 8 5 C4.40142046 5 2.90548882 4.04169485 0 2 C0 1.34 0 0.68 0 0 Z " fill="#1F3C4A" transform="translate(630,287)"/>
<path d="M0 0 C0.66 0 1.32 0 2 0 C2 1.98 2 3.96 2 6 C1.34 6 0.68 6 0 6 C0 6.66 0 7.32 0 8 C-0.99 8.33 -1.98 8.66 -3 9 C-2.01 6.03 -1.02 3.06 0 0 Z " fill="#2B4354" transform="translate(524,280)"/>
<path d="M0 0 C3.96 0.33 7.92 0.66 12 1 C12 1.99 12 2.98 12 4 C6.06 2.515 6.06 2.515 0 1 C0 0.67 0 0.34 0 0 Z " fill="#2C4554" transform="translate(581,267)"/>
<path d="M0 0 C0.75 1.625 0.75 1.625 1 4 C-0.9375 7.25 -0.9375 7.25 -3 10 C-3.66 9.67 -4.32 9.34 -5 9 C-3.7508258 5.54074837 -2.32472205 2.85306797 0 0 Z " fill="#83C5DB" transform="translate(375,223)"/>
<path d="M0 0 C0.33 1.32 0.66 2.64 1 4 C-1.4375 6.75 -1.4375 6.75 -4 9 C-4.66 8.67 -5.32 8.34 -6 8 C-4.02 5.36 -2.04 2.72 0 0 Z " fill="#264252" transform="translate(399,218)"/>
<path d="M0 0 C2.95929119 2.75520215 5.03681826 5.46627288 7 9 C5.68 9 4.36 9 3 9 C3 7.68 3 6.36 3 5 C2.01 4.67 1.02 4.34 0 4 C0 2.68 0 1.36 0 0 Z " fill="#87CDDF" transform="translate(417,194)"/>
<path d="M0 0 C6.57142857 5.14285714 6.57142857 5.14285714 8 9 C4.63704165 7.55873214 2.37072898 5.79407345 0 3 C0 2.01 0 1.02 0 0 Z " fill="#86C8DA" transform="translate(394,168)"/>
<path d="M0 0 C1.32 0.66 2.64 1.32 4 2 C1.03 4.475 1.03 4.475 -2 7 C-2.33 5.68 -2.66 4.36 -3 3 C-2.01 3 -1.02 3 0 3 C0 2.01 0 1.02 0 0 Z " fill="#81C2DC" transform="translate(436,169)"/>
<path d="M0 0 C0.66 0.99 1.32 1.98 2 3 C-0.97 5.475 -0.97 5.475 -4 8 C-4.66 7.34 -5.32 6.68 -6 6 C-4 4 -2 2 0 0 Z " fill="#25404A" transform="translate(449,160)"/>
<path d="M0 0 C-4.95 2.475 -4.95 2.475 -10 5 C-10.33 4.34 -10.66 3.68 -11 3 C-10.01 3 -9.02 3 -8 3 C-8 2.34 -8 1.68 -8 1 C-4.59449725 -1.06762667 -4.18836538 -1.04709135 0 0 Z " fill="#8AC8E1" transform="translate(333,540)"/>
<path d="M0 0 C3.3 0.99 6.6 1.98 10 3 C10 3.66 10 4.32 10 5 C5.75776898 5.3636198 3.41831915 4.5393228 0 2 C0 1.34 0 0.68 0 0 Z " fill="#88CFE5" transform="translate(496,531)"/>
<path d="M0 0 C0.33 0.66 0.66 1.32 1 2 C-2.01887244 5.48331435 -4.56909529 6.79157144 -9 8 C-6.14723863 5.06799526 -3.34920216 2.35684596 0 0 Z " fill="#21414C" transform="translate(358,522)"/>
<path d="M0 0 C0.33 0 0.66 0 1 0 C1 3.63 1 7.26 1 11 C0.01 11 -0.98 11 -2 11 C-1.125 3.375 -1.125 3.375 0 0 Z " fill="#2D4759" transform="translate(283,447)"/>
<path d="M0 0 C5.28 0 10.56 0 16 0 C16 0.33 16 0.66 16 1 C15.02417969 1.06058594 14.04835938 1.12117188 13.04296875 1.18359375 C11.13451172 1.30927734 11.13451172 1.30927734 9.1875 1.4375 C7.92292969 1.51871094 6.65835937 1.59992188 5.35546875 1.68359375 C2.00818107 1.87184547 2.00818107 1.87184547 -1 3 C-0.67 2.01 -0.34 1.02 0 0 Z " fill="#1A3346" transform="translate(455,411)"/>
<path d="M0 0 C0.99 0 1.98 0 3 0 C2.67 2.31 2.34 4.62 2 7 C1.01 7.33 0.02 7.66 -1 8 C-0.67 5.36 -0.34 2.72 0 0 Z " fill="#81C3D9" transform="translate(292,408)"/>
<path d="M0 0 C3.96 0.33 7.92 0.66 12 1 C12 1.66 12 2.32 12 3 C9.03 3 6.06 3 3 3 C3 2.34 3 1.68 3 1 C2.01 0.67 1.02 0.34 0 0 Z " fill="#84C5DB" transform="translate(272,384)"/>
<path d="M0 0 C2.31 0.66 4.62 1.32 7 2 C7.33 3.65 7.66 5.3 8 7 C4.2047869 5.50902342 2.38957269 3.24299151 0 0 Z " fill="#79BCD0" transform="translate(376,355)"/>
<path d="M0 0 C0.99 0 1.98 0 3 0 C1.7508258 3.45925163 0.32472205 6.14693203 -2 9 C-1.125 2.25 -1.125 2.25 0 0 Z " fill="#213949" transform="translate(468,352)"/>
<path d="M0 0 C0.99 1.32 1.98 2.64 3 4 C1.68 5.32 0.36 6.64 -1 8 C-1.99 7.67 -2.98 7.34 -4 7 C-2.68 4.69 -1.36 2.38 0 0 Z " fill="#81C3DA" transform="translate(641,336)"/>
<path d="M0 0 C0.99 0.33 1.98 0.66 3 1 C2.4740625 1.804375 2.4740625 1.804375 1.9375 2.625 C0.71075751 5.73274763 1.27143569 7.79431703 2 11 C1.34 11 0.68 11 0 11 C-1.49297212 8.01405576 -1.11755228 5.29146376 -1 2 C-0.67 1.34 -0.34 0.68 0 0 Z " fill="#87C9E3" transform="translate(331,322)"/>
<path d="M0 0 C2.97 0.33 5.94 0.66 9 1 C9.33 1.99 9.66 2.98 10 4 C6.7 3.34 3.4 2.68 0 2 C0 1.34 0 0.68 0 0 Z " fill="#264653" transform="translate(548,257)"/>
<path d="M0 0 C3.63 0.33 7.26 0.66 11 1 C11 1.33 11 1.66 11 2 C3.08 2.495 3.08 2.495 -5 3 C-5 2.67 -5 2.34 -5 2 C-3.35 2 -1.7 2 0 2 C0 1.34 0 0.68 0 0 Z " fill="#426D78" transform="translate(329,246)"/>
<path d="M0 0 C0.33 0.66 0.66 1.32 1 2 C-0.125 3.9375 -0.125 3.9375 -2 6 C-5.1875 6.75 -5.1875 6.75 -8 7 C-5.42215154 4.35247996 -3.08351902 2.05567935 0 0 Z " fill="#223C4B" transform="translate(478,136)"/>
<path d="M0 0 C2.97 0.99 5.94 1.98 9 3 C8.67 3.66 8.34 4.32 8 5 C4.7 4.01 1.4 3.02 -2 2 C-1.34 1.34 -0.68 0.68 0 0 Z " fill="#294553" transform="translate(318,108)"/>
<path d="M0 0 C1.32 0.33 2.64 0.66 4 1 C-0.455 3.97 -0.455 3.97 -5 7 C-5 6.01 -5 5.02 -5 4 C-4.01 4 -3.02 4 -2 4 C-2 3.34 -2 2.68 -2 2 C-1.34 2 -0.68 2 0 2 C0 1.34 0 0.68 0 0 Z " fill="#85C8DB" transform="translate(346,528)"/>
<path d="M0 0 C3.53372712 1.96318174 6.24479785 4.04070881 9 7 C4.71193127 6.52354792 2.73352513 5.34097516 0 2 C0 1.34 0 0.68 0 0 Z " fill="#87C4D9" transform="translate(464,510)"/>
<path d="M0 0 C0.763125 0.639375 1.52625 1.27875 2.3125 1.9375 C4.88246713 4.14232781 4.88246713 4.14232781 8 5 C8.33 5.99 8.66 6.98 9 8 C6 8 6 8 4.39453125 6.7578125 C3.87246094 6.21898437 3.35039062 5.68015625 2.8125 5.125 C2.28269531 4.59132813 1.75289063 4.05765625 1.20703125 3.5078125 C0 2 0 2 0 0 Z " fill="#8DC9E3" transform="translate(440,506)"/>
<path d="M0 0 C0.99 0.33 1.98 0.66 3 1 C1.38405168 3.04119788 -0.2856382 5.04072937 -2 7 C-2.66 7 -3.32 7 -4 7 C-3.02391783 4.07175348 -1.89213369 2.38573379 0 0 Z " fill="#27394A" transform="translate(381,476)"/>
<path d="M0 0 C0.99 0.33 1.98 0.66 3 1 C3.33 1.99 3.66 2.98 4 4 C2.02 4.66 0.04 5.32 -2 6 C-1.125 1.125 -1.125 1.125 0 0 Z " fill="#1E3644" transform="translate(406,475)"/>
<path d="M0 0 C0.33 0.66 0.66 1.32 1 2 C-1.17508418 6.69360269 -1.17508418 6.69360269 -4.1875 7.8125 C-4.785625 7.874375 -5.38375 7.93625 -6 8 C-2.25 2.25 -2.25 2.25 0 0 Z " fill="#8ACBDE" transform="translate(396,463)"/>
<path d="M0 0 C1.32 0.33 2.64 0.66 4 1 C4.33 2.32 4.66 3.64 5 5 C5.66 5 6.32 5 7 5 C6.67 6.32 6.34 7.64 6 9 C4.02 6.03 2.04 3.06 0 0 Z " fill="#89C8DD" transform="translate(380,439)"/>
<path d="M0 0 C0 0.66 0 1.32 0 2 C-2.97 2.66 -5.94 3.32 -9 4 C-8.67 3.01 -8.34 2.02 -8 1 C-2.25 0 -2.25 0 0 0 Z " fill="#87C8DE" transform="translate(584,387)"/>
<path d="M0 0 C0.33 0.66 0.66 1.32 1 2 C-0.625 4 -0.625 4 -3 6 C-6.25 6.25 -6.25 6.25 -9 6 C-6.11964908 3.75972706 -3.15133488 1.83827868 0 0 Z " fill="#25414F" transform="translate(633,366)"/>
<path d="M0 0 C1.2065625 0.0309375 1.2065625 0.0309375 2.4375 0.0625 C-1.1875 4.9375 -1.1875 4.9375 -4.5625 6.0625 C-3.48963568 0.08511307 -3.48963568 0.08511307 0 0 Z " fill="#85C2D8" transform="translate(645.5625,353.9375)"/>
<path d="M0 0 C-1.44253657 3.36591866 -3.33264727 5.51047079 -6 8 C-5.62403791 5.21788056 -5.32681541 3.4120716 -3.5625 1.1875 C-2 0 -2 0 0 0 Z " fill="#83C4D4" transform="translate(654,346)"/>
<path d="M0 0 C1 3 1 3 0.22265625 5.04296875 C-0.16019531 5.75066406 -0.54304688 6.45835937 -0.9375 7.1875 C-1.31777344 7.90292969 -1.69804687 8.61835938 -2.08984375 9.35546875 C-2.54037109 10.16951172 -2.54037109 10.16951172 -3 11 C-3.83583327 8.62392051 -4.1842383 7.45550373 -3.22265625 5.078125 C-1.61132812 2.5390625 -1.61132812 2.5390625 0 0 Z " fill="#8ECFE9" transform="translate(312,329)"/>
<path d="M0 0 C1.32 0.33 2.64 0.66 4 1 C4.33 3.64 4.66 6.28 5 9 C0.57142857 3.85714286 0.57142857 3.85714286 0 0 Z " fill="#243C4C" transform="translate(483,290)"/>
<path d="M0 0 C2.75 -0.25 2.75 -0.25 6 0 C8.375 2 8.375 2 10 4 C6.13304322 4 3.4911548 2.58090029 0 1 C0 0.67 0 0.34 0 0 Z " fill="#2F4E5C" transform="translate(421,289)"/>
<path d="M0 0 C-1.31224548 3.93673644 -2.91910327 6.22719294 -6 9 C-5.38983051 3.50847458 -5.38983051 3.50847458 -3.5625 1.125 C-2 0 -2 0 0 0 Z " fill="#1F3846" transform="translate(338,280)"/>
<path d="M0 0 C0.99 0 1.98 0 3 0 C2.34 1.65 1.68 3.3 1 5 C-1.97 5 -4.94 5 -8 5 C-8 4.67 -8 4.34 -8 4 C-5.69 4 -3.38 4 -1 4 C-0.67 2.68 -0.34 1.36 0 0 Z " fill="#203745" transform="translate(360,240)"/>
<path d="M0 0 C2.5 2.25 2.5 2.25 5 5 C5 6.32 5 7.64 5 9 C4.34 9.66 3.68 10.32 3 11 C0.85714286 3.57142857 0.85714286 3.57142857 0 0 Z " fill="#23404F" transform="translate(391,188)"/>
<path d="M0 0 C0.625 1.8125 0.625 1.8125 1 4 C0.01 5.485 0.01 5.485 -1 7 C-2.32 6.34 -3.64 5.68 -5 5 C-3.35 3.35 -1.7 1.7 0 0 Z " fill="#84C1D5" transform="translate(420,168)"/>
<path d="M0 0 C-1.29299694 2.88437779 -2.65941363 4.87219421 -5 7 C-5.99 6.67 -6.98 6.34 -8 6 C-7.0479279 4.99403703 -6.08812654 3.99538437 -5.125 3 C-4.59132813 2.443125 -4.05765625 1.88625 -3.5078125 1.3125 C-2 0 -2 0 0 0 Z " fill="#192C36" transform="translate(445,167)"/>
<path d="M0 0 C2.4375 0.8125 2.4375 0.8125 5 2 C5.33 2.99 5.66 3.98 6 5 C6.99 5.33 7.98 5.66 9 6 C8.34 6.66 7.68 7.32 7 8 C5.83035398 6.8572081 4.66435444 5.71068285 3.5 4.5625 C2.8503125 3.92441406 2.200625 3.28632813 1.53125 2.62890625 C0 1 0 1 0 0 Z " fill="#254052" transform="translate(384,157)"/>
<path d="M0 0 C-3.28463659 2.18975773 -6.20696275 2.99806563 -10 4 C-10.66 3.34 -11.32 2.68 -12 2 C-7.8794254 0.00214565 -4.54805635 -0.17835515 0 0 Z " fill="#233A4A" transform="translate(504,107)"/>
<path d="M0 0 C2.31 0.33 4.62 0.66 7 1 C7 2.32 7 3.64 7 5 C3.535 3.02 3.535 3.02 0 1 C0 0.67 0 0.34 0 0 Z " fill="#81C4DF" transform="translate(463,527)"/>
<path d="M0 0 C1.875 0.6875 1.875 0.6875 4 2 C4.72159424 3.64363134 5.39351421 5.31050386 6 7 C6.66 7.33 7.32 7.66 8 8 C7.01 8 6.02 8 5 8 C3.61328125 6.50390625 3.61328125 6.50390625 2.3125 4.5625 C1.87550781 3.92441406 1.43851562 3.28632813 0.98828125 2.62890625 C0 1 0 1 0 0 Z " fill="#84C9DE" transform="translate(387,448)"/>
<path d="M0 0 C0.99 0 1.98 0 3 0 C1.55746343 3.36591866 -0.33264727 5.51047079 -3 8 C-2.67 6.35 -2.34 4.7 -2 3 C-1.34 3 -0.68 3 0 3 C0 2.01 0 1.02 0 0 Z " fill="#88CEE2" transform="translate(437,432)"/>
<path d="M0 0 C0.99 0.66 1.98 1.32 3 2 C3 2.66 3 3.32 3 4 C2.01 4.33 1.02 4.66 0 5 C-0.33 5.66 -0.66 6.32 -1 7 C-1.66 7 -2.32 7 -3 7 C-1.125 1.125 -1.125 1.125 0 0 Z " fill="#1F4355" transform="translate(321,348)"/>
<path d="M0 0 C0.66 0.99 1.32 1.98 2 3 C1.34 3 0.68 3 0 3 C-0.2165625 3.928125 -0.2165625 3.928125 -0.4375 4.875 C-1 7 -1 7 -2 9 C-2.66 9 -3.32 9 -4 9 C-2.94124926 5.59687262 -1.99097846 2.98646769 0 0 Z " fill="#2C4F59" transform="translate(446,343)"/>
<path d="M0 0 C0.66 0.33 1.32 0.66 2 1 C0.25 6.75 0.25 6.75 -2 9 C-2 6.69 -2 4.38 -2 2 C-1.34 2 -0.68 2 0 2 C0 1.34 0 0.68 0 0 Z " fill="#83CBDE" transform="translate(508,312)"/>
<path d="M0 0 C2.52349243 3.12432397 4.27256146 6.38060496 6 10 C5.01 10 4.02 10 3 10 C2.566875 8.2984375 2.566875 8.2984375 2.125 6.5625 C1.75375 5.386875 1.3825 4.21125 1 3 C0.34 2.67 -0.32 2.34 -1 2 C-0.67 1.34 -0.34 0.68 0 0 Z " fill="#83C1D7" transform="translate(470,269)"/>
<path d="M0 0 C1.64826111 2.96687001 2.44271087 5.65626525 3 9 C2.01 9.495 2.01 9.495 1 10 C0.63883954 8.5225254 0.28624952 7.04295325 -0.0625 5.5625 C-0.25972656 4.73878906 -0.45695312 3.91507813 -0.66015625 3.06640625 C-0.82837891 2.04353516 -0.82837891 2.04353516 -1 1 C-0.67 0.67 -0.34 0.34 0 0 Z " fill="#233848" transform="translate(288,220)"/>
<path d="M0 0 C2.5 2.3125 2.5 2.3125 5 5 C5 5.99 5 6.98 5 8 C2.5 5.6875 2.5 5.6875 0 3 C0 2.01 0 1.02 0 0 Z " fill="#88C5DC" transform="translate(428,209)"/>
<path d="M0 0 C0.66 0.66 1.32 1.32 2 2 C1.34 2 0.68 2 0 2 C-0.12375 2.61875 -0.2475 3.2375 -0.375 3.875 C-1 6 -1 6 -3 8 C-3.99 7.67 -4.98 7.34 -6 7 C-4.02 4.69 -2.04 2.38 0 0 Z " fill="#224552" transform="translate(407,208)"/>
<path d="M0 0 C0.33 0.66 0.66 1.32 1 2 C-2.32307692 5.93846154 -2.32307692 5.93846154 -5.75 6.25 C-6.4925 6.1675 -7.235 6.085 -8 6 C-5.63379989 3.38472619 -3.057952 1.73559438 0 0 Z " fill="#234051" transform="translate(340,535)"/>
<path d="M0 0 C0.33 0 0.66 0 1 0 C1.33 2.31 1.66 4.62 2 7 C1.01 7.66 0.02 8.32 -1 9 C-2.25541557 5.23375329 -1.37061958 3.62811066 0 0 Z " fill="#2A4553" transform="translate(550,522)"/>
<path d="M0 0 C2.875 0.3125 2.875 0.3125 6 1 C6.66 1.99 7.32 2.98 8 4 C7.01 4.33 6.02 4.66 5 5 C3.35 3.35 1.7 1.7 0 0 Z " fill="#83C6D8" transform="translate(448,515)"/>
<path d="M0 0 C0.99 0 1.98 0 3 0 C3.33 2.64 3.66 5.28 4 8 C0 3.375 0 3.375 0 0 Z " fill="#264250" transform="translate(528,442)"/>
<path d="M0 0 C2.67927341 4.01891012 2.15601248 6.24161923 2 11 C0.11772118 7.73738338 -0.58481145 4.73669693 -1 1 C-0.67 0.67 -0.34 0.34 0 0 Z " fill="#7ABACD" transform="translate(527,426)"/>
<path d="M0 0 C1 3 1 3 -0.4375 6.1875 C-1.2109375 7.5796875 -1.2109375 7.5796875 -2 9 C-2.99 8.67 -3.98 8.34 -5 8 C-3.35 5.36 -1.7 2.72 0 0 Z " fill="#88BFDC" transform="translate(460,371)"/>
<path d="M0 0 C2.79872437 2.52788007 4.45773019 4.20411134 5 8 C2 7 2 7 0 4 C0 2.68 0 1.36 0 0 Z " fill="#88C3DF" transform="translate(352,368)"/>
<path d="M0 0 C2.97 0.33 5.94 0.66 9 1 C9 1.99 9 2.98 9 4 C6.03 3.01 3.06 2.02 0 1 C0 0.67 0 0.34 0 0 Z " fill="#234251" transform="translate(206,363)"/>
<path d="M0 0 C0.6875 1.625 0.6875 1.625 1 4 C-0.4375 7.25 -0.4375 7.25 -2 10 C-2.66 8.68 -3.32 7.36 -4 6 C-3.34 5.67 -2.68 5.34 -2 5 C-1.27840576 3.35636866 -0.60648579 1.68949614 0 0 Z " fill="#7AB5CE" transform="translate(447,336)"/>
<path d="M0 0 C0.66 0.33 1.32 0.66 2 1 C0.515 4.465 0.515 4.465 -1 8 C-1.66 7.67 -2.32 7.34 -3 7 C-2.25 2.25 -2.25 2.25 0 0 Z " fill="#223B47" transform="translate(508,273)"/>
<path d="M0 0 C0.66 0.99 1.32 1.98 2 3 C0.68 5.31 -0.64 7.62 -2 10 C-2.66 9.34 -3.32 8.68 -4 8 C-3.34 7.34 -2.68 6.68 -2 6 C-1.28591666 4.01643517 -0.61382258 2.01684563 0 0 Z " fill="#243D4B" transform="translate(342,268)"/>
<path d="M0 0 C0.66 0.33 1.32 0.66 2 1 C1.67 3.64 1.34 6.28 1 9 C0.34 8.34 -0.32 7.68 -1 7 C-0.625 3.375 -0.625 3.375 0 0 Z " fill="#86C9E1" transform="translate(546,203)"/>
<path d="M0 0 C1.98 1.65 3.96 3.3 6 5 C5.34 5.66 4.68 6.32 4 7 C2.68 6.34 1.36 5.68 0 5 C0 3.35 0 1.7 0 0 Z " fill="#86C7DF" transform="translate(372,146)"/>
<path d="M0 0 C0.66 0 1.32 0 2 0 C2 0.66 2 1.32 2 2 C3.32 2.33 4.64 2.66 6 3 C6 3.99 6 4.98 6 6 C3.37812506 4.95125002 2.20628639 4.35068687 0.75 1.875 C0.5025 1.25625 0.255 0.6375 0 0 Z " fill="#1A323F" transform="translate(372,144)"/>
<path d="M0 0 C4.24822374 0.47202486 6.19989709 2.96655518 9 6 C5.51669784 5.35494404 2.90567134 4.01782732 0 2 C0 1.34 0 0.68 0 0 Z " fill="#1E3F49" transform="translate(336,137)"/>
<path d="M0 0 C4 0 4 0 5.75 1.375 C7 3 7 3 7 5 C4.0625 4.1875 4.0625 4.1875 1 3 C0.67 2.01 0.34 1.02 0 0 Z " fill="#86C5DC" transform="translate(480,537)"/>
<path d="M0 0 C1.32 0.33 2.64 0.66 4 1 C-0.75 5 -0.75 5 -3 5 C-3 4.34 -3 3.68 -3 3 C-2.34 3 -1.68 3 -1 3 C-0.67 2.01 -0.34 1.02 0 0 Z " fill="#203540" transform="translate(526,528)"/>
<path d="M0 0 C0.33 0 0.66 0 1 0 C1.25 2.3125 1.25 2.3125 1 5 C-1 6.8125 -1 6.8125 -3 8 C-2.45276317 4.62537285 -1.9451 2.91765 0 0 Z " fill="#86CDDE" transform="translate(533,524)"/>
<path d="M0 0 C2.9375 0.75 2.9375 0.75 6 2 C6.875 4.125 6.875 4.125 7 6 C3.73539027 4.19587357 2.11070205 3.16605307 0 0 Z " fill="#8BC6DC" transform="translate(455,520)"/>
<path d="M0 0 C0.66 0.33 1.32 0.66 2 1 C2 1.66 2 2.32 2 3 C-1.46153846 6 -1.46153846 6 -4 6 C-3.6875 4.125 -3.6875 4.125 -3 2 C-2.01 1.34 -1.02 0.68 0 0 Z " fill="#8BD3ED" transform="translate(374,489)"/>
<path d="M0 0 C0.99 0 1.98 0 3 0 C2.67 1.32 2.34 2.64 2 4 C0.35 4 -1.3 4 -3 4 C-1.6875 2 -1.6875 2 0 0 Z " fill="#82CAD9" transform="translate(387,473)"/>
<path d="M0 0 C0.99 0.66 1.98 1.32 3 2 C1.68 3.32 0.36 4.64 -1 6 C-1.66 5.34 -2.32 4.68 -3 4 C-2.01 2.68 -1.02 1.36 0 0 Z " fill="#82C6DB" transform="translate(413,441)"/>
<path d="M0 0 C0.33 0.66 0.66 1.32 1 2 C0.06553465 4.03144641 -0.93224776 6.03533587 -2 8 C-2.99 8 -3.98 8 -5 8 C-3.62845496 5.04590299 -2.01136276 2.55991624 0 0 Z " fill="#294151" transform="translate(441,431)"/>
<path d="M0 0 C0.33 1.32 0.66 2.64 1 4 C-1.97 6.475 -1.97 6.475 -5 9 C-5 6 -5 6 -3.0625 3.9375 C-2.381875 3.298125 -1.70125 2.65875 -1 2 C-0.67 1.34 -0.34 0.68 0 0 Z " fill="#87C8E1" transform="translate(449,389)"/>
<path d="M0 0 C-0.33 0.99 -0.66 1.98 -1 3 C-3.375 3.625 -3.375 3.625 -6 4 C-6.66 3.34 -7.32 2.68 -8 2 C-2.25 0 -2.25 0 0 0 Z " fill="#264052" transform="translate(595,385)"/>
<path d="M0 0 C2.25245881 2.68841859 3.88213958 4.64641875 5 8 C4.01 8.33 3.02 8.66 2 9 C0.50178941 5.62902617 0 3.79557881 0 0 Z " fill="#86C2DA" transform="translate(359,379)"/>
<path d="M0 0 C6.52307692 -0.36923077 6.52307692 -0.36923077 8.9375 1.5 C9.288125 1.995 9.63875 2.49 10 3 C3.375 2.25 3.375 2.25 0 0 Z " fill="#274456" transform="translate(226,371)"/>
<path d="M0 0 C4.875 4.75 4.875 4.75 6 7 C4.35 6.67 2.7 6.34 1 6 C0.67 4.02 0.34 2.04 0 0 Z " fill="#254354" transform="translate(160,346)"/>
<path d="M0 0 C0.99 0.33 1.98 0.66 3 1 C1.515 4.465 1.515 4.465 0 8 C-1.125 6.25 -1.125 6.25 -2 4 C-1.125 1.75 -1.125 1.75 0 0 Z " fill="#85C5E4" transform="translate(511,305)"/>
<path d="M0 0 C0.99 0 1.98 0 3 0 C2.01 2.97 1.02 5.94 0 9 C-0.33 9 -0.66 9 -1 9 C-0.67 6.03 -0.34 3.06 0 0 Z " fill="#24414D" transform="translate(499,291)"/>
<path d="M0 0 C0.33 0.99 0.66 1.98 1 3 C-0.32 3.99 -1.64 4.98 -3 6 C-3.99 5.34 -4.98 4.68 -6 4 C-4.02 2.68 -2.04 1.36 0 0 Z " fill="#86C6DD" transform="translate(470,124)"/>
</svg>
