<svg version="1.1" id="Layer_1" xmlns="http://www.w3.org/2000/svg" xmlns:xlink="http://www.w3.org/1999/xlink" x="0px" y="0px"
	 width="100%" viewBox="0 0 900 900" enable-background="new 0 0 900 900" xml:space="preserve">
<path fill="#0199FF" opacity="1.000000" stroke="none" 
	d="
M527.000000,901.000000 
	C351.333344,901.000000 176.166672,901.000000 1.000000,901.000000 
	C1.000000,601.000000 1.000000,301.000000 1.000000,1.000000 
	C301.000000,1.000000 601.000000,1.000000 901.000000,1.000000 
	C901.000000,301.000000 901.000000,601.000000 901.000000,901.000000 
	C776.500000,901.000000 652.000000,901.000000 527.000000,901.000000 
M348.344299,762.769470 
	C350.019196,762.041077 351.810699,761.502197 353.350494,760.554382 
	C365.797028,752.893127 378.235687,745.217529 390.594147,737.415588 
	C397.302185,733.180725 399.207611,725.395691 395.414948,718.808655 
	C392.103912,713.058105 385.002167,711.239319 377.963562,715.046387 
	C372.146454,718.192688 366.762360,722.138184 361.178192,725.716675 
	C342.876465,737.445129 323.783142,747.433899 302.227692,751.733093 
	C291.344116,753.903687 280.405762,754.442261 269.922943,749.854004 
	C255.238297,743.426819 247.975220,730.973755 244.163147,716.305847 
	C239.760681,699.366211 240.382736,682.081909 241.468430,664.746582 
	C242.837250,642.890686 247.598038,621.640381 253.696350,600.839478 
	C260.184143,578.710022 268.145752,556.952820 276.587616,535.474792 
	C283.514038,517.852417 292.058990,500.864319 299.974457,483.635468 
	C300.813660,481.808868 302.244019,480.253876 303.465210,478.478302 
	C304.467896,479.215027 305.027832,479.413757 305.211700,479.794250 
	C307.162048,483.829987 308.997894,487.921326 310.968048,491.947113 
	C331.676697,534.263245 353.990540,575.651794 380.087463,614.969788 
	C402.092041,648.122192 425.877808,679.889404 453.002472,708.963379 
	C477.209534,734.909973 503.163147,758.981628 534.451721,776.575928 
	C554.322021,787.749329 574.964722,795.943726 598.238525,794.978577 
	C618.166138,794.152283 634.533081,785.868591 646.718628,770.104187 
	C662.649963,749.493835 666.913574,724.955322 668.875793,699.914124 
	C669.648376,690.054382 669.470764,680.056763 668.898071,670.169861 
	C668.026550,655.123901 667.695007,639.878418 664.876709,625.149658 
	C659.581482,597.476013 654.095276,569.686951 646.056702,542.730713 
	C637.048218,512.522156 625.525879,483.030090 614.301758,453.528992 
	C608.402893,438.024628 600.907593,423.119171 593.923279,408.040466 
	C591.136780,402.024506 583.847046,399.394226 577.827209,401.703552 
	C571.333984,404.194489 567.831360,410.882263 570.333435,417.486969 
	C573.212219,425.085968 577.021729,432.327393 580.059937,439.871918 
	C591.167236,467.453613 603.160583,494.739502 612.818787,522.825134 
	C621.174744,547.124084 627.271057,572.242920 633.522583,597.210571 
	C639.494324,621.060913 643.013916,645.365173 643.209717,670.042786 
	C643.275269,678.301941 643.353027,686.565063 643.183167,694.821289 
	C642.813232,712.798584 639.985229,730.344177 631.108948,746.215393 
	C623.188354,760.377747 611.832764,769.466919 594.352783,769.337830 
	C579.494019,769.228149 566.240234,764.147705 553.572021,757.492981 
	C532.106445,746.216797 513.272400,731.132385 495.694458,714.565063 
	C474.247925,694.351746 454.702271,672.351135 436.615723,649.098145 
	C409.110321,613.735718 384.527771,576.365906 363.436920,536.884094 
	C348.634979,509.175049 335.740540,480.450317 321.767456,452.291718 
	C319.620789,447.965698 320.030701,444.616760 322.433624,440.707153 
	C331.045959,426.694580 339.001434,412.259766 348.023071,398.521637 
	C361.608704,377.833527 375.952545,357.644592 389.799469,337.125671 
	C392.283569,333.444672 395.310974,332.354065 399.484070,332.495575 
	C410.960815,332.884705 422.445251,333.227448 433.927216,333.245728 
	C461.500397,333.289642 488.947693,335.217743 516.251648,338.883881 
	C540.055237,342.080048 563.946777,344.984253 587.505127,349.539642 
	C610.290039,353.945465 632.874695,359.667633 655.234253,365.929504 
	C693.197144,376.561310 729.590332,391.102448 762.380310,413.476685 
	C775.638062,422.523102 787.495911,433.168091 796.227539,446.869171 
	C804.520874,459.882446 806.469421,473.435425 799.026001,487.494446 
	C793.219177,498.462280 784.363770,506.771606 774.569946,514.074402 
	C760.330627,524.691895 744.365479,532.143066 728.069092,538.983398 
	C725.434631,540.089172 722.606628,541.769714 720.963318,543.993835 
	C717.053650,549.285522 717.531799,555.486511 721.410217,560.037598 
	C725.373962,564.688782 731.315613,566.080200 737.684937,562.979553 
	C752.454712,555.789490 767.440491,548.915588 781.622559,540.680359 
	C797.130493,531.675171 810.372009,519.751038 819.614075,504.017883 
	C826.125732,492.932739 829.752014,480.839691 830.803345,468.084869 
	C831.022278,465.428864 828.861145,462.664581 828.443542,459.854095 
	C825.484192,439.940338 814.642578,424.277130 800.778320,410.777924 
	C784.599304,395.024841 765.493774,383.093048 745.378662,372.982452 
	C720.974854,360.716187 695.715820,350.315369 669.317139,343.282532 
	C641.433350,335.854065 613.372681,328.945892 585.128662,323.061676 
	C565.386536,318.948700 545.234070,316.729492 525.211975,314.061310 
	C510.778717,312.137909 496.291260,310.343231 481.768951,309.432983 
	C461.362518,308.153931 440.900452,307.769135 420.465515,306.922180 
	C419.082672,306.864838 417.727539,306.139313 416.359497,305.724548 
	C416.852386,304.247345 416.955353,302.432556 417.897583,301.344482 
	C429.195251,288.297974 440.133240,274.889893 452.132812,262.514435 
	C466.255493,247.949326 481.121826,234.081818 496.040680,220.318253 
	C513.039490,204.635773 531.402466,190.643234 551.202209,178.640366 
	C571.070312,166.596039 591.666016,156.234802 615.217529,153.641754 
	C629.190308,152.103348 641.521179,155.593933 651.477295,166.110107 
	C661.358887,176.547501 665.350403,189.613083 666.794006,203.217636 
	C669.277954,226.627594 667.607666,249.974991 662.873901,273.075500 
	C661.242676,281.035522 664.694153,287.439453 671.166565,288.887848 
	C679.999573,290.864594 685.949707,286.878143 687.961365,277.850159 
	C692.579834,257.122742 693.754700,236.127960 693.351196,214.960602 
	C693.089111,201.212006 690.904297,187.890137 686.335144,174.910599 
	C680.744263,159.028961 671.777771,145.767136 657.031860,137.098785 
	C639.265564,126.654922 620.089111,125.899368 600.476929,129.852798 
	C574.277954,135.133972 551.152710,147.477737 529.009521,161.845581 
	C507.506836,175.797806 487.276093,191.433289 468.926147,209.357849 
	C452.755524,225.153580 436.374207,240.790771 421.094208,257.424194 
	C407.300690,272.439453 394.926331,288.754364 381.760193,304.356079 
	C380.424713,305.938599 378.010040,307.319916 375.987823,307.487579 
	C368.208313,308.132660 360.379028,308.145142 352.579041,308.583893 
	C343.464691,309.096497 334.329010,309.510345 325.260925,310.500946 
	C310.631165,312.099121 296.015747,313.914490 281.468140,316.124207 
	C277.349365,316.749847 275.765259,315.321381 275.241119,311.894836 
	C271.759918,289.137878 267.202454,266.462189 265.337830,243.569260 
	C263.986053,226.972824 265.485077,210.009033 267.106903,193.344742 
	C268.634796,177.645432 273.789398,162.849808 284.375275,150.547089 
	C293.058136,140.456070 304.487701,136.145279 317.325134,137.326019 
	C334.133118,138.871979 349.540039,145.307846 363.578674,154.554886 
	C374.244629,161.580383 384.540527,169.185959 394.792114,176.814240 
	C399.477112,180.300385 404.352722,181.348740 409.774628,179.706650 
	C414.229095,178.357544 416.183624,174.874771 417.058319,170.459183 
	C418.280029,164.291901 415.734070,159.675034 411.196716,156.080963 
	C395.398621,143.567169 379.110748,131.725601 360.622803,123.421944 
	C343.230743,115.610489 325.440338,109.625542 305.792969,112.156006 
	C286.599579,114.628006 271.261047,123.212914 260.028748,139.075241 
	C245.018616,160.272614 240.582596,184.764786 239.413849,209.767593 
	C238.602280,227.128906 239.566177,244.691086 241.242828,262.017792 
	C242.930588,279.459106 246.333664,296.745361 249.290054,314.047455 
	C250.401840,320.554138 250.127579,321.519623 243.694641,322.883942 
	C205.170837,331.054230 167.674194,342.120087 133.351166,362.107697 
	C116.098969,372.154327 100.386887,383.943665 89.726845,401.302429 
	C81.943459,413.976837 77.813141,427.797791 79.279625,442.654968 
	C81.239357,462.509277 90.918579,479.031128 104.584152,492.913055 
	C121.502571,510.099304 141.527756,523.201599 163.276443,533.589355 
	C168.989716,536.318176 176.753494,533.755493 179.303772,528.717224 
	C182.920441,521.572205 181.011536,514.183655 174.571075,510.534851 
	C169.656250,507.750366 164.637711,505.140808 159.801071,502.227966 
	C141.471313,491.188873 124.597313,478.560211 112.464645,460.401550 
	C102.153191,444.968658 102.570671,427.342468 113.708374,412.626617 
	C125.253044,397.373077 140.579376,387.040222 157.268341,378.536774 
	C186.663849,363.559082 218.045929,354.429169 250.226013,347.790924 
	C257.157196,346.361115 256.884949,346.631744 259.067535,353.276886 
	C267.932281,380.266663 276.778229,407.271851 286.348328,434.014709 
	C289.025055,441.494446 291.346588,447.921631 285.209106,454.514130 
	C284.229950,455.565826 283.808380,457.147430 283.168823,458.502838 
	C275.430481,474.901672 267.506317,491.216309 260.011017,507.725616 
	C248.032730,534.109192 238.026947,561.266235 230.154907,589.140686 
	C223.160767,613.906494 217.580872,638.949585 215.774628,664.797852 
	C214.243958,686.702271 214.224945,708.414734 221.201538,729.380737 
	C233.748367,767.086426 260.639648,781.651245 296.980621,778.667175 
	C314.796936,777.204224 331.638428,771.126648 348.344299,762.769470 
M486.479095,487.969666 
	C502.479156,471.096710 502.189301,444.060638 485.017609,427.898102 
	C469.200439,413.010559 443.860931,412.033691 426.851318,428.985443 
	C410.103119,445.676758 411.511017,471.555267 425.622375,486.461548 
	C442.188477,503.960968 468.881104,504.681244 486.479095,487.969666 
z"/>
<path fill="#F9FDFE" opacity="1.000000" stroke="none" 
	d="
M348.002136,762.927979 
	C331.638428,771.126648 314.796936,777.204224 296.980621,778.667175 
	C260.639648,781.651245 233.748367,767.086426 221.201538,729.380737 
	C214.224945,708.414734 214.243958,686.702271 215.774628,664.797852 
	C217.580872,638.949585 223.160767,613.906494 230.154907,589.140686 
	C238.026947,561.266235 248.032730,534.109192 260.011017,507.725616 
	C267.506317,491.216309 275.430481,474.901672 283.168823,458.502838 
	C283.808380,457.147430 284.229950,455.565826 285.209106,454.514130 
	C291.346588,447.921631 289.025055,441.494446 286.348328,434.014709 
	C276.778229,407.271851 267.932281,380.266663 259.067535,353.276886 
	C256.884949,346.631744 257.157196,346.361115 250.226013,347.790924 
	C218.045929,354.429169 186.663849,363.559082 157.268341,378.536774 
	C140.579376,387.040222 125.253044,397.373077 113.708374,412.626617 
	C102.570671,427.342468 102.153191,444.968658 112.464645,460.401550 
	C124.597313,478.560211 141.471313,491.188873 159.801071,502.227966 
	C164.637711,505.140808 169.656250,507.750366 174.571075,510.534851 
	C181.011536,514.183655 182.920441,521.572205 179.303772,528.717224 
	C176.753494,533.755493 168.989716,536.318176 163.276443,533.589355 
	C141.527756,523.201599 121.502571,510.099304 104.584152,492.913055 
	C90.918579,479.031128 81.239357,462.509277 79.279625,442.654968 
	C77.813141,427.797791 81.943459,413.976837 89.726845,401.302429 
	C100.386887,383.943665 116.098969,372.154327 133.351166,362.107697 
	C167.674194,342.120087 205.170837,331.054230 243.694641,322.883942 
	C250.127579,321.519623 250.401840,320.554138 249.290054,314.047455 
	C246.333664,296.745361 242.930588,279.459106 241.242828,262.017792 
	C239.566177,244.691086 238.602280,227.128906 239.413849,209.767593 
	C240.582596,184.764786 245.018616,160.272614 260.028748,139.075241 
	C271.261047,123.212914 286.599579,114.628006 305.792969,112.156006 
	C325.440338,109.625542 343.230743,115.610489 360.622803,123.421944 
	C379.110748,131.725601 395.398621,143.567169 411.196716,156.080963 
	C415.734070,159.675034 418.280029,164.291901 417.058319,170.459183 
	C416.183624,174.874771 414.229095,178.357544 409.774628,179.706650 
	C404.352722,181.348740 399.477112,180.300385 394.792114,176.814240 
	C384.540527,169.185959 374.244629,161.580383 363.578674,154.554886 
	C349.540039,145.307846 334.133118,138.871979 317.325134,137.326019 
	C304.487701,136.145279 293.058136,140.456070 284.375275,150.547089 
	C273.789398,162.849808 268.634796,177.645432 267.106903,193.344742 
	C265.485077,210.009033 263.986053,226.972824 265.337830,243.569260 
	C267.202454,266.462189 271.759918,289.137878 275.241119,311.894836 
	C275.765259,315.321381 277.349365,316.749847 281.468140,316.124207 
	C296.015747,313.914490 310.631165,312.099121 325.260925,310.500946 
	C334.329010,309.510345 343.464691,309.096497 352.579041,308.583893 
	C360.379028,308.145142 368.208313,308.132660 375.987823,307.487579 
	C378.010040,307.319916 380.424713,305.938599 381.760193,304.356079 
	C394.926331,288.754364 407.300690,272.439453 421.094208,257.424194 
	C436.374207,240.790771 452.755524,225.153580 468.926147,209.357849 
	C487.276093,191.433289 507.506836,175.797806 529.009521,161.845581 
	C551.152710,147.477737 574.277954,135.133972 600.476929,129.852798 
	C620.089111,125.899368 639.265564,126.654922 657.031860,137.098785 
	C671.777771,145.767136 680.744263,159.028961 686.335144,174.910599 
	C690.904297,187.890137 693.089111,201.212006 693.351196,214.960602 
	C693.754700,236.127960 692.579834,257.122742 687.961365,277.850159 
	C685.949707,286.878143 679.999573,290.864594 671.166565,288.887848 
	C664.694153,287.439453 661.242676,281.035522 662.873901,273.075500 
	C667.607666,249.974991 669.277954,226.627594 666.794006,203.217636 
	C665.350403,189.613083 661.358887,176.547501 651.477295,166.110107 
	C641.521179,155.593933 629.190308,152.103348 615.217529,153.641754 
	C591.666016,156.234802 571.070312,166.596039 551.202209,178.640366 
	C531.402466,190.643234 513.039490,204.635773 496.040680,220.318253 
	C481.121826,234.081818 466.255493,247.949326 452.132812,262.514435 
	C440.133240,274.889893 429.195251,288.297974 417.897583,301.344482 
	C416.955353,302.432556 416.852386,304.247345 416.359497,305.724548 
	C417.727539,306.139313 419.082672,306.864838 420.465515,306.922180 
	C440.900452,307.769135 461.362518,308.153931 481.768951,309.432983 
	C496.291260,310.343231 510.778717,312.137909 525.211975,314.061310 
	C545.234070,316.729492 565.386536,318.948700 585.128662,323.061676 
	C613.372681,328.945892 641.433350,335.854065 669.317139,343.282532 
	C695.715820,350.315369 720.974854,360.716187 745.378662,372.982452 
	C765.493774,383.093048 784.599304,395.024841 800.778320,410.777924 
	C814.642578,424.277130 825.484192,439.940338 828.443542,459.854095 
	C828.861145,462.664581 831.022278,465.428864 830.803345,468.084869 
	C829.752014,480.839691 826.125732,492.932739 819.614075,504.017883 
	C810.372009,519.751038 797.130493,531.675171 781.622559,540.680359 
	C767.440491,548.915588 752.454712,555.789490 737.684937,562.979553 
	C731.315613,566.080200 725.373962,564.688782 721.410217,560.037598 
	C717.531799,555.486511 717.053650,549.285522 720.963318,543.993835 
	C722.606628,541.769714 725.434631,540.089172 728.069092,538.983398 
	C744.365479,532.143066 760.330627,524.691895 774.569946,514.074402 
	C784.363770,506.771606 793.219177,498.462280 799.026001,487.494446 
	C806.469421,473.435425 804.520874,459.882446 796.227539,446.869171 
	C787.495911,433.168091 775.638062,422.523102 762.380310,413.476685 
	C729.590332,391.102448 693.197144,376.561310 655.234253,365.929504 
	C632.874695,359.667633 610.290039,353.945465 587.505127,349.539642 
	C563.946777,344.984253 540.055237,342.080048 516.251648,338.883881 
	C488.947693,335.217743 461.500397,333.289642 433.927216,333.245728 
	C422.445251,333.227448 410.960815,332.884705 399.484070,332.495575 
	C395.310974,332.354065 392.283569,333.444672 389.799469,337.125671 
	C375.952545,357.644592 361.608704,377.833527 348.023071,398.521637 
	C339.001434,412.259766 331.045959,426.694580 322.433624,440.707153 
	C320.030701,444.616760 319.620789,447.965698 321.767456,452.291718 
	C335.740540,480.450317 348.634979,509.175049 363.436920,536.884094 
	C384.527771,576.365906 409.110321,613.735718 436.615723,649.098145 
	C454.702271,672.351135 474.247925,694.351746 495.694458,714.565063 
	C513.272400,731.132385 532.106445,746.216797 553.572021,757.492981 
	C566.240234,764.147705 579.494019,769.228149 594.352783,769.337830 
	C611.832764,769.466919 623.188354,760.377747 631.108948,746.215393 
	C639.985229,730.344177 642.813232,712.798584 643.183167,694.821289 
	C643.353027,686.565063 643.275269,678.301941 643.209717,670.042786 
	C643.013916,645.365173 639.494324,621.060913 633.522583,597.210571 
	C627.271057,572.242920 621.174744,547.124084 612.818787,522.825134 
	C603.160583,494.739502 591.167236,467.453613 580.059937,439.871918 
	C577.021729,432.327393 573.212219,425.085968 570.333435,417.486969 
	C567.831360,410.882263 571.333984,404.194489 577.827209,401.703552 
	C583.847046,399.394226 591.136780,402.024506 593.923279,408.040466 
	C600.907593,423.119171 608.402893,438.024628 614.301758,453.528992 
	C625.525879,483.030090 637.048218,512.522156 646.056702,542.730713 
	C654.095276,569.686951 659.581482,597.476013 664.876709,625.149658 
	C667.695007,639.878418 668.026550,655.123901 668.898071,670.169861 
	C669.470764,680.056763 669.648376,690.054382 668.875793,699.914124 
	C666.913574,724.955322 662.649963,749.493835 646.718628,770.104187 
	C634.533081,785.868591 618.166138,794.152283 598.238525,794.978577 
	C574.964722,795.943726 554.322021,787.749329 534.451721,776.575928 
	C503.163147,758.981628 477.209534,734.909973 453.002472,708.963379 
	C425.877808,679.889404 402.092041,648.122192 380.087463,614.969788 
	C353.990540,575.651794 331.676697,534.263245 310.968048,491.947113 
	C308.997894,487.921326 307.162048,483.829987 305.211700,479.794250 
	C305.027832,479.413757 304.467896,479.215027 303.465210,478.478302 
	C302.244019,480.253876 300.813660,481.808868 299.974457,483.635468 
	C292.058990,500.864319 283.514038,517.852417 276.587616,535.474792 
	C268.145752,556.952820 260.184143,578.710022 253.696350,600.839478 
	C247.598038,621.640381 242.837250,642.890686 241.468430,664.746582 
	C240.382736,682.081909 239.760681,699.366211 244.163147,716.305847 
	C247.975220,730.973755 255.238297,743.426819 269.922943,749.854004 
	C280.405762,754.442261 291.344116,753.903687 302.227692,751.733093 
	C323.783142,747.433899 342.876465,737.445129 361.178192,725.716675 
	C366.762360,722.138184 372.146454,718.192688 377.963562,715.046387 
	C385.002167,711.239319 392.103912,713.058105 395.414948,718.808655 
	C399.207611,725.395691 397.302185,733.180725 390.594147,737.415588 
	C378.235687,745.217529 365.797028,752.893127 353.350494,760.554382 
	C351.810699,761.502197 350.019196,762.041077 348.002136,762.927979 
M324.289978,384.800903 
	C334.859650,368.831482 345.429352,352.862061 356.886383,335.552002 
	C350.129059,336.079315 344.895996,336.387451 339.684845,336.912811 
	C322.529785,338.642487 305.386932,340.494263 288.228699,342.191132 
	C284.919189,342.518433 284.402496,344.043579 285.295502,346.880341 
	C290.234467,362.569550 295.022614,378.306946 300.068726,393.961334 
	C302.019531,400.013245 304.512299,405.890411 307.067413,412.667480 
	C313.126526,402.911560 318.548737,394.181091 324.289978,384.800903 
z"/>
<path fill="#FBFEFF" opacity="1.000000" stroke="none" 
	d="
M486.232971,488.228882 
	C468.881104,504.681244 442.188477,503.960968 425.622375,486.461548 
	C411.511017,471.555267 410.103119,445.676758 426.851318,428.985443 
	C443.860931,412.033691 469.200439,413.010559 485.017609,427.898102 
	C502.189301,444.060638 502.479156,471.096710 486.232971,488.228882 
z"/>
<path fill="#0799FB" opacity="1.000000" stroke="none" 
	d="
M324.130463,385.125793 
	C318.548737,394.181091 313.126526,402.911560 307.067413,412.667480 
	C304.512299,405.890411 302.019531,400.013245 300.068726,393.961334 
	C295.022614,378.306946 290.234467,362.569550 285.295502,346.880341 
	C284.402496,344.043579 284.919189,342.518433 288.228699,342.191132 
	C305.386932,340.494263 322.529785,338.642487 339.684845,336.912811 
	C344.895996,336.387451 350.129059,336.079315 356.886383,335.552002 
	C345.429352,352.862061 334.859650,368.831482 324.130463,385.125793 
z"/>
</svg>