<?xml version="1.0" encoding="UTF-8"?>
<svg version="1.1" xmlns="http://www.w3.org/2000/svg" width="800" height="800">
<path d="M0 0 C1.90888734 -0.00374298 3.81777314 -0.00834707 5.72665656 -0.01373065 C10.93903896 -0.02589634 16.15135688 -0.0257078 21.36375022 -0.02334189 C26.99865427 -0.02293208 32.6335381 -0.03398862 38.26843262 -0.04345703 C49.29697585 -0.06003356 60.3254977 -0.0655651 71.35405235 -0.06668179 C80.32567447 -0.06763402 89.29728956 -0.07175304 98.26890945 -0.07808304 C119.6003772 -0.09282581 140.9318384 -0.10513371 162.26331139 -0.10408592 C163.28528793 -0.10403919 163.28528793 -0.10403919 164.32791046 -0.10399151 C167.78056665 -0.10382531 171.23322284 -0.10362723 174.68587904 -0.10342209 C175.7143128 -0.10336225 175.7143128 -0.10336225 176.76352301 -0.10330121 C178.15001878 -0.10322034 179.53651455 -0.10313674 180.92301032 -0.10305043 C202.47503724 -0.10182603 224.02700112 -0.11682157 245.57901001 -0.14419556 C269.83357394 -0.17499 294.08808355 -0.19209826 318.34267104 -0.19026911 C331.16920501 -0.18960695 343.99566792 -0.19502246 356.82218552 -0.21662521 C367.74636727 -0.23490692 378.67044575 -0.23912736 389.59463625 -0.22560637 C395.15916129 -0.21911138 400.7234886 -0.21883282 406.28799438 -0.23631287 C449.95160595 -0.36476748 449.95160595 -0.36476748 468.86270142 4.26742554 C469.79972043 4.49593744 470.73673944 4.72444933 471.70215297 4.95988584 C484.38602793 8.11360479 496.14229319 12.50133463 507.86270142 18.26742554 C508.92932007 18.78345337 508.92932007 18.78345337 510.01748657 19.30990601 C553.55420823 40.55820361 587.19352402 79.36717882 603.34927368 124.95248413 C610.28502028 145.41593091 613.17048418 165.86746085 613.13012695 187.40472412 C613.13386993 189.31361146 613.13847402 191.22249726 613.1438576 193.13138068 C613.15602329 198.34376308 613.15583475 203.556081 613.15346885 208.76847434 C613.15305904 214.4033784 613.16411557 220.03826222 613.17358398 225.67315674 C613.19016052 236.70169997 613.19569205 247.73022182 613.19680874 258.75877647 C613.19776097 267.73039859 613.20187999 276.70201368 613.20820999 285.67363358 C613.22295276 307.00510132 613.23526067 328.33656252 613.23421288 349.66803551 C613.23418172 350.3493532 613.23415056 351.03067089 613.23411846 351.73263458 C613.23395226 355.18529077 613.23375418 358.63794697 613.23354904 362.09060316 C613.23348921 363.11903692 613.23348921 363.11903692 613.23342816 364.16824713 C613.23334729 365.5547429 613.23326369 366.94123867 613.23317738 368.32773444 C613.23195299 389.87976136 613.24694852 411.43172524 613.27432251 432.98373413 C613.30511695 457.23829806 613.32222521 481.49280767 613.32039607 505.74739516 C613.31973391 518.57392914 613.32514941 531.40039204 613.34675217 544.22690964 C613.36503387 555.15109139 613.36925431 566.07516988 613.35573332 576.99936037 C613.34923833 582.56388541 613.34895978 588.12821272 613.36643982 593.69271851 C613.44741808 621.20133783 612.78987767 646.95644577 603.86270142 673.26742554 C603.45664673 674.51781616 603.05059204 675.76820679 602.63223267 677.05648804 C586.4597007 724.71423211 550.05576546 761.43143851 505.60244751 783.43588257 C480.37055679 795.59449627 453.57946353 800.58704492 425.72540283 800.53485107 C423.8165155 800.53859406 421.90762969 800.54319814 419.99874628 800.54858172 C414.78636387 800.56074741 409.57404596 800.56055887 404.36165261 800.55819297 C398.72674856 800.55778316 393.09186473 800.56883969 387.45697021 800.57830811 C376.42842698 800.59488464 365.39990513 800.60041617 354.37135048 800.60153286 C345.39972837 800.60248509 336.42811327 800.60660411 327.45649338 800.61293411 C306.12502563 800.62767688 284.79356443 800.63998479 263.46209145 800.638937 C262.44011491 800.63889026 262.44011491 800.63889026 261.39749237 800.63884258 C257.94483618 800.63867638 254.49217999 800.6384783 251.0395238 800.63827316 C250.35390128 800.63823327 249.66827877 800.63819338 248.96187982 800.63815228 C247.57538405 800.63807141 246.18888828 800.63798781 244.80239251 800.6379015 C223.2503656 800.63667711 201.69840171 800.65167264 180.14639282 800.67904663 C155.8918289 800.70984107 131.63731928 800.72694933 107.3827318 800.72512019 C94.55619782 800.72445803 81.72973491 800.72987354 68.90321732 800.75147629 C57.97903556 800.76975799 47.05495708 800.77397843 36.13076659 800.76045744 C30.56624155 800.75396245 25.00191423 800.7536839 19.43740845 800.77116394 C-8.07121088 800.85214221 -33.82631882 800.1946018 -60.13729858 791.26742554 C-61.38768921 790.86137085 -62.63807983 790.45531616 -63.92636108 790.03695679 C-111.58410516 773.86442483 -148.30131155 737.46048958 -170.30575562 693.00717163 C-182.46436932 667.77528091 -187.45691797 640.98418765 -187.40472412 613.13012695 C-187.4084671 611.22123962 -187.41307119 609.31235381 -187.41845477 607.4034704 C-187.43062046 602.19108799 -187.43043192 596.97877008 -187.42806602 591.76637673 C-187.4276562 586.13147268 -187.43871274 580.49658885 -187.44818115 574.86169434 C-187.46475768 563.8331511 -187.47028922 552.80462926 -187.47140591 541.7760746 C-187.47235814 532.80445249 -187.47647716 523.83283739 -187.48280716 514.8612175 C-187.49754993 493.52974976 -187.50985783 472.19828855 -187.50881004 450.86681557 C-187.50877889 450.18549787 -187.50874773 449.50418018 -187.50871563 448.8022165 C-187.50854943 445.3495603 -187.50835135 441.89690411 -187.50814621 438.44424792 C-187.50810632 437.75862541 -187.50806643 437.07300289 -187.50802533 436.36660394 C-187.50794446 434.98010817 -187.50786086 433.5936124 -187.50777455 432.20711663 C-187.50655015 410.65508972 -187.52154569 389.10312583 -187.54891968 367.55111694 C-187.57971412 343.29655302 -187.59682238 319.0420434 -187.59499323 294.78745592 C-187.59433108 281.96092194 -187.59974658 269.13445903 -187.62134933 256.30794144 C-187.63963104 245.38375968 -187.64385148 234.4596812 -187.63033049 223.53549071 C-187.6238355 217.97096567 -187.62355694 212.40663835 -187.64103699 206.84213257 C-187.76865208 163.49958036 -187.76865208 163.49958036 -183.13729858 144.26742554 C-182.94307776 143.43787204 -182.74885694 142.60831854 -182.54875064 141.75362706 C-171.50573838 95.14785985 -140.798957 53.30995916 -100.22616577 28.07894897 C-69.13524172 9.44317114 -36.25302799 -0.06793211 0 0 Z " fill="#764ABA" transform="translate(187.13729858398438,-0.267425537109375)"/>
<path d="M0 0 C39.28492451 34.53244017 60.7395698 83.46451316 68.77294922 134.50292969 C68.93690186 135.53748291 69.10085449 136.57203613 69.26977539 137.63793945 C70.28449618 144.6479642 70.51209037 151.48800737 70.33544922 158.56542969 C63.1620491 157.06628651 56.17398983 155.1423916 49.14794922 153.06542969 C48.09414063 152.75734375 47.04033203 152.44925781 45.95458984 152.13183594 C41.05160678 150.69214463 36.16659073 149.23421777 31.33544922 147.56542969 C31.09761719 146.09009766 31.09761719 146.09009766 30.85498047 144.58496094 C23.74933493 101.73608292 8.45558612 60.11873064 -23.66455078 29.56542969 C-24.34646484 28.90027344 -25.02837891 28.23511719 -25.73095703 27.54980469 C-43.28915377 10.97802349 -67.05827823 1.81209263 -91.2043457 2.09277344 C-124.74813395 3.34560142 -160.43334754 16.71540822 -184.12890625 40.90478516 C-228.60235586 88.99833114 -238.0654781 153.6956103 -235.66455078 216.56542969 C-235.21304612 225.30782779 -234.14283188 233.94108151 -232.66455078 242.56542969 C-232.51469727 243.45858887 -232.36484375 244.35174805 -232.21044922 245.27197266 C-226.3682101 279.11602666 -213.9561763 310.74702443 -197.55322266 340.7980957 C-196.66455078 342.56542969 -196.66455078 342.56542969 -195.66455078 345.56542969 C-194.73255859 345.51902344 -193.80056641 345.47261719 -192.84033203 345.42480469 C-179.35556245 345.04303164 -168.13605643 347.49251555 -157.66455078 356.56542969 C-149.7922905 364.02190157 -143.76757464 373.04855768 -143.39111328 384.12792969 C-142.99093977 399.24807439 -145.10927461 410.12104818 -155.66455078 421.56542969 C-164.30355581 430.51078242 -175.2807482 434.56020694 -187.53955078 434.87792969 C-199.98896625 434.66534629 -210.58472227 430.07002239 -219.74658203 421.63964844 C-228.89231686 411.74884356 -231.87296535 401.61837038 -232.10205078 388.50292969 C-232.12452881 387.66383057 -232.14700684 386.82473145 -232.17016602 385.96020508 C-232.15239301 381.30778036 -231.5962193 378.00752551 -229.51220703 373.81933594 C-227.82209424 370.37786385 -227.82209424 370.37786385 -228.13330078 366.53808594 C-228.63861328 365.55710937 -229.14392578 364.57613281 -229.66455078 363.56542969 C-230.13828125 362.62352783 -230.13828125 362.62352783 -230.62158203 361.66259766 C-231.76702219 359.42222084 -232.96287463 357.21361884 -234.16455078 355.00292969 C-256.17677133 313.60137462 -270.98258808 269.35880274 -275.66455078 222.56542969 C-275.77259033 221.51476318 -275.77259033 221.51476318 -275.8828125 220.44287109 C-276.33312072 215.82153821 -276.54719503 211.20507582 -276.66455078 206.56542969 C-276.70539795 204.99245117 -276.70539795 204.99245117 -276.74707031 203.38769531 C-277.78145795 156.00103161 -269.49789687 105.58608732 -246.69433594 63.46875 C-245.63886796 61.51796092 -244.61105779 59.5539645 -243.58251953 57.58886719 C-238.20903264 47.50776513 -231.80466315 38.46785986 -224.66455078 29.56542969 C-224.18115234 28.95957031 -223.69775391 28.35371094 -223.19970703 27.72949219 C-197.78915457 -3.80989271 -162.50972491 -26.35497257 -122.66455078 -34.43457031 C-121.59076172 -34.65886719 -120.51697266 -34.88316406 -119.41064453 -35.11425781 C-76.39244325 -42.67220894 -32.63101966 -28.12259776 0 0 Z " fill="#FDFDFE" transform="translate(488.66455078125,139.4345703125)"/>
<path d="M0 0 C6.7959482 4.31871547 11.87792026 9.7857509 14.75 17.3125 C15.68344238 17.29678955 16.61688477 17.2810791 17.57861328 17.26489258 C47.92995811 16.8249373 76.98204761 18.88422612 106.75 25.3125 C108.1347505 25.59601214 109.51960409 25.87902104 110.90454102 26.16162109 C121.62534685 28.39228784 131.8659838 31.4239255 142.1875 35.0625 C142.94791595 35.32772461 143.70833191 35.59294922 144.49179077 35.86621094 C164.27246884 42.76869368 182.55982473 50.84891501 200.75 61.3125 C201.54825195 61.77027832 202.34650391 62.22805664 203.16894531 62.69970703 C223.1744407 74.27715728 241.98318621 88.2046585 258.16308594 104.75634766 C259.92248236 106.52997156 259.92248236 106.52997156 262.75 108.75 C265.7460605 111.30913501 268.17630792 113.97859616 270.71875 116.97265625 C273.05131961 119.65959701 275.49451812 122.22560683 277.9375 124.8125 C288.74735615 136.48108304 297.76900287 149.58250654 305.75 163.3125 C306.16491699 164.02180664 306.57983398 164.73111328 307.00732422 165.46191406 C329.08206087 203.73837015 338.10888716 252.40282731 327.35546875 295.74609375 C321.36321156 317.38500872 310.87981488 334.8867695 295.75 351.3125 C295.03585937 352.10914063 294.32171875 352.90578125 293.5859375 353.7265625 C282.5970233 365.39432854 268.76155659 374.66551488 254.75 382.3125 C253.80954834 382.82804443 253.80954834 382.82804443 252.85009766 383.35400391 C229.02927539 396.2345348 201.5948023 404.35050058 174.39453125 404.515625 C173.61891342 404.52259399 172.84329559 404.52956299 172.04417419 404.53674316 C169.55022707 404.55406062 167.05650478 404.56046466 164.5625 404.5625 C163.7106311 404.56350708 162.85876221 404.56451416 161.9810791 404.56555176 C148.9902171 404.55515662 136.51040071 403.90019323 123.75 401.3125 C122.35053491 401.06485004 120.95079663 400.81873862 119.55078125 400.57421875 C99.62027097 396.84373662 78.66428013 389.80392561 60.75 380.3125 C64.17114973 376.63151611 68.01712958 373.81452571 72.0625 370.875 C76.527573 367.61392226 80.84591646 364.30394534 84.92578125 360.56640625 C85.58989014 359.96046631 86.25399902 359.35452637 86.93823242 358.73022461 C88.20857116 357.55436461 89.46342802 356.36150633 90.70043945 355.15063477 C92.4453125 353.5390625 92.4453125 353.5390625 95.75 351.3125 C98.5859375 351.75390625 98.5859375 351.75390625 101.75 353.3125 C103.21209109 353.84797158 104.68168375 354.36318671 106.15625 354.86328125 C107.3788855 355.28927612 107.3788855 355.28927612 108.6262207 355.72387695 C149.76313627 369.85213185 192.75870539 372.91549115 232.92578125 354.2578125 C259.11143783 341.40555216 279.10184864 315.6149663 289 288.5625 C299.87984543 253.29679412 290.54224769 217.9805258 273.87109375 186.1796875 C260.09620436 160.70034771 240.18218439 136.46756954 216.75 119.3125 C215.70714844 118.53777344 214.66429687 117.76304687 213.58984375 116.96484375 C170.42277389 85.27765377 120.00181756 64.62298835 66.75 58.3125 C65.82348633 58.20212402 64.89697266 58.09174805 63.94238281 57.97802734 C48.26330781 56.18798552 32.51532481 55.73877719 16.75 55.3125 C16.44457275 56.09713623 16.13914551 56.88177246 15.82446289 57.69018555 C11.41399739 68.45428687 1.62898966 75.97584495 -8.76953125 80.40234375 C-18.66603246 84.03365837 -32.04667486 83.93866769 -41.73046875 79.69921875 C-54.16145439 72.85735844 -62.8464708 63.57223604 -67.33203125 50.05078125 C-70.22400182 38.27369259 -68.66415069 26.42843125 -62.89453125 15.8203125 C-56.00510107 4.84894111 -46.88438122 -2.14288615 -34.5234375 -5.95703125 C-22.06247122 -8.73770034 -11.00816226 -6.02428392 0 0 Z " fill="#FEFDFE" transform="translate(381.25,291.6875)"/>
<path d="M0 0 C0.99 0.33 1.98 0.66 3 1 C3.73608398 2.92675781 3.73608398 2.92675781 4.24609375 5.453125 C4.44187012 6.37681885 4.63764648 7.3005127 4.83935547 8.25219727 C5.03674316 9.24147217 5.23413086 10.23074707 5.4375 11.25 C7.03491015 18.83861628 8.79861969 26.12817829 11.3984375 33.44140625 C12.13682219 36.58193853 12.22114544 37.98876636 11 41 C8.9019264 43.28114005 6.53395648 45.18211407 4.125 47.125 C2.74486644 48.28214612 1.36728167 49.44233858 -0.0078125 50.60546875 C-0.68875977 51.17958496 -1.36970703 51.75370117 -2.07128906 52.34521484 C-11.260375 60.22921795 -18.78746716 69.33709317 -26 79 C-26.63679688 79.84175781 -27.27359375 80.68351562 -27.9296875 81.55078125 C-41.08805762 99.59048222 -49.79871257 120.11532763 -54 142 C-54.28810547 143.35158203 -54.28810547 143.35158203 -54.58203125 144.73046875 C-56.39795408 158.93539784 -55.95787963 174.22238115 -52 188 C-51.80664062 188.69077637 -51.61328125 189.38155273 -51.4140625 190.09326172 C-43.43831097 218.01454622 -26.70306806 243.17944671 -1.125 257.75 C5.69535742 261.5048308 12.585882 264.58473114 20 267 C20.64598145 267.21640137 21.29196289 267.43280273 21.95751953 267.65576172 C70.07159231 283.49778662 126.85569901 272.78538905 171.1875 250.6875 C198.98237216 236.49010164 224.36202997 219.34183875 248 199 C249.16208984 198.02546875 249.16208984 198.02546875 250.34765625 197.03125 C254.38498849 193.60846352 257.88283686 189.98539957 261.30078125 185.9453125 C262.87454351 184.14362605 264.51297655 182.51712668 266.25 180.875 C271.75905909 175.43988801 276.34613126 169.16393523 281 163 C281.43248047 162.42830078 281.86496094 161.85660156 282.31054688 161.26757812 C288.85104804 152.55026917 294.5490677 143.42983121 299.88574219 133.93017578 C300.63822485 132.62668587 301.42677627 131.34345969 302.24707031 130.08154297 C303.57800059 128.06367877 303.57800059 128.06367877 305 125 C304.56695366 122.73280918 304.56695366 122.73280918 303 121 C302.54882812 120.37222656 302.09765625 119.74445313 301.6328125 119.09765625 C301.13523437 118.42605469 300.63765625 117.75445312 300.125 117.0625 C293.89600483 107.73427439 291.68352317 97.08826363 293 86 C295.53114911 74.12306954 301.81034788 62.8788729 312 56 C324.67784481 48.88685806 337.37737818 46.44881132 351.7734375 49.90625 C364.82753416 55.1413119 374.53083251 64.53250658 380.08984375 77.421875 C383.67764551 87.58474694 383.53122427 100.66149975 379.26953125 110.5703125 C372.79975275 122.95247321 363.896431 131.68241079 350.61328125 136.23828125 C348 137 348 137 345.51635742 137.25732422 C342.86359241 137.77429254 342.86359241 137.77429254 341.4453125 139.99926758 C341.00960938 140.87220459 340.57390625 141.7451416 340.125 142.64453125 C339.62154053 143.62164063 339.11808105 144.59875 338.59936523 145.60546875 C338.07157471 146.66378906 337.54378418 147.72210937 337 148.8125 C316.26594592 188.67313321 286.44292815 224.83649236 250.12207031 251.44287109 C248.07757868 252.94307445 246.05053058 254.46469841 244.0234375 255.98828125 C209.37841317 281.62034487 168.45173473 297.18648091 126.69775391 306.68530273 C124.49777312 307.18800885 122.30173172 307.70593202 120.10546875 308.22460938 C103.91415613 311.98219103 88.04270296 313.4147319 71.4375 313.375 C70.20016617 313.37468277 70.20016617 313.37468277 68.93783569 313.37435913 C54.9608267 313.33879765 41.64771489 312.16849848 28 309 C27.1656543 308.81808105 26.33130859 308.63616211 25.47167969 308.44873047 C-10.44954782 300.53304445 -45.06056545 280.47939776 -66.1484375 249.8828125 C-77.26388104 232.46435883 -84.29136251 213.28443797 -88 193 C-88.16846436 192.28448975 -88.33692871 191.56897949 -88.51049805 190.83178711 C-90.3707951 182.28104979 -90.33754792 173.77740906 -90.31567383 165.0690918 C-90.3125354 162.46684977 -90.3359646 159.8657724 -90.36132812 157.26367188 C-90.41848283 142.37513637 -88.59019115 127.99787165 -84.375 113.6875 C-84.12194092 112.8227002 -83.86888184 111.95790039 -83.6081543 111.06689453 C-76.39781011 87.38034707 -64.4239349 66.25642245 -49 47 C-48.5678418 46.45214844 -48.13568359 45.90429688 -47.69042969 45.33984375 C-36.44459613 31.1584208 -23.36740935 18.00333302 -9 7 C-8.15566406 6.30003906 -7.31132812 5.60007812 -6.44140625 4.87890625 C-5.23291016 3.88697266 -5.23291016 3.88697266 -4 2.875 C-2.948125 2.00488281 -2.948125 2.00488281 -1.875 1.1171875 C-1.25625 0.74851562 -0.6375 0.37984375 0 0 Z " fill="#FEFDFE" transform="translate(178,380)"/>
<path d="M0 0 C0.33 0.66 0.66 1.32 1 2 C-0.28062485 3.7074998 -1.61767557 5.37373596 -3 7 C-3.66 7 -4.32 7 -5 7 C-5.268125 7.639375 -5.53625 8.27875 -5.8125 8.9375 C-7 11 -7 11 -10 12 C-11.20882096 14.00016466 -11.20882096 14.00016466 -12 16 C-12.66 16 -13.32 16 -14 16 C-12.34136495 11.67495164 -9.128959 8.90581175 -5.875 5.75 C-5.31167969 5.19570313 -4.74835938 4.64140625 -4.16796875 4.0703125 C-2.78313972 2.70895515 -1.39216796 1.35385141 0 0 Z " fill="#7C5DB2" transform="translate(176,431)"/>
<path d="M0 0 C0.66 0.33 1.32 0.66 2 1 C1.278125 1.680625 0.55625 2.36125 -0.1875 3.0625 C-2.30917241 5.16006249 -4.00575951 7.34995143 -5.6875 9.8125 C-6.450625 10.864375 -7.21375 11.91625 -8 13 C-8.66 13 -9.32 13 -10 13 C-9.48223379 8.89552608 -7.35372556 7.04300477 -4.4375 4.25 C-3.61121094 3.45078125 -2.78492188 2.6515625 -1.93359375 1.828125 C-1.29550781 1.22484375 -0.65742188 0.6215625 0 0 Z " fill="#7F5EB2" transform="translate(311,173)"/>
<path d="M0 0 C0.33 0.99 0.66 1.98 1 3 C-1.5 4.5 -1.5 4.5 -4 6 C-4.886875 6.53625 -5.77375 7.0725 -6.6875 7.625 C-8.09806684 8.46371542 -9.53217375 9.26608688 -11 10 C-11 9.01 -11 8.02 -11 7 C-8.59375 5.17578125 -8.59375 5.17578125 -5.5 3.3125 C-3.96859375 2.37857422 -3.96859375 2.37857422 -2.40625 1.42578125 C-1.6121875 0.95527344 -0.818125 0.48476563 0 0 Z " fill="#7A56B2" transform="translate(413,641)"/>
<path d="M0 0 C0.33 0 0.66 0 1 0 C1 5.28 1 10.56 1 16 C0.01 16.33 -0.98 16.66 -2 17 C-1.34 11.39 -0.68 5.78 0 0 Z " fill="#8666B8" transform="translate(560,470)"/>
<path d="M0 0 C1.65 1.32 3.3 2.64 5 4 C4.34 5.98 3.68 7.96 3 10 C2.67 10 2.34 10 2 10 C1.34 6.7 0.68 3.4 0 0 Z " fill="#8165B3" transform="translate(479,499)"/>
<path d="M0 0 C0.66 0.33 1.32 0.66 2 1 C1.38125 1.7425 0.7625 2.485 0.125 3.25 C-1.60437281 5.48801188 -2.86106661 7.43739987 -4 10 C-4.99 9.67 -5.98 9.34 -7 9 C-4.69 6.03 -2.38 3.06 0 0 Z " fill="#7B5DB3" transform="translate(298,187)"/>
<path d="M0 0 C2.66666667 2.66666667 5.33333333 5.33333333 8 8 C7.67 8.66 7.34 9.32 7 10 C5.82739389 8.71372289 4.6620717 7.42080217 3.5 6.125 C2.8503125 5.40570313 2.200625 4.68640625 1.53125 3.9453125 C0 2 0 2 0 0 Z " fill="#7859AF" transform="translate(631,443)"/>
<path d="M0 0 C3.3 0.99 6.6 1.98 10 3 C7 5 7 5 4.4375 4.6875 C2 4 2 4 0 3 C0 2.01 0 1.02 0 0 Z " fill="#7A57B0" transform="translate(461,680)"/>
<path d="M0 0 C0.33 0.99 0.66 1.98 1 3 C-1.64 4.98 -4.28 6.96 -7 9 C-5.04783565 5.09567131 -3.12613393 2.96160056 0 0 Z " fill="#7A58B1" transform="translate(449,613)"/>
<path d="M0 0 C-0.33 0.99 -0.66 1.98 -1 3 C-3.64 2.67 -6.28 2.34 -9 2 C-9 1.67 -9 1.34 -9 1 C-5.94152152 0.45627049 -3.11227195 0 0 0 Z " fill="#8B6DBD" transform="translate(586,692)"/>
<path d="M0 0 C0.66 0.66 1.32 1.32 2 2 C0.68 4.64 -0.64 7.28 -2 10 C-3.39195915 5.82412255 -1.82323219 3.86525224 0 0 Z " fill="#8565B6" transform="translate(243,197)"/>
</svg>
