<?xml version="1.0" encoding="UTF-8"?>
<svg xmlns="http://www.w3.org/2000/svg" xmlns:xlink="http://www.w3.org/1999/xlink" viewBox="0 0 120 120" version="1.1">
<g id="surface1">
<path style=" stroke:none;fill-rule:nonzero;fill:rgb(46.27451%,29.019609%,73.725492%);fill-opacity:1;" d="M 28.125 0 L 91.875 0 C 107.40625 0 120 12.59375 120 28.125 L 120 91.875 C 120 107.40625 107.40625 120 91.875 120 L 28.125 120 C 12.59375 120 0 107.40625 0 91.875 L 0 28.125 C 0 12.59375 12.59375 0 28.125 0 Z M 28.125 0 "/>
<path style=" stroke:none;fill-rule:nonzero;fill:rgb(100%,100%,100%);fill-opacity:1;" d="M 78.082031 77.625 C 81.542969 77.265625 84.167969 74.285156 84.046875 70.703125 C 83.929688 67.125 80.945312 64.261719 77.367188 64.261719 L 77.128906 64.261719 C 73.429688 64.382812 70.566406 67.484375 70.6875 71.183594 C 70.804688 72.972656 71.523438 74.523438 72.597656 75.597656 C 68.539062 83.589844 62.335938 89.433594 53.03125 94.328125 C 46.707031 97.667969 40.144531 98.859375 33.585938 98.023438 C 28.214844 97.308594 24.039062 94.921875 21.414062 90.984375 C 17.597656 85.140625 17.242188 78.816406 20.460938 72.496094 C 22.726562 67.960938 26.308594 64.621094 28.574219 62.949219 C 28.097656 61.398438 27.382812 58.773438 27.023438 56.867188 C 9.722656 69.394531 11.515625 86.332031 16.761719 94.328125 C 20.699219 100.292969 28.691406 103.988281 37.523438 103.988281 C 39.90625 103.988281 42.292969 103.75 44.679688 103.15625 C 59.949219 100.171875 71.523438 91.105469 78.082031 77.625 Z M 78.082031 77.625 "/>
<path style=" stroke:none;fill-rule:nonzero;fill:rgb(100%,100%,100%);fill-opacity:1;" d="M 99.082031 62.832031 C 90.015625 52.214844 76.652344 46.367188 61.382812 46.367188 L 59.472656 46.367188 C 58.398438 44.21875 56.132812 42.789062 53.628906 42.789062 L 53.390625 42.789062 C 49.691406 42.90625 46.828125 46.007812 46.945312 49.707031 C 47.066406 53.285156 50.046875 56.148438 53.628906 56.148438 L 53.867188 56.148438 C 56.492188 56.03125 58.757812 54.359375 59.710938 52.09375 L 61.859375 52.09375 C 70.925781 52.09375 79.515625 54.71875 87.269531 59.847656 C 93.234375 63.785156 97.53125 68.914062 99.914062 75.117188 C 101.945312 80.128906 101.824219 85.019531 99.675781 89.195312 C 96.335938 95.519531 90.730469 98.980469 83.332031 98.980469 C 78.5625 98.980469 74.027344 97.546875 71.640625 96.472656 C 70.328125 97.667969 67.945312 99.574219 66.273438 100.769531 C 71.402344 103.15625 76.652344 104.46875 81.664062 104.46875 C 93.117188 104.46875 101.585938 98.144531 104.808594 91.820312 C 108.265625 84.902344 108.027344 72.972656 99.082031 62.832031 Z M 99.082031 62.832031 "/>
<path style=" stroke:none;fill-rule:nonzero;fill:rgb(100%,100%,100%);fill-opacity:1;" d="M 38.476562 79.652344 C 38.59375 83.230469 41.578125 86.09375 45.15625 86.09375 L 45.394531 86.09375 C 49.09375 85.976562 51.957031 82.875 51.835938 79.175781 C 51.71875 75.597656 48.734375 72.734375 45.15625 72.734375 L 44.917969 72.734375 C 44.679688 72.734375 44.320312 72.734375 44.082031 72.851562 C 39.191406 64.738281 37.164062 55.910156 37.878906 46.367188 C 38.355469 39.210938 40.742188 33.007812 44.917969 27.875 C 48.378906 23.460938 55.058594 21.316406 59.59375 21.195312 C 72.238281 20.957031 77.605469 36.703125 77.964844 43.027344 C 79.515625 43.386719 82.140625 44.21875 83.929688 44.816406 C 82.5 25.488281 70.566406 15.46875 59.113281 15.46875 C 48.378906 15.46875 38.476562 23.222656 34.539062 34.675781 C 29.050781 49.945312 32.628906 64.621094 39.3125 76.191406 C 38.714844 77.027344 38.355469 78.339844 38.476562 79.652344 Z M 38.476562 79.652344 "/>
</g>
</svg>
