<?xml version="1.0" encoding="UTF-8"?>
<svg xmlns="http://www.w3.org/2000/svg" xmlns:xlink="http://www.w3.org/1999/xlink" viewBox="0 0 120 120" version="1.1">
<g id="surface1">
<path style=" stroke:none;fill-rule:nonzero;fill:rgb(14.117648%,16.078432%,21.960784%);fill-opacity:1;" d="M 28.125 0 L 91.875 0 C 107.40625 0 120 12.59375 120 28.125 L 120 91.875 C 120 107.40625 107.40625 120 91.875 120 L 28.125 120 C 12.59375 120 0 107.40625 0 91.875 L 0 28.125 C 0 12.59375 12.59375 0 28.125 0 Z M 28.125 0 "/>
<path style=" stroke:none;fill-rule:evenodd;fill:rgb(100%,100%,100%);fill-opacity:1;" d="M 88.078125 79.089844 C 88.71875 87.289062 88.71875 91.128906 88.71875 95.324219 L 69.75 95.324219 C 69.75 94.410156 69.765625 93.574219 69.785156 92.726562 C 69.835938 90.09375 69.890625 87.347656 69.460938 81.796875 C 68.898438 73.675781 65.398438 71.871094 58.96875 71.871094 L 29.136719 71.871094 L 29.136719 57.089844 L 59.871094 57.089844 C 67.996094 57.089844 72.058594 54.621094 72.058594 48.078125 C 72.058594 42.324219 67.996094 38.835938 59.871094 38.835938 L 29.136719 38.835938 L 29.136719 24.375 L 63.257812 24.375 C 81.648438 24.375 90.789062 33.0625 90.789062 46.9375 C 90.789062 57.316406 84.355469 64.085938 75.667969 65.214844 C 83.003906 66.679688 87.289062 70.855469 88.078125 79.089844 Z M 88.078125 79.089844 "/>
<path style=" stroke:none;fill-rule:evenodd;fill:rgb(100%,100%,100%);fill-opacity:1;" d="M 88.078125 79.089844 C 88.71875 87.289062 88.71875 91.128906 88.71875 95.324219 L 69.75 95.324219 C 69.75 94.410156 69.765625 93.574219 69.785156 92.726562 C 69.835938 90.09375 69.890625 87.347656 69.460938 81.796875 C 68.898438 73.675781 65.398438 71.871094 58.96875 71.871094 L 29.136719 71.871094 L 29.136719 57.089844 L 59.871094 57.089844 C 67.996094 57.089844 72.058594 54.621094 72.058594 48.078125 C 72.058594 42.324219 67.996094 38.835938 59.871094 38.835938 L 29.136719 38.835938 L 29.136719 24.375 L 63.257812 24.375 C 81.648438 24.375 90.789062 33.0625 90.789062 46.9375 C 90.789062 57.316406 84.355469 64.085938 75.667969 65.214844 C 83.003906 66.679688 87.289062 70.855469 88.078125 79.089844 Z M 88.078125 79.089844 "/>
<path style=" stroke:none;fill-rule:nonzero;fill:rgb(100%,100%,100%);fill-opacity:1;" d="M 29.136719 95.324219 L 29.136719 84.308594 L 49.191406 84.308594 C 52.542969 84.308594 53.269531 86.792969 53.269531 88.273438 L 53.269531 95.324219 Z M 29.136719 95.324219 "/>
<path style="fill:none;stroke-width:0.32;stroke-linecap:butt;stroke-linejoin:miter;stroke:rgb(100%,100%,100%);stroke-opacity:0.8;stroke-miterlimit:4;" d="M 62 203.358333 L 62 203.516667 L 113.8 203.516667 L 113.8 188.316667 C 113.8 186.716667 113.408333 184.566667 112.1 182.808333 C 110.783333 181.041667 108.558333 179.7 104.941667 179.7 L 62 179.7 Z M 62 203.358333 " transform="matrix(0.46875,0,0,0.46875,0,0)"/>
</g>
</svg>
