<?xml version="1.0" encoding="UTF-8"?>
<svg version="1.1" xmlns="http://www.w3.org/2000/svg" width="800" height="800">
<path d="M0 0 C264 0 528 0 800 0 C800 264 800 528 800 800 C536 800 272 800 0 800 C0 536 0 272 0 0 Z " fill="#AAF219" transform="translate(0,0)"/>
<path d="M0 0 C0.80824219 0.25652344 1.61648438 0.51304688 2.44921875 0.77734375 C14.75730884 5.16905124 24.2659205 14.44081489 30.375 25.875 C35.68682785 37.27810871 37.13584693 50.97059378 33 63 C32.74347656 63.79019531 32.48695313 64.58039063 32.22265625 65.39453125 C28.54374153 75.67338739 21.27355425 83.02544814 13.65464306 90.60262585 C12.83745437 91.42332061 12.02026568 92.24401537 11.1783137 93.08957967 C8.92258034 95.35297757 6.66247568 97.61189862 4.40039163 99.8689462 C1.93533216 102.33072186 -0.52392007 104.798288 -2.98394078 107.26509696 C-7.29181318 111.58325159 -11.60338314 115.89768621 -15.91742897 120.20967293 C-22.33263327 126.62182272 -28.74212876 133.03965655 -35.15057069 139.4585639 C-47.26225094 151.5895709 -59.38076987 163.71373076 -71.50154368 175.835651 C-80.8605706 185.19559736 -90.21799632 194.55714159 -99.57430077 203.91980934 C-102.26845043 206.61575411 -104.96260784 209.31169114 -107.65676755 212.00762588 C-108.32655304 212.67785347 -108.99633853 213.34808105 -109.68642055 214.03861857 C-128.52155812 232.88606143 -147.3588997 251.73129914 -166.20063496 270.57214642 C-167.26584719 271.63731191 -167.26584719 271.63731191 -168.35257886 272.7239959 C-171.95181186 276.32306269 -175.55106079 279.92211353 -179.15031324 283.52116086 C-179.86512886 284.2359366 -180.57994449 284.95071234 -181.3164212 285.68714794 C-182.76195088 287.13259675 -184.20748192 288.57804419 -185.65301432 290.02349028 C-208.15107178 312.5203218 -230.64098977 335.02526267 -253.12475586 357.53637695 C-278.38847797 382.83081605 -303.65894077 408.11849467 -328.93895596 433.39665061 C-331.63407781 436.0916232 -334.32917374 438.78662171 -337.02425194 441.48163795 C-338.01964541 442.47699646 -338.01964541 442.47699646 -339.03514784 443.49246323 C-349.71508766 454.17234149 -360.38859722 464.85862385 -371.05989041 475.54714096 C-381.78217168 486.28637043 -392.51191371 497.01810084 -403.24924818 507.74228009 C-409.62784819 514.11348629 -416.00085531 520.49016907 -422.36595084 526.87486743 C-426.61921458 531.14012205 -430.87971764 535.39805303 -435.14615478 539.65013036 C-437.57606388 542.07226921 -440.00273697 544.49741887 -442.42064885 546.93153914 C-445.03034102 549.5553302 -447.65205729 552.16649713 -450.27711964 554.77489758 C-451.02053872 555.52825302 -451.76395781 556.28160847 -452.52990475 557.05779287 C-463.59603039 567.97585724 -475.64495534 572.99598516 -491.1875 573.3125 C-504.96887037 573.17672295 -516.32919017 567.56461265 -526.3125 558.1875 C-537.20758375 546.6449625 -540.42662675 533.39636488 -540.2734375 517.84765625 C-539.24398292 503.36175972 -530.63315526 492.00639135 -520.62899494 482.12283707 C-519.39904558 480.88371766 -519.39904558 480.88371766 -518.14424875 479.61956555 C-515.88424797 477.34673284 -513.6156262 475.0829548 -511.34291594 472.82284436 C-508.86571568 470.35494396 -506.40019466 467.87541856 -503.93311709 465.39740634 C-499.6135469 461.06189268 -495.28663106 456.73382195 -490.95473671 452.41062355 C-484.51295081 445.98173424 -478.08265966 439.5414378 -471.6545201 433.09890739 C-460.17196502 421.59143896 -448.67793134 410.09549035 -437.1788636 398.60452501 C-427.11546199 388.54819944 -417.05558089 378.48836934 -406.99921227 368.42501068 C-405.64963035 367.07451744 -404.30004816 365.72402448 -402.95046568 364.3735318 C-400.91671622 362.3383992 -398.88297074 360.30326263 -396.84923567 358.26811566 C-377.94512983 339.35103177 -359.0370978 320.43787941 -340.12068653 301.53310013 C-339.05140137 300.46447193 -339.05140137 300.46447193 -337.96051449 299.37425528 C-332.17178463 293.58913214 -326.38294075 287.80412309 -320.5940896 282.01912132 C-298.01183668 259.45171706 -275.44142997 236.87252708 -252.88061523 214.28369141 C-227.52585028 188.89749554 -202.16287087 163.51954993 -176.78728694 138.15416312 C-174.08145902 135.44937197 -171.37565586 132.74455604 -168.66986656 130.03972626 C-168.00363946 129.37374804 -167.33741235 128.70776982 -166.65099655 128.02161045 C-156.59682906 117.97088215 -146.54904794 107.91379911 -136.50443459 97.85352325 C-125.08119228 86.41250963 -113.64916554 74.9803574 -102.20541499 63.55985531 C-95.80345742 57.17039378 -89.40845368 50.77415529 -83.0233204 44.36787986 C-78.75467972 40.08649814 -74.47697673 35.81431469 -70.19186975 31.54941402 C-67.7525832 29.12112578 -65.31733014 26.68915133 -62.89302716 24.24589613 C-45.11813492 6.36101758 -26.89639018 -8.73259421 0 0 Z " fill="#FEFEFE" transform="translate(615,77)"/>
<path d="M0 0 C0.80824219 0.25652344 1.61648438 0.51304687 2.44921875 0.77734375 C14.75730884 5.16905124 24.2659205 14.44081489 30.375 25.875 C35.68682785 37.27810871 37.13584693 50.97059378 33 63 C32.74347656 63.79019531 32.48695313 64.58039063 32.22265625 65.39453125 C28.19794836 76.63953055 19.81267579 84.48283186 11.50675964 92.76066589 C10.45147868 93.81969016 9.39662887 94.8791442 8.34216958 95.9389866 C5.46295861 98.83035807 2.57760518 101.7155288 -0.30887425 104.59964168 C-3.42841632 107.71877383 -6.54221567 110.84363045 -9.65681458 113.96769714 C-15.75154456 120.07899814 -21.85178205 126.18477233 -27.95424417 132.2883515 C-32.91537146 137.25043078 -37.87491266 142.21408981 -42.83334923 147.1788578 C-56.9031681 161.26627571 -70.97715812 175.34950726 -85.05653004 189.42737766 C-85.81461585 190.18538356 -86.57270166 190.94338946 -87.35375977 191.72436523 C-88.11277553 192.48329924 -88.8717913 193.24223324 -89.65380754 194.02416525 C-101.96058058 206.33012499 -114.25734024 218.64603697 -126.54960505 230.96648725 C-139.18262926 243.62824877 -151.8231059 256.28252804 -164.47137088 268.92906553 C-171.56781814 276.02484935 -178.66116534 283.12366908 -185.74650002 290.23055077 C-191.77708157 296.27935485 -197.81456404 302.32116474 -203.86104516 308.35407706 C-206.94379127 311.43030005 -210.02325981 314.50962169 -213.09404755 317.59778595 C-215.90883169 320.42833347 -218.7328023 323.24937422 -221.5641652 326.06333534 C-222.58309032 327.07919788 -223.5986978 328.09840218 -224.61048446 329.12137475 C-236.80163284 341.43825924 -248.62016655 347.95475152 -266.1875 348.3125 C-279.96887037 348.17672295 -291.32919017 342.56461265 -301.3125 333.1875 C-312.20758375 321.6449625 -315.42662675 308.39636488 -315.2734375 292.84765625 C-314.15317561 277.08397106 -304.20817274 265.59867213 -293.44429016 254.92962646 C-292.38176056 253.86176038 -291.32010059 252.79302843 -290.25922745 251.7235167 C-287.3655092 248.81129059 -284.45959337 245.91151917 -281.55135787 243.01380014 C-278.40769923 239.87716732 -275.27560765 236.72901849 -272.14195251 233.58239746 C-266.01058419 227.42944069 -259.86843702 221.28735558 -253.72219215 215.14926264 C-248.7248102 210.15819258 -243.73117759 205.16340016 -238.7401638 200.16596222 C-238.02853371 199.45343047 -237.31690361 198.74089872 -236.58370897 198.0067751 C-235.13783686 196.5590517 -233.6919704 195.11132267 -232.24610951 193.66358808 C-218.70218438 180.10310256 -205.14566197 166.55526644 -191.58502837 153.01149252 C-179.19154933 140.6327101 -166.81279463 128.23932464 -154.44108973 115.83878371 C-141.72191946 103.09018969 -128.99353222 90.35086855 -116.25487202 77.62174821 C-114.81287236 76.18077105 -113.37088664 74.73977994 -111.92891502 73.29877472 C-111.21952803 72.58986412 -110.51014104 71.88095352 -109.77925748 71.15056078 C-104.79316231 66.16662572 -99.81306309 61.17674791 -94.83535194 56.18444061 C-88.76441612 50.09595083 -82.68468454 44.01641142 -76.59361801 37.94805834 C-73.489129 34.85468323 -70.38870539 31.7575148 -67.29911423 28.64925385 C-64.46539606 25.79863369 -61.62019088 22.96000794 -58.76576819 20.1301246 C-57.7405699 19.10977816 -56.71947533 18.08528629 -55.70319156 17.05606052 C-40.43105086 1.60370333 -21.75692376 -7.06393629 0 0 Z " fill="#FEFEFE" transform="translate(665,352)"/>
</svg>
