<?xml version="1.0" encoding="UTF-8"?>
<svg xmlns="http://www.w3.org/2000/svg" xmlns:xlink="http://www.w3.org/1999/xlink" viewBox="0 0 128 128" version="1.1">
<g id="surface1">
<path style=" stroke:none;fill-rule:nonzero;fill:rgb(66.666669%,94.901961%,9.803922%);fill-opacity:1;" d="M 0 0 C 42.238281 0 84.480469 0 128 0 C 128 42.238281 128 84.480469 128 128 C 85.761719 128 43.519531 128 0 128 C 0 85.761719 0 43.519531 0 0 Z M 0 0 "/>
<path style=" stroke:none;fill-rule:nonzero;fill:rgb(99.607843%,99.607843%,99.607843%);fill-opacity:1;" d="M 98.398438 12.320312 C 98.53125 12.359375 98.660156 12.402344 98.792969 12.445312 C 100.761719 13.148438 102.28125 14.628906 103.261719 16.460938 C 104.109375 18.285156 104.339844 20.476562 103.679688 22.398438 C 103.640625 22.527344 103.597656 22.652344 103.554688 22.78125 C 102.96875 24.429688 101.804688 25.605469 100.585938 26.816406 C 100.453125 26.949219 100.324219 27.078125 100.1875 27.214844 C 99.828125 27.578125 99.464844 27.9375 99.105469 28.300781 C 98.710938 28.691406 98.316406 29.085938 97.921875 29.480469 C 97.234375 30.171875 96.542969 30.863281 95.851562 31.554688 C 94.828125 32.578125 93.800781 33.605469 92.777344 34.632812 C 90.839844 36.574219 88.898438 38.515625 86.960938 40.453125 C 85.460938 41.953125 83.964844 43.449219 82.46875 44.945312 C 82.035156 45.378906 81.605469 45.808594 81.175781 46.242188 C 81.066406 46.347656 80.960938 46.457031 80.851562 46.566406 C 77.835938 49.582031 74.824219 52.597656 71.808594 55.613281 C 71.636719 55.78125 71.636719 55.78125 71.464844 55.957031 C 70.886719 56.53125 70.3125 57.109375 69.734375 57.683594 C 69.621094 57.796875 69.507812 57.914062 69.390625 58.03125 C 69.15625 58.261719 68.925781 58.492188 68.695312 58.722656 C 65.097656 62.324219 61.496094 65.925781 57.898438 69.527344 C 53.859375 73.574219 49.816406 77.617188 45.769531 81.664062 C 45.339844 82.09375 44.90625 82.527344 44.476562 82.957031 C 44.316406 83.117188 44.316406 83.117188 44.15625 83.277344 C 42.445312 84.988281 40.738281 86.699219 39.03125 88.40625 C 37.316406 90.125 35.597656 91.84375 33.878906 93.558594 C 32.859375 94.578125 31.839844 95.597656 30.820312 96.621094 C 30.140625 97.300781 29.460938 97.984375 28.777344 98.664062 C 28.386719 99.050781 28 99.441406 27.613281 99.828125 C 27.195312 100.25 26.777344 100.667969 26.355469 101.082031 C 26.238281 101.203125 26.117188 101.324219 25.996094 101.449219 C 24.226562 103.195312 22.296875 104 19.808594 104.050781 C 17.605469 104.027344 15.789062 103.128906 14.191406 101.628906 C 12.445312 99.78125 11.933594 97.664062 11.957031 95.175781 C 12.121094 92.859375 13.5 91.042969 15.097656 89.460938 C 15.296875 89.261719 15.296875 89.261719 15.496094 89.058594 C 15.859375 88.695312 16.222656 88.332031 16.585938 87.972656 C 16.980469 87.578125 17.375 87.179688 17.769531 86.785156 C 18.460938 86.089844 19.152344 85.398438 19.847656 84.707031 C 20.878906 83.675781 21.90625 82.648438 22.933594 81.617188 C 24.773438 79.773438 26.613281 77.933594 28.453125 76.097656 C 30.0625 74.488281 31.671875 72.878906 33.28125 71.269531 C 33.496094 71.050781 33.710938 70.835938 33.929688 70.621094 C 34.253906 70.292969 34.578125 69.96875 34.902344 69.644531 C 37.929688 66.617188 40.953125 63.589844 43.980469 60.566406 C 44.152344 60.394531 44.152344 60.394531 44.328125 60.21875 C 45.253906 59.292969 46.179688 58.367188 47.105469 57.441406 C 50.71875 53.832031 54.328125 50.21875 57.9375 46.605469 C 61.996094 42.542969 66.054688 38.484375 70.113281 34.425781 C 70.546875 33.992188 70.980469 33.558594 71.414062 33.125 C 71.519531 33.019531 71.625 32.914062 71.734375 32.804688 C 73.34375 31.195312 74.953125 29.585938 76.558594 27.976562 C 78.386719 26.144531 80.214844 24.316406 82.046875 22.488281 C 83.070312 21.46875 84.09375 20.445312 85.117188 19.417969 C 85.800781 18.734375 86.484375 18.050781 87.167969 17.367188 C 87.558594 16.980469 87.949219 16.589844 88.335938 16.199219 C 91.179688 13.335938 94.097656 10.921875 98.398438 12.320312 Z M 98.398438 12.320312 "/>
<path style=" stroke:none;fill-rule:nonzero;fill:rgb(99.607843%,99.607843%,99.607843%);fill-opacity:1;" d="M 106.398438 56.320312 C 106.53125 56.359375 106.660156 56.402344 106.792969 56.445312 C 108.761719 57.148438 110.28125 58.628906 111.261719 60.460938 C 112.109375 62.285156 112.339844 64.476562 111.679688 66.398438 C 111.640625 66.527344 111.597656 66.652344 111.554688 66.78125 C 110.910156 68.582031 109.570312 69.835938 108.242188 71.160156 C 108.070312 71.332031 107.902344 71.5 107.734375 71.671875 C 107.273438 72.132812 106.8125 72.59375 106.351562 73.054688 C 105.851562 73.554688 105.351562 74.054688 104.855469 74.554688 C 103.878906 75.53125 102.902344 76.507812 101.925781 77.484375 C 101.132812 78.28125 100.339844 79.074219 99.546875 79.867188 C 97.296875 82.121094 95.042969 84.375 92.789062 86.628906 C 92.667969 86.75 92.546875 86.871094 92.421875 86.996094 C 92.300781 87.117188 92.179688 87.238281 92.054688 87.363281 C 90.085938 89.332031 88.117188 91.304688 86.152344 93.273438 C 84.128906 95.300781 82.109375 97.324219 80.085938 99.347656 C 78.949219 100.484375 77.8125 101.621094 76.679688 102.757812 C 75.714844 103.726562 74.75 104.691406 73.78125 105.65625 C 73.289062 106.148438 72.796875 106.640625 72.304688 107.136719 C 71.855469 107.589844 71.402344 108.039062 70.949219 108.488281 C 70.785156 108.652344 70.625 108.816406 70.460938 108.980469 C 68.511719 110.949219 66.621094 111.992188 63.808594 112.050781 C 61.605469 112.027344 59.789062 111.128906 58.191406 109.628906 C 56.445312 107.78125 55.933594 105.664062 55.957031 103.175781 C 56.136719 100.652344 57.726562 98.816406 59.449219 97.109375 C 59.617188 96.9375 59.789062 96.765625 59.957031 96.597656 C 60.421875 96.128906 60.886719 95.664062 61.351562 95.203125 C 61.855469 94.699219 62.355469 94.195312 62.855469 93.691406 C 63.839844 92.707031 64.820312 91.726562 65.804688 90.742188 C 66.605469 89.945312 67.402344 89.144531 68.203125 88.347656 C 68.316406 88.234375 68.429688 88.117188 68.546875 88 C 68.777344 87.769531 69.007812 87.539062 69.242188 87.304688 C 71.40625 85.136719 73.578125 82.96875 75.746094 80.800781 C 77.730469 78.820312 79.710938 76.839844 81.6875 74.855469 C 83.722656 72.8125 85.761719 70.777344 87.800781 68.738281 C 88.03125 68.507812 88.261719 68.277344 88.492188 68.046875 C 88.605469 67.933594 88.71875 67.820312 88.835938 67.703125 C 89.632812 66.90625 90.429688 66.109375 91.226562 65.308594 C 92.199219 64.335938 93.171875 63.363281 94.144531 62.390625 C 94.640625 61.898438 95.136719 61.402344 95.632812 60.902344 C 96.085938 60.449219 96.539062 59.992188 96.996094 59.539062 C 97.160156 59.378906 97.324219 59.214844 97.488281 59.050781 C 99.929688 56.578125 102.917969 55.191406 106.398438 56.320312 Z M 106.398438 56.320312 "/>
</g>
</svg>
