<svg version="1.1" id="Layer_1" xmlns="http://www.w3.org/2000/svg" xmlns:xlink="http://www.w3.org/1999/xlink" x="0px" y="0px"
	 width="100%" viewBox="0 0 120 120" enable-background="new 0 0 120 120" xml:space="preserve">
<path fill="#07B6D5" opacity="1.000000" stroke="none" 
	d="
M67.000000,121.000000 
	C44.666668,121.000000 22.833334,121.000000 1.000000,121.000000 
	C1.000000,81.000000 1.000000,41.000000 1.000000,1.000000 
	C41.000000,1.000000 81.000000,1.000000 121.000000,1.000000 
	C121.000000,41.000000 121.000000,81.000000 121.000000,121.000000 
	C103.166664,121.000000 85.333336,121.000000 67.000000,121.000000 
M76.420746,46.095921 
	C70.015373,39.607952 62.336269,38.311943 53.931973,40.964531 
	C48.570683,42.656681 45.353783,46.812363 44.946335,51.639557 
	C52.547764,46.524284 56.190277,46.728184 62.753181,53.483482 
	C69.151688,60.069553 76.567879,62.495235 85.386536,59.980152 
	C90.577698,58.499630 94.134766,55.174183 95.679916,49.441654 
	C85.839775,53.786453 83.947914,53.472034 76.420746,46.095921 
M62.707565,71.127731 
	C60.367641,69.001823 58.084705,66.808876 55.677139,64.762550 
	C48.367622,58.549797 30.923206,59.124607 27.421846,70.804474 
	C38.663822,70.282875 38.657902,70.290596 48.615223,77.920662 
	C54.356636,82.320175 60.799358,83.043350 67.558510,81.127777 
	C72.977890,79.591911 76.490959,76.049919 78.190201,69.559738 
	C73.046333,73.622398 68.381889,74.950882 62.707565,71.127731 
z"/>
<path fill="#F6FCFD" opacity="1.000000" stroke="none" 
	d="
M76.674866,46.349976 
	C83.947914,53.472034 85.839775,53.786453 95.679916,49.441654 
	C94.134766,55.174183 90.577698,58.499630 85.386536,59.980152 
	C76.567879,62.495235 69.151688,60.069553 62.753181,53.483482 
	C56.190277,46.728184 52.547764,46.524284 44.946335,51.639557 
	C45.353783,46.812363 48.570683,42.656681 53.931973,40.964531 
	C62.336269,38.311943 70.015373,39.607952 76.674866,46.349976 
z"/>
<path fill="#F8FDFD" opacity="1.000000" stroke="none" 
	d="
M63.002781,71.378571 
	C68.381889,74.950882 73.046333,73.622398 78.190201,69.559738 
	C76.490959,76.049919 72.977890,79.591911 67.558510,81.127777 
	C60.799358,83.043350 54.356636,82.320175 48.615223,77.920662 
	C38.657902,70.290596 38.663822,70.282875 27.421846,70.804474 
	C30.923206,59.124607 48.367622,58.549797 55.677139,64.762550 
	C58.084705,66.808876 60.367641,69.001823 63.002781,71.378571 
z"/>
</svg>