<?xml version="1.0" encoding="UTF-8"?>
<svg version="1.1" xmlns="http://www.w3.org/2000/svg" width="512" height="512">
<path d="M0 0 C168.96 0 337.92 0 512 0 C512 168.96 512 337.92 512 512 C343.04 512 174.08 512 0 512 C0 343.04 0 174.08 0 0 Z " fill="#07B5D4" transform="translate(0,0)"/>
<path d="M0 0 C1.95564121 1.78898657 3.8108574 3.60502163 5.6171875 5.54296875 C7.56299972 7.59321722 9.77866647 9.2589548 12 11 C14.3125 13.125 14.3125 13.125 16 15 C16 15.66 16 16.32 16 17 C16.86238281 17.37705078 16.86238281 17.37705078 17.7421875 17.76171875 C20.28645577 19.15710463 22.03882402 20.79945565 24.125 22.8125 C35.03945254 32.71835626 46.53008135 33.88926258 60.68701172 33.2265625 C66.01311223 32.70485876 70.41807521 30.63913297 75 28 C76.21042969 27.31357422 76.21042969 27.31357422 77.4453125 26.61328125 C83.20085571 23.05264859 89.91516276 18.16967448 93 12 C93.66 12.33 94.32 12.66 95 13 C87.56323591 34.01808859 77.64150623 53.1648787 56.84765625 63.72265625 C36.39127047 72.89856592 10.25508502 74.85989902 -11 67 C-27.43417799 60.35884361 -40.56928732 49.62649002 -52.87280273 37.03759766 C-58.19558347 31.60330078 -63.29184153 26.72392067 -70 23 C-70.69867188 22.60296875 -71.39734375 22.2059375 -72.1171875 21.796875 C-81.15110732 16.95605759 -92.71997251 16.67541047 -102.7265625 18.49609375 C-104.92452218 19.18344157 -106.92593116 20.00152459 -109 21 C-109.71027344 21.31710937 -110.42054687 21.63421875 -111.15234375 21.9609375 C-119.29276863 25.99538358 -125.67758741 32.59384685 -132 39 C-131.50724482 33.20852673 -130.37563986 28.75910562 -127.8125 23.5625 C-127.49716309 22.90999268 -127.18182617 22.25748535 -126.85693359 21.58520508 C-118.71591453 5.07167849 -106.32932805 -8.11117496 -89 -15 C-57.80800369 -24.82399036 -25.60633743 -20.98437665 0 0 Z " fill="#FAFEFE" transform="translate(238,275)"/>
<path d="M0 0 C2.38137602 2.12324213 4.6308635 4.32353579 6.87109375 6.59375 C8.15327679 7.70891521 9.44478308 8.81346578 10.74609375 9.90625 C13.71475983 12.47390675 16.46254116 15.19347605 19.19604492 18.00463867 C30.0716067 29.15427351 40.68393051 36.87002346 56.74609375 37.15625 C73.01528616 37.05282975 84.73090306 28.76488207 95.87109375 17.65625 C96.53109375 16.975625 97.19109375 16.295 97.87109375 15.59375 C96.97111765 29.03532856 88.95848352 42.87101306 79.87109375 52.59375 C79.18015625 53.33753906 78.48921875 54.08132812 77.77734375 54.84765625 C62.38748916 70.00666302 42.61224056 73.90930777 21.80859375 74.09375 C21.13417236 74.10446533 20.45975098 74.11518066 19.76489258 74.1262207 C6.61204318 74.28445768 -5.72536108 72.05740163 -17.44140625 65.84375 C-18.10889893 65.49795898 -18.7763916 65.15216797 -19.46411133 64.79589844 C-25.26622498 61.69637968 -30.25451892 58.0159536 -35.12890625 53.59375 C-35.87237305 52.92835205 -35.87237305 52.92835205 -36.63085938 52.24951172 C-41.56416335 47.82722131 -46.45544051 43.36542466 -51.05078125 38.58984375 C-59.59941402 29.7152038 -69.32660354 21.81451834 -82.15234375 21.16015625 C-83.93604014 21.13639563 -85.72016999 21.1356993 -87.50390625 21.15625 C-88.90261963 21.16978516 -88.90261963 21.16978516 -90.32958984 21.18359375 C-96.98092953 21.35159812 -102.40993344 21.97207491 -108.12890625 25.59375 C-109.02480469 26.15320313 -109.92070312 26.71265625 -110.84375 27.2890625 C-117.61004 31.87417534 -122.92483641 37.32316708 -128.12890625 43.59375 C-130.22900993 37.29343895 -124.84830053 28.46243377 -122.12890625 22.59375 C-113.47595589 5.68522001 -99.8705868 -6.64445052 -81.83666992 -12.68408203 C-54.56815924 -21.32076189 -22.88672103 -17.60077422 0 0 Z " fill="#FAFEFE" transform="translate(310.12890625,181.40625)"/>
<path d="M0 0 C1.32 0.33 2.64 0.66 4 1 C0.47501264 4.05021969 -2.79904666 5.96904485 -7.125 7.6875 C-8.15882813 8.10386719 -9.19265625 8.52023438 -10.2578125 8.94921875 C-15.23085084 10.8548417 -19.47101948 11.18325645 -24.75 11.1875 C-25.53632813 11.19974609 -26.32265625 11.21199219 -27.1328125 11.22460938 C-32.14430555 11.23709648 -36.24964503 10.60673771 -41 9 C-38.01504821 8.13202318 -35.40024937 7.89293619 -32.296875 7.9375 C-31.39839844 7.94523438 -30.49992187 7.95296875 -29.57421875 7.9609375 C-27.70702825 7.98676309 -25.83984067 8.01280112 -23.97265625 8.0390625 C-18.53903014 8.08557 -13.37552817 7.80759109 -8 7 C-8 6.34 -8 5.68 -8 5 C-5.09399739 3.74335022 -3.20395416 3 0 3 C0 2.01 0 1.02 0 0 Z " fill="#2EB4CD" transform="translate(392,208)"/>
<path d="M0 0 C0.66 0.33 1.32 0.66 2 1 C-4.15034169 17.8929385 -4.15034169 17.8929385 -8 25 C-9 22 -9 22 -8 19 C-7.34 19 -6.68 19 -6 19 C-5.66574265 16.62625139 -5.66574265 16.62625139 -6 14 C-7.96046559 12.32110423 -7.96046559 12.32110423 -10 11 C-9.36191406 10.37351562 -8.72382813 9.74703125 -8.06640625 9.1015625 C-7.24011719 8.28429687 -6.41382813 7.46703125 -5.5625 6.625 C-4.73878906 5.81289063 -3.91507812 5.00078125 -3.06640625 4.1640625 C-0.96565328 2.17651485 -0.96565328 2.17651485 0 0 Z " fill="#CFFAFC" transform="translate(331,287)"/>
<path d="M0 0 C0.87840996 3.09720845 0.99435406 4.90645403 0 8 C0.721875 7.175 1.44375 6.35 2.1875 5.5 C5 3 5 3 7.8125 2.6875 C8.534375 2.790625 9.25625 2.89375 10 3 C4.66666667 8.33333333 -0.66666667 13.66666667 -6 19 C-4.70024676 12.28460827 -2.70071112 6.27980887 0 0 Z " fill="#BAF4FA" transform="translate(187,206)"/>
<path d="M0 0 C0.66 0.99 1.32 1.98 2 3 C-0.31 2.34 -2.62 1.68 -5 1 C-5 0.34 -5 -0.32 -5 -1 C-5.99 -1 -6.98 -1 -8 -1 C-8 -1.66 -8 -2.32 -8 -3 C-21.43183137 -6.64865185 -21.43183137 -6.64865185 -35 -5 C-37.33299825 -4.96045766 -39.66708189 -4.95598268 -42 -5 C-32.34583767 -14.65416233 -9.23804838 -6.11204211 0 0 Z " fill="#32B7CC" transform="translate(173,300)"/>
<path d="M0 0 C-5.61626217 2.84587919 -9.96812671 3.41136456 -16.21484375 3.29296875 C-17.07058487 3.28872391 -17.92632599 3.28447906 -18.80799866 3.28010559 C-21.5181642 3.26342789 -24.22756248 3.22579705 -26.9375 3.1875 C-28.7844944 3.17243902 -30.63150056 3.1587531 -32.47851562 3.14648438 C-36.98596884 3.11356026 -41.49285472 3.06185469 -46 3 C-44 1 -44 1 -41.39306641 0.8046875 C-40.30687012 0.82789063 -39.22067383 0.85109375 -38.1015625 0.875 C-36.89886719 0.89046875 -35.69617188 0.9059375 -34.45703125 0.921875 C-31.94138989 0.97316229 -29.42576412 1.02522052 -26.91015625 1.078125 C-19.88113749 1.16757169 -13.38970802 0.79224851 -6.50146484 -0.66015625 C-3.97547393 -1.00333206 -2.39526375 -0.80286602 0 0 Z " fill="#24B2CA" transform="translate(284,344)"/>
<path d="M0 0 C1.86022936 5.58068808 -1.29494644 11.48544051 -3.6875 16.625 C-4.120625 17.40875 -4.55375 18.1925 -5 19 C-5.144375 18.401875 -5.28875 17.80375 -5.4375 17.1875 C-6.22893316 14.10970438 -6.71542726 12.28457274 -9 10 C-6.03 6.7 -3.06 3.4 0 0 Z " fill="#E3FBFE" transform="translate(407,197)"/>
<path d="M0 0 C7.03435544 0.11165644 12.62715591 1.78034744 19.0625 4.4375 C19.8248999 4.75017822 20.5872998 5.06285645 21.37280273 5.38500977 C26.86553146 7.73106292 26.86553146 7.73106292 28 10 C22.93266107 9.22488123 18.45063816 7.20656085 13.79101562 5.171875 C9.16347978 3.23542923 5.00094063 2.44403468 0 2 C0 1.34 0 0.68 0 0 Z " fill="#CCF8FC" transform="translate(197,257)"/>
<path d="M0 0 C0.33 0.99 0.66 1.98 1 3 C-0.27358732 4.71275535 -1.61423077 6.37667033 -3 8 C-3.70885894 9.31138904 -4.39456452 10.63777017 -5 12 C-5.66 12 -6.32 12 -7 12 C-7.33 12.99 -7.66 13.98 -8 15 C-9.32 14.67 -10.64 14.34 -12 14 C-11.20335937 13.23816406 -11.20335937 13.23816406 -10.390625 12.4609375 C-6.36535478 8.53850265 -2.89400247 4.82333745 0 0 Z " fill="#25B3CC" transform="translate(396,225)"/>
<path d="M0 0 C0.66 0 1.32 0 2 0 C0.55215477 3.37830553 -1.16332276 5.64961028 -4 8 C-6.625 8.875 -6.625 8.875 -9 9 C-9.66 8.34 -10.32 7.68 -11 7 C-10.28972656 6.57847656 -9.57945312 6.15695313 -8.84765625 5.72265625 C-7.92855469 5.17480469 -7.00945312 4.62695312 -6.0625 4.0625 C-5.14597656 3.51722656 -4.22945313 2.97195312 -3.28515625 2.41015625 C-1.11587323 1.19267827 -1.11587323 1.19267827 0 0 Z " fill="#29B7D3" transform="translate(382,240)"/>
<path d="M0 0 C0.66 1.32 1.32 2.64 2 4 C1.01 4.495 1.01 4.495 0 5 C-0.33 5.99 -0.66 6.98 -1 8 C-1.99 8.495 -1.99 8.495 -3 9 C-3.90343684 10.88263881 -3.90343684 10.88263881 -4.625 13.0625 C-4.88539062 13.79597656 -5.14578125 14.52945312 -5.4140625 15.28515625 C-5.60742188 15.85105469 -5.80078125 16.41695313 -6 17 C-6.66 17 -7.32 17 -8 17 C-6.19389405 10.65660349 -3.74372266 5.43061745 0 0 Z " fill="#C8F6FA" transform="translate(118,284)"/>
<path d="M0 0 C6.875 0.875 6.875 0.875 8 2 C9.51469448 2.23192865 11.03754562 2.41215238 12.5625 2.5625 C13.38878906 2.64628906 14.21507812 2.73007812 15.06640625 2.81640625 C15.70449219 2.87699219 16.34257812 2.93757813 17 3 C17 3.66 17 4.32 17 5 C10.67721029 4.67373505 5.44535609 4.38495108 0 1 C0 0.67 0 0.34 0 0 Z " fill="#2DB5CA" transform="translate(271,304)"/>
<path d="M0 0 C0.90595644 2.44608238 1.06254376 3.76858809 0.375 6.3125 C-1.42554678 9.83175052 -3.63778894 12.8296641 -6 16 C-6.66 15.67 -7.32 15.34 -8 15 C-7.38511719 14.00419922 -7.38511719 14.00419922 -6.7578125 12.98828125 C-6.21898437 12.10527344 -5.68015625 11.22226562 -5.125 10.3125 C-4.59132813 9.44238281 -4.05765625 8.57226562 -3.5078125 7.67578125 C-2.09359186 5.16608918 -1.00105211 2.69700931 0 0 Z " fill="#2EBACA" transform="translate(327,302)"/>
<path d="M0 0 C-1.32 0.33 -2.64 0.66 -4 1 C-4 1.66 -4 2.32 -4 3 C-5.65 3 -7.3 3 -9 3 C-9 3.66 -9 4.32 -9 5 C-10.98 5.33 -12.96 5.66 -15 6 C-5.32446809 -2.25265957 -5.32446809 -2.25265957 0 0 Z " fill="#34B8CD" transform="translate(212,204)"/>
<path d="M0 0 C5.58600091 0.41895007 9.62501555 2.6482816 14 6 C14.33 6.66 14.66 7.32 15 8 C12.69 7.34 10.38 6.68 8 6 C8 5.34 8 4.68 8 4 C7.01 4 6.02 4 5 4 C5 3.34 5 2.68 5 2 C3.35 1.67 1.7 1.34 0 1 C0 0.67 0 0.34 0 0 Z " fill="#25B1CC" transform="translate(160,295)"/>
<path d="M0 0 C-1.91149668 1.0098473 -3.82941569 2.00754495 -5.75 3 C-6.81734375 3.556875 -7.8846875 4.11375 -8.984375 4.6875 C-12 6 -12 6 -16 6 C-14.40626819 2.81253637 -11.15467716 2.25652395 -8 1 C-7.0925 0.5875 -6.185 0.175 -5.25 -0.25 C-3 -1 -3 -1 0 0 Z " fill="#25B5CD" transform="translate(149,261)"/>
<path d="M0 0 C1.18414294 3.55242882 0.69535532 4.69830562 -0.4375 8.1875 C-0.72496094 9.08855469 -1.01242187 9.98960937 -1.30859375 10.91796875 C-1.53675781 11.60503906 -1.76492188 12.29210937 -2 13 C-3 10 -3 10 -3 7 C-3.66 6.67 -4.32 6.34 -5 6 C-3.35 4.02 -1.7 2.04 0 0 Z " fill="#B0F4F9" transform="translate(407,197)"/>
<path d="M0 0 C0 3 0 3 -1 5 C-1.66 5 -2.32 5 -3 5 C-3.33 5.99 -3.66 6.98 -4 8 C-7.0625 9.1875 -7.0625 9.1875 -10 10 C-3.84965831 2.51708428 -3.84965831 2.51708428 0 0 Z " fill="#31B5D1" transform="translate(120,300)"/>
<path d="M0 0 C0.721875 0.103125 1.44375 0.20625 2.1875 0.3125 C-0.98202847 3.57258643 -4.21187989 6.53487877 -7.8125 9.3125 C-7.8125 5.3125 -7.8125 5.3125 -5.625 2.5625 C-2.8125 0.3125 -2.8125 0.3125 0 0 Z " fill="#D3F8FD" transform="translate(194.8125,208.6875)"/>
<path d="M0 0 C0.91574833 3.0906506 1.40198406 5.78412751 1 9 C-1 11.3125 -1 11.3125 -3 13 C-2.52060632 8.28596212 -2.03165952 4.33420699 0 0 Z " fill="#ACF0F8" transform="translate(109,301)"/>
<path d="M0 0 C0.33 0.99 0.66 1.98 1 3 C2.65 2.67 4.3 2.34 6 2 C4.38405168 4.04119788 2.7143618 6.04072937 1 8 C0.34 8 -0.32 8 -1 8 C-0.67 5.36 -0.34 2.72 0 0 Z " fill="#E1FEFE" transform="translate(110,301)"/>
<path d="M0 0 C1.21236328 0.04060547 1.21236328 0.04060547 2.44921875 0.08203125 C3.06410156 0.11683594 3.67898438 0.15164063 4.3125 0.1875 C1.81744038 2.68255962 0.63921112 2.54698376 -2.8125 2.8125 C-3.72257812 2.88726562 -4.63265625 2.96203125 -5.5703125 3.0390625 C-6.61832031 3.11253906 -6.61832031 3.11253906 -7.6875 3.1875 C-5.26849268 0.20484049 -3.789448 -0.16475861 0 0 Z " fill="#CAF8F9" transform="translate(281.6875,340.8125)"/>
<path d="M0 0 C0.33 0.66 0.66 1.32 1 2 C-0.21958756 4.67371119 -1.18298261 6.75412136 -3 9 C-5.75 9.9375 -5.75 9.9375 -8 10 C-7.04367001 8.70684939 -6.08486149 7.41553147 -5.125 6.125 C-4.59132813 5.40570313 -4.05765625 4.68640625 -3.5078125 3.9453125 C-2 2 -2 2 0 0 Z " fill="#37B9CE" transform="translate(318,318)"/>
<path d="M0 0 C0 0.66 0 1.32 0 2 C-0.66 2 -1.32 2 -2 2 C-2.2475 2.598125 -2.495 3.19625 -2.75 3.8125 C-4.16370012 6.28647521 -5.65055383 7.43370255 -8 9 C-8.66 8.67 -9.32 8.34 -10 8 C-8.71451591 6.66070495 -7.42141845 5.32871357 -6.125 4 C-5.04605469 2.88625 -5.04605469 2.88625 -3.9453125 1.75 C-2 0 -2 0 0 0 Z " fill="#D3FBFC" transform="translate(210,179)"/>
<path d="M0 0 C0.33 0.66 0.66 1.32 1 2 C-2.32307692 6.8 -2.32307692 6.8 -5.75 7.8125 C-6.4925 7.874375 -7.235 7.93625 -8 8 C-5.58443874 4.80800833 -3.31996462 2.25283313 0 0 Z " fill="#CDF8F8" transform="translate(134,268)"/>
<path d="M0 0 C0.66 0 1.32 0 2 0 C0.68775452 3.93673644 -0.91910327 6.22719294 -4 9 C-3.125 4.25 -3.125 4.25 -2 2 C-1.34 2 -0.68 2 0 2 C0 1.34 0 0.68 0 0 Z " fill="#D4FAFC" transform="translate(395,223)"/>
<path d="M0 0 C0.33 0.99 0.66 1.98 1 3 C-1 5 -1 5 -4.125 5.125 C-5.548125 5.063125 -5.548125 5.063125 -7 5 C-2.25 1.125 -2.25 1.125 0 0 Z " fill="#2EB6D4" transform="translate(301,334)"/>
<path d="M0 0 C0.99 0 1.98 0 3 0 C2.34 2.97 1.68 5.94 1 9 C0.34 9 -0.32 9 -1 9 C-0.835 8.071875 -0.67 7.14375 -0.5 6.1875 C0.07748388 3.04378647 0.07748388 3.04378647 0 0 Z " fill="#23BAD5" transform="translate(332,285)"/>
<path d="M0 0 C0.33 0.99 0.66 1.98 1 3 C0.01 3.33 -0.98 3.66 -2 4 C-1.67 4.99 -1.34 5.98 -1 7 C-2.65 7.33 -4.3 7.66 -6 8 C-4.02 5.36 -2.04 2.72 0 0 Z " fill="#CBF9FD" transform="translate(125,276)"/>
<path d="M0 0 C-1.98 1.32 -3.96 2.64 -6 4 C-7.32 3.34 -8.64 2.68 -10 2 C-8.71211992 1.46987262 -7.41953322 0.9511671 -6.125 0.4375 C-5.40570313 0.14746094 -4.68640625 -0.14257812 -3.9453125 -0.44140625 C-2 -1 -2 -1 0 0 Z " fill="#3CBBCF" transform="translate(371,249)"/>
<path d="M0 0 C2.88437779 1.29299694 4.87219421 2.65941363 7 5 C4.03 4.505 4.03 4.505 1 4 C0.67 2.68 0.34 1.36 0 0 Z " fill="#24B5CE" transform="translate(281,240)"/>
<path d="M0 0 C2.97 0.495 2.97 0.495 6 1 C6 2.65 6 4.3 6 6 C3.97945196 4.35830472 1.97956942 2.69088222 0 1 C0 0.67 0 0.34 0 0 Z " fill="#BFF2F7" transform="translate(263,223)"/>
<path d="M0 0 C3.3 0 6.6 0 10 0 C10 0.99 10 1.98 10 3 C6.7 2.34 3.4 1.68 0 1 C0 0.67 0 0.34 0 0 Z " fill="#CBF9FD" transform="translate(228,201)"/>
</svg>
