<?xml version="1.0" encoding="UTF-8"?>
<svg xmlns="http://www.w3.org/2000/svg" xmlns:xlink="http://www.w3.org/1999/xlink" viewBox="0 0 128 128" version="1.1">
<defs>
<clipPath id="clip1">
  <path d="M 14.078125 19 L 113.917969 19 L 113.917969 109 L 14.078125 109 Z M 14.078125 19 "/>
</clipPath>
</defs>
<g id="surface1">
<rect x="0" y="0" width="128" height="128" style="fill:rgb(32.549021%,84.705883%,41.568628%);fill-opacity:1;stroke:none;"/>
<path style=" stroke:none;fill-rule:nonzero;fill:rgb(0%,26.274511%,35.686275%);fill-opacity:1;" d="M 75.691406 74.679688 L 73.777344 78.007812 C 73.199219 79.007812 72.132812 79.625 70.976562 79.625 L 56.304688 79.625 C 55.148438 79.625 54.082031 79.007812 53.503906 78.007812 L 51.589844 74.679688 Z M 81.054688 65.371094 L 77.675781 71.234375 L 49.605469 71.234375 L 46.226562 65.371094 Z M 77.800781 56.269531 L 81.058594 61.925781 L 46.222656 61.925781 L 49.480469 56.269531 Z M 70.976562 47.664062 C 72.132812 47.664062 73.199219 48.28125 73.777344 49.28125 L 75.816406 52.824219 L 51.464844 52.824219 L 53.503906 49.28125 C 54.082031 48.28125 55.148438 47.664062 56.304688 47.664062 Z M 70.976562 47.664062 "/>
<g clip-path="url(#clip1)" clip-rule="nonzero">
<path style=" stroke:none;fill-rule:nonzero;fill:rgb(0%,16.862746%,23.137255%);fill-opacity:1;" d="M 34.953125 46.121094 C 33.328125 38.238281 32.980469 32.195312 34.03125 27.804688 C 34.65625 25.195312 35.796875 23.066406 37.535156 21.53125 C 39.367188 19.90625 41.6875 19.113281 44.292969 19.113281 C 48.589844 19.113281 53.105469 21.070312 57.933594 24.792969 C 59.902344 26.3125 61.945312 28.144531 64.070312 30.285156 C 64.238281 30.070312 64.429688 29.863281 64.640625 29.675781 C 70.640625 24.328125 75.695312 21.003906 80.015625 19.722656 C 82.585938 18.960938 84.996094 18.890625 87.195312 19.628906 C 89.511719 20.410156 91.359375 22.023438 92.664062 24.28125 C 94.816406 28.011719 95.382812 32.910156 94.582031 38.960938 C 94.253906 41.425781 93.695312 44.113281 92.90625 47.023438 C 93.203125 47.058594 93.5 47.125 93.796875 47.222656 C 101.410156 49.746094 106.800781 52.457031 110.066406 55.558594 C 112.007812 57.402344 113.277344 59.457031 113.734375 61.730469 C 114.21875 64.132812 113.746094 66.539062 112.445312 68.796875 C 110.296875 72.519531 106.347656 75.457031 100.722656 77.78125 C 98.464844 78.714844 95.910156 79.5625 93.054688 80.320312 C 93.183594 80.617188 93.285156 80.929688 93.355469 81.257812 C 94.980469 89.136719 95.328125 95.179688 94.277344 99.570312 C 93.652344 102.179688 92.511719 104.308594 90.773438 105.84375 C 88.941406 107.46875 86.621094 108.261719 84.015625 108.261719 C 79.71875 108.261719 75.203125 106.304688 70.375 102.582031 C 68.382812 101.046875 66.316406 99.195312 64.171875 97.019531 C 63.945312 97.375 63.671875 97.695312 63.359375 97.972656 C 57.359375 103.320312 52.304688 106.644531 47.984375 107.925781 C 45.414062 108.6875 43.003906 108.757812 40.804688 108.019531 C 38.488281 107.238281 36.640625 105.625 35.335938 103.367188 C 33.183594 99.636719 32.617188 94.738281 33.417969 88.6875 C 33.757812 86.132812 34.347656 83.339844 35.183594 80.308594 C 34.847656 80.273438 34.519531 80.203125 34.203125 80.097656 C 26.589844 77.574219 21.199219 74.863281 17.933594 71.761719 C 15.992188 69.917969 14.722656 67.863281 14.265625 65.589844 C 13.78125 63.191406 14.253906 60.785156 15.554688 58.527344 C 17.703125 54.800781 21.652344 51.867188 27.277344 49.539062 C 29.601562 48.578125 32.242188 47.710938 35.199219 46.929688 C 35.09375 46.667969 35.011719 46.398438 34.953125 46.121094 Z M 34.953125 46.121094 "/>
</g>
<path style=" stroke:none;fill-rule:nonzero;fill:rgb(100%,25.490198%,32.941177%);fill-opacity:1;" d="M 88.042969 82.03125 C 88.796875 81.898438 89.523438 82.378906 89.695312 83.128906 L 89.703125 83.171875 L 89.785156 83.589844 C 92.402344 97.347656 90.558594 104.226562 84.253906 104.226562 C 78.085938 104.226562 70.234375 98.355469 60.699219 86.617188 C 60.355469 86.191406 60.28125 85.605469 60.511719 85.109375 C 60.742188 84.609375 61.234375 84.289062 61.785156 84.273438 L 61.828125 84.273438 L 62.332031 84.277344 C 66.34375 84.300781 70.242188 84.160156 74.03125 83.859375 C 78.503906 83.503906 83.175781 82.894531 88.042969 82.03125 Z M 44.75 71.632812 L 44.777344 71.671875 L 45.027344 72.113281 C 47.046875 75.621094 49.148438 78.953125 51.339844 82.105469 C 53.914062 85.820312 56.8125 89.578125 60.03125 93.382812 C 60.527344 93.96875 60.472656 94.84375 59.910156 95.363281 L 59.875 95.398438 L 59.550781 95.675781 C 48.902344 104.800781 41.980469 106.621094 38.785156 101.140625 C 35.660156 95.777344 36.792969 86.019531 42.1875 71.871094 C 42.382812 71.359375 42.847656 71.003906 43.394531 70.953125 C 43.9375 70.902344 44.464844 71.164062 44.75 71.632812 Z M 93.445312 51.332031 L 93.488281 51.34375 L 93.890625 51.484375 C 107.035156 56.054688 112.03125 61.082031 108.871094 66.558594 C 105.785156 71.914062 96.808594 75.816406 81.945312 78.261719 C 81.398438 78.351562 80.84375 78.113281 80.527344 77.65625 C 80.214844 77.195312 80.191406 76.59375 80.476562 76.113281 C 82.605469 72.492188 84.523438 68.890625 86.226562 65.304688 C 88.160156 61.238281 89.976562 56.875 91.675781 52.210938 C 91.929688 51.511719 92.679688 51.121094 93.402344 51.316406 Z M 47.015625 49.027344 C 47.699219 49.429688 47.925781 50.308594 47.523438 50.996094 C 45.394531 54.617188 43.476562 58.21875 41.773438 61.804688 C 39.839844 65.871094 38.023438 70.234375 36.324219 74.894531 C 36.0625 75.617188 35.285156 76.003906 34.554688 75.777344 L 34.511719 75.765625 L 34.109375 75.625 C 20.964844 71.054688 15.96875 66.027344 19.128906 60.550781 C 22.214844 55.191406 31.191406 51.292969 46.054688 48.847656 C 46.382812 48.792969 46.722656 48.859375 47.015625 49.027344 Z M 89.214844 26.507812 C 92.339844 31.871094 91.207031 41.628906 85.8125 55.773438 C 85.617188 56.285156 85.152344 56.644531 84.605469 56.695312 C 84.0625 56.746094 83.535156 56.480469 83.25 56.015625 L 83.222656 55.976562 L 82.972656 55.535156 C 80.953125 52.027344 78.851562 48.695312 76.660156 45.542969 C 74.085938 41.828125 71.1875 38.070312 67.96875 34.265625 C 67.472656 33.679688 67.527344 32.804688 68.089844 32.28125 L 68.125 32.25 L 68.449219 31.972656 C 79.097656 22.847656 86.019531 21.023438 89.214844 26.507812 Z M 44.285156 23.242188 C 50.453125 23.242188 58.304688 29.109375 67.839844 40.851562 C 68.183594 41.277344 68.257812 41.863281 68.027344 42.359375 C 67.796875 42.855469 67.304688 43.179688 66.753906 43.191406 L 66.710938 43.191406 L 66.207031 43.1875 C 62.195312 43.167969 58.296875 43.308594 54.507812 43.609375 C 50.035156 43.964844 45.363281 44.574219 40.496094 45.4375 C 39.742188 45.570312 39.015625 45.089844 38.84375 44.339844 L 38.835938 44.296875 L 38.753906 43.878906 C 36.136719 30.121094 37.980469 23.242188 44.285156 23.242188 Z M 44.285156 23.242188 "/>
<path style=" stroke:none;fill-rule:nonzero;fill:rgb(100%,85.09804%,29.803923%);fill-opacity:1;" d="M 57.484375 47.84375 L 69.800781 47.84375 C 71.601562 47.84375 73.265625 48.804688 74.160156 50.367188 L 80.34375 61.140625 C 81.234375 62.691406 81.234375 64.597656 80.34375 66.148438 L 74.160156 76.921875 C 73.265625 78.484375 71.601562 79.445312 69.800781 79.445312 L 57.484375 79.445312 C 55.683594 79.445312 54.019531 78.484375 53.125 76.921875 L 46.941406 66.148438 C 46.050781 64.597656 46.050781 62.691406 46.941406 61.140625 L 53.125 50.367188 C 54.019531 48.804688 55.683594 47.84375 57.484375 47.84375 Z M 67.921875 51.09375 C 69.722656 51.09375 71.390625 52.058594 72.285156 53.621094 L 76.597656 61.144531 C 77.484375 62.691406 77.484375 64.597656 76.597656 66.144531 L 72.285156 73.667969 C 71.386719 75.230469 69.722656 76.195312 67.921875 76.195312 L 59.363281 76.195312 C 57.558594 76.195312 55.894531 75.230469 55 73.667969 L 50.6875 66.144531 C 49.800781 64.597656 49.800781 62.691406 50.6875 61.144531 L 55 53.621094 C 55.894531 52.058594 57.558594 51.09375 59.363281 51.09375 Z M 65.898438 54.652344 L 61.386719 54.652344 C 59.585938 54.652344 57.921875 55.613281 57.023438 57.175781 L 54.746094 61.140625 C 53.855469 62.691406 53.855469 64.597656 54.746094 66.148438 L 57.023438 70.113281 C 57.921875 71.675781 59.585938 72.636719 61.386719 72.636719 L 65.898438 72.636719 C 67.699219 72.636719 69.363281 71.675781 70.257812 70.113281 L 72.539062 66.148438 C 73.429688 64.597656 73.429688 62.691406 72.539062 61.140625 L 70.257812 57.175781 C 69.363281 55.613281 67.699219 54.652344 65.898438 54.652344 Z M 63.953125 58.054688 C 65.75 58.054688 67.414062 59.015625 68.308594 60.574219 L 68.632812 61.136719 C 69.527344 62.6875 69.527344 64.601562 68.632812 66.152344 L 68.308594 66.714844 C 67.414062 68.273438 65.75 69.234375 63.953125 69.234375 L 63.332031 69.234375 C 61.535156 69.234375 59.871094 68.273438 58.976562 66.714844 L 58.652344 66.152344 C 57.757812 64.601562 57.757812 62.6875 58.652344 61.136719 L 58.976562 60.574219 C 59.871094 59.015625 61.535156 58.054688 63.332031 58.054688 Z M 63.644531 61.410156 C 62.84375 61.410156 62.105469 61.835938 61.703125 62.527344 C 61.304688 63.21875 61.304688 64.070312 61.703125 64.761719 C 62.105469 65.453125 62.84375 65.878906 63.640625 65.878906 C 64.441406 65.878906 65.179688 65.453125 65.582031 64.761719 C 65.980469 64.070312 65.980469 63.21875 65.582031 62.527344 C 65.179688 61.835938 64.441406 61.410156 63.644531 61.410156 Z M 45.503906 63.644531 L 49.53125 63.644531 "/>
</g>
</svg>
