<?xml version="1.0" encoding="UTF-8"?>
<svg xmlns="http://www.w3.org/2000/svg" xmlns:xlink="http://www.w3.org/1999/xlink" viewBox="0 0 128 128" version="1.1">
<g id="surface1">
<rect x="0" y="0" width="128" height="128" style="fill:rgb(26.666668%,24.705882%,83.137256%);fill-opacity:1;stroke:none;"/>
<path style=" stroke:none;fill-rule:nonzero;fill:rgb(100%,100%,100%);fill-opacity:1;" d="M 73.601562 69.761719 L 56.960938 69.761719 L 56.960938 117.121094 L 45.441406 117.121094 L 45.441406 69.761719 L 28.160156 69.761719 C 28.046875 66.265625 28.160156 63.398438 28.164062 59.445312 L 73.601562 59.519531 Z M 105.28125 60.101562 C 109.003906 61.523438 112.722656 65.976562 113.921875 67.453125 C 112.949219 68.324219 106.734375 73.011719 105.835938 73.707031 C 105.371094 73.386719 104.277344 72.46875 102.847656 71.359375 C 100.847656 69.804688 100.097656 69.117188 98.046875 69.117188 C 93.183594 69.117188 90.496094 73.472656 93.054688 77.183594 C 93.566406 77.886719 97.855469 80.382812 102.589844 82.75 C 114.816406 88.765625 117.757812 92.414062 117.757812 101.503906 C 117.695312 108.097656 114.367188 112.960938 107.839844 115.96875 C 105.496094 116.8125 103.550781 117.441406 98.238281 117.375 C 90.75 117.375 85.375 115.199219 82.046875 112.320312 C 78.972656 109.332031 77.171875 105.894531 76.863281 105.34375 C 77.367188 105.019531 79.167969 103.9375 81.597656 102.527344 L 86.066406 99.867188 L 88.191406 102.335938 C 93.695312 108.992188 105.597656 108.097656 105.597656 101.054688 C 105.597656 98.046875 102.976562 95.742188 96.765625 93.183594 C 94.398438 92.222656 90.945312 90.496094 89.085938 89.40625 C 76.925781 82.175781 77.246094 65.792969 89.597656 60.222656 C 93.246094 58.558594 100.214844 57.871094 105.28125 60.097656 Z M 105.28125 60.101562 "/>
</g>
</svg>
