<?xml version="1.0" encoding="UTF-8"?>
<svg version="1.1" xmlns="http://www.w3.org/2000/svg" width="800" height="800">
<path d="M0 0 C264 0 528 0 800 0 C800 264 800 528 800 800 C536 800 272 800 0 800 C0 536 0 272 0 0 Z " fill="#433FD4" transform="translate(0,0)"/>
<path d="M0 0 C1.30638428 -0.00547852 2.61276855 -0.01095703 3.95874023 -0.01660156 C15.09613594 0.06499623 25.93013936 1.24305372 36.625 4.4375 C37.68485107 4.75400513 37.68485107 4.75400513 38.76611328 5.0769043 C56.75155178 10.7425371 70.8441106 21.43531563 84.3125 34.3125 C85.11816406 35.07691406 85.92382812 35.84132813 86.75390625 36.62890625 C92.4245177 42.14172678 97.41050776 48.11258073 102.3125 54.3125 C93.68136616 63.11108088 83.7531802 70.28211657 73.89526367 77.62866211 C66.60330538 83.06924071 59.42908689 88.64515183 52.3125 94.3125 C46.8534331 90.9693505 41.94084633 87.2085866 37.125 83 C25.02458381 72.53613019 14.25291345 65.71926833 -2.15234375 66 C-12.33394571 66.90003111 -20.78856115 71.70487495 -27.5 79.3125 C-31.5113028 84.81371527 -33.22859559 89.24476795 -33.125 96.0625 C-33.11255249 97.11703369 -33.11255249 97.11703369 -33.09985352 98.19287109 C-32.89186863 104.64262301 -32.01969868 110.96466263 -27.28295898 115.72363281 C-22.84216218 119.69741444 -17.9979293 122.79730205 -12.875 125.8125 C-12.01680664 126.32167969 -11.15861328 126.83085937 -10.27441406 127.35546875 C4.98127264 136.31472735 20.6363652 144.5508602 36.5 152.375 C71.00837351 169.43886234 108.40158267 189.48610169 122.21484375 227.81640625 C130.59166229 255.11399901 128.37550557 287.74039994 115.859375 313.27734375 C102.22613329 338.45913244 78.03983355 354.94137115 51.0546875 363.01171875 C45.50193226 364.57472459 40.06440425 365.78465993 34.3125 366.3125 C33.20261719 366.42078125 32.09273437 366.5290625 30.94921875 366.640625 C-12.521817 370.07136095 -59.09048206 365.68154967 -94.5 337.9375 C-105.48798676 328.50533438 -113.72185509 317.29966338 -121.6875 305.3125 C-122.30310791 304.38679199 -122.30310791 304.38679199 -122.93115234 303.44238281 C-127.49504619 296.46689705 -127.49504619 296.46689705 -128.6875 293.3125 C-127.4268673 289.43392761 -125.2655653 288.16562853 -121.7890625 286.23828125 C-120.76474121 285.66086182 -119.74041992 285.08344238 -118.68505859 284.48852539 C-117.57211426 283.87356201 -116.45916992 283.25859863 -115.3125 282.625 C-112.96181166 281.29980983 -110.61265902 279.97224344 -108.265625 278.640625 C-107.65500214 278.29524185 -107.04437927 277.9498587 -106.41525269 277.5940094 C-99.20861184 273.50211306 -92.13469435 269.19376526 -85.0625 264.875 C-84.43869446 264.49461578 -83.81488892 264.11423157 -83.17218018 263.72232056 C-79.67486391 261.58965971 -76.17996178 259.45310483 -72.6875 257.3125 C-68.73946908 260.4540046 -65.54202895 263.488996 -62.4375 267.5 C-48.41626301 284.88633387 -30.31554544 297.11555804 -7.73388672 300.1015625 C9.35695148 301.86325234 25.58052647 299.47308913 39.75 289 C46.90236867 281.4987353 49.82770899 272.64305395 49.625 262.40625 C48.68535122 253.10372704 43.78834266 245.27578649 36.890625 239.16796875 C23.40220714 228.53000383 8.09868176 221.65725046 -7.64941406 215.05981445 C-32.0528329 204.75858594 -55.95752227 193.25138755 -75.6875 175.3125 C-76.33847656 174.74402344 -76.98945312 174.17554688 -77.66015625 173.58984375 C-94.58732688 157.94321558 -107.67604957 131.9583487 -108.80834961 108.84570312 C-109.71822537 77.41854033 -101.84008655 52.52648056 -80.0625 29.3125 C-66.60991153 16.33101385 -49.82682933 7.50785326 -31.6875 3.3125 C-30.58535156 3.01472656 -29.48320313 2.71695312 -28.34765625 2.41015625 C-18.95435142 0.19696716 -9.61406203 0.02106131 0 0 Z " fill="#FDFDFE" transform="translate(609.6875,366.6875)"/>
<path d="M0 0 C93.72 0 187.44 0 284 0 C284 21.12 284 42.24 284 64 C249.68 64 215.36 64 180 64 C180 161.68 180 259.36 180 360 C156.24 360 132.48 360 108 360 C108 262.32 108 164.64 108 64 C72.36 64 36.72 64 0 64 C0 42.88 0 21.76 0 0 Z " fill="#FEFEFE" transform="translate(176,372)"/>
<path d="M0 0 C0.7417749 0.00008057 1.4835498 0.00016113 2.24780273 0.00024414 C4.49091996 -0.00192732 6.73353338 -0.02003493 8.9765625 -0.0390625 C10.41080561 -0.04199945 11.84505106 -0.04398223 13.27929688 -0.04492188 C14.58213623 -0.04903076 15.88497559 -0.05313965 17.22729492 -0.05737305 C20.77218095 0.18164312 23.53371784 0.90042795 26.83007812 2.18554688 C26.83007812 2.51554687 26.83007812 2.84554688 26.83007812 3.18554688 C25.76273438 3.16983643 24.69539062 3.15412598 23.59570312 3.13793945 C19.55509283 3.08276667 15.51451415 3.04888657 11.47363281 3.02075195 C9.73985152 3.00586078 8.00610651 2.98554101 6.27246094 2.95922852 C-4.15919638 2.80511075 -13.79153288 3.29791533 -23.98242188 5.63354492 C-26.90514084 6.13969287 -28.44114666 6.21438041 -31.16992188 5.18554688 C-25.48186389 2.71714435 -20.58329522 1.75413241 -14.39257812 1.39648438 C-9.75300188 0.9561731 -5.13334707 0.01765594 0 0 Z " fill="#4E4BC0" transform="translate(605.169921875,364.814453125)"/>
<path d="M0 0 C0.99 0.33 1.98 0.66 3 1 C2.72968043 4.4540834 2.30770849 5.71850177 -0.29296875 8.09765625 C-1.24816406 8.74605469 -2.20335937 9.39445312 -3.1875 10.0625 C-4.18265625 10.74957031 -5.1778125 11.43664062 -6.203125 12.14453125 C-8.27678538 13.52021377 -10.35304052 14.89080349 -12.4375 16.25 C-14.94150367 17.96005128 -16.94094924 19.78256072 -19 22 C-19.99 21.67 -20.98 21.34 -22 21 C-21.48091064 20.60208252 -20.96182129 20.20416504 -20.42700195 19.79418945 C-18.05261063 17.9706887 -15.6825401 16.141652 -13.3125 14.3125 C-12.49587891 13.68666016 -11.67925781 13.06082031 -10.83789062 12.41601562 C-6.61720089 9.1522434 -2.65361034 5.89172751 1 2 C0.67 1.34 0.34 0.68 0 0 Z " fill="#524EC2" transform="translate(710,419)"/>
<path d="M0 0 C0.33 0.66 0.66 1.32 1 2 C-3.19304584 6.31284715 -7.30971186 10.10570668 -12.5625 13.0625 C-15.24383817 14.5737997 -17.60672137 16.0853771 -20 18 C-20.66 17.67 -21.32 17.34 -22 17 C-21.16597656 16.35933594 -20.33195313 15.71867187 -19.47265625 15.05859375 C-12.96645691 10.0585936 -6.46897982 5.04814446 0 0 Z " fill="#524EC2" transform="translate(685,442)"/>
<path d="M0 0 C0.66 0.33 1.32 0.66 2 1 C1.2368139 2.60781893 0.46412942 4.21113138 -0.3125 5.8125 C-0.74175781 6.70582031 -1.17101562 7.59914063 -1.61328125 8.51953125 C-2.89275024 10.80815888 -4.11380328 12.22506769 -6 14 C-6.4640625 15.051875 -6.4640625 15.051875 -6.9375 16.125 C-8 18 -8 18 -10.06640625 18.6171875 C-10.70449219 18.74351562 -11.34257813 18.86984375 -12 19 C-11.45472656 18.19949219 -11.45472656 18.19949219 -10.8984375 17.3828125 C-7.06490764 11.70132466 -3.4769019 5.90580146 0 0 Z " fill="#544FC2" transform="translate(726,677)"/>
<path d="M0 0 C0.33 0.66 0.66 1.32 1 2 C-2.93076536 8.42025008 -7.69484683 11.97204778 -14 16 C-14.66 15.67 -15.32 15.34 -16 15 C-15.09636719 14.25234375 -14.19273437 13.5046875 -13.26171875 12.734375 C-12.07012082 11.73981295 -10.87872518 10.74500849 -9.6875 9.75 C-9.09259766 9.25886719 -8.49769531 8.76773438 -7.88476562 8.26171875 C-4.85046033 5.71900482 -2.20088486 3.33708173 0 0 Z " fill="#5350C2" transform="translate(713,696)"/>
<path d="M0 0 C0.33 0 0.66 0 1 0 C1.02688151 1.64574566 1.04634123 3.29161413 1.0625 4.9375 C1.07410156 5.85402344 1.08570313 6.77054688 1.09765625 7.71484375 C1 10 1 10 0 11 C-0.36760731 13.32817964 -0.70241581 15.6618385 -1 18 C-3.60734051 14.08898924 -2.91421905 12.44160875 -2.1875 7.875 C-1.89939453 5.98394531 -1.89939453 5.98394531 -1.60546875 4.0546875 C-1 1 -1 1 0 0 Z " fill="#5554C4" transform="translate(736,643)"/>
<path d="M0 0 C0.99 0.495 0.99 0.495 2 1 C3.68151936 6.71716583 3.66120738 11.67758524 1 17 C0.67 11.39 0.34 5.78 0 0 Z " fill="#5C58C7" transform="translate(734,604)"/>
<path d="M0 0 C4.58716587 4.44381694 8.78762713 9.20228499 13 14 C10 14 10 14 8 13 C7 11.33333333 6 9.66666667 5 8 C4.11966653 6.92462258 3.22328165 5.86221444 2.3125 4.8125 C0 2 0 2 0 0 Z " fill="#524DC0" transform="translate(496,684)"/>
<path d="M0 0 C3 1 3 1 4.9375 3.5 C6.7057375 6.15693693 6.7057375 6.15693693 9.125 6.5 C9.74375 6.665 10.3625 6.83 11 7 C12.1171875 9.53125 12.1171875 9.53125 13 12 C3.24094147 5.93186745 3.24094147 5.93186745 0 1 C0 0.67 0 0.34 0 0 Z " fill="#524CBF" transform="translate(579,478)"/>
<path d="M0 0 C5.40489519 1.52012677 8.98492628 5.27385218 13 9 C12.67 9.66 12.34 10.32 12 11 C9.99702215 9.35767739 7.99756092 7.71138756 6 6.0625 C5.42765625 5.59392578 4.8553125 5.12535156 4.265625 4.64257812 C2.82502935 3.45065672 1.41025129 2.22767412 0 1 C0 0.67 0 0.34 0 0 Z " fill="#524DBF" transform="translate(676,385)"/>
<path d="M0 0 C5.00918744 1.47329042 7.51807722 4.27515238 11 8 C10.67 8.66 10.34 9.32 10 10 C8.33037631 8.52417192 6.6643694 7.04425109 5 5.5625 C4.071875 4.73878906 3.14375 3.91507813 2.1875 3.06640625 C1.465625 2.38449219 0.74375 1.70257812 0 1 C0 0.67 0 0.34 0 0 Z " fill="#5450C1" transform="translate(702,553)"/>
<path d="M0 0 C3.5875213 1.33250791 6.8364623 2.830717 10 5 C10 5.66 10 6.32 10 7 C10.66 7 11.32 7 12 7 C11.67 7.66 11.34 8.32 11 9 C9.16384919 7.69144447 7.33114211 6.37805538 5.5 5.0625 C4.4790625 4.33160156 3.458125 3.60070312 2.40625 2.84765625 C1.6121875 2.23792969 0.818125 1.62820313 0 1 C0 0.67 0 0.34 0 0 Z " fill="#5651BF" transform="translate(690,544)"/>
<path d="M0 0 C3.63 1.65 7.26 3.3 11 5 C10.34 5.66 9.68 6.32 9 7 C7.68176698 6.40844669 6.37052949 5.80128537 5.0625 5.1875 C4.33160156 4.85105469 3.60070312 4.51460937 2.84765625 4.16796875 C1 3 1 3 0 0 Z " fill="#5552C1" transform="translate(572,567)"/>
<path d="M0 0 C1 2 1 2 0.22265625 4.3828125 C-0.16019531 5.28773438 -0.54304687 6.19265625 -0.9375 7.125 C-1.31777344 8.03507812 -1.69804688 8.94515625 -2.08984375 9.8828125 C-2.39019531 10.58148438 -2.69054687 11.28015625 -3 12 C-3.66 12 -4.32 12 -5 12 C-4.42365861 7.24518354 -2.44931479 4.02951788 0 0 Z " fill="#5B59C7" transform="translate(581,446)"/>
<path d="M0 0 C0 0.66 0 1.32 0 2 C-2.82847776 4.61896089 -5.21213403 5.4739075 -9 6 C-8 3 -8 3 -5.0625 1.3125 C-2 0 -2 0 0 0 Z " fill="#5753C5" transform="translate(599,434)"/>
<path d="M0 0 C5.57142857 5.14285714 5.57142857 5.14285714 6 9 C5.34 9 4.68 9 4 9 C0 2.25 0 2.25 0 0 Z " fill="#514BBF" transform="translate(651,611)"/>
</svg>
